<svg xmlns="http://www.w3.org/2000/svg" width="316.465" height="176.955" viewBox="0 0 316.465 176.955">
  <g id="Group_4594" data-name="Group 4594" transform="translate(-827 -407.306)">
    <path id="Path_1917" data-name="Path 1917" d="M307.509,158.021H198.36c.29,0,.571-.017.853-.041a8.95,8.95,0,0,1,0-17.821c-.281-.025-.563-.041-.853-.041h29.955a8.956,8.956,0,1,0,0-17.912h1.018c-2.657,0-6.663-4.006-6.663-8.956a8.95,8.95,0,0,1,8.451-8.931c-.166-.008-.339-.025-.5-.025h20.32a8.956,8.956,0,0,0,0-17.912H182.989a8.956,8.956,0,0,1,0-17.912h71.464a8.956,8.956,0,1,0,0-17.912H156.379a8.956,8.956,0,1,0,0,17.912H139.791a8.956,8.956,0,1,0,0,17.912H53.611a8.956,8.956,0,1,0,0,17.912H84.9a8.956,8.956,0,0,1,0,17.912H56.176a8.956,8.956,0,0,0,0,17.912h2.93a8.951,8.951,0,0,1,3.319,17.266H17.87a8.211,8.211,0,1,0,0,16.422H71.05a8.956,8.956,0,0,1,0,17.912H8.956a8.943,8.943,0,1,0,0,17.887H109.712a8.941,8.941,0,0,0,4.238,1.068h7.5a8.955,8.955,0,0,0,4.238,16.844h98.058a8.956,8.956,0,0,0,0-17.912h34.631a8.956,8.956,0,1,0,0-17.912H159.093c.157,0,.315-.017.472-.025a8.938,8.938,0,0,1,5.347-15.726c-.008-.008-.025-.017-.033-.025h142.63a8.947,8.947,0,1,0,0-17.895ZM151.793,104.965c.215.017.422.033.646.033h-1.283C151.371,105,151.578,104.973,151.793,104.965Zm.637-19.3c-.215,0-.43.017-.646.033-.215-.017-.422-.033-.637-.033Z" transform="translate(827 356.746)" fill="#c6c6c6" opacity="0.5"/>
    <g id="Group_4593" data-name="Group 4593" transform="translate(911 430.5)">
      <path id="Path_2441" data-name="Path 2441" d="M282.987,84.478,239.223,14.341A30.278,30.278,0,0,0,213.389,0L196,65.5,213.389,131h43.763a30.437,30.437,0,0,0,25.834-46.522Zm0,0" transform="translate(-139.195)"/>
      <path id="Path_2442" data-name="Path 2442" d="M48.361,14.341,4.6,84.478A30.437,30.437,0,0,0,30.431,131H74.195V0A30.278,30.278,0,0,0,48.361,14.341Zm0,0" fill="#292c32"/>
      <path id="Path_2443" data-name="Path 2443" d="M257.581,136.294,213.818,66.158A12.99,12.99,0,0,0,202.737,60L181,108.111l21.737,48.111H246.5a13.057,13.057,0,0,0,13.042-13.042A12.821,12.821,0,0,0,257.581,136.294Zm0,0" transform="translate(-128.542 -42.611)" fill="#ffa433"/>
      <path id="Path_2444" data-name="Path 2444" d="M105.724,66.156,61.962,136.294A12.81,12.81,0,0,0,60,143.179a13.057,13.057,0,0,0,13.042,13.042h43.763V60A12.992,12.992,0,0,0,105.724,66.156Zm0,0" transform="translate(-42.611 -42.611)" fill="#ffc43b"/>
      <path id="Path_2445" data-name="Path 2445" d="M253.246,165H248.9L246,180.361l2.9,15.361h4.347Zm0,0" transform="translate(-174.704 -117.179)"/>
      <path id="Path_2446" data-name="Path 2446" d="M241,165h4.347v30.721H241Zm0,0" transform="translate(-171.153 -117.179)" fill="#292c32"/>
      <path id="Path_2447" data-name="Path 2447" d="M253.246,301H248.9l-2.9,4.347,2.9,4.347h4.347Zm0,0" transform="translate(-174.704 -213.763)"/>
      <path id="Path_2448" data-name="Path 2448" d="M241,301h4.347v8.695H241Zm0,0" transform="translate(-171.153 -213.763)" fill="#292c32"/>
    </g>
  </g>
</svg>
