<svg xmlns="http://www.w3.org/2000/svg" width="26" height="26" viewBox="0 0 26 26">
  <path id="Icon_ionic-ios-help-circle" data-name="Icon ionic-ios-help-circle" d="M16.375,3.375a13,13,0,1,0,13,13A13,13,0,0,0,16.375,3.375Zm-.269,19a1.289,1.289,0,1,1,1.344-1.288A1.305,1.305,0,0,1,16.106,22.375Zm2.513-6.056c-1.088.631-1.456,1.094-1.456,1.894v.494H14.994l-.019-.538a2.6,2.6,0,0,1,1.475-2.75c1.056-.631,1.5-1.031,1.5-1.806a1.517,1.517,0,0,0-1.681-1.344,1.581,1.581,0,0,0-1.675,1.537H12.375c.044-2.012,1.531-3.438,4.044-3.438,2.344,0,3.956,1.3,3.956,3.169A3.059,3.059,0,0,1,18.619,16.319Z" transform="translate(-3.375 -3.375)" fill="#5f6a79"/>
</svg>
