<svg xmlns="http://www.w3.org/2000/svg" xmlns:xlink="http://www.w3.org/1999/xlink" width="203.534" height="176.894" viewBox="0 0 203.534 176.894">
  <defs>
    <clipPath id="clip-path">
      <rect width="203.534" height="176.894" fill="none"/>
    </clipPath>
  </defs>
  <g id="Repeat_Grid_1" data-name="Repeat Grid 1" clip-path="url(#clip-path)">
    <g id="Group_2495" data-name="Group 2495" transform="translate(0 0.615)">
      <path id="Path_1917" data-name="Path 1917" d="M197.774,119.673h-70.2c.186,0,.367-.011.548-.027a5.756,5.756,0,0,1,0-11.461c-.181-.016-.362-.027-.548-.027H146.84a5.76,5.76,0,1,0,0-11.52h.655c-1.709,0-4.285-2.577-4.285-5.76a5.756,5.756,0,0,1,5.435-5.744c-.106-.005-.218-.016-.325-.016h13.069a5.76,5.76,0,1,0,0-11.52h-43.7a5.76,5.76,0,0,1,0-11.52h45.962a5.76,5.76,0,1,0,0-11.52H100.574a5.76,5.76,0,1,0,0,11.52H89.906a5.76,5.76,0,1,0,0,11.52H34.479a5.76,5.76,0,1,0,0,11.52H54.6a5.76,5.76,0,0,1,0,11.52H36.13a5.76,5.76,0,0,0,0,11.52h1.884a5.757,5.757,0,0,1,2.135,11.1H11.493a5.281,5.281,0,0,0,0,10.562H45.7a5.76,5.76,0,1,1,0,11.52H5.76a5.752,5.752,0,1,0,0,11.5h64.8a5.75,5.75,0,0,0,2.726.687H78.11a5.759,5.759,0,0,0,2.726,10.833H143.9a5.76,5.76,0,0,0,0-11.52h22.273a5.76,5.76,0,0,0,0-11.52H102.321c.1,0,.2-.011.3-.016a5.749,5.749,0,0,1,3.439-10.114c-.005-.005-.016-.011-.021-.016h91.732a5.755,5.755,0,1,0,0-11.509ZM97.625,85.551c.138.011.271.021.415.021h-.825C97.354,85.572,97.487,85.556,97.625,85.551Zm.41-12.414c-.138,0-.277.011-.415.021-.138-.011-.271-.021-.41-.021Z" transform="translate(0 -23.016)" fill="#c6c6c6" opacity="0.5"/>
      <path id="Path_1918" data-name="Path 1918" d="M197.684,302.28c0,5.542-30.9,10.04-69.012,10.04S59.66,307.827,59.66,302.28s30.9-10.04,69.012-10.04S197.684,296.733,197.684,302.28Z" transform="translate(-27.901 -136.04)" fill="#c6c6c6"/>
      <g id="Group_2493" data-name="Group 2493" transform="translate(12.603 1.346)">
        <circle id="Ellipse_116" data-name="Ellipse 116" cx="37.194" cy="37.194" r="37.194" transform="translate(0 131.501) rotate(-67.5)" stroke-dasharray="4.625" stroke="#552a68" stroke-linecap="round" stroke-linejoin="round" stroke-miterlimit="10" stroke-width="2.274" fill="none"/>
        <g id="Group_2489" data-name="Group 2489" transform="translate(21.627)">
          <rect id="Rectangle_1101" data-name="Rectangle 1101" width="37.194" height="54.208" transform="translate(6.445 40.421) rotate(-56.515)" stroke-width="2.692" stroke="#552a68" stroke-linecap="round" stroke-linejoin="round" stroke-miterlimit="10" fill="#fed588"/>
          <g id="Group_2487" data-name="Group 2487" transform="translate(28.627 6.111)">
            <path id="Path_1919" data-name="Path 1919" d="M150.306,73.547a3.9,3.9,0,0,1-5.4,1.1L119.824,58.061a3.9,3.9,0,0,1-1.1-5.4l25.2-38.083a3.9,3.9,0,0,1,5.4-1.1L174.4,30.06a3.9,3.9,0,0,1,1.1,5.4Z" transform="translate(-118.076 -12.826)" fill="#fff" stroke="#552a68" stroke-linecap="round" stroke-linejoin="round" stroke-miterlimit="10" stroke-width="2.692"/>
            <line id="Line_1" data-name="Line 1" x2="26.01" y2="17.205" transform="translate(25.554 8.232)" fill="#fed588" stroke="#552a68" stroke-linecap="round" stroke-linejoin="round" stroke-miterlimit="10" stroke-width="2.356"/>
            <line id="Line_2" data-name="Line 2" x2="26.01" y2="17.205" transform="translate(20.79 14.428)" fill="#fed588" stroke="#552a68" stroke-linecap="round" stroke-linejoin="round" stroke-miterlimit="10" stroke-width="2.356"/>
            <line id="Line_3" data-name="Line 3" x2="26.01" y2="17.21" transform="translate(17 20.151)" fill="#fed588" stroke="#552a68" stroke-linecap="round" stroke-linejoin="round" stroke-miterlimit="10" stroke-width="2.356"/>
          </g>
          <g id="Group_2488" data-name="Group 2488" transform="translate(9.969)">
            <path id="Path_1920" data-name="Path 1920" d="M115.256,62.072a3.9,3.9,0,0,1-5.4,1.1L84.774,46.581a3.9,3.9,0,0,1-1.1-5.4l25.19-38.083a3.9,3.9,0,0,1,5.4-1.1L139.344,18.58a3.9,3.9,0,0,1,1.1,5.4Z" transform="translate(-83.026 -1.346)" fill="#fff" stroke="#552a68" stroke-linecap="round" stroke-linejoin="round" stroke-miterlimit="10" stroke-width="2.692"/>
            <line id="Line_4" data-name="Line 4" x2="26.01" y2="17.21" transform="translate(25.554 8.232)" fill="#fed588" stroke="#552a68" stroke-linecap="round" stroke-linejoin="round" stroke-miterlimit="10" stroke-width="2.356"/>
            <line id="Line_5" data-name="Line 5" x2="26.015" y2="17.205" transform="translate(20.785 14.428)" fill="#fed588" stroke="#552a68" stroke-linecap="round" stroke-linejoin="round" stroke-miterlimit="10" stroke-width="2.356"/>
            <line id="Line_6" data-name="Line 6" x2="26.01" y2="17.205" transform="translate(17 20.156)" fill="#fed588" stroke="#552a68" stroke-linecap="round" stroke-linejoin="round" stroke-miterlimit="10" stroke-width="2.356"/>
          </g>
          <path id="Path_1921" data-name="Path 1921" d="M110.73,32.5l2.8-4.243L87.276,10.89,64.3,45.62l46.372,30.673L130.842,45.8Z" transform="translate(-64.3 -5.809)" fill="#fed588" stroke="#552a68" stroke-linecap="round" stroke-linejoin="round" stroke-miterlimit="10" stroke-width="2.692"/>
          <path id="Path_1922" data-name="Path 1922" d="M126.514,68.878a38,38,0,0,1-49.161,6.761,36.635,36.635,0,0,1-9.614-9.279l-3.439,5.2,46.372,30.673,20.17-30.492Z" transform="translate(-64.3 -31.751)" fill="#fed588"/>
        </g>
        <g id="Group_2491" data-name="Group 2491" transform="translate(51.123 86.209)">
          <rect id="Rectangle_1102" data-name="Rectangle 1102" width="15.512" height="30.641" transform="translate(78.146 25.192) rotate(-22.351)" stroke-width="4.766" stroke="#552a68" stroke-linecap="round" stroke-linejoin="round" stroke-miterlimit="10" fill="none"/>
          <rect id="Rectangle_1103" data-name="Rectangle 1103" width="64.684" height="80.005" transform="translate(0.005)" stroke-width="4.766" stroke="#552a68" stroke-linecap="round" stroke-linejoin="round" stroke-miterlimit="10" fill="#fed588"/>
          <path id="Path_1923" data-name="Path 1923" d="M170.958,163.29a47.692,47.692,0,0,1,5.558,22.321c0,26.526-22.14,48.666-48.672,48.666a47.211,47.211,0,0,1-8.134-.708v9.72h64.684v-80Z" transform="translate(-119.71 -163.29)" fill="#fed588"/>
          <rect id="Rectangle_1104" data-name="Rectangle 1104" width="14.756" height="78.301" transform="translate(60.685 6.607) rotate(-22.351)" stroke-width="4.766" stroke="#552a68" stroke-linecap="round" stroke-linejoin="round" stroke-miterlimit="10" fill="#fed588"/>
          <g id="Group_2490" data-name="Group 2490" transform="translate(14.187 0.756)">
            <line id="Line_7" data-name="Line 7" y2="77.929" stroke-width="4.766" stroke="#552a68" stroke-linecap="round" stroke-linejoin="round" stroke-miterlimit="10" fill="none"/>
            <line id="Line_8" data-name="Line 8" y2="77.929" transform="translate(18.158)" fill="none" stroke="#552a68" stroke-linecap="round" stroke-linejoin="round" stroke-miterlimit="10" stroke-width="4.766"/>
            <line id="Line_9" data-name="Line 9" y2="77.929" transform="translate(36.316)" fill="none" stroke="#552a68" stroke-linecap="round" stroke-linejoin="round" stroke-miterlimit="10" stroke-width="4.766"/>
          </g>
        </g>
        <path id="Path_1924" data-name="Path 1924" stroke="#b91824" d="M97.14,1.62s24.684,36.769,22.1,75.267" fill="none" transform="translate(-58.031 -1.474)" stroke-linecap="round" stroke-linejoin="round" stroke-miterlimit="10" stroke-width="3.036" stroke-dasharray="6.174"/>
        <path id="Path_1925" data-name="Path 1925" stroke="#b91824" d="M131.475,58.025S87.456,53.117,54.51,73.2" fill="none" transform="translate(-38.095 -27.605)" stroke-linecap="round" stroke-linejoin="round" stroke-miterlimit="10" stroke-width="3.036" stroke-dasharray="6.174"/>
        <g id="Group_2492" data-name="Group 2492" transform="translate(99.071 34.609)">
          <path id="Path_1926" data-name="Path 1926" stroke="#552a68" d="M214.9,108.8s17.045-16.439,6.644-42.443" fill="none" transform="translate(-212.174 -66.36)" stroke-linecap="round" stroke-linejoin="round" stroke-miterlimit="10" stroke-width="3.036" stroke-dasharray="6.174"/>
          <path id="Path_1927" data-name="Path 1927" stroke="#552a68" d="M210.227,141.56l-.447,6.117,6.09-1.794.836-.447" fill="none" transform="translate(-209.78 -101.528)" stroke-linecap="round" stroke-linejoin="round" stroke-miterlimit="10" stroke-width="3.036" stroke-dasharray="6.174"/>
        </g>
      </g>
      <g id="Group_2494" data-name="Group 2494" transform="translate(9.114 72.138)">
        <path id="Path_1928" data-name="Path 1928" d="M308.757,161.944l-6.851-2.055v-.069l-2.034-7.08-2.124,7.08h-.128l-7.08,2.028,7.064,2.119,1.954,6.8,2.055-6.862h.064v.064Z" transform="translate(-144.988 -142.94)" fill="#fff"/>
        <path id="Path_1929" data-name="Path 1929" d="M78.5,262.469l-3.173-.958v-.027l-.942-3.285-.985,3.285h-.059l-3.279.937,3.274.985.9,3.151.953-3.178h.032v.027Z" transform="translate(-41.878 -192.259)" fill="#fff"/>
        <path id="Path_1930" data-name="Path 1930" d="M238.9,267.092l-6.031-1.81v-.059l-1.789-6.234-1.868,6.234h-.117l-6.234,1.789,6.223,1.863,1.714,5.989,1.815-6.042h.059v.059Z" transform="translate(-113.337 -192.629)" fill="#fff"/>
        <path id="Path_1931" data-name="Path 1931" d="M159.375,254.443l-3.215-.969v-.032l-.953-3.322-1,3.322h-.059l-3.327.958,3.322.99.916,3.2.964-3.226h.032v.032Z" transform="translate(-79.647 -188.481)" fill="#fff"/>
        <path id="Path_1932" data-name="Path 1932" d="M82.809,144.961l-7.916-2.374v-.075l-2.348-8.182-2.454,8.182h-.149l-8.182,2.342,8.166,2.449,2.252,7.857,2.38-7.926h.075v.075Z" transform="translate(-37.996 -134.33)" fill="#fff"/>
        <path id="Path_1933" data-name="Path 1933" d="M25.669,200.517l-3.215-.964v-.032L21.5,196.2l-1,3.322h-.059l-3.322.953,3.316,1,.916,3.194.964-3.221h.032v.027Z" transform="translate(-17.12 -163.264)" fill="#fff"/>
      </g>
    </g>
  </g>
</svg>
