<svg xmlns="http://www.w3.org/2000/svg" width="33.38" height="38.879" viewBox="0 0 33.38 38.879">
  <g id="notification_1_" data-name="notification(1)" transform="translate(-0.5)">
    <path id="Path_2411" data-name="Path 2411" d="M146.3,396.8a4.554,4.554,0,1,0-4.554,4.546A4.55,4.55,0,0,0,146.3,396.8Zm0,0" transform="translate(-126.312 -362.471)" fill="#f7c92b"/>
    <path id="Path_2412" data-name="Path 2412" d="M181.054,392.258a4.555,4.555,0,0,0-1.324.2,4.545,4.545,0,0,1,0,8.7,4.548,4.548,0,1,0,1.324-8.9Zm0,0" transform="translate(-165.62 -362.471)" fill="#f2b51d"/>
    <path id="Path_2413" data-name="Path 2413" d="M164.818,37.708a2.7,2.7,0,1,1,2.116-3.175A2.7,2.7,0,0,1,164.818,37.708Zm0,0" transform="translate(-148.853 -29.91)" fill="#f7c92b"/>
    <path id="Path_2414" data-name="Path 2414" d="M188.535,34.534a2.7,2.7,0,0,0-3.18-2.113,2.759,2.759,0,0,0-.394.11,2.7,2.7,0,0,1,0,5.067,2.7,2.7,0,0,0,3.574-3.064Zm0,0" transform="translate(-170.454 -29.91)" fill="#f2b51d"/>
    <path id="Path_2415" data-name="Path 2415" d="M26.713,117H4.155a3.66,3.66,0,0,1-2.279-6.52L2.6,109.9a7.105,7.105,0,0,0,2.651-5.534v-3.834a10.26,10.26,0,0,1,20.521,0v3.905a7.106,7.106,0,0,0,2.561,5.461l.706.587a3.687,3.687,0,0,1,1.329,2.834v.037A3.652,3.652,0,0,1,26.713,117Zm0,0" transform="translate(0 -83.429)" fill="#f7e249"/>
    <path id="Path_2416" data-name="Path 2416" d="M176.531,110.479l-.706-.587a7.106,7.106,0,0,1-2.561-5.461v-3.905a10.268,10.268,0,0,0-13.151-9.831,10.25,10.25,0,0,1,7.369,9.831v3.905a7.106,7.106,0,0,0,2.561,5.461l.706.587a3.688,3.688,0,0,1,1.329,2.834v.037A3.652,3.652,0,0,1,168.424,117h5.782a3.652,3.652,0,0,0,3.654-3.648v-.037A3.687,3.687,0,0,0,176.531,110.479Zm0,0" transform="translate(-147.493 -83.426)" fill="#f7c92b"/>
    <path id="Path_2417" data-name="Path 2417" d="M225.757,8.792a8.806,8.806,0,1,0-8.806,8.792A8.8,8.8,0,0,0,225.757,8.792Zm0,0" transform="translate(-191.877)" fill="#fc476e"/>
    <path id="Path_2418" data-name="Path 2418" d="M264.474,4.223a8.8,8.8,0,0,1-7.458,15.643,8.8,8.8,0,1,0,7.458-15.643Zm0,0" transform="translate(-237.037 -3.902)" fill="#cc2b5a"/>
    <path id="Path_2419" data-name="Path 2419" d="M301.318,65.959a.614.614,0,0,1-.615-.614v-5.92l-.229.209a.614.614,0,1,1-.828-.907l1.258-1.146a.615.615,0,0,1,1.029.454v7.31A.614.614,0,0,1,301.318,65.959Zm0,0" transform="translate(-276.244 -53.061)" fill="#e3faff"/>
  </g>
</svg>
