<svg xmlns="http://www.w3.org/2000/svg" width="16.035" height="13.095" viewBox="0 0 16.035 13.095">
  <g id="Group_1336" data-name="Group 1336" transform="translate(0 -5.5)">
    <path id="Path_1570" data-name="Path 1570" d="M5.206,23.5a.151.151,0,0,0-.146.111L2,31.25v.267c0,.2-.013.267.151.267H14.112a.679.679,0,0,0,.655-.485L17.5,23.767V23.5Z" transform="translate(-1.465 -13.189)" fill="#bebebe"/>
    <path id="Path_1571" data-name="Path 1571" d="M3.4,9.776H14.432V8.1a.731.731,0,0,0-.73-.73H7.086L5.75,5.5H.73A.731.731,0,0,0,0,6.23V17.4l2.748-7.14A.678.678,0,0,1,3.4,9.776Z" transform="translate(0 0)" fill="#bebebe"/>
  </g>
</svg>
