<svg xmlns="http://www.w3.org/2000/svg" width="26" height="31.201" viewBox="0 0 26 31.201">
  <g id="Group_548" data-name="Group 548" transform="translate(0)">
    <g id="Group_545" data-name="Group 545">
      <g id="Group_544" data-name="Group 544">
        <path id="Path_1265" data-name="Path 1265" d="M68.583,26.317,66.351,22.6a11.052,11.052,0,0,1-1.576-5.686V13.651a9.112,9.112,0,0,0-6.5-8.717V2.6a2.6,2.6,0,0,0-5.2,0V4.934a9.112,9.112,0,0,0-6.5,8.717V16.91A11.059,11.059,0,0,1,45,22.6l-2.232,3.721a.651.651,0,0,0,.556.985h24.7a.65.65,0,0,0,.558-.984Z" transform="translate(-42.675)" fill="#d0d0d0"/>
      </g>
    </g>
    <g id="Group_547" data-name="Group 547" transform="translate(8.906 28.601)">
      <g id="Group_546" data-name="Group 546">
        <path id="Path_1266" data-name="Path 1266" d="M188.815,469.333a4.523,4.523,0,0,0,8.188,0Z" transform="translate(-188.815 -469.333)" fill="#d0d0d0"/>
      </g>
    </g>
  </g>
</svg>
