<svg xmlns="http://www.w3.org/2000/svg" width="192.011" height="192.003" viewBox="0 0 192.011 192.003">
  <g id="Group_5288" data-name="Group 5288" transform="translate(0 -0.01)">
    <path id="Path_2862" data-name="Path 2862" d="M22.02,110.361a63.924,63.924,0,1,1,118.35-32.6,65.062,65.062,0,0,1-65.656,62.962H15.719l6.209-10.547A19.214,19.214,0,0,0,22.02,110.361Z" transform="translate(-7.827 -8.065)" fill="#fff"/>
    <path id="Path_2863" data-name="Path 2863" d="M278.179,257.464a63.917,63.917,0,0,0-45.932-96.84,64.154,64.154,0,0,1,.639,9.451,65.062,65.062,0,0,1-65.656,62.962h-6.666a65.383,65.383,0,0,0,64.926,54.789h58.99L278.27,277.28A19.225,19.225,0,0,1,278.179,257.464Z" transform="translate(-100.348 -100.379)" fill="#ffdec6" stroke="#e36306" stroke-width="1"/>
    <g id="Group_5287" data-name="Group 5287" transform="translate(0 0.01)">
      <path id="Path_2864" data-name="Path 2864" d="M181.849,174.572a14.568,14.568,0,0,1,0-15.067A68.49,68.49,0,0,0,136.191,56.318a68.483,68.483,0,0,0-20.455-37.485A68.564,68.564,0,0,0,.213,73.873a68.455,68.455,0,0,0,10.1,30.8,14.568,14.568,0,0,1,0,15.067L3.97,130.329A4.566,4.566,0,0,0,7.9,137.223h48.58a70.087,70.087,0,0,0,68.487,54.789h59.173a4.565,4.565,0,0,0,3.927-6.895ZM15.882,128.092l2.192-3.7a23.7,23.7,0,0,0,0-24.518A59.356,59.356,0,1,1,127.973,69.6a60.5,60.5,0,0,1-61.09,58.488Zm109.26,54.789a60.959,60.959,0,0,1-59.355-45.658h1.1A69.673,69.673,0,0,0,137.1,69.741V65.769a59.354,59.354,0,0,1,36.983,88.9,23.7,23.7,0,0,0,0,24.518l2.192,3.7H125.142Z" transform="translate(0 -0.01)" fill="#e36306"/>
      <path id="Path_2865" data-name="Path 2865" d="M147.632,123.175h0c0,4.566-4.292,7.488-15.3,7.945l-.456.456,2.009,14.154h9.132l.959-5.342c9.314-1.644,16.848-6.209,16.848-17.4h0c0-11.6-8.538-18.263-21.14-18.263a27.4,27.4,0,0,0-21.368,9.451l8.036,8.812a17.984,17.984,0,0,1,13.1-6.027C144.664,116.965,147.632,119.248,147.632,123.175Z" transform="translate(-73.947 -65.451)" fill="#e36306"/>
      <rect id="Rectangle_1743" data-name="Rectangle 1743" width="14.154" height="13.971" transform="translate(57.066 87.2)" fill="#e36306"/>
    </g>
  </g>
</svg>
