<svg xmlns="http://www.w3.org/2000/svg" width="30.682" height="35.388" viewBox="0 0 30.682 35.388">
  <g id="Group_4332" data-name="Group 4332" transform="translate(-20.338 -971.405)">
    <path id="Icon_feather-message-circle" data-name="Icon feather-message-circle" d="M27.662,15.438a10.783,10.783,0,0,1-1.158,4.89,10.938,10.938,0,0,1-9.78,6.048,10.783,10.783,0,0,1-4.89-1.158L4.5,27.662l2.445-7.335a10.783,10.783,0,0,1-1.158-4.89,10.938,10.938,0,0,1,6.048-9.78A10.783,10.783,0,0,1,16.724,4.5h.643A10.912,10.912,0,0,1,27.662,14.794Z" transform="translate(16.838 978.131)" fill="none" stroke="#5f6a79" stroke-linecap="round" stroke-linejoin="round" stroke-width="2"/>
    <g id="Polygon_10" data-name="Polygon 10" transform="translate(34.937 976.65)" fill="#5f6a79">
      <path d="M 11.0633602142334 15.03022003173828 L 9.176919937133789 13.84718990325928 L 6.000000953674316 11.85486507415771 L 2.823090076446533 13.84718990325928 L 0.9366499781608582 15.03022003173828 L 1.305619955062866 12.83430004119873 L 2.019384860992432 8.586334228515625 L -0.7300800085067749 5.648920059204102 L -2.041640043258667 4.247700214385986 L -0.1417399942874908 3.975660085678101 L 3.493199586868286 3.455171346664429 L 5.075550079345703 -0.3812899887561798 L 6 -2.622659921646118 L 6.924449920654297 -0.3812899887561798 L 8.506800651550293 3.455171346664429 L 12.14173984527588 3.975660085678101 L 14.04164028167725 4.247700214385986 L 12.73007965087891 5.648920059204102 L 9.980615615844727 8.586333274841309 L 10.69439029693604 12.83430004119873 L 11.0633602142334 15.03022003173828 Z" stroke="none"/>
      <path d="M 6 0 L 4.199999809265137 4.36415958404541 L 0 4.965559959411621 L 3.087539672851562 8.26416015625 L 2.291799545288086 13 L 6 10.67448997497559 L 9.708209991455078 13 L 8.912460327148438 8.26416015625 L 12 4.965559959411621 L 7.800000190734863 4.36415958404541 L 6 0 M 6 -5.245330810546875 L 7.848909854888916 -0.7625799179077148 L 9.213605880737305 2.546172142028809 L 12.28349018096924 2.985750198364258 L 16.08328056335449 3.529850006103516 L 13.46016025543213 6.332290172576904 L 11.04876613616943 8.908523559570312 L 11.68056011199951 12.66858959197998 L 12.41851043701172 17.06044960021973 L 8.645620346069336 14.69437980651855 L 6.000001430511475 13.03524684906006 L 3.354390144348145 14.69437980651855 L -0.4184904098510742 17.06044960021973 L 0.3194503784179688 12.66860008239746 L 0.9512367248535156 8.908526420593262 L -1.460160255432129 6.332290172576904 L -4.083280563354492 3.529850006103516 L -0.2834901809692383 2.985750198364258 L 2.786393165588379 2.546172142028809 L 4.151090145111084 -0.7625799179077148 L 6 -5.245330810546875 Z" stroke="none" fill="#1c223a"/>
    </g>
  </g>
</svg>
