<svg xmlns="http://www.w3.org/2000/svg" width="702.025" height="377.109" viewBox="0 0 702.025 377.109">
  <g id="Group_5302" data-name="Group 5302" transform="translate(-853 -242)">
    <g id="Group_5258" data-name="Group 5258" transform="translate(853 242)">
      <path id="Path_2856" data-name="Path 2856" d="M1093.675,766.5H593.43a12.647,12.647,0,0,0-12.613,12.607v333.384h525.461V779.109A12.645,12.645,0,0,0,1093.675,766.5Z" transform="translate(-492.096 -766.502)" fill="#2f2f31"/>
      <rect id="Rectangle_1732" data-name="Rectangle 1732" width="479.231" height="307.921" transform="translate(112.1 21.721)" fill="#e8e8e9"/>
      <path id="Path_2857" data-name="Path 2857" d="M1183.52,1057.378H544.555l-31.53-11.562H1215.05Z" transform="translate(-513.025 -680.268)" fill="#6e7278"/>
      <path id="Path_2858" data-name="Path 2858" d="M783.956,776.972a2.232,2.232,0,1,1-2.233-2.237A2.225,2.225,0,0,1,783.956,776.972Z" transform="translate(-430.758 -763.96)" fill="#737577"/>
      <rect id="Rectangle_1733" data-name="Rectangle 1733" width="113.766" height="11.555" transform="translate(293.911 345.937)" fill="#a2a3a5"/>
      <path id="Path_2859" data-name="Path 2859" d="M911.679,1030.832v4.2a5.272,5.272,0,0,1-5.253,5.258H821.295a5.274,5.274,0,0,1-5.249-5.258v-4.2H513.025v19.61H1215.05v-19.61Z" transform="translate(-513.025 -684.894)" fill="#c5cdd3"/>
    </g>
  </g>
</svg>
