<svg xmlns="http://www.w3.org/2000/svg" xmlns:xlink="http://www.w3.org/1999/xlink" width="291.891" height="76.621" viewBox="0 0 291.891 76.621">
  <defs>
    <linearGradient id="linear-gradient" x1="0.5" y1="1" x2="0.5" gradientUnits="objectBoundingBox">
      <stop offset="0" stop-color="#21c2fd"/>
      <stop offset="1" stop-color="#1fd2fb"/>
    </linearGradient>
    <filter id="Path_70" x="0.001" y="7.056" width="54.142" height="54.926" filterUnits="userSpaceOnUse">
      <feOffset dx="-1" input="SourceAlpha"/>
      <feGaussianBlur stdDeviation="6" result="blur"/>
      <feFlood flood-opacity="0.161"/>
      <feComposite operator="in" in2="blur"/>
      <feComposite in="SourceGraphic"/>
    </filter>
    <linearGradient id="linear-gradient-2" x1="0.5" x2="0.5" y2="1" gradientUnits="objectBoundingBox">
      <stop offset="0" stop-color="#feb22a"/>
      <stop offset="1" stop-color="#fee07f"/>
    </linearGradient>
    <filter id="Path_68" x="0" y="21.689" width="54.014" height="54.932" filterUnits="userSpaceOnUse">
      <feOffset dx="-1" input="SourceAlpha"/>
      <feGaussianBlur stdDeviation="6" result="blur-2"/>
      <feFlood flood-opacity="0.161"/>
      <feComposite operator="in" in2="blur-2"/>
      <feComposite in="SourceGraphic"/>
    </filter>
    <linearGradient id="linear-gradient-3" x1="0.5" x2="0.5" y2="1" gradientUnits="objectBoundingBox">
      <stop offset="0" stop-color="#fe9125"/>
      <stop offset="1" stop-color="#fc491e"/>
    </linearGradient>
    <filter id="Path_67" x="19.357" y="21.146" width="54.014" height="54.913" filterUnits="userSpaceOnUse">
      <feOffset dx="-1" input="SourceAlpha"/>
      <feGaussianBlur stdDeviation="6" result="blur-3"/>
      <feFlood flood-opacity="0.161"/>
      <feComposite operator="in" in2="blur-3"/>
      <feComposite in="SourceGraphic"/>
    </filter>
    <linearGradient id="linear-gradient-4" x1="0.5" x2="0.5" y2="1" gradientUnits="objectBoundingBox">
      <stop offset="0" stop-color="#2ebe21"/>
      <stop offset="1" stop-color="#7bdb27"/>
    </linearGradient>
    <filter id="Path_69" x="26.389" y="0" width="54.142" height="54.924" filterUnits="userSpaceOnUse">
      <feOffset dx="-1" input="SourceAlpha"/>
      <feGaussianBlur stdDeviation="6" result="blur-4"/>
      <feFlood flood-opacity="0.161"/>
      <feComposite operator="in" in2="blur-4"/>
      <feComposite in="SourceGraphic"/>
    </filter>
  </defs>
  <g id="Group_5303" data-name="Group 5303" transform="translate(6830 9305.8)">
    <path id="appypie" d="M14.1-12.4V0H11.125l-.35-1.325a3.481,3.481,0,0,1-1.738,1.3A6.869,6.869,0,0,1,6.925.3,5.755,5.755,0,0,1,4.488-.213a6.108,6.108,0,0,1-1.938-1.4A6.453,6.453,0,0,1,1.263-3.687,6.93,6.93,0,0,1,.8-6.225a6.93,6.93,0,0,1,.463-2.537A6.453,6.453,0,0,1,2.55-10.837a6.108,6.108,0,0,1,1.938-1.4,5.755,5.755,0,0,1,2.438-.513,6.22,6.22,0,0,1,2.2.375,3.724,3.724,0,0,1,1.65,1.2l.35-1.225ZM10.65-6.175a4.466,4.466,0,0,0-.262-1.638,2.937,2.937,0,0,0-.7-1.075,2.646,2.646,0,0,0-1.025-.6A4.13,4.13,0,0,0,7.4-9.675,2.941,2.941,0,0,0,6.137-9.4,3.514,3.514,0,0,0,5.1-8.663a3.268,3.268,0,0,0-.7,1.1,3.631,3.631,0,0,0-.25,1.338,3.6,3.6,0,0,0,.25,1.35,3.3,3.3,0,0,0,.7,1.087,3.514,3.514,0,0,0,1.037.738A2.941,2.941,0,0,0,7.4-2.775a3.311,3.311,0,0,0,2.287-.837A3.333,3.333,0,0,0,10.65-6.175ZM23.5-12.75a5.839,5.839,0,0,1,2.45.513,5.927,5.927,0,0,1,1.938,1.4,6.57,6.57,0,0,1,1.275,2.075,6.93,6.93,0,0,1,.463,2.537,6.93,6.93,0,0,1-.463,2.538,6.57,6.57,0,0,1-1.275,2.075,5.927,5.927,0,0,1-1.937,1.4A5.839,5.839,0,0,1,23.5.3a5.893,5.893,0,0,1-2.1-.388,4.268,4.268,0,0,1-1.6-.988V4.95H16.35V-12.4H19.3l.5.85a4.289,4.289,0,0,1,1.625-.925A7.111,7.111,0,0,1,23.5-12.75Zm-.45,9.975a2.941,2.941,0,0,0,1.263-.275,3.355,3.355,0,0,0,1.025-.738,3.586,3.586,0,0,0,.7-1.087,3.451,3.451,0,0,0,.263-1.35,3.479,3.479,0,0,0-.263-1.338,3.547,3.547,0,0,0-.7-1.1A3.355,3.355,0,0,0,24.313-9.4a2.941,2.941,0,0,0-1.263-.275,4.13,4.13,0,0,0-1.262.188,2.646,2.646,0,0,0-1.025.6,2.814,2.814,0,0,0-.687,1.075,4.5,4.5,0,0,0-.25,1.588,4.137,4.137,0,0,0,.25,1.512,3.1,3.1,0,0,0,.688,1.075,2.758,2.758,0,0,0,1.025.65A3.684,3.684,0,0,0,23.05-2.775ZM38.275-12.75a5.839,5.839,0,0,1,2.45.513,5.927,5.927,0,0,1,1.938,1.4,6.57,6.57,0,0,1,1.275,2.075A6.93,6.93,0,0,1,44.4-6.225a6.93,6.93,0,0,1-.463,2.538,6.57,6.57,0,0,1-1.275,2.075,5.927,5.927,0,0,1-1.937,1.4A5.839,5.839,0,0,1,38.275.3a5.893,5.893,0,0,1-2.1-.388,4.268,4.268,0,0,1-1.6-.988V4.95h-3.45V-12.4h2.95l.5.85a4.289,4.289,0,0,1,1.625-.925A7.111,7.111,0,0,1,38.275-12.75Zm-.45,9.975a2.941,2.941,0,0,0,1.263-.275,3.355,3.355,0,0,0,1.025-.738,3.586,3.586,0,0,0,.7-1.087,3.451,3.451,0,0,0,.263-1.35,3.479,3.479,0,0,0-.263-1.338,3.547,3.547,0,0,0-.7-1.1A3.355,3.355,0,0,0,39.088-9.4a2.941,2.941,0,0,0-1.263-.275,4.13,4.13,0,0,0-1.263.188,2.646,2.646,0,0,0-1.025.6,2.814,2.814,0,0,0-.687,1.075,4.5,4.5,0,0,0-.25,1.588,4.137,4.137,0,0,0,.25,1.512,3.1,3.1,0,0,0,.688,1.075,2.758,2.758,0,0,0,1.025.65A3.684,3.684,0,0,0,37.825-2.775ZM55.45-12.4h3.775L51.4,4.95H47.625L50.7-1.875,45.45-12.4H49.3l3.225,6.475Zm12.375-.35a5.839,5.839,0,0,1,2.45.513,5.927,5.927,0,0,1,1.938,1.4,6.57,6.57,0,0,1,1.275,2.075,6.93,6.93,0,0,1,.463,2.537,6.93,6.93,0,0,1-.463,2.538,6.57,6.57,0,0,1-1.275,2.075,5.927,5.927,0,0,1-1.937,1.4A5.839,5.839,0,0,1,67.825.3a5.893,5.893,0,0,1-2.1-.388,4.268,4.268,0,0,1-1.6-.988V4.95h-3.45V-12.4h2.95l.5.85a4.289,4.289,0,0,1,1.625-.925A7.111,7.111,0,0,1,67.825-12.75Zm-.45,9.975a2.941,2.941,0,0,0,1.262-.275,3.354,3.354,0,0,0,1.025-.738,3.586,3.586,0,0,0,.7-1.087,3.451,3.451,0,0,0,.262-1.35,3.479,3.479,0,0,0-.262-1.338,3.547,3.547,0,0,0-.7-1.1A3.354,3.354,0,0,0,68.637-9.4a2.941,2.941,0,0,0-1.262-.275,4.13,4.13,0,0,0-1.262.188,2.646,2.646,0,0,0-1.025.6A2.814,2.814,0,0,0,64.4-7.812a4.5,4.5,0,0,0-.25,1.588,4.137,4.137,0,0,0,.25,1.512,3.1,3.1,0,0,0,.688,1.075,2.758,2.758,0,0,0,1.025.65A3.684,3.684,0,0,0,67.375-2.775ZM79.175,0h-3.45V-12.4h3.45ZM77.45-14.1a1.835,1.835,0,0,1-1.35-.55A1.835,1.835,0,0,1,75.55-16a1.877,1.877,0,0,1,.55-1.363,1.815,1.815,0,0,1,1.35-.562,1.815,1.815,0,0,1,1.35.562A1.877,1.877,0,0,1,79.35-16a1.835,1.835,0,0,1-.55,1.35A1.835,1.835,0,0,1,77.45-14.1Zm10.425,1.35a5.725,5.725,0,0,1,2.55.563A6.456,6.456,0,0,1,92.4-10.712a6.572,6.572,0,0,1,1.275,2.1,6.825,6.825,0,0,1,.45,2.438,7,7,0,0,1-.2,1.6h-8.85A4.267,4.267,0,0,0,86.5-3.137a3.661,3.661,0,0,0,2,.587,9.039,9.039,0,0,0,1.887-.175,10.656,10.656,0,0,0,1.538-.45l1.15,2.125a7.167,7.167,0,0,1-2.112,1A8.934,8.934,0,0,1,88.425.3a7.3,7.3,0,0,1-2.75-.513A7.227,7.227,0,0,1,83.45-1.6a6.434,6.434,0,0,1-1.5-2.075,6.048,6.048,0,0,1-.55-2.55,6.408,6.408,0,0,1,.5-2.513,6.433,6.433,0,0,1,1.387-2.075,6.827,6.827,0,0,1,2.063-1.412A6.118,6.118,0,0,1,87.875-12.75ZM90.7-7.25A3.509,3.509,0,0,0,89.625-9a2.594,2.594,0,0,0-1.75-.675A2.766,2.766,0,0,0,86.063-9,3.4,3.4,0,0,0,84.95-7.25Z" transform="translate(-6760.658 -9260)"/>
    <path id="appypie-2" data-name="appypie" d="M8.525-9.5,17.05.025H13.525L6.8-7.775,4-4.975V0H1.4V-17.725H4V-8.2l1.95-2.075,7.375-7.45H16.75ZM21.275,0H18.85V-11.975h1.925l.5,1.05a4.972,4.972,0,0,1,1.45-.95,4.532,4.532,0,0,1,1.85-.375,6.336,6.336,0,0,1,1.475.2,4.066,4.066,0,0,1,1.538.75,4.327,4.327,0,0,1,1.2,1.525,5.654,5.654,0,0,1,.487,2.525V0h-2.3V-7.275a3.241,3.241,0,0,0-.238-1.312,2.332,2.332,0,0,0-.625-.863,2.331,2.331,0,0,0-.875-.462,3.712,3.712,0,0,0-1.012-.138,3.294,3.294,0,0,0-.913.15,3,3,0,0,0-.962.487,3,3,0,0,0-.763.85A2.384,2.384,0,0,0,21.275-7.3ZM37.5.3a5.648,5.648,0,0,1-2.338-.488,5.993,5.993,0,0,1-1.9-1.337,6.4,6.4,0,0,1-1.288-2,6.354,6.354,0,0,1-.475-2.45,6.354,6.354,0,0,1,.475-2.45,6.4,6.4,0,0,1,1.288-2,5.993,5.993,0,0,1,1.9-1.337A5.648,5.648,0,0,1,37.5-12.25a5.675,5.675,0,0,1,2.325.488,5.954,5.954,0,0,1,1.912,1.337,6.4,6.4,0,0,1,1.288,2,6.354,6.354,0,0,1,.475,2.45,6.354,6.354,0,0,1-.475,2.45,6.4,6.4,0,0,1-1.288,2A5.954,5.954,0,0,1,39.825-.187,5.675,5.675,0,0,1,37.5.3Zm0-10.375a3.034,3.034,0,0,0-1.375.325,3.747,3.747,0,0,0-1.138.875,4.026,4.026,0,0,0-.762,1.3,4.611,4.611,0,0,0-.275,1.6,4.611,4.611,0,0,0,.275,1.6,4.178,4.178,0,0,0,.762,1.313,3.66,3.66,0,0,0,1.138.888A3.034,3.034,0,0,0,37.5-1.85a3.034,3.034,0,0,0,1.375-.325A3.519,3.519,0,0,0,40-3.062a4.316,4.316,0,0,0,.75-1.312,4.611,4.611,0,0,0,.275-1.6,4.611,4.611,0,0,0-.275-1.6,4.154,4.154,0,0,0-.75-1.3,3.6,3.6,0,0,0-1.125-.875A3.034,3.034,0,0,0,37.5-10.075ZM48.425,0,44.4-11.975h2.575l2.8,9.05,2.95-9.05h2.15L57.825-3,60.6-11.975h2.575L59.15,0H56.5L54-7.325l-.2-1.15-.2,1.15L51.125,0ZM67.4-18.25V0H64.975V-18.25ZM75.825.3a6.122,6.122,0,0,1-2.437-.488A6.278,6.278,0,0,1,71.4-1.525a6.241,6.241,0,0,1-1.338-2,6.212,6.212,0,0,1-.488-2.45,6.5,6.5,0,0,1,.463-2.45,6.452,6.452,0,0,1,1.25-2,5.826,5.826,0,0,1,1.838-1.337,5.278,5.278,0,0,1,2.25-.488,5.912,5.912,0,0,1,2.262.425,4.646,4.646,0,0,1,1.8,1.325,6.384,6.384,0,0,1,1.188,2.288A11.385,11.385,0,0,1,81.05-4.9h-8.9a4.088,4.088,0,0,0,.55,1.213,4.314,4.314,0,0,0,.888.975,3.877,3.877,0,0,0,1.15.638,3.989,3.989,0,0,0,1.337.225,4.407,4.407,0,0,0,1.763-.35,4.4,4.4,0,0,0,1.387-.925l1.5,1.5a6.522,6.522,0,0,1-2.137,1.4A7.124,7.124,0,0,1,75.825.3Zm-.45-10.35a2.676,2.676,0,0,0-1.088.225,3.472,3.472,0,0,0-.95.625,3.857,3.857,0,0,0-.75.95,4.431,4.431,0,0,0-.463,1.2H78.45a3.867,3.867,0,0,0-.275-1.15,3,3,0,0,0-.625-.962,2.957,2.957,0,0,0-.937-.65A3.036,3.036,0,0,0,75.375-10.05Zm19.475-8.2V0H92.925l-.5-1.25a5.462,5.462,0,0,1-1.65,1.138A5.17,5.17,0,0,1,88.65.3a5.394,5.394,0,0,1-2.3-.488,5.683,5.683,0,0,1-1.825-1.337,6.212,6.212,0,0,1-1.213-2,6.832,6.832,0,0,1-.437-2.45,6.832,6.832,0,0,1,.438-2.45,6.212,6.212,0,0,1,1.213-2,5.683,5.683,0,0,1,1.825-1.337,5.394,5.394,0,0,1,2.3-.488,5.3,5.3,0,0,1,2.175.412,4.709,4.709,0,0,1,1.6,1.163V-18.25Zm-6,16.4a3.768,3.768,0,0,0,1.388-.25,3.1,3.1,0,0,0,1.125-.763,3.57,3.57,0,0,0,.762-1.287A5.461,5.461,0,0,0,92.4-5.975a5.722,5.722,0,0,0-.275-1.9,3.325,3.325,0,0,0-.762-1.262,2.846,2.846,0,0,0-1.125-.7,4.363,4.363,0,0,0-1.388-.213,3.134,3.134,0,0,0-1.375.312,3.443,3.443,0,0,0-1.125.863,4.154,4.154,0,0,0-.75,1.3,4.611,4.611,0,0,0-.275,1.6,4.611,4.611,0,0,0,.275,1.6,4.316,4.316,0,0,0,.75,1.313,3.519,3.519,0,0,0,1.125.888A3.034,3.034,0,0,0,88.85-1.85ZM103.325-.6a5.643,5.643,0,0,1-2.3-.462A5.632,5.632,0,0,1,99.2-2.338a6,6,0,0,1-1.213-1.875,5.883,5.883,0,0,1-.437-2.262,5.791,5.791,0,0,1,.438-2.25A5.738,5.738,0,0,1,99.2-10.562a5.659,5.659,0,0,1,1.825-1.238,5.778,5.778,0,0,1,2.3-.45,5.768,5.768,0,0,1,2.175.375,4.852,4.852,0,0,1,1.625,1.075l.5-1.175h1.9v3.2q0,1.05.012,2.625t.012,3.825q0,.75-.05,1.463a8.16,8.16,0,0,1-.213,1.375,5.877,5.877,0,0,1-.475,1.275,5.426,5.426,0,0,1-.838,1.188,5.012,5.012,0,0,1-2.262,1.413,9.6,9.6,0,0,1-2.663.362,8.292,8.292,0,0,1-2.262-.3,8.089,8.089,0,0,1-1.912-.8V.95a3.478,3.478,0,0,0,1.563,1.175,6.134,6.134,0,0,0,2.412.45,5.691,5.691,0,0,0,1.675-.237,3.767,3.767,0,0,0,1.35-.725A3.4,3.4,0,0,0,106.787.35a4.613,4.613,0,0,0,.338-1.85v-.475a4.094,4.094,0,0,1-.738.525,6.214,6.214,0,0,1-.95.437,7.409,7.409,0,0,1-1.062.3A5.243,5.243,0,0,1,103.325-.6Zm.225-9.45a3.493,3.493,0,0,0-1.375.275,3.545,3.545,0,0,0-1.137.762,3.545,3.545,0,0,0-.762,1.137,3.556,3.556,0,0,0-.275,1.4,3.647,3.647,0,0,0,.275,1.412,3.51,3.51,0,0,0,.762,1.15,3.721,3.721,0,0,0,1.137.775,3.362,3.362,0,0,0,1.375.287,4.174,4.174,0,0,0,1.375-.225,3.076,3.076,0,0,0,1.125-.675,3.173,3.173,0,0,0,.75-1.125,4.229,4.229,0,0,0,.275-1.6,4.479,4.479,0,0,0-.275-1.663,2.914,2.914,0,0,0-.75-1.112,2.843,2.843,0,0,0-1.125-.612A4.938,4.938,0,0,0,103.55-10.05ZM118.325.3a6.122,6.122,0,0,1-2.437-.488A6.278,6.278,0,0,1,113.9-1.525a6.241,6.241,0,0,1-1.338-2,6.212,6.212,0,0,1-.488-2.45,6.5,6.5,0,0,1,.463-2.45,6.452,6.452,0,0,1,1.25-2,5.826,5.826,0,0,1,1.838-1.337,5.278,5.278,0,0,1,2.25-.488,5.912,5.912,0,0,1,2.262.425,4.646,4.646,0,0,1,1.8,1.325,6.384,6.384,0,0,1,1.188,2.288A11.385,11.385,0,0,1,123.55-4.9h-8.9a4.088,4.088,0,0,0,.55,1.213,4.314,4.314,0,0,0,.888.975,3.877,3.877,0,0,0,1.15.638,3.989,3.989,0,0,0,1.337.225,4.407,4.407,0,0,0,1.763-.35,4.4,4.4,0,0,0,1.387-.925l1.5,1.5a6.522,6.522,0,0,1-2.137,1.4A7.124,7.124,0,0,1,118.325.3Zm-.45-10.35a2.676,2.676,0,0,0-1.088.225,3.472,3.472,0,0,0-.95.625,3.857,3.857,0,0,0-.75.95,4.431,4.431,0,0,0-.463,1.2h6.325a3.867,3.867,0,0,0-.275-1.15,3,3,0,0,0-.625-.962,2.957,2.957,0,0,0-.937-.65A3.036,3.036,0,0,0,117.875-10.05Z" transform="translate(-6661.658 -9260)"/>
    <g id="Group_19" data-name="Group 19" transform="translate(-6811 -9290)">
      <g id="Group_18" data-name="Group 18" transform="translate(0.002 7.058)">
        <g id="Path_57" data-name="Path 57" transform="translate(21.182 0) rotate(90)">
          <path id="Path_65" data-name="Path 65" d="M11.192,9.946a1.241,1.241,0,0,1-1.241,1.241h0C3.284,11.368-.138,6.339,0,1.241A1.241,1.241,0,0,1,1.245,0h8.7A1.242,1.242,0,0,1,11.19,1.241h0Z" transform="translate(4.945 4.945)" fill="none"/>
          <path id="Path_66" data-name="Path 66" d="M15.773,15.768a1.235,1.235,0,0,1-.877.364c-6.667.18-10.09-4.849-9.946-9.946A1.24,1.24,0,0,1,6.191,4.945H14.9a1.241,1.241,0,0,1,1.241,1.241v8.705a1.235,1.235,0,0,1-.364.877m3.5,3.5a6.143,6.143,0,0,0,1.812-4.374v-8.7A6.193,6.193,0,0,0,14.9,0h-8.7A6.147,6.147,0,0,0,1.818,1.812,6.5,6.5,0,0,0,.006,6.186a14.664,14.664,0,0,0,4.238,10.73A14.3,14.3,0,0,0,15.03,21.075a6.061,6.061,0,0,0,4.24-1.81Z" transform="translate(0 0)" fill="#21c2fd"/>
        </g>
        <g transform="matrix(1, 0, 0, 1, -19, -22.86)" filter="url(#Path_70)">
          <path id="Path_70-2" data-name="Path 70" d="M16.243,11.944a3.827,3.827,0,0,1,1.882,2.717c.137,1.761-.556,4.114-3.042,4.244-2.481.03-6.133.021-8.74,0C1.811,18.935-.17,15.12.012,11.721A14.342,14.342,0,0,1,5.22,1.19C7.693-.873,12.145-.19,14.909,2.733c0-.014-9.7-.291-9.865,9.771,0,0-.125,1.383,1.6,1.338,2.513-.024,8.785.053,8.832-.119C16.2,13.456,16.253,12.81,16.243,11.944Z" transform="translate(19 25.06)" fill="url(#linear-gradient)"/>
        </g>
      </g>
      <g id="Group_16" data-name="Group 16" transform="translate(0 23.89)">
        <g id="Path_57-2" data-name="Path 57" transform="translate(0 0.045)">
          <path id="Path_65-2" data-name="Path 65" d="M908.632,693.831a1.241,1.241,0,0,1-1.241,1.241h0c-6.667.18-10.089-4.849-9.946-9.946a1.241,1.241,0,0,1,1.241-1.241h8.7a1.242,1.242,0,0,1,1.241,1.241h0Z" transform="translate(-892.493 -678.94)" fill="none"/>
          <path id="Path_66-2" data-name="Path 66" d="M904.211,690.654a1.235,1.235,0,0,1-.877.364c-6.667.18-10.09-4.849-9.946-9.946a1.24,1.24,0,0,1,1.241-1.241h8.705a1.241,1.241,0,0,1,1.241,1.241v8.705a1.235,1.235,0,0,1-.364.877m3.5,3.5a6.143,6.143,0,0,0,1.812-4.374v-8.7a6.193,6.193,0,0,0-6.186-6.186h-8.705a6.147,6.147,0,0,0-4.374,1.812,6.5,6.5,0,0,0-1.811,4.374,14.8,14.8,0,0,0,4.2,10.8,14.324,14.324,0,0,0,10.823,4.086A6.062,6.062,0,0,0,907.708,694.15Z" transform="translate(-888.436 -674.886)" fill="#fec92e"/>
        </g>
        <g transform="matrix(1, 0, 0, 1, -19, -39.69)" filter="url(#Path_68)">
          <path id="Path_68-2" data-name="Path 68" d="M629.769,816.56a3.855,3.855,0,0,0,1.869-2.742c.136-1.777-.567-3.954-3.037-4.086s-6.049-.045-8.639-.023c-4.7-.052-6.49,3.647-6.31,7.077a14.6,14.6,0,0,0,4.939,10.605c2.456,2.082,7.114,1.393,9.858-1.556,0,.014-9.541.363-9.858-9.831,0,0-.065-1.4,1.647-1.359,2.5.025,8.723-.054,8.769.12C629.724,815.035,629.815,815.814,629.769,816.56Z" transform="translate(-594.64 -769.97)" fill="url(#linear-gradient-2)"/>
        </g>
      </g>
      <g id="Group_15" data-name="Group 15" transform="translate(16.289 23.347)">
        <g id="Path_57-3" data-name="Path 57" transform="translate(0 0.045)">
          <path id="Path_65-3" data-name="Path 65" d="M897.439,693.831a1.242,1.242,0,0,0,1.241,1.241h0c6.667.18,10.089-4.849,9.946-9.946a1.241,1.241,0,0,0-1.241-1.241h-8.7a1.242,1.242,0,0,0-1.241,1.241h0Z" transform="translate(-892.495 -678.94)" fill="none"/>
          <path id="Path_66-3" data-name="Path 66" d="M893.751,690.654a1.235,1.235,0,0,0,.877.364c6.667.18,10.09-4.849,9.946-9.946a1.24,1.24,0,0,0-1.241-1.241h-8.706a1.241,1.241,0,0,0-1.241,1.241v8.705a1.236,1.236,0,0,0,.365.877m-3.5,3.5a6.143,6.143,0,0,1-1.812-4.374v-8.7a6.193,6.193,0,0,1,6.186-6.186h8.705a6.147,6.147,0,0,1,4.374,1.812,6.5,6.5,0,0,1,1.811,4.374,14.8,14.8,0,0,1-4.2,10.8,14.323,14.323,0,0,1-10.823,4.086,6.061,6.061,0,0,1-4.241-1.81Z" transform="translate(-888.442 -674.886)" fill="#fc491e"/>
        </g>
        <g transform="matrix(1, 0, 0, 1, -35.29, -39.15)" filter="url(#Path_67)">
          <path id="Path_67-2" data-name="Path 67" d="M615.523,816.56a3.855,3.855,0,0,1-1.869-2.742c-.136-1.777.567-3.954,3.037-4.086s6.049-.045,8.639-.023c4.7-.052,6.49,3.647,6.31,7.077a14.758,14.758,0,0,1-4.963,10.567c-2.456,2.082-7.086,1.452-9.83-1.5,0,.014,9.536.341,9.854-9.852,0,0,.065-1.4-1.647-1.359-2.5.024-8.723-.054-8.769.12C615.569,815.035,615.478,815.814,615.523,816.56Z" transform="translate(-575.28 -770.52)" fill="url(#linear-gradient-3)"/>
        </g>
      </g>
      <g id="Group_14" data-name="Group 14" transform="translate(23.348 0)">
        <g id="Path_57-4" data-name="Path 57" transform="translate(21.081 0) rotate(90)">
          <path id="Path_65-4" data-name="Path 65" d="M11.192,1.244A1.242,1.242,0,0,0,9.951,0h0C3.284-.176-.138,4.853,0,9.951a1.241,1.241,0,0,0,1.24,1.241h8.7A1.242,1.242,0,0,0,11.19,9.952h0Z" transform="translate(4.945 4.945)" fill="none"/>
          <path id="Path_66-4" data-name="Path 66" d="M15.773,5.313A1.235,1.235,0,0,0,14.9,4.95C8.229,4.77,4.807,9.8,4.951,14.9a1.24,1.24,0,0,0,1.241,1.241H14.9A1.241,1.241,0,0,0,16.137,14.9V6.19a1.235,1.235,0,0,0-.364-.877m3.5-3.5a6.143,6.143,0,0,1,1.812,4.374v8.7A6.193,6.193,0,0,1,14.9,21.081H6.192A6.147,6.147,0,0,1,1.818,19.27,6.5,6.5,0,0,1,.006,14.9,14.663,14.663,0,0,1,4.243,4.165,14.3,14.3,0,0,1,15.03.006a6.061,6.061,0,0,1,4.24,1.811Z" transform="translate(0 0)" fill="#25bb21"/>
        </g>
        <g transform="matrix(1, 0, 0, 1, -42.35, -15.8)" filter="url(#Path_69)">
          <path id="Path_69-2" data-name="Path 69" d="M16.243,6.98a3.827,3.827,0,0,0,1.882-2.717C18.262,2.5,17.569.15,15.081.019,12.6-.01,8.948,0,6.342.019,1.811-.011-.17,3.805.011,7.2A14.335,14.335,0,0,0,5.22,17.733c2.474,2.063,6.926,1.38,9.689-1.543,0,.014-9.7.291-9.864-9.771,0,0-.125-1.383,1.6-1.338,2.513.024,8.785-.053,8.832.119C16.2,5.469,16.253,6.115,16.243,6.98Z" transform="translate(63.53 36.92) rotate(180)" fill="url(#linear-gradient-4)"/>
        </g>
      </g>
    </g>
  </g>
</svg>
