<svg xmlns="http://www.w3.org/2000/svg" xmlns:xlink="http://www.w3.org/1999/xlink" width="377.457" height="384.369" viewBox="0 0 377.457 384.369">
  <defs>
    <clipPath id="clip-path">
      <path id="Path_1865" data-name="Path 1865" d="M270.36,98.95a27.6,27.6,0,0,1,27.6-27.6v-5.4a6.19,6.19,0,1,1,0-12.38V46.83a6.19,6.19,0,1,1,0-12.38V29.94h-268v4.51a6.19,6.19,0,1,1,0,12.38v6.74a6.19,6.19,0,1,1,0,12.38v5.4a27.6,27.6,0,1,1,0,55.2v5.6a6.19,6.19,0,0,1,0,12.38v6.74a6.19,6.19,0,0,1,0,12.38v3.31h268v-3.31a6.19,6.19,0,0,1,0-12.38v-6.74a6.19,6.19,0,0,1,0-12.38v-5.6A27.6,27.6,0,0,1,270.36,98.95Z"/>
    </clipPath>
  </defs>
  <g id="Group_5419" data-name="Group 5419" transform="translate(-816.162 -351.524)">
    <g id="Group_2403" data-name="Group 2403" transform="matrix(0.788, -0.616, 0.616, 0.788, 816.156, 506.254)">
      <path id="Path_1867" data-name="Path 1867" d="M242.32,186.57c-32,90.87-76.22,130.17-98.76,87.79S65.03,149.3,18.51,89.68,16.2-9.25,117.27,1.89,274.32,95.7,242.32,186.57Z" fill="#f5f5f5"/>
    </g>
    <g id="Group_2402" data-name="Group 2402" transform="translate(0 109)">
      <g id="Group_2400" data-name="Group 2400" transform="translate(-15 -29)">
        <g id="Group_2399" data-name="Group 2399" transform="translate(842.271 365.07)">
          <path id="Path_1864" data-name="Path 1864" d="M270.36,98.95a27.6,27.6,0,0,1,27.6-27.6v-5.4a6.19,6.19,0,1,1,0-12.38V46.83a6.19,6.19,0,1,1,0-12.38V29.94h-268v4.51a6.19,6.19,0,1,1,0,12.38v6.74a6.19,6.19,0,1,1,0,12.38v5.4a27.6,27.6,0,1,1,0,55.2v5.6a6.19,6.19,0,0,1,0,12.38v6.74a6.19,6.19,0,0,1,0,12.38v3.31h268v-3.31a6.19,6.19,0,0,1,0-12.38v-6.74a6.19,6.19,0,0,1,0-12.38v-5.6A27.6,27.6,0,0,1,270.36,98.95Z" fill="#ffb100"/>
          <rect id="Rectangle_1082" data-name="Rectangle 1082" width="193" height="110" transform="translate(66.95 43.95)" fill="none" stroke="#fff" stroke-miterlimit="10" stroke-width="2"/>
          <g id="Group_2398" data-name="Group 2398">
            <g id="Group_2397" data-name="Group 2397" opacity="0.4" clip-path="url(#clip-path)">
              <rect id="Rectangle_1083" data-name="Rectangle 1083" width="172" height="24" transform="translate(11.313 132.935) rotate(-45)" fill="#fff"/>
              <rect id="Rectangle_1084" data-name="Rectangle 1084" width="172" height="8" transform="translate(0 121.617) rotate(-45)" fill="#fff"/>
            </g>
          </g>
          <path id="Path_1866" data-name="Path 1866" d="M297.95,166.95v-3.31a6.19,6.19,0,1,1,0-12.38v-6.74a6.19,6.19,0,1,1,0-12.38v-5.6a27.6,27.6,0,1,1,0-55.2v-5.4a6.19,6.19,0,1,1,0-12.38V46.82a6.19,6.19,0,1,1,0-12.38V29.93h-134v137h134Z" opacity="0.1"/>
        </g>
      </g>
      <path id="Icon_awesome-exclamation" data-name="Icon awesome-exclamation" d="M22.029,56.442A10.452,10.452,0,1,1,11.577,45.989,10.464,10.464,0,0,1,22.029,56.442ZM2.335,3.292,4.112,38.83a3.136,3.136,0,0,0,3.132,2.979h8.667a3.136,3.136,0,0,0,3.132-2.979L20.819,3.292A3.136,3.136,0,0,0,17.688,0H5.467A3.136,3.136,0,0,0,2.335,3.292Z" transform="translate(980.106 401)" fill="#fff"/>
    </g>
  </g>
</svg>
