<svg id="danger-sing" xmlns="http://www.w3.org/2000/svg" width="69.223" height="62.931" viewBox="0 0 69.223 62.931">
  <path id="Path_1107" data-name="Path 1107" d="M57.953,90.741H11.268A11.25,11.25,0,0,1,1.525,73.866L24.868,33.435a11.251,11.251,0,0,1,19.486,0L67.7,73.866a11.25,11.25,0,0,1-9.743,16.876Zm-23.343-59.7a7.936,7.936,0,0,0-6.943,4.008L4.325,75.482a8.017,8.017,0,0,0,6.943,12.026H57.953A8.017,8.017,0,0,0,64.9,75.482L41.553,35.052A7.934,7.934,0,0,0,34.611,31.043ZM62.83,75.665,40.322,36.68a6.6,6.6,0,0,0-11.424,0L6.391,75.665A6.6,6.6,0,0,0,12.1,85.558H57.118a6.6,6.6,0,0,0,5.712-9.893Zm-32.3-26.82a4.076,4.076,0,0,1,8.152,0V62.073a4.076,4.076,0,1,1-8.152,0ZM34.61,78.172A4.177,4.177,0,1,1,38.787,74,4.182,4.182,0,0,1,34.61,78.172Z" transform="translate(0.001 -27.81)" fill="#1c223a"/>
</svg>
