<svg xmlns="http://www.w3.org/2000/svg" width="289.042" height="250.325" viewBox="0 0 289.042 250.325">
  <g id="Group_2495" data-name="Group 2495" transform="translate(0 1.899)">
    <path id="Path_1917" data-name="Path 1917" d="M280.862,148.709H181.171c.265,0,.522-.015.779-.038a8.175,8.175,0,0,1,0-16.276c-.257-.023-.514-.038-.779-.038H208.53a8.18,8.18,0,1,0,0-16.359h.93c-2.427,0-6.086-3.659-6.086-8.18a8.175,8.175,0,0,1,7.719-8.157c-.151-.008-.31-.023-.461-.023h18.559a8.18,8.18,0,0,0,0-16.359H167.132a8.18,8.18,0,1,1,0-16.359H232.4a8.18,8.18,0,1,0,0-16.359H142.827a8.18,8.18,0,1,0,0,16.359h-15.15a8.18,8.18,0,0,0,0,16.359H48.965a8.18,8.18,0,0,0,0,16.359H77.541a8.18,8.18,0,1,1,0,16.359H51.308a8.18,8.18,0,0,0,0,16.359h2.676a8.175,8.175,0,0,1,3.031,15.77H16.322a7.5,7.5,0,1,0,0,15H64.893a8.18,8.18,0,0,1,0,16.359H8.18a8.168,8.168,0,1,0,0,16.337h92.026a8.166,8.166,0,0,0,3.871.975h6.849a8.179,8.179,0,0,0,3.871,15.384h89.561a8.18,8.18,0,0,0,0-16.359h31.63a8.18,8.18,0,0,0,0-16.359h-90.68c.144,0,.287-.015.431-.023a8.164,8.164,0,0,1,4.884-14.364c-.008-.008-.023-.015-.03-.023H280.862a8.172,8.172,0,1,0,0-16.344ZM138.639,100.251c.2.015.386.03.59.03h-1.172C138.254,100.281,138.443,100.258,138.639,100.251Zm.582-17.629c-.2,0-.393.015-.59.03-.2-.015-.386-.03-.582-.03Z" transform="translate(0 -13.355)" fill="#c6c6c6" opacity="0.5"/>
    <path id="Path_1918" data-name="Path 1918" d="M255.671,306.5c0,7.87-43.877,14.258-98.005,14.258S59.66,314.375,59.66,306.5s43.877-14.258,98.005-14.258S255.671,298.621,255.671,306.5Z" transform="translate(-14.558 -72.33)" fill="#c6c6c6"/>
    <g id="Group_2493" data-name="Group 2493" transform="translate(17.897 0)">
      <circle id="Ellipse_116" data-name="Ellipse 116" cx="52.82" cy="52.82" r="52.82" transform="translate(0 186.746) rotate(-67.5)" stroke-dasharray="4.625" stroke="#552a68" stroke-linecap="round" stroke-linejoin="round" stroke-miterlimit="10" stroke-width="2.274" fill="none"/>
      <g id="Group_2489" data-name="Group 2489" transform="translate(30.712)">
        <rect id="Rectangle_1101" data-name="Rectangle 1101" width="52.82" height="76.982" transform="translate(9.153 57.403) rotate(-56.515)" stroke-width="2.692" stroke="#552a68" stroke-linecap="round" stroke-linejoin="round" stroke-miterlimit="10" fill="#fed588"/>
        <g id="Group_2487" data-name="Group 2487" transform="translate(40.654 8.679)">
          <path id="Path_1919" data-name="Path 1919" d="M163.846,99.056a5.542,5.542,0,0,1-7.673,1.565L120.559,77.065a5.542,5.542,0,0,1-1.565-7.673l35.781-54.083a5.54,5.54,0,0,1,7.673-1.565L198.062,37.3a5.542,5.542,0,0,1,1.565,7.673Z" transform="translate(-118.076 -12.826)" fill="#fff" stroke="#552a68" stroke-linecap="round" stroke-linejoin="round" stroke-miterlimit="10" stroke-width="2.692"/>
          <line id="Line_1" data-name="Line 1" x2="36.937" y2="24.433" transform="translate(36.29 11.69)" fill="#fed588" stroke="#552a68" stroke-linecap="round" stroke-linejoin="round" stroke-miterlimit="10" stroke-width="2.356"/>
          <line id="Line_2" data-name="Line 2" x2="36.937" y2="24.433" transform="translate(29.524 20.49)" fill="#fed588" stroke="#552a68" stroke-linecap="round" stroke-linejoin="round" stroke-miterlimit="10" stroke-width="2.356"/>
          <line id="Line_3" data-name="Line 3" x2="36.937" y2="24.441" transform="translate(24.141 28.617)" fill="#fed588" stroke="#552a68" stroke-linecap="round" stroke-linejoin="round" stroke-miterlimit="10" stroke-width="2.356"/>
        </g>
        <g id="Group_2488" data-name="Group 2488" transform="translate(14.156)">
          <path id="Path_1920" data-name="Path 1920" d="M128.8,87.584a5.54,5.54,0,0,1-7.673,1.565L85.509,65.585a5.54,5.54,0,0,1-1.565-7.673L119.717,3.829a5.54,5.54,0,0,1,7.673-1.565L163,25.82a5.54,5.54,0,0,1,1.565,7.673Z" transform="translate(-83.026 -1.346)" fill="#fff" stroke="#552a68" stroke-linecap="round" stroke-linejoin="round" stroke-miterlimit="10" stroke-width="2.692"/>
          <line id="Line_4" data-name="Line 4" x2="36.937" y2="24.441" transform="translate(36.29 11.69)" fill="#fed588" stroke="#552a68" stroke-linecap="round" stroke-linejoin="round" stroke-miterlimit="10" stroke-width="2.356"/>
          <line id="Line_5" data-name="Line 5" x2="36.945" y2="24.433" transform="translate(29.517 20.49)" fill="#fed588" stroke="#552a68" stroke-linecap="round" stroke-linejoin="round" stroke-miterlimit="10" stroke-width="2.356"/>
          <line id="Line_6" data-name="Line 6" x2="36.937" y2="24.433" transform="translate(24.141 28.624)" fill="#fed588" stroke="#552a68" stroke-linecap="round" stroke-linejoin="round" stroke-miterlimit="10" stroke-width="2.356"/>
        </g>
        <path id="Path_1921" data-name="Path 1921" d="M130.237,41.575l3.976-6.025L96.928,10.89,64.3,60.21l65.853,43.56,28.644-43.3Z" transform="translate(-64.3 -3.675)" fill="#fed588" stroke="#552a68" stroke-linecap="round" stroke-linejoin="round" stroke-miterlimit="10" stroke-width="2.692"/>
        <path id="Path_1922" data-name="Path 1922" d="M152.651,69.936c-17.2,19.754-47.483,24.38-69.815,9.6A52.026,52.026,0,0,1,69.184,66.36L64.3,73.738l65.853,43.56L158.8,74Z" transform="translate(-64.3 -17.211)" fill="#fed588"/>
      </g>
      <g id="Group_2491" data-name="Group 2491" transform="translate(72.601 122.427)">
        <rect id="Rectangle_1102" data-name="Rectangle 1102" width="22.029" height="43.514" transform="translate(110.976 35.776) rotate(-22.351)" stroke-width="4.766" stroke="#552a68" stroke-linecap="round" stroke-linejoin="round" stroke-miterlimit="10" fill="none"/>
        <rect id="Rectangle_1103" data-name="Rectangle 1103" width="91.859" height="113.616" transform="translate(0.008)" stroke-width="4.766" stroke="#552a68" stroke-linecap="round" stroke-linejoin="round" stroke-miterlimit="10" fill="#fed588"/>
        <path id="Path_1923" data-name="Path 1923" d="M192.488,163.29a67.728,67.728,0,0,1,7.892,31.7c0,37.67-31.441,69.112-69.119,69.112a67.045,67.045,0,0,1-11.551-1.005v13.8h91.859V163.29Z" transform="translate(-119.71 -163.29)" fill="#fed588"/>
        <rect id="Rectangle_1104" data-name="Rectangle 1104" width="20.956" height="111.197" transform="translate(86.18 9.383) rotate(-22.351)" stroke-width="4.766" stroke="#552a68" stroke-linecap="round" stroke-linejoin="round" stroke-miterlimit="10" fill="#fed588"/>
        <g id="Group_2490" data-name="Group 2490" transform="translate(20.147 1.074)">
          <line id="Line_7" data-name="Line 7" y2="110.668" stroke-width="4.766" stroke="#552a68" stroke-linecap="round" stroke-linejoin="round" stroke-miterlimit="10" fill="none"/>
          <line id="Line_8" data-name="Line 8" y2="110.668" transform="translate(25.787)" fill="none" stroke="#552a68" stroke-linecap="round" stroke-linejoin="round" stroke-miterlimit="10" stroke-width="4.766"/>
          <line id="Line_9" data-name="Line 9" y2="110.668" transform="translate(51.573)" fill="none" stroke="#552a68" stroke-linecap="round" stroke-linejoin="round" stroke-miterlimit="10" stroke-width="4.766"/>
        </g>
      </g>
      <path id="Path_1924" data-name="Path 1924" stroke="#b91824" d="M97.14,1.62s35.055,52.216,31.381,106.888" fill="none" transform="translate(-41.601 -1.413)" stroke-linecap="round" stroke-linejoin="round" stroke-miterlimit="10" stroke-width="3.036" stroke-dasharray="6.174"/>
      <path id="Path_1925" data-name="Path 1925" stroke="#b91824" d="M163.81,58.247S101.3,51.277,54.51,79.793" fill="none" transform="translate(-31.199 -15.048)" stroke-linecap="round" stroke-linejoin="round" stroke-miterlimit="10" stroke-width="3.036" stroke-dasharray="6.174"/>
      <g id="Group_2492" data-name="Group 2492" transform="translate(140.692 49.149)">
        <path id="Path_1926" data-name="Path 1926" stroke="#552a68" d="M214.9,126.634s24.207-23.345,9.435-60.274" fill="none" transform="translate(-211.029 -66.36)" stroke-linecap="round" stroke-linejoin="round" stroke-miterlimit="10" stroke-width="3.036" stroke-dasharray="6.174"/>
        <path id="Path_1927" data-name="Path 1927" stroke="#552a68" d="M210.415,141.56l-.635,8.686,8.648-2.548,1.187-.635" fill="none" transform="translate(-209.78 -84.71)" stroke-linecap="round" stroke-linejoin="round" stroke-miterlimit="10" stroke-width="3.036" stroke-dasharray="6.174"/>
      </g>
    </g>
    <g id="Group_2494" data-name="Group 2494" transform="translate(12.942 100.533)">
      <path id="Path_1928" data-name="Path 1928" d="M316.41,165.811l-9.729-2.918v-.1l-2.888-10.055-3.016,10.055h-.181l-10.055,2.88,10.032,3.009,2.774,9.661,2.918-9.745h.091v.091Z" transform="translate(-83.84 -138.822)" fill="#fff"/>
      <path id="Path_1929" data-name="Path 1929" d="M82.042,264.263,77.537,262.9v-.038L76.2,258.2l-1.4,4.664h-.083l-4.657,1.331,4.649,1.4,1.278,4.475,1.353-4.513h.045v.038Z" transform="translate(-30.038 -164.557)" fill="#fff"/>
      <path id="Path_1930" data-name="Path 1930" d="M245.638,270.5l-8.565-2.57v-.083l-2.54-8.853-2.653,8.853h-.166l-8.853,2.54,8.837,2.646,2.434,8.5,2.578-8.58h.083v.083Z" transform="translate(-67.325 -164.749)" fill="#fff"/>
      <path id="Path_1931" data-name="Path 1931" d="M162.969,256.259l-4.566-1.376v-.045l-1.353-4.717-1.421,4.717h-.083L150.82,256.2l4.717,1.406,1.3,4.543,1.368-4.581h.045v.045Z" transform="translate(-49.745 -162.585)" fill="#fff"/>
      <path id="Path_1932" data-name="Path 1932" d="M91.651,149.427,80.41,146.055v-.106L77.076,134.33l-3.485,11.619h-.212L61.76,149.276l11.6,3.478,3.2,11.158,3.379-11.257h.106v.106Z" transform="translate(-28.013 -134.33)" fill="#fff"/>
      <path id="Path_1933" data-name="Path 1933" d="M29.261,202.331l-4.566-1.368v-.045L23.342,196.2l-1.421,4.717h-.083l-4.717,1.353,4.71,1.414,1.3,4.536,1.368-4.574h.045v.038Z" transform="translate(-17.12 -149.428)" fill="#fff"/>
    </g>
  </g>
</svg>
