<svg xmlns="http://www.w3.org/2000/svg" xmlns:xlink="http://www.w3.org/1999/xlink" width="76.785" height="82.516" viewBox="0 0 76.785 82.516">
  <defs>
    <linearGradient id="linear-gradient" x1="-0.417" y1="1.301" x2="-0.413" y2="1.3" gradientUnits="objectBoundingBox">
      <stop offset="0" stop-color="#d4e1f4"/>
      <stop offset="0.172" stop-color="#d4e1f4"/>
      <stop offset="0.2" stop-color="#d4e1f4"/>
      <stop offset="0.2" stop-color="#dae4f4"/>
      <stop offset="0.201" stop-color="#ebebf4"/>
      <stop offset="0.201" stop-color="#f6f1f4"/>
      <stop offset="0.202" stop-color="#fdf4f4"/>
      <stop offset="0.205" stop-color="#fff5f4"/>
      <stop offset="0.252" stop-color="#fff5f4"/>
      <stop offset="0.26" stop-color="#fff5f4"/>
      <stop offset="0.26" stop-color="#d4e1f4"/>
      <stop offset="0.397" stop-color="#d4e1f4"/>
      <stop offset="0.42" stop-color="#d4e1f4"/>
      <stop offset="0.42" stop-color="#dae4f4"/>
      <stop offset="0.421" stop-color="#ebebf4"/>
      <stop offset="0.421" stop-color="#f6f1f4"/>
      <stop offset="0.422" stop-color="#fdf4f4"/>
      <stop offset="0.425" stop-color="#fff5f4"/>
      <stop offset="0.489" stop-color="#fff5f4"/>
      <stop offset="0.5" stop-color="#fff5f4"/>
      <stop offset="0.5" stop-color="#f9f2f4"/>
      <stop offset="0.5" stop-color="#e8ebf4"/>
      <stop offset="0.5" stop-color="#dde5f4"/>
      <stop offset="0.501" stop-color="#d6e2f4"/>
      <stop offset="0.501" stop-color="#d4e1f4"/>
      <stop offset="0.706" stop-color="#d4e1f4"/>
      <stop offset="0.74" stop-color="#d4e1f4"/>
      <stop offset="0.741" stop-color="#fff5f4"/>
      <stop offset="0.835" stop-color="#fff5f4"/>
      <stop offset="0.85" stop-color="#fff5f4"/>
      <stop offset="0.851" stop-color="#d4e1f4"/>
    </linearGradient>
  </defs>
  <g id="Group_1831" data-name="Group 1831" transform="translate(-960.215 -446.742)">
    <g id="Group_1832" data-name="Group 1832" transform="translate(904.749 446.742)">
      <path id="Path_1709" data-name="Path 1709" d="M269.049,27.787,249.795,8.533H234.667V88.3h34.382Z" transform="translate(-150.32 -7.158)" fill="#a4c2f7"/>
      <path id="Path_1710" data-name="Path 1710" d="M98.382,27.787,79.128,8.533H64V88.3H98.382Z" transform="translate(-7.159 -7.158)" fill="#fff"/>
      <path id="Path_1711" data-name="Path 1711" d="M143.236,27.787l-16.5-19.254H89.6V88.3h53.636Z" transform="translate(-28.633 -7.158)" fill="url(#linear-gradient)"/>
      <path id="Path_1712" data-name="Path 1712" d="M328.533,8.533V27.787h19.254Z" transform="translate(-229.058 -7.158)" fill="#a4c2f7"/>
      <g id="Group_1831-2" data-name="Group 1831" transform="translate(55.466 0)">
        <path id="Path_1713" data-name="Path 1713" d="M176.557,190.484H142.175a1.375,1.375,0,0,1,0-2.75h34.382a1.375,1.375,0,0,1,0,2.75Z" transform="translate(-127.047 -157.478)" fill="#428dff"/>
        <path id="Path_1714" data-name="Path 1714" d="M155.929,122.217H142.176a1.375,1.375,0,0,1,0-2.75h13.753a1.375,1.375,0,1,1,0,2.75Z" transform="translate(-127.048 -100.213)" fill="#428dff"/>
        <path id="Path_1715" data-name="Path 1715" d="M176.557,258.751H142.175a1.375,1.375,0,1,1,0-2.75h34.382a1.375,1.375,0,0,1,0,2.75Z" transform="translate(-127.047 -214.743)" fill="#428dff"/>
        <path id="Path_1716" data-name="Path 1716" d="M176.557,327.017H142.175a1.375,1.375,0,0,1,0-2.75h34.382a1.375,1.375,0,0,1,0,2.75Z" transform="translate(-127.047 -272.007)" fill="#428dff"/>
        <path id="Path_1717" data-name="Path 1717" d="M176.557,395.284H142.175a1.375,1.375,0,0,1,0-2.75h34.382a1.375,1.375,0,0,1,0,2.75Z" transform="translate(-127.047 -329.272)" fill="#428dff"/>
        <path id="Path_1718" data-name="Path 1718" d="M118.729,82.516H56.841a1.375,1.375,0,0,1-1.375-1.375V1.375A1.375,1.375,0,0,1,56.841,0H99.475a1.376,1.376,0,0,1,.972.4L119.7,19.657a1.374,1.374,0,0,1,.4.972V81.141a1.375,1.375,0,0,1-1.375,1.375ZM58.217,79.766h59.137V21.2L98.905,2.751H58.217Z" transform="translate(-55.466 0)" fill="#428dff"/>
        <path id="Path_1719" data-name="Path 1719" d="M340.628,22H321.374A1.375,1.375,0,0,1,320,20.629V1.375A1.375,1.375,0,0,1,322.347.4L341.6,19.657A1.375,1.375,0,0,1,340.628,22Zm-17.878-2.75h14.558L322.75,4.7Z" transform="translate(-277.366 0)" fill="#428dff"/>
      </g>
    </g>
    <g id="Group_1834" data-name="Group 1834" transform="translate(1003 475)">
      <circle id="Ellipse_79" data-name="Ellipse 79" cx="17" cy="17" r="17" transform="translate(0 0)" fill="#e21b1b"/>
      <path id="Path_1720" data-name="Path 1720" d="M174.157,152.39l-9.454-9.454-14.455,14.986,9.359,9.359A17,17,0,0,0,174.157,152.39Z" transform="translate(-140.27 -133.444)" fill="#c40606"/>
      <g id="Group_1833" data-name="Group 1833" transform="translate(9.333 9.145)">
        <path id="Path_1721" data-name="Path 1721" d="M154.746,153.237a1.325,1.325,0,0,1-.939-.389l-12.871-12.872a1.328,1.328,0,1,1,1.878-1.878l12.872,12.872a1.328,1.328,0,0,1-.939,2.267Z" transform="translate(-140.545 -137.709)" fill="#fff"/>
        <path id="Path_1722" data-name="Path 1722" d="M141.867,153.234a1.328,1.328,0,0,1-.939-2.267L153.8,138.1a1.328,1.328,0,0,1,1.878,1.878l-12.871,12.872A1.324,1.324,0,0,1,141.867,153.234Z" transform="translate(-140.538 -137.706)" fill="#fff"/>
      </g>
    </g>
  </g>
</svg>
