<svg id="Group_1099" data-name="Group 1099" xmlns="http://www.w3.org/2000/svg" width="61.495" height="64.007" viewBox="0 0 61.495 64.007">
  <g id="_005-knowledge" data-name="005-knowledge" transform="translate(0 52.365)">
    <g id="Group_997" data-name="Group 997" transform="translate(0.056)">
      <g id="Group_996" data-name="Group 996">
        <path id="Path_1480" data-name="Path 1480" d="M61.8,370.552v-2.117c-13.807,0-28.479,3.338-28.574,9.525H28.992c-.095-6.187-14.767-9.525-28.574-9.525v2.117c15.5,0,26.33,3.891,26.452,7.408H.418v2.117H61.8V377.96H35.348C35.47,374.443,46.3,370.552,61.8,370.552Z" transform="translate(-0.418 -368.435)" fill="#1c223a"/>
      </g>
    </g>
    <g id="Group_999" data-name="Group 999" transform="translate(0 5.294)">
      <g id="Group_998" data-name="Group 998" transform="translate(0 0)">
        <rect id="Rectangle_732" data-name="Rectangle 732" width="2.117" height="20.14" transform="translate(0 2.114) rotate(-86.985)" fill="#1c223a"/>
      </g>
    </g>
    <g id="Group_1001" data-name="Group 1001" transform="translate(41.272 5.292)">
      <g id="Group_1000" data-name="Group 1000" transform="translate(0 0)">
        <rect id="Rectangle_733" data-name="Rectangle 733" width="20.14" height="2.117" transform="translate(0 1.061) rotate(-3.021)" fill="#1c223a"/>
      </g>
    </g>
  </g>
  <g id="Group_1003" data-name="Group 1003" transform="translate(5.05)">
    <path id="XMLID_49_" d="M40.281,44.855v1.5a2.379,2.379,0,0,1-2.017,2.355l-.37,1.362a1.7,1.7,0,0,1-1.637,1.257H32.592a1.7,1.7,0,0,1-1.637-1.257L30.6,48.71a2.389,2.389,0,0,1-2.028-2.366v-1.5A1.442,1.442,0,0,1,30.015,43.4h8.819A1.458,1.458,0,0,1,40.281,44.855ZM47.072,24.64a12.582,12.582,0,0,1-3.549,8.777,11.6,11.6,0,0,0-3.105,6.295,2.091,2.091,0,0,1-2.07,1.764H30.5a2.071,2.071,0,0,1-2.06-1.753,11.725,11.725,0,0,0-3.126-6.316A12.644,12.644,0,1,1,47.072,24.64ZM35.855,16.983a1.427,1.427,0,0,0-1.426-1.426A9.134,9.134,0,0,0,25.3,24.683a1.426,1.426,0,1,0,2.852,0,6.281,6.281,0,0,1,6.274-6.274A1.42,1.42,0,0,0,35.855,16.983ZM34.43,7.847a1.427,1.427,0,0,0,1.426-1.426v-5a1.426,1.426,0,1,0-2.852,0v5A1.427,1.427,0,0,0,34.43,7.847ZM17.647,24.63A1.427,1.427,0,0,0,16.221,23.2h-5a1.426,1.426,0,0,0,0,2.852h5A1.42,1.42,0,0,0,17.647,24.63ZM57.633,23.2h-5a1.426,1.426,0,0,0,0,2.852h5a1.426,1.426,0,0,0,0-2.852ZM20.552,36.5l-3.538,3.538a1.423,1.423,0,0,0,2.007,2.017l3.538-3.538A1.423,1.423,0,1,0,20.552,36.5ZM47.3,13.181a1.424,1.424,0,0,0,1-.412l3.538-3.538a1.426,1.426,0,1,0-2.017-2.017L46.29,10.752a1.422,1.422,0,0,0,0,2.017A1.448,1.448,0,0,0,47.3,13.181Zm-26.752-.422a1.423,1.423,0,0,0,2.007-2.017L19.02,7.2A1.426,1.426,0,1,0,17,9.22ZM48.307,36.5a1.426,1.426,0,1,0-2.017,2.017l3.538,3.538a1.423,1.423,0,0,0,2.007-2.017Z" transform="translate(-9.8)" fill="#1c223a"/>
  </g>
</svg>
