<svg xmlns="http://www.w3.org/2000/svg" width="21.413" height="19.467" viewBox="0 0 21.413 19.467">
  <path id="ic_thumb_down_24px" d="M13.627,19.467H4.867a1.934,1.934,0,0,1-1.791-1.187L.136,11.417A1.923,1.923,0,0,1,0,10.707V8.848l.01-.01L0,8.76A1.952,1.952,0,0,1,1.947,6.813H8.088L7.164,2.365l-.029-.311a1.465,1.465,0,0,1,.428-1.032L8.595,0l6.414,6.414a1.935,1.935,0,0,1,.565,1.372V17.52A1.952,1.952,0,0,1,13.627,19.467Zm3.893,0V7.787h3.893v11.68Z" transform="translate(21.413 19.467) rotate(180)" fill="#a2abd1"/>
</svg>
