<svg xmlns="http://www.w3.org/2000/svg" width="26" height="26" viewBox="0 0 26 26">
  <g id="Group_1835" data-name="Group 1835" transform="translate(-1121 -874)">
    <circle id="Ellipse_80" data-name="Ellipse 80" cx="13" cy="13" r="13" transform="translate(1121 874)" fill="#a2abd1"/>
    <path id="Path_1723" data-name="Path 1723" d="M.032,5.069A.238.238,0,0,1,.177,4.9,5.55,5.55,0,0,1,2.242,4.5a5.971,5.971,0,0,1,2.306.462L8.09,1.952A2.661,2.661,0,0,1,8.578.088.239.239,0,0,1,8.751,0a.247.247,0,0,1,.181.07L12.563,3.7a.238.238,0,0,1-.02.355,2.564,2.564,0,0,1-1.593.5c-.1,0-.182,0-.246-.01L7.676,8.1a6.24,6.24,0,0,1,.073,4.365.238.238,0,0,1-.389.08L3.891,9.081l-3.23,3.23a.238.238,0,0,1-.337-.337l3.23-3.23L.1,5.286A.238.238,0,0,1,.032,5.069Z" transform="translate(1127.973 881)" fill="#fff"/>
    <rect id="Rectangle_983" data-name="Rectangle 983" width="1" height="8" transform="matrix(0.719, 0.695, -0.695, 0.719, 1132.919, 887.775)" fill="#fff"/>
  </g>
</svg>
