<svg xmlns="http://www.w3.org/2000/svg" width="132.505" height="133.115" viewBox="0 0 132.505 133.115">
  <g id="Group_1626" data-name="Group 1626" transform="matrix(0.799, -0.602, 0.602, 0.799, 0, 54.964)">
    <path id="Path_1549" data-name="Path 1549" d="M80.321,30.986l-1.386.538a4.89,4.89,0,0,1,3.751.1,4.609,4.609,0,0,1,1.713,1.3,4.807,4.807,0,0,1,.865,1.419,4.883,4.883,0,0,1-2.821,6.311L70.5,45.224a4.811,4.811,0,0,1,3.751.114,4.409,4.409,0,0,1,1.713,1.288,5.023,5.023,0,0,1,.979,1.762,5.114,5.114,0,0,1-3.2,6.083L37.184,68.447a21.69,21.69,0,0,1-2.251.669h-.016A19.3,19.3,0,0,1,22.228,68.2a3.091,3.091,0,0,0-2.5-.066L16,69.557l-.946.358a6.42,6.42,0,0,1-1.272.294c-3.669.652-13.113,1.37-13.667-.082V44.848c-.538-1.4.946-3.767,2.43-4.892a3.734,3.734,0,0,1,.865-.506l.555-.212a9.646,9.646,0,0,0,5.447-5.2c1.745-4.045,4.958-10.471,9.134-14.336C25,13.73,33.384,6.652,35.259,2.444a1.86,1.86,0,0,1,.163-.31c1.924-3.8,5.969-1.94,7.094,1.028,1.158,3.05-2.642,8.382-6.05,13.178a24.284,24.284,0,0,0-2.74,4.925,3.238,3.238,0,0,0,3.164,4.453,16.416,16.416,0,0,0,3.164-.473,24.924,24.924,0,0,0,2.952-.929l25.474-9.753H68.5l3.457-1.321a4.846,4.846,0,0,1,5.463,1.4,4.418,4.418,0,0,1,.848,1.418A4.906,4.906,0,0,1,76.6,21.754a4.667,4.667,0,0,1-1.158.636L78.07,21.38h.016l3.457-1.321a4.847,4.847,0,0,1,5.463,1.4,4.259,4.259,0,0,1,.848,1.419,4.883,4.883,0,0,1-2.821,6.312Zm0,0" transform="translate(1.518 1.633)" fill="#a4c2f7"/>
    <path id="Path_1550" data-name="Path 1550" d="M80.255,28.688l-6.1,2.332a4.892,4.892,0,0,1,3.752.1,4.622,4.622,0,0,1,1.712,1.3,4.779,4.779,0,0,1,.865,1.418,4.876,4.876,0,0,1-2.838,6.311L65.724,44.719a4.82,4.82,0,0,1,3.752.114,4.414,4.414,0,0,1,1.712,1.289,4.737,4.737,0,0,1,.962,1.761,5.088,5.088,0,0,1-3.18,6.083L34.933,66.981h-.016l-2.511.962s-8.22,3.131-14.955-.245A2.965,2.965,0,0,0,16,67.422a3,3,0,0,0-1.06.212l-1.158.44c-3.669.652-13.113,1.37-13.667-.082V42.713c-.538-1.4.946-3.767,2.43-4.892a3.733,3.733,0,0,1,.865-.506l.555-.212a9.646,9.646,0,0,0,5.447-5.2c1.745-4.045,4.958-10.471,9.134-14.336C25,11.6,33.384,4.517,35.259.31A1.86,1.86,0,0,1,35.423,0a5.171,5.171,0,0,1,2.316,2.659c1.158,3.05-2.642,8.383-6.051,13.178a23.552,23.552,0,0,0-2.74,4.925,3.232,3.232,0,0,0,3.164,4.453,19.575,19.575,0,0,0,6.116-1.4l1.827-.7L67.176,12.737a5.458,5.458,0,0,1,1.305-.31H68.5a4.85,4.85,0,0,1,4.126,1.713,4.5,4.5,0,0,1,.865,1.419,4.906,4.906,0,0,1-2.822,6.328L76.6,19.62l.163-.065a5.423,5.423,0,0,1,1.305-.31h.016a4.848,4.848,0,0,1,4.126,1.713,4.309,4.309,0,0,1,.865,1.418,4.883,4.883,0,0,1-2.822,6.311Zm0,0" transform="translate(1.518 3.767)" fill="#e3e7f2"/>
    <path id="Path_1551" data-name="Path 1551" d="M88.069,40.767a4.893,4.893,0,0,1-4.892,4.893H76.653a4.885,4.885,0,0,1,3.458,1.435,4.63,4.63,0,0,1,1.142,1.827,4.524,4.524,0,0,1,.293,1.631,4.893,4.893,0,0,1-4.893,4.892H63.883a4.882,4.882,0,0,1,3.457,1.436,4.628,4.628,0,0,1,1.142,1.826,4.728,4.728,0,0,1,.277,1.99,5.073,5.073,0,0,1-5.154,4.534H24.464s-8.79,0-13.879-5.561a3.128,3.128,0,0,0-2.316-.962H3.262A3.272,3.272,0,0,1,0,55.445V29.351a3.262,3.262,0,0,1,2.3-3.115,3.045,3.045,0,0,1,.962-.146h.6a9.7,9.7,0,0,0,6.948-2.92c3.066-3.148,8.367-8.008,13.65-10.128C32.618,9.78,44.035,4.61,47.3,1.348c.081-.081.179-.163.261-.244,3.18-2.838,6.263.326,6.263,3.506C53.82,7.872,47.3,13.042,42.4,16.3a24.7,24.7,0,0,0-4.322,3.621,3.249,3.249,0,0,0,1.37,5.3,19.532,19.532,0,0,0,6.214.865H76.653a4.84,4.84,0,0,1,4.6,3.262,4.52,4.52,0,0,1,.293,1.631,4.893,4.893,0,0,1-4.893,4.893h6.524a4.84,4.84,0,0,1,4.6,3.262A4.507,4.507,0,0,1,88.069,40.767Zm0,0" transform="translate(1.631 30.993)" fill="#a4c2f7"/>
    <path id="Path_1552" data-name="Path 1552" d="M83.177,39.663a4.893,4.893,0,0,1-4.893,4.893H71.76a4.884,4.884,0,0,1,3.457,1.435,4.63,4.63,0,0,1,1.141,1.827,4.508,4.508,0,0,1,.293,1.631,4.892,4.892,0,0,1-4.892,4.892H58.99a4.881,4.881,0,0,1,3.457,1.436A4.628,4.628,0,0,1,63.589,57.6a4.728,4.728,0,0,1,.278,1.99,5.073,5.073,0,0,1-5.154,4.534H24.464s-8.79,0-13.879-5.561A3.128,3.128,0,0,0,8.269,57.6H3.262A3.272,3.272,0,0,1,0,54.341V28.247a3.262,3.262,0,0,1,2.3-3.115,3.046,3.046,0,0,1,.962-.146h.6a9.7,9.7,0,0,0,6.948-2.92c3.066-3.148,8.367-8.008,13.65-10.128C32.618,8.676,44.035,3.506,47.3.244c.081-.081.179-.163.261-.244a5.172,5.172,0,0,1,1.37,3.506c0,3.262-6.524,8.432-11.416,11.694a24.677,24.677,0,0,0-4.322,3.621,3.249,3.249,0,0,0,1.37,5.3,19.526,19.526,0,0,0,6.214.865H71.76a4.839,4.839,0,0,1,4.6,3.262,4.5,4.5,0,0,1,.293,1.631,4.893,4.893,0,0,1-4.892,4.893h6.524a4.84,4.84,0,0,1,4.6,3.262A4.524,4.524,0,0,1,83.177,39.663Zm0,0" transform="translate(1.631 32.097)" fill="#e3e7f2"/>
    <path id="Path_1553" data-name="Path 1553" d="M.113,58.722V84.817a3.272,3.272,0,0,0,3.262,3.262H8.268a3.271,3.271,0,0,1-3.262-3.262V44.859c-.538-1.4.946-3.767,2.43-4.892a3.718,3.718,0,0,1,.865-.506l.554-.212a9.648,9.648,0,0,0,5.448-5.2C16.047,30,19.26,23.576,23.435,19.711c6.459-5.97,14.841-13.048,16.717-17.255a1.8,1.8,0,0,1,.163-.31,4.788,4.788,0,0,1,.723-1.06,3.368,3.368,0,0,0-5.615,1.06,1.86,1.86,0,0,0-.163.31C33.384,6.663,25,13.742,18.543,19.711,14.367,23.576,11.155,30,9.409,34.047a9.646,9.646,0,0,1-5.447,5.2l-.555.212a3.734,3.734,0,0,0-.865.506c-1.484,1.125-2.968,3.49-2.43,4.892Zm0,0" transform="translate(1.518 1.621)" fill="#fff"/>
    <path id="Path_1554" data-name="Path 1554" d="M.062,0,0,.011A3.236,3.236,0,0,0,1.794.473,16.416,16.416,0,0,0,4.958,0" transform="translate(41.51 26.877)" fill="#fff"/>
    <path id="Path_1555" data-name="Path 1555" d="M0,0A3.128,3.128,0,0,1,2.316.963" transform="translate(9.9 89.699)" fill="#fff"/>
    <path id="Path_1556" data-name="Path 1556" d="M19.215,1.33A20.908,20.908,0,0,1,15.87,6.046C14.65,7.412,13.382,8.688,12.1,9.937c-2.572,2.487-5.219,4.856-7.809,7.238L2.224,19.082,0,16.693l2.09-1.924c2.61-2.394,5.232-4.75,7.742-7.176,1.248-1.215,2.471-2.447,3.6-3.717A18.357,18.357,0,0,0,16.242,0Zm0,0" transform="translate(18.948 3.425)" fill="#fff"/>
    <g id="Group_1142" data-name="Group 1142" transform="translate(0 0)">
      <path id="Path_1557" data-name="Path 1557" d="M5.4,1.137A1.631,1.631,0,0,0,3.356.076L1.208.756a1.631,1.631,0,1,0,.979,3.109l2.148-.68A1.631,1.631,0,0,0,5.4,1.137Zm0,0" transform="translate(92.378 13.997)" fill="#428dff"/>
      <path id="Path_1558" data-name="Path 1558" d="M4.185.414a1.631,1.631,0,0,0-2.3.131L.414,2.19A1.631,1.631,0,0,0,2.848,4.363L4.316,2.717a1.632,1.632,0,0,0-.131-2.3Zm0,0" transform="translate(89.341 6.615)" fill="#428dff"/>
      <path id="Path_1559" data-name="Path 1559" d="M.426,1.339l-.4,2.169a1.631,1.631,0,0,0,1.3,1.9,1.513,1.513,0,0,0,.3.028,1.631,1.631,0,0,0,1.6-1.339l.4-2.169A1.631,1.631,0,1,0,.417,1.339Zm0,0" transform="translate(82.334 4.103)" fill="#428dff"/>
      <path id="Path_1560" data-name="Path 1560" d="M3.734,3.929A1.631,1.631,0,0,0,4.224.742L2.076.062A1.631,1.631,0,0,0,1.1,3.172l2.148.68A1.622,1.622,0,0,0,3.734,3.929Zm0,0" transform="translate(92.489 84.034)" fill="#428dff"/>
      <path id="Path_1561" data-name="Path 1561" d="M.545.414a1.632,1.632,0,0,0-.131,2.3L1.882,4.363A1.631,1.631,0,0,0,4.316,2.19L2.848.545A1.632,1.632,0,0,0,.545.414Zm0,0" transform="translate(89.339 90.435)" fill="#428dff"/>
      <path id="Path_1562" data-name="Path 1562" d="M1.332.027a1.631,1.631,0,0,0-1.3,1.9l.4,2.171a1.631,1.631,0,0,0,1.6,1.337,1.519,1.519,0,0,0,.3-.028,1.631,1.631,0,0,0,1.3-1.9l-.4-2.17A1.631,1.631,0,0,0,1.332.027Zm0,0" transform="translate(82.344 92.422)" fill="#428dff"/>
      <path id="Path_1563" data-name="Path 1563" d="M4.892,91.331H9.9a1.508,1.508,0,0,1,1.112.432c5.51,6.023,14.694,6.091,15.082,6.091H65.236a6.687,6.687,0,0,0,6.78-6.035,6.468,6.468,0,0,0-.854-3.751h7.122a6.524,6.524,0,0,0,5.652-9.785h.873a6.524,6.524,0,0,0,0-13.048h-.876a6.495,6.495,0,0,0-5.242-9.74,6.421,6.421,0,0,0-.753-9.3l6.647-2.558a6.525,6.525,0,0,0,4.166-6.509,6.126,6.126,0,0,0-.426-1.913,6.444,6.444,0,0,0-1.993-2.738l.815-.314A6.349,6.349,0,0,0,90.5,29.23a6.509,6.509,0,0,0-8.035-9.249l-.8.308A6.523,6.523,0,0,0,72.85,13.2L43.942,24.341a18.229,18.229,0,0,1-5.583,1.305,1.607,1.607,0,0,1-1.453-.706,1.553,1.553,0,0,1-.163-1.5,24.372,24.372,0,0,1,2.562-4.6l.108-.152c3.7-5.247,7.527-10.671,6.051-14.505A6.386,6.386,0,0,0,39.957,0,5.056,5.056,0,0,0,35.2,3.425a21.382,21.382,0,0,1-3.6,4.747,1.656,1.656,0,0,0,.063,2.291,1.615,1.615,0,0,0,2.32-.065,23.683,23.683,0,0,0,4.185-5.643c.45-1,1.035-1.494,1.713-1.494a3.205,3.205,0,0,1,2.539,2.1c.848,2.2-2.921,7.549-5.674,11.452l-.108.152a27.2,27.2,0,0,0-2.874,5.15l-.043.1A18.963,18.963,0,0,0,32.9,32.592a1.63,1.63,0,0,0,1.61,1.381,1.682,1.682,0,0,0,.252-.019,1.631,1.631,0,0,0,1.362-1.861,21.48,21.48,0,0,1-.246-3.829,4.989,4.989,0,0,0,2.622.653,21.442,21.442,0,0,0,6.615-1.527L74.028,16.247a3.267,3.267,0,1,1,2.35,6.1l-.015.01h-.016l-13.357,5.5a1.631,1.631,0,0,0,1.239,3.017l13.341-5.49,6.061-2.338A3.278,3.278,0,0,1,87.855,24.9a3.213,3.213,0,0,1-.208,2.756,3.136,3.136,0,0,1-1.66,1.468L79.94,31.463H79.9L59.755,39.249a1.632,1.632,0,0,0,1.177,3.045l20.124-7.779h.023l.022-.01a3.209,3.209,0,0,1,2.456.078A3.264,3.264,0,0,1,85.3,36.418a3.016,3.016,0,0,1,.205.931,3.261,3.261,0,0,1-2.089,3.262L71.548,45.176l-.054.021-9.878,3.795a1.632,1.632,0,1,0,1.172,3.045l9.877-3.8h.008l.039-.016a3.192,3.192,0,0,1,2.446.08,3.25,3.25,0,0,1,1.794,2.049,3.425,3.425,0,0,1-2.208,4.077l-2.251.865a1.487,1.487,0,0,0-.293.186H47.3a18.114,18.114,0,0,1-5.688-.778,1.651,1.651,0,0,1-1.091-1.176,1.565,1.565,0,0,1,.385-1.478,23.2,23.2,0,0,1,4.038-3.363C49.474,45.65,57.082,39.932,57.082,35.6a6.389,6.389,0,0,0-3.619-5.89,5.109,5.109,0,0,0-5.689,1.476c-2.82,2.82-13.225,7.736-22.286,11.36-5.4,2.166-10.709,6.9-14.212,10.5A8.106,8.106,0,0,1,5.5,55.467h-.6a4.83,4.83,0,0,0-1.631.3V44.623a1.615,1.615,0,0,1,1.033-1.515l1.818-.7a11.369,11.369,0,0,0,6.348-6.1c1.512-3.541,4.664-10.05,8.707-13.8L23.237,20.6l1.2-1.1a1.631,1.631,0,1,0-2.2-2.408l-1.2,1.1-2.091,1.926c-4.264,3.958-7.51,10.29-9.484,14.905a8.076,8.076,0,0,1-4.5,4.333l-1.854.711A4.861,4.861,0,0,0,0,44.623V86.438A4.893,4.893,0,0,0,4.892,91.331Zm0-32.6h.6a11.386,11.386,0,0,0,8.115-3.412c2.688-2.758,7.962-7.691,13.088-9.748,3.145-1.256,19.044-7.745,23.38-12.08.778-.774,1.494-1.033,2.135-.77a3.209,3.209,0,0,1,1.6,2.877c0,1.61-3.671,5.685-10.69,10.362A26.425,26.425,0,0,0,38.522,49.8a4.843,4.843,0,0,0-1.174,4.5,4.922,4.922,0,0,0,3.211,3.472,21.324,21.324,0,0,0,6.737.947H78.283a3.262,3.262,0,1,1,0,6.524H50.558a1.631,1.631,0,0,0,0,3.262h34.25a3.262,3.262,0,0,1,0,6.524H50.558a1.631,1.631,0,0,0,0,3.262H78.283a3.262,3.262,0,1,1,0,6.524H48.927a1.631,1.631,0,1,0,0,3.262H65.514a3.261,3.261,0,0,1,3.25,3.506,3.462,3.462,0,0,1-3.528,3H26.094c-.08,0-8.125-.057-12.68-5.033A4.769,4.769,0,0,0,9.9,88.069H4.892a1.631,1.631,0,0,1-1.631-1.631V60.358A1.631,1.631,0,0,1,4.892,58.729Zm0,0" transform="translate(0 0)" fill="#428dff"/>
      <path id="Path_1564" data-name="Path 1564" d="M1.63,3.262h9.786a1.631,1.631,0,0,0,0-3.262H1.63a1.631,1.631,0,0,0,0,3.262Zm0,0" transform="translate(27.725 88.044)" fill="#428dff"/>
      <path id="Path_1565" data-name="Path 1565" d="M4.872,4.872A1.611,1.611,0,0,0,6.48,3.282,1.652,1.652,0,0,0,4.91,1.611,3.589,3.589,0,0,1,2.764.458,1.631,1.631,0,0,0,.458,2.763,6.617,6.617,0,0,0,4.872,4.872Zm0,0" transform="translate(17.96 86.434)" fill="#428dff"/>
      <path id="Path_1566" data-name="Path 1566" d="M1.631,4.892a1.631,1.631,0,0,0,1.631-1.63V1.63A1.631,1.631,0,0,0,0,1.63V3.262A1.631,1.631,0,0,0,1.631,4.892Zm0,0" transform="translate(6.524 61.96)" fill="#428dff"/>
      <path id="Path_1567" data-name="Path 1567" d="M1.631,14.678a1.631,1.631,0,0,0,1.631-1.631V1.631A1.631,1.631,0,1,0,0,1.631V13.048A1.631,1.631,0,0,0,1.631,14.678Zm0,0" transform="translate(6.524 70.106)" fill="#428dff"/>
      <path id="Path_1568" data-name="Path 1568" d="M3.022.768a2.578,2.578,0,0,0-.2-.258A1.727,1.727,0,0,0,1.678,0a1.7,1.7,0,0,0-.623.118A1.661,1.661,0,0,0,0,1.576,1.744,1.744,0,0,0,.116,2.2a1.611,1.611,0,0,0,.326.543A1.641,1.641,0,0,0,3.275,1.677l-.026-.313a1.222,1.222,0,0,0-.1-.315A1.081,1.081,0,0,0,3.022.768Zm0,0" transform="translate(26.507 12.244)" fill="#428dff"/>
    </g>
  </g>
</svg>
