<svg xmlns="http://www.w3.org/2000/svg" width="21.413" height="19.467" viewBox="0 0 21.413 19.467">
  <path id="ic_thumb_down_24px" d="M14.627,3H5.867A1.934,1.934,0,0,0,4.076,4.187L1.136,11.05A1.923,1.923,0,0,0,1,11.76v1.859l.01.01L1,13.707a1.952,1.952,0,0,0,1.947,1.947H9.088L8.164,20.1l-.029.311a1.465,1.465,0,0,0,.428,1.032l1.032,1.022,6.414-6.414a1.935,1.935,0,0,0,.565-1.372V4.947A1.952,1.952,0,0,0,14.627,3ZM18.52,3V14.68h3.893V3Z" transform="translate(22.413 22.467) rotate(180)" fill="#a2abd1"/>
</svg>
