<svg id="Group_1098" data-name="Group 1098" xmlns="http://www.w3.org/2000/svg" width="63.166" height="63.166" viewBox="0 0 63.166 63.166">
  <path id="Path_1533" data-name="Path 1533" d="M63.166,42.748A20.465,20.465,0,0,0,48.214,23.073,24.118,24.118,0,1,0,3.345,36.379L.089,48.149,11.86,44.894a24.029,24.029,0,0,0,11.213,3.319A20.424,20.424,0,0,0,53.137,60.328l9.94,2.749-2.749-9.94A20.345,20.345,0,0,0,63.166,42.748ZM12.444,40.892,5.4,42.841l1.949-7.047L6.9,35.1a20.411,20.411,0,1,1,6.237,6.237ZM57.769,57.769,52.54,56.322l-.7.454a16.723,16.723,0,0,1-24.942-8.7A24.165,24.165,0,0,0,48.077,26.9a16.724,16.724,0,0,1,8.7,24.943l-.454.7Zm0,0"/>
  <path id="Path_1534" data-name="Path 1534" d="M180.5,271h3.7v3.7h-3.7Zm0,0" transform="translate(-158.232 -237.566)"/>
  <path id="Path_1535" data-name="Path 1535" d="M146.6,97.4a3.663,3.663,0,0,1-1.2,2.732l-4.347,3.979v4.516h3.7v-2.886l3.145-2.878A7.4,7.4,0,1,0,135.5,97.4h3.7a3.7,3.7,0,1,1,7.4,0Zm0,0" transform="translate(-118.783 -78.897)"/>
</svg>
