<svg xmlns="http://www.w3.org/2000/svg" width="172.263" height="173.056" viewBox="0 0 172.263 173.056">
  <g id="Group_1143" data-name="Group 1143" transform="matrix(0.799, -0.602, 0.602, 0.799, -0.003, 71.458)">
    <path id="Path_1549" data-name="Path 1549" d="M112.366,48.825l-1.8.7a6.357,6.357,0,0,1,4.876.127,5.992,5.992,0,0,1,2.226,1.7,6.249,6.249,0,0,1,1.124,1.845,6.348,6.348,0,0,1-3.668,8.205L99.6,67.335a6.255,6.255,0,0,1,4.876.148,5.732,5.732,0,0,1,2.226,1.674,6.53,6.53,0,0,1,1.272,2.291,6.649,6.649,0,0,1-4.156,7.908L56.286,97.526a28.2,28.2,0,0,1-2.926.87h-.021a25.092,25.092,0,0,1-16.495-1.187,4.019,4.019,0,0,0-3.245-.085l-4.855,1.845-1.23.466a8.346,8.346,0,0,1-1.654.382c-4.77.848-17.047,1.781-17.768-.107V66.846c-.7-1.823,1.23-4.9,3.159-6.36a4.854,4.854,0,0,1,1.124-.658l.721-.276a12.54,12.54,0,0,0,7.081-6.763c2.269-5.259,6.446-13.612,11.874-18.637,8.4-7.761,19.294-16.963,21.732-22.433a2.418,2.418,0,0,1,.213-.4c2.5-4.94,7.76-2.523,9.222,1.336,1.505,3.965-3.435,10.9-7.866,17.132a31.571,31.571,0,0,0-3.562,6.4A4.21,4.21,0,0,0,55.9,41.976a21.342,21.342,0,0,0,4.113-.615,32.4,32.4,0,0,0,3.838-1.208l33.118-12.68h.021l4.495-1.717a6.3,6.3,0,0,1,7.1,1.824,5.743,5.743,0,0,1,1.1,1.844,6.378,6.378,0,0,1-2.162,7.4,6.067,6.067,0,0,1-1.505.827l3.413-1.314h.021l4.495-1.718a6.3,6.3,0,0,1,7.1,1.824,5.537,5.537,0,0,1,1.1,1.845,6.348,6.348,0,0,1-3.668,8.205Zm0,0" transform="translate(-5.968 -6.42)" fill="#a4c2f7"/>
    <path id="Path_1550" data-name="Path 1550" d="M112.281,57.006l-7.93,3.032a6.36,6.36,0,0,1,4.877.127,6.009,6.009,0,0,1,2.226,1.7,6.212,6.212,0,0,1,1.124,1.844,6.339,6.339,0,0,1-3.689,8.205l-15.5,5.937A6.266,6.266,0,0,1,98.267,78a5.739,5.739,0,0,1,2.226,1.675,6.159,6.159,0,0,1,1.251,2.29,6.615,6.615,0,0,1-4.135,7.908L53.359,106.79h-.021l-3.265,1.251s-10.686,4.071-19.443-.318a3.855,3.855,0,0,0-1.887-.36,3.9,3.9,0,0,0-1.378.276l-1.505.573c-4.77.848-17.047,1.781-17.768-.107V75.24c-.7-1.823,1.23-4.9,3.159-6.36a4.853,4.853,0,0,1,1.124-.658l.721-.276a12.54,12.54,0,0,0,7.081-6.763c2.269-5.259,6.446-13.612,11.874-18.637,8.4-7.761,19.294-16.963,21.732-22.433a2.417,2.417,0,0,1,.213-.4,6.723,6.723,0,0,1,3.011,3.456c1.505,3.965-3.435,10.9-7.866,17.132a30.619,30.619,0,0,0-3.562,6.4,4.2,4.2,0,0,0,4.113,5.788,25.449,25.449,0,0,0,7.951-1.824l2.375-.911L95.276,36.27a7.1,7.1,0,0,1,1.7-.4h.021a6.306,6.306,0,0,1,5.364,2.226,5.849,5.849,0,0,1,1.124,1.845,6.378,6.378,0,0,1-3.669,8.227l7.718-2.948.212-.084a7.049,7.049,0,0,1,1.7-.4h.021a6.3,6.3,0,0,1,5.364,2.226A5.6,5.6,0,0,1,115.95,48.8a6.348,6.348,0,0,1-3.669,8.205Zm0,0" transform="translate(-5.968 -14.813)" fill="#e3e7f2"/>
    <path id="Path_1551" data-name="Path 1551" d="M123.029,215.16a6.361,6.361,0,0,1-6.36,6.361h-8.482a6.351,6.351,0,0,1,4.5,1.865,6.02,6.02,0,0,1,1.484,2.375,5.881,5.881,0,0,1,.381,2.121,6.361,6.361,0,0,1-6.361,6.36h-16.6a6.347,6.347,0,0,1,4.495,1.866,6.016,6.016,0,0,1,1.484,2.374,6.146,6.146,0,0,1,.36,2.587,6.6,6.6,0,0,1-6.7,5.894H40.339s-11.428,0-18.043-7.23a4.067,4.067,0,0,0-3.011-1.251h-6.51a4.253,4.253,0,0,1-4.24-4.24V200.319a4.241,4.241,0,0,1,2.99-4.05,3.959,3.959,0,0,1,1.25-.19h.785a12.609,12.609,0,0,0,9.032-3.8c3.986-4.092,10.877-10.41,17.746-13.167,10.6-4.24,25.444-10.962,29.684-15.2.106-.106.233-.212.339-.317,4.135-3.689,8.142.424,8.142,4.558,0,4.24-8.481,10.962-14.842,15.2a32.117,32.117,0,0,0-5.619,4.707,4.224,4.224,0,0,0,1.781,6.891,25.393,25.393,0,0,0,8.078,1.124h40.285a6.292,6.292,0,0,1,5.98,4.24,5.876,5.876,0,0,1,.381,2.12,6.361,6.361,0,0,1-6.361,6.361h8.482a6.293,6.293,0,0,1,5.979,4.24A5.859,5.859,0,0,1,123.029,215.16Zm0,0" transform="translate(-6.412 -121.869)" fill="#a4c2f7"/>
    <path id="Path_1552" data-name="Path 1552" d="M116.669,219.5a6.361,6.361,0,0,1-6.361,6.361h-8.481a6.349,6.349,0,0,1,4.495,1.865,6.02,6.02,0,0,1,1.484,2.375,5.861,5.861,0,0,1,.381,2.121,6.36,6.36,0,0,1-6.36,6.36h-16.6a6.346,6.346,0,0,1,4.495,1.866,6.016,6.016,0,0,1,1.484,2.374,6.146,6.146,0,0,1,.361,2.587,6.6,6.6,0,0,1-6.7,5.894H40.339s-11.428,0-18.043-7.23a4.067,4.067,0,0,0-3.011-1.251h-6.51a4.253,4.253,0,0,1-4.24-4.24V204.66a4.241,4.241,0,0,1,2.99-4.05,3.96,3.96,0,0,1,1.25-.19h.785a12.609,12.609,0,0,0,9.032-3.8c3.986-4.092,10.877-10.41,17.746-13.167,10.6-4.24,25.444-10.962,29.684-15.2.106-.106.233-.212.339-.317a6.724,6.724,0,0,1,1.781,4.558c0,4.24-8.481,10.962-14.841,15.2a32.081,32.081,0,0,0-5.619,4.707,4.223,4.223,0,0,0,1.781,6.891,25.385,25.385,0,0,0,8.078,1.124h40.285a6.291,6.291,0,0,1,5.979,4.24,5.856,5.856,0,0,1,.381,2.12,6.361,6.361,0,0,1-6.36,6.361h8.481a6.292,6.292,0,0,1,5.979,4.24A5.881,5.881,0,0,1,116.669,219.5Zm0,0" transform="translate(-6.412 -126.211)" fill="#e3e7f2"/>
    <path id="Path_1553" data-name="Path 1553" d="M8.092,84.825v33.923a4.253,4.253,0,0,0,4.24,4.24h6.361a4.253,4.253,0,0,1-4.24-4.24V66.8c-.7-1.823,1.23-4.9,3.159-6.36a4.834,4.834,0,0,1,1.124-.658l.72-.276a12.542,12.542,0,0,0,7.082-6.763c2.268-5.259,6.446-13.612,11.873-18.637,8.4-7.761,19.294-16.963,21.733-22.433a2.343,2.343,0,0,1,.212-.4,6.225,6.225,0,0,1,.94-1.378A4.378,4.378,0,0,0,54,11.273a2.417,2.417,0,0,0-.213.4c-2.438,5.47-13.337,14.672-21.732,22.433-5.428,5.025-9.6,13.378-11.874,18.637A12.54,12.54,0,0,1,13.1,59.508l-.721.276a4.854,4.854,0,0,0-1.124.658C9.321,61.9,7.392,64.979,8.092,66.8Zm0,0" transform="translate(-5.968 -6.375)" fill="#fff"/>
    <path id="Path_1554" data-name="Path 1554" d="M217.276,140.629l-.081.015a4.207,4.207,0,0,0,2.332.6,21.341,21.341,0,0,0,4.113-.615" transform="translate(-163.227 -105.687)" fill="#fff"/>
    <path id="Path_1555" data-name="Path 1555" d="M51.8,469.33a4.067,4.067,0,0,1,3.011,1.251" transform="translate(-38.927 -352.717)" fill="#fff"/>
    <path id="Path_1556" data-name="Path 1556" d="M124.125,19.651a27.181,27.181,0,0,1-4.349,6.13c-1.586,1.776-3.235,3.435-4.9,5.059-3.344,3.233-6.785,6.314-10.152,9.41l-2.685,2.479-2.891-3.1,2.718-2.5c3.393-3.113,6.8-6.175,10.065-9.329,1.622-1.58,3.213-3.181,4.686-4.832a23.864,23.864,0,0,0,3.647-5.039Zm0,0" transform="translate(-74.508 -13.469)" fill="#fff"/>
    <g id="Group_1142" data-name="Group 1142" transform="translate(0.004)">
      <path id="Path_1557" data-name="Path 1557" d="M490.371,74.716a2.121,2.121,0,0,0-2.656-1.38l-2.792.884a2.12,2.12,0,1,0,1.272,4.041l2.792-.884a2.12,2.12,0,0,0,1.384-2.661Zm0,0" transform="translate(-363.256 -55.041)" fill="#428dff"/>
      <path id="Path_1558" data-name="Path 1558" d="M472.9,35.149a2.12,2.12,0,0,0-2.993.17L468,37.458a2.121,2.121,0,0,0,3.164,2.824l1.908-2.139a2.122,2.122,0,0,0-.17-2.994Zm0,0" transform="translate(-351.312 -26.011)" fill="#428dff"/>
      <path id="Path_1559" data-name="Path 1559" d="M431.351,23.211l-.519,2.82a2.12,2.12,0,0,0,1.7,2.466,1.967,1.967,0,0,0,.384.036A2.12,2.12,0,0,0,435,26.791l.515-2.82a2.121,2.121,0,1,0-4.173-.761Zm0,0" transform="translate(-323.759 -16.135)" fill="#428dff"/>
      <path id="Path_1560" data-name="Path 1560" d="M488.786,444.8a2.121,2.121,0,0,0,.637-4.143l-2.792-.884a2.12,2.12,0,0,0-1.272,4.043l2.792.884A2.109,2.109,0,0,0,488.786,444.8Zm0,0" transform="translate(-363.692 -330.439)" fill="#428dff"/>
      <path id="Path_1561" data-name="Path 1561" d="M468.159,473.72a2.122,2.122,0,0,0-.17,2.994l1.908,2.139a2.121,2.121,0,0,0,3.164-2.824l-1.908-2.139a2.122,2.122,0,0,0-2.994-.17Zm0,0" transform="translate(-351.306 -355.612)" fill="#428dff"/>
      <path id="Path_1562" data-name="Path 1562" d="M432.579,483.613a2.12,2.12,0,0,0-1.7,2.466l.515,2.822a2.12,2.12,0,0,0,2.084,1.738,1.967,1.967,0,0,0,.384-.036,2.12,2.12,0,0,0,1.7-2.466l-.515-2.821A2.121,2.121,0,0,0,432.579,483.613Zm0,0" transform="translate(-323.797 -363.425)" fill="#428dff"/>
      <path id="Path_1563" data-name="Path 1563" d="M6.364,118.734h6.51a1.96,1.96,0,0,1,1.446.562c7.164,7.83,19.1,7.919,19.608,7.919H84.813a8.693,8.693,0,0,0,8.814-7.845,8.409,8.409,0,0,0-1.11-4.876h9.258a8.481,8.481,0,0,0,7.347-12.721h1.135a8.481,8.481,0,0,0,0-16.963h-1.138A8.444,8.444,0,0,0,102.3,72.148a8.348,8.348,0,0,0-.979-12.086l8.642-3.326a8.483,8.483,0,0,0,5.416-8.462,7.965,7.965,0,0,0-.554-2.487,8.378,8.378,0,0,0-2.59-3.56l1.06-.409A8.253,8.253,0,0,0,117.652,38a8.462,8.462,0,0,0-10.446-12.023l-1.045.4a8.481,8.481,0,0,0-11.449-9.223L57.13,31.645a23.7,23.7,0,0,1-7.258,1.7,2.089,2.089,0,0,1-1.889-.918,2.019,2.019,0,0,1-.213-1.947A31.685,31.685,0,0,1,51.1,24.5l.14-.2c4.811-6.821,9.785-13.872,7.866-18.857A8.3,8.3,0,0,0,51.95,0,6.573,6.573,0,0,0,45.76,4.453a27.8,27.8,0,0,1-4.683,6.172A2.154,2.154,0,0,0,41.16,13.6a2.1,2.1,0,0,0,3.017-.084,30.789,30.789,0,0,0,5.441-7.337C50.2,4.876,50.964,4.24,51.844,4.24a4.167,4.167,0,0,1,3.3,2.731c1.1,2.866-3.8,9.814-7.376,14.889l-.14.2a35.361,35.361,0,0,0-3.736,6.7l-.055.128a24.653,24.653,0,0,0-1.06,13.491,2.119,2.119,0,0,0,2.093,1.8,2.187,2.187,0,0,0,.328-.025,2.12,2.12,0,0,0,1.77-2.42,27.925,27.925,0,0,1-.319-4.978,6.486,6.486,0,0,0,3.409.848,27.875,27.875,0,0,0,8.6-1.985L96.244,21.122A4.247,4.247,0,1,1,99.3,29.047l-.019.013h-.021L81.894,36.205a2.12,2.12,0,0,0,1.611,3.922l17.344-7.137,7.879-3.04a4.262,4.262,0,0,1,5.491,2.425,4.177,4.177,0,0,1-.271,3.583,4.077,4.077,0,0,1-2.159,1.908L103.93,40.9h-.057L77.687,51.026a2.122,2.122,0,0,0,1.531,3.959L105.38,44.873h.03l.029-.013a4.172,4.172,0,0,1,3.193.1,4.243,4.243,0,0,1,2.26,2.384,3.922,3.922,0,0,1,.267,1.21,4.239,4.239,0,0,1-2.716,4.24L93.019,58.731l-.07.027L80.107,63.692a2.121,2.121,0,1,0,1.524,3.959l12.841-4.944h.011l.05-.021a4.15,4.15,0,0,1,3.181.1,4.225,4.225,0,0,1,2.332,2.663,4.452,4.452,0,0,1-2.871,5.3l-2.926,1.124a1.933,1.933,0,0,0-.381.242H61.49A23.549,23.549,0,0,1,54.1,71.107a2.146,2.146,0,0,1-1.419-1.529,2.035,2.035,0,0,1,.5-1.922,30.161,30.161,0,0,1,5.25-4.371c5.894-3.938,15.785-11.371,15.785-17.008a8.305,8.305,0,0,0-4.705-7.657,6.643,6.643,0,0,0-7.4,1.919C58.446,44.2,44.919,50.6,33.139,55.307c-7.022,2.816-13.922,8.975-18.476,13.647A10.538,10.538,0,0,1,7.149,72.11H6.364a6.279,6.279,0,0,0-2.12.39V58.012a2.1,2.1,0,0,1,1.342-1.969l2.363-.916A14.78,14.78,0,0,0,16.2,47.2c1.965-4.6,6.063-13.065,11.32-17.941l2.69-2.481,1.563-1.43a2.12,2.12,0,1,0-2.86-3.131l-1.567,1.433-2.719,2.5C19.086,31.3,14.866,39.532,12.3,45.532a10.5,10.5,0,0,1-5.85,5.633l-2.411.925A6.32,6.32,0,0,0,0,58.012v54.361A6.361,6.361,0,0,0,6.364,118.734Zm0-42.384h.785A14.8,14.8,0,0,0,17.7,71.915c3.494-3.585,10.351-10,17.015-12.673,4.088-1.633,24.758-10.069,30.4-15.7,1.011-1.006,1.942-1.342,2.776-1a4.172,4.172,0,0,1,2.086,3.741c0,2.093-4.772,7.391-13.9,13.472a34.353,34.353,0,0,0-5.989,5A6.3,6.3,0,0,0,48.558,70.6a6.4,6.4,0,0,0,4.174,4.514A27.722,27.722,0,0,0,61.49,76.35h40.285a4.24,4.24,0,1,1,0,8.481H65.731a2.12,2.12,0,0,0,0,4.24h44.526a4.24,4.24,0,0,1,0,8.481H65.731a2.12,2.12,0,0,0,0,4.24h36.044a4.241,4.241,0,1,1,0,8.482H63.611a2.12,2.12,0,1,0,0,4.24H85.174a4.24,4.24,0,0,1,4.225,4.558,4.5,4.5,0,0,1-4.586,3.9H33.927c-.1,0-10.563-.075-16.484-6.544a6.2,6.2,0,0,0-4.569-1.937H6.364a2.12,2.12,0,0,1-2.12-2.121V78.468A2.12,2.12,0,0,1,6.364,76.35Zm0,0" transform="translate(-0.004)" fill="#428dff"/>
      <path id="Path_1564" data-name="Path 1564" d="M147.19,464.912h12.722a2.12,2.12,0,0,0,0-4.24H147.19a2.12,2.12,0,0,0,0,4.24Zm0,0" transform="translate(-109.026 -346.21)" fill="#428dff"/>
      <path id="Path_1565" data-name="Path 1565" d="M100.31,458.579a2.094,2.094,0,0,0,2.091-2.067,2.147,2.147,0,0,0-2.041-2.173,4.666,4.666,0,0,1-2.79-1.5,2.12,2.12,0,0,0-3,3A8.6,8.6,0,0,0,100.31,458.579Zm0,0" transform="translate(-70.626 -339.877)" fill="#428dff"/>
      <path id="Path_1566" data-name="Path 1566" d="M36.257,330.552a2.12,2.12,0,0,0,2.12-2.12v-2.121a2.12,2.12,0,0,0-4.24,0v2.121A2.12,2.12,0,0,0,36.257,330.552Zm0,0" transform="translate(-25.656 -243.641)" fill="#428dff"/>
      <path id="Path_1567" data-name="Path 1567" d="M36.257,385.895a2.12,2.12,0,0,0,2.12-2.12V368.933a2.12,2.12,0,1,0-4.24,0v14.842A2.12,2.12,0,0,0,36.257,385.895Zm0,0" transform="translate(-25.656 -275.672)" fill="#428dff"/>
      <path id="Path_1568" data-name="Path 1568" d="M142.624,65.065a3.35,3.35,0,0,0-.263-.335,2.245,2.245,0,0,0-1.484-.664,2.205,2.205,0,0,0-.81.153,2.16,2.16,0,0,0-1.371,1.9,2.268,2.268,0,0,0,.15.814,2.1,2.1,0,0,0,.424.706,2.133,2.133,0,0,0,3.683-1.389l-.034-.407a1.588,1.588,0,0,0-.125-.41A1.405,1.405,0,0,0,142.624,65.065Zm0,0" transform="translate(-104.235 -48.148)" fill="#428dff"/>
    </g>
  </g>
</svg>
