<svg id="csv" xmlns="http://www.w3.org/2000/svg" width="89.818" height="89.818" viewBox="0 0 89.818 89.818">
  <path id="Path_1730" data-name="Path 1730" d="M64,0V89.818h52.394l22.455-22.455V0Z" transform="translate(-49.03)" fill="#efeeee"/>
  <path id="Path_1731" data-name="Path 1731" d="M288,288v22.455L310.455,288Z" transform="translate(-220.636 -220.636)" fill="#ababab"/>
  <path id="Path_1732" data-name="Path 1732" d="M192,310.455h22.455V288Z" transform="translate(-147.091 -220.636)" fill="#dededd"/>
  <path id="Path_1733" data-name="Path 1733" d="M0,96v26.2H59.879V96Z" transform="translate(0 -73.545)" fill="#448e47"/>
  <g id="Group_1888" data-name="Group 1888" transform="translate(8.275 27.252)">
    <path id="Path_1734" data-name="Path 1734" d="M42.146,119.73a1.55,1.55,0,0,0-1.516-.8,1.5,1.5,0,0,0-1,.329,2.145,2.145,0,0,0-.618,1.052,9,9,0,0,0-.314,1.912c-.064.786-.09,1.748-.09,2.885a28.033,28.033,0,0,0,.123,2.942,6.425,6.425,0,0,0,.382,1.74,1.564,1.564,0,0,0,.651.831,1.878,1.878,0,0,0,.909.217,2.155,2.155,0,0,0,.8-.146,1.351,1.351,0,0,0,.64-.584,3.63,3.63,0,0,0,.427-1.235,11.266,11.266,0,0,0,.157-2.1h3.23a14.508,14.508,0,0,1-.2,2.47,5.661,5.661,0,0,1-.752,2.043,3.778,3.778,0,0,1-1.549,1.366,5.863,5.863,0,0,1-2.594.5,6.13,6.13,0,0,1-2.893-.584,3.939,3.939,0,0,1-1.65-1.684,7.421,7.421,0,0,1-.741-2.627,33.616,33.616,0,0,1,0-6.721,7.541,7.541,0,0,1,.741-2.638,4.193,4.193,0,0,1,1.65-1.718,5.846,5.846,0,0,1,2.893-.617,5.581,5.581,0,0,1,2.728.561,3.781,3.781,0,0,1,1.489,1.426,4.94,4.94,0,0,1,.618,1.864,15.331,15.331,0,0,1,.124,1.875h-3.23A5.88,5.88,0,0,0,42.146,119.73Z" transform="translate(-35.376 -116.549)" fill="#fff"/>
    <path id="Path_1735" data-name="Path 1735" d="M98.481,128.323a5.6,5.6,0,0,0,.09,1.018,1.831,1.831,0,0,0,.337.775,1.647,1.647,0,0,0,.666.5,2.689,2.689,0,0,0,1.04.18,2.059,2.059,0,0,0,1.336-.483,1.826,1.826,0,0,0,.6-1.493,2.768,2.768,0,0,0-.146-.932,1.8,1.8,0,0,0-.483-.7,3.457,3.457,0,0,0-.887-.573,12.4,12.4,0,0,0-1.359-.528,11.926,11.926,0,0,1-1.864-.79,4.869,4.869,0,0,1-1.314-1,3.578,3.578,0,0,1-.775-1.325,5.6,5.6,0,0,1-.247-1.744A4.475,4.475,0,0,1,96.8,117.68a5.3,5.3,0,0,1,3.638-1.168,7.906,7.906,0,0,1,1.987.236,4.11,4.11,0,0,1,1.572.763,3.588,3.588,0,0,1,1.033,1.344,4.806,4.806,0,0,1,.37,1.965v.449H102.3a3.274,3.274,0,0,0-.4-1.766,1.5,1.5,0,0,0-1.347-.618,2.313,2.313,0,0,0-.9.157,1.542,1.542,0,0,0-.573.415,1.467,1.467,0,0,0-.3.6,2.857,2.857,0,0,0-.079.7A2.307,2.307,0,0,0,99.024,122a2.768,2.768,0,0,0,1.347.932l2.492,1.078a7.309,7.309,0,0,1,1.5.846,4.031,4.031,0,0,1,.932.943,3.113,3.113,0,0,1,.483,1.112,6.187,6.187,0,0,1,.135,1.344,4.412,4.412,0,0,1-1.471,3.694,6.479,6.479,0,0,1-4.1,1.16,5.385,5.385,0,0,1-3.922-1.19,4.644,4.644,0,0,1-1.175-3.413v-.651h3.233v.468Z" transform="translate(-81.244 -116.512)" fill="#fff"/>
    <path id="Path_1736" data-name="Path 1736" d="M158.627,129.712h.071l2.38-11.856h3.349l-3.683,16.033h-4.154l-3.679-16.033h3.458Z" transform="translate(-125.42 -117.542)" fill="#fff"/>
  </g>
</svg>
