<svg xmlns="http://www.w3.org/2000/svg" width="25.142" height="23.424" viewBox="0 0 25.142 23.424">
  <path id="content-writing" d="M24.751.7a.982.982,0,0,0-.862-.159,14.033,14.033,0,0,1-4.423.118C18.316.583,17.013.5,15.517.5a3.92,3.92,0,0,0-2.946,1.334A3.919,3.919,0,0,0,9.624.5c-1.5,0-2.8.083-3.948.156A14.022,14.022,0,0,1,1.253.538.982.982,0,0,0,0,1.482V17.775a3.929,3.929,0,0,0,3.928,3.939h7.12a.982.982,0,0,0,0-1.964H3.928a1.964,1.964,0,0,1-1.964-1.972v-.521a3.9,3.9,0,0,0,1.964.528h7.317a.492.492,0,0,1,.435.262,1.03,1.03,0,0,0,1.873-.582V4.428a1.966,1.966,0,0,1,1.964-1.964c1.434,0,2.7.081,3.824.152a23.152,23.152,0,0,0,3.837.05V9.732a.982.982,0,1,0,1.964,0V1.482A.982.982,0,0,0,24.751.7ZM3.928,15.821a1.967,1.967,0,0,1-1.964-1.964V2.666A23.15,23.15,0,0,0,5.8,2.616c1.12-.071,2.39-.152,3.824-.152a1.967,1.967,0,0,1,1.964,1.964V15.845a2.458,2.458,0,0,0-.344-.024ZM9.919,6.049a.982.982,0,0,1-.982.982H4.665a.982.982,0,0,1,0-1.964H8.937A.982.982,0,0,1,9.919,6.049ZM8.446,9.977a.982.982,0,0,1-.982.982h-2.8A.982.982,0,0,1,4.665,9h2.8A.982.982,0,0,1,8.446,9.977ZM20.113,13l-5.392,5.38a.983.983,0,0,0-.246.41L13.3,22.656a.982.982,0,0,0,1.2,1.232l3.964-1.1a.983.983,0,0,0,.432-.251l5.381-5.37A2.946,2.946,0,0,0,20.113,13Zm-2.42,7.965-1.994.552.584-1.921,3.638-3.63,1.389,1.389Zm5.2-5.187-.19.19-1.389-1.389.19-.189a.982.982,0,0,1,1.39,1.388Zm0,0" transform="translate(0 -0.5)" fill="#e3e3e3"/>
</svg>
