<svg xmlns="http://www.w3.org/2000/svg" width="15.681" height="15.681" viewBox="0 0 15.681 15.681">
  <g id="Group_1375" data-name="Group 1375" transform="translate(0.4 0.4)">
    <path id="Path_1524" data-name="Path 1524" d="M161.01,0h-3.864a.388.388,0,0,0,0,.775h2.934l-7.538,7.61a.388.388,0,1,0,.55.545l7.53-7.6V4.251a.388.388,0,1,0,.775,0V.388A.387.387,0,0,0,161.01,0Zm0,0" transform="translate(-146.517)" fill="#bebebe" stroke="#bebebe" stroke-width="0.8"/>
    <path id="Path_1525" data-name="Path 1525" d="M12.561,56.243a.387.387,0,0,0-.388.388v4.244a1.164,1.164,0,0,1-1.163,1.163H1.938A1.164,1.164,0,0,1,.775,60.874V51.8a1.164,1.164,0,0,1,1.163-1.163H6.181a.388.388,0,1,0,0-.775H1.938A1.94,1.94,0,0,0,0,51.8v9.073a1.94,1.94,0,0,0,1.938,1.938h9.073a1.94,1.94,0,0,0,1.938-1.938V56.631A.387.387,0,0,0,12.561,56.243Zm0,0" transform="translate(0 -47.931)" fill="#bebebe" stroke="#bebebe" stroke-width="0.8"/>
  </g>
</svg>
