<svg xmlns="http://www.w3.org/2000/svg" width="43.012" height="43.013" viewBox="0 0 43.012 43.013">
  <path id="Subtraction_2" data-name="Subtraction 2" d="M21.433,43.013A21.465,21.465,0,0,1,6.271,6.386,21.642,21.642,0,0,1,21.433,0V0h16.2a5.344,5.344,0,0,1,3.8,1.576,5.412,5.412,0,0,1,1.575,3.851V21.58A21.421,21.421,0,0,1,21.579,43.013h-.146Zm.39-10.459c-.255,0-.513.126-.513.367a.55.55,0,0,0,.513.513h3.03a3.936,3.936,0,0,0,3.91-3.91V29.28A3.226,3.226,0,0,0,31.28,26.1V19.553a9.619,9.619,0,0,0-2.73-7.017,9.85,9.85,0,0,0-7.12-2.955h-.005a9.847,9.847,0,0,0-9.842,9.847v6.7A3.346,3.346,0,0,0,14.859,29.4h2.786V21.716H13.882V19.565a7.649,7.649,0,0,1,15.274,0v2.151H25.343V29.4h2.518v.122a3.08,3.08,0,0,1-3.03,3.03Z" fill="#25c16f"/>
</svg>
