<svg xmlns="http://www.w3.org/2000/svg" width="13.752" height="13.974" viewBox="0 0 13.752 13.974">
  <path id="Icon_awesome-power-off" data-name="Icon awesome-power-off" d="M11.431,1.5a6.875,6.875,0,1,1-7.991,0,.667.667,0,0,1,.97.213l.438.779a.665.665,0,0,1-.183.86,4.658,4.658,0,1,0,5.542,0,.661.661,0,0,1-.18-.857l.438-.779a.665.665,0,0,1,.965-.216ZM8.548,7.32V.665A.664.664,0,0,0,7.882,0H6.995A.664.664,0,0,0,6.33.665V7.32a.664.664,0,0,0,.665.665h.887A.664.664,0,0,0,8.548,7.32Z" transform="translate(-0.562)" fill="#64b5f6"/>
</svg>
