<svg xmlns="http://www.w3.org/2000/svg" width="18.941" height="18.941" viewBox="0 0 18.941 18.941">
  <g id="Group_1539" data-name="Group 1539" transform="translate(0.4 0.4)">
    <path id="Path_1524" data-name="Path 1524" d="M162.891,0h-4.71a.472.472,0,1,0,0,.945h3.577l-9.189,9.277a.472.472,0,1,0,.671.665l9.179-9.266V5.182a.472.472,0,1,0,.945,0V.472A.472.472,0,0,0,162.891,0Zm0,0" transform="translate(-145.223)" fill="#a2abd1" stroke="#64b5f6" stroke-width="0.8"/>
    <path id="Path_1525" data-name="Path 1525" d="M15.313,57.641a.472.472,0,0,0-.472.472v5.173A1.419,1.419,0,0,1,13.423,64.7H2.362A1.419,1.419,0,0,1,.945,63.286V52.225a1.419,1.419,0,0,1,1.417-1.417H7.535a.472.472,0,1,0,0-.945H2.362A2.365,2.365,0,0,0,0,52.225V63.286a2.365,2.365,0,0,0,2.362,2.362H13.423a2.365,2.365,0,0,0,2.362-2.362V58.113A.472.472,0,0,0,15.313,57.641Zm0,0" transform="translate(0 -47.508)" fill="#a2abd1" stroke="#64b5f6" stroke-width="0.8"/>
  </g>
</svg>
