<svg xmlns="http://www.w3.org/2000/svg" width="80.449" height="63.52" viewBox="0 0 80.449 63.52">
  <g id="Group_1096" data-name="Group 1096" transform="translate(0 -53.873)">
    <g id="Group_1091" data-name="Group 1091" transform="translate(0 53.873)">
      <g id="Group_1090" data-name="Group 1090" transform="translate(0 0)">
        <path id="Path_1526" data-name="Path 1526" d="M63.789,76.066a22.494,22.494,0,0,0-44.507-4.313h-.216a19.066,19.066,0,1,0,0,38.131H32.381a1.716,1.716,0,1,0,0-3.431H19.066a15.634,15.634,0,1,1,0-31.269c.459,0,.945.025,1.485.075a1.717,1.717,0,0,0,1.861-1.476,19.062,19.062,0,0,1,37.948,2.6c0,.379-.028.769-.058,1.182l-.013.176a1.716,1.716,0,0,0,1.883,1.828,13.687,13.687,0,0,1,1.368-.069,13.478,13.478,0,1,1,0,26.956h-14a1.716,1.716,0,1,0,0,3.431h14a16.909,16.909,0,0,0,.249-33.816Z" transform="translate(0 -53.873)"/>
      </g>
    </g>
    <g id="Group_1093" data-name="Group 1093" transform="translate(26.985 61.937)">
      <g id="Group_1092" data-name="Group 1092" transform="translate(0 0)">
        <path id="Path_1527" data-name="Path 1527" d="M186.041,105.192a14.472,14.472,0,0,0-14.285,12.471,1.716,1.716,0,0,0,1.468,1.932,1.739,1.739,0,0,0,.234.016,1.716,1.716,0,0,0,1.7-1.484,11.028,11.028,0,0,1,10.885-9.5,1.716,1.716,0,0,0,0-3.431Z" transform="translate(-171.74 -105.192)"/>
      </g>
    </g>
    <g id="Group_1095" data-name="Group 1095" transform="translate(32.259 89.401)">
      <g id="Group_1094" data-name="Group 1094">
        <path id="Path_1528" data-name="Path 1528" d="M222.132,286.278l-6.241-5.575a2.831,2.831,0,0,0-3.775,0l-6.241,5.575a1.716,1.716,0,1,0,2.286,2.559l4.127-3.687v21.107a1.716,1.716,0,0,0,3.431,0V285.151l4.127,3.687a1.716,1.716,0,1,0,2.286-2.559Z" transform="translate(-205.302 -279.982)"/>
      </g>
    </g>
  </g>
</svg>
