<svg id="save" xmlns="http://www.w3.org/2000/svg" width="17.407" height="17.77" viewBox="0 0 17.407 17.77">
  <rect id="Rectangle_873" data-name="Rectangle 873" width="2" height="4" transform="translate(9.485 1.385)" fill="#bebebe"/>
  <path id="Path_1611" data-name="Path 1611" d="M14.793,0H.5V17.77H17.907V3.114ZM4.126.725h9.429v5.8H4.126ZM14.643,17.044H3.4V9.429H14.643Z" transform="translate(-0.5)" fill="#bebebe"/>
  <path id="Path_1612" data-name="Path 1612" d="M12.863,30.725H15.4a.363.363,0,1,0,0-.725H12.863a.363.363,0,1,0,0,.725Z" transform="translate(-8.148 -19.121)" fill="#bebebe"/>
  <path id="Path_1613" data-name="Path 1613" d="M12.863,34.725h3.626a.363.363,0,1,0,0-.725H12.863a.363.363,0,1,0,0,.725Z" transform="translate(-8.148 -21.67)" fill="#bebebe"/>
  <path id="Path_1614" data-name="Path 1614" d="M25.863,34.733a.375.375,0,0,0,.257-.105.368.368,0,0,0,0-.515.375.375,0,0,0-.511,0,.361.361,0,0,0-.109.257.359.359,0,0,0,.363.363Z" transform="translate(-16.434 -21.678)" fill="#bebebe"/>
</svg>
