<svg xmlns="http://www.w3.org/2000/svg" width="141.782" height="141.644" viewBox="0 0 141.782 141.644">
  <g id="_029---Launch-Sale" data-name="029---Launch-Sale" transform="translate(0 -0.058)">
    <g id="Icons" transform="translate(33.071 2.278)">
      <path id="Shape" d="M24.637,18V55.809H3.37a2.363,2.363,0,0,1-2.363-2.6,40.172,40.172,0,0,1,.567-4.49C3.464,38.3,12.42,36.266,17.808,29.343A62.9,62.9,0,0,0,24.637,18Z" transform="translate(-0.995 22.177)" fill="#9e9e9e"/>
      <path id="Shape-2" data-name="Shape" d="M46.63,53.209a2.363,2.363,0,0,1-2.363,2.6H23V18a62.9,62.9,0,0,0,6.711,11.343C36.257,37.755,45.543,37.684,46.63,53.209Z" transform="translate(28.999 22.177)" fill="#707070"/>
      <path id="Shape-3" data-name="Shape" d="M39.541,46.667a2.363,2.363,0,0,1-2.363,2.6H23V22.8C29.475,31.118,38.454,31.307,39.541,46.667Z" transform="translate(28.999 28.72)" fill="#9e9e9e"/>
      <path id="Rectangle-path" d="M2,42H72.891V82.172H2Z" transform="translate(0.375 54.89)" fill="#f57c00"/>
      <path id="Rectangle-path-2" data-name="Rectangle-path" d="M2,42H65.8V82.172H2Z" transform="translate(0.375 54.89)" fill="#ff9801"/>
      <path id="Shape-4" data-name="Shape" d="M27.078,60.459,20.39,67.146a2.363,2.363,0,0,1-3.356,0C12.309,62.42,11.6,61.829,7.7,57.694c-.922-.945-.685-1.158-.685-8.365a2.363,2.363,0,0,1,2.363-2.363c7.089,0,7.42-.236,8.365.685,4.017,3.923,4.726,4.726,9.334,9.452a2.363,2.363,0,0,1,0,3.356Z" transform="translate(7.174 61.621)" fill="#d84315"/>
      <path id="Shape-5" data-name="Shape" d="M22.869,56.181l-6.687,6.687a2.363,2.363,0,0,1-3.356,0L7.7,57.741c-.9-.969-.685-1.158-.685-8.365a2.363,2.363,0,0,1,2.363-2.363c7.089,0,7.42-.213,8.365.685l5.128,5.128a2.363,2.363,0,0,1,0,3.356Z" transform="translate(7.177 61.693)" fill="#ff5722"/>
      <path id="Shape-6" data-name="Shape" d="M39.356,26.855V78.983H11V26.855A25.568,25.568,0,0,1,14.97,13.1c6.309-9.9,6.38-10.09,6.664-10.421A4.584,4.584,0,0,1,29.1,3.2l6.286,9.9a25.568,25.568,0,0,1,3.97,13.753Z" transform="translate(12.642 -0.998)" fill="#cfd8dc"/>
      <path id="Shape-7" data-name="Shape" d="M32.267,25.884V78.012H11V25.884a25.568,25.568,0,0,1,3.97-13.753c6.309-9.9,6.38-10.09,6.664-10.421.307.378.425.638,6.664,10.421a25.568,25.568,0,0,1,3.97,13.753Z" transform="translate(12.642 -0.027)" fill="#f5f5f5"/>
      <path id="Shape-8" data-name="Shape" d="M24.192,27.258l-2.363-4.726a2.363,2.363,0,0,0-4.206,0C15,27.754,15,27.565,15,28.321V51.384h9.452C24.452,26.194,24.57,27.967,24.192,27.258Z" transform="translate(18.094 26.602)" fill="#9e9e9e"/>
    </g>
    <g id="Layer_10" transform="translate(0 0.058)">
      <path id="Shape-9" data-name="Shape" d="M7.089,58H2.363a2.363,2.363,0,0,0,0,4.726H7.089a2.363,2.363,0,0,0,0-4.726Z" transform="translate(0 78.918)"/>
      <path id="Shape-10" data-name="Shape" d="M131.241,81.208H100.521V47.984c13.777,9.854,13.115,9.594,14.178,9.594A2.363,2.363,0,0,0,116.07,53.3C98.8,41.036,99.387,41.178,98.418,41.036c-.614,0-71.08-.142-71.86,0s.52-.543-17.2,12.122A2.363,2.363,0,1,0,12.1,56.987l12.808-9V81.208H8.363a2.363,2.363,0,0,0,0,4.726H131.241a2.363,2.363,0,0,0,0-4.726Zm-89.8-23.63h6.687l9.452,9.452L50.9,73.6l-9.334-9.452ZM29.63,81.208V45.762h9.452c0,8.152,0,7.089.118,7.68a4.726,4.726,0,0,0-2.481,4.135v6.687A4.726,4.726,0,0,0,38.114,67.6l9.334,9.334a4.726,4.726,0,0,0,6.664,0L60.8,70.243a4.726,4.726,0,0,0,0-6.664l-9.452-9.334a4.726,4.726,0,0,0-3.214-1.394H43.809V45.762H95.8V81.208Z" transform="translate(8.178 55.71)"/>
      <path id="Shape-11" data-name="Shape" d="M43.178,45H31.363a2.363,2.363,0,1,0,0,4.726H43.178a2.363,2.363,0,0,0,0-4.726Z" transform="translate(39.528 61.199)"/>
      <path id="Shape-12" data-name="Shape" d="M45.089,45H40.363a2.363,2.363,0,0,0,0,4.726h4.726a2.363,2.363,0,0,0,0-4.726Z" transform="translate(51.795 61.199)"/>
      <path id="Shape-13" data-name="Shape" d="M65.365,13.106,59.1,3.229a7.089,7.089,0,0,0-11.815,0l-6.309,9.877A27.789,27.789,0,0,0,36.63,28.135V41.888C31.526,52.356,28.9,54.412,24.2,58.051c-4.277,3.332-9.1,7.089-10.468,14.7A43.22,43.22,0,0,0,13,80.264a2.363,2.363,0,0,0,2.363,2.363h9.452V84.99a2.363,2.363,0,1,0,4.726,0V82.627h4.726v4.726a2.363,2.363,0,1,0,4.726,0V82.627h4.726v9.452a2.363,2.363,0,1,0,4.726,0V82.627H57.9v9.452a2.363,2.363,0,0,0,4.726,0V82.627H67.35v4.726a2.363,2.363,0,0,0,4.726,0V82.627H76.8V84.99a2.363,2.363,0,0,0,4.726,0V82.627H90.98a2.363,2.363,0,0,0,2.363-2.363c-.189-19.4-11.012-19.66-17.416-27.884a59.832,59.832,0,0,1-6.215-10.492V28.135a27.789,27.789,0,0,0-4.348-15.029ZM18.388,73.576c1.678-9.452,10.067-11.012,15.761-18.337.9-1.158,1.7-2.363,2.481-3.568V77.9h-18.9q.284-2.127.662-4.324ZM41.356,28.135a23.418,23.418,0,0,1,3.592-12.5l6.286-9.877a2.363,2.363,0,0,1,3.875,0l6.286,9.877a23.418,23.418,0,0,1,3.592,12.5V77.9H60.261V57.2c0-1.489-.4-1.938-2.859-6.853a4.726,4.726,0,0,0-8.46,0c-2.363,4.726-2.859,5.364-2.859,6.853V77.9H41.356ZM50.809,77.9V57.2l2.363-4.726L55.535,57.2V77.9ZM72.076,55.239c5.742,7.373,14.178,8.932,15.761,18.337q.378,2.2.567,4.324H69.713V51.671c.78,1.205,1.583,2.41,2.481,3.568Z" transform="translate(17.719 -0.058)"/>
      <path id="Shape-14" data-name="Shape" d="M30.662,18.212l2.363-7.089a2.369,2.369,0,0,0-4.49-1.512L26.172,16.7a2.369,2.369,0,0,0,4.49,1.512Z" transform="translate(35.503 10.763)"/>
      <path id="Shape-15" data-name="Shape" d="M33.485,18.212a2.369,2.369,0,1,0,4.49-1.512L35.611,9.61a2.369,2.369,0,1,0-4.49,1.512Z" transform="translate(42.251 10.763)"/>
      <path id="Shape-16" data-name="Shape" d="M21.363,35.089a2.363,2.363,0,0,0,2.363-2.363V30.363a2.363,2.363,0,0,0-4.726,0v2.363A2.363,2.363,0,0,0,21.363,35.089Z" transform="translate(25.898 38.027)"/>
      <path id="Shape-17" data-name="Shape" d="M41.363,35.089a2.363,2.363,0,0,0,2.363-2.363V30.363a2.363,2.363,0,0,0-4.726,0v2.363A2.363,2.363,0,0,0,41.363,35.089Z" transform="translate(53.158 38.027)"/>
      <path id="Shape-18" data-name="Shape" d="M4.693,11.772a2.363,2.363,0,0,0,3.356,0l.685-.709.685.709a2.373,2.373,0,0,0,3.356-3.356l-.709-.685.709-.685A2.373,2.373,0,0,0,9.419,3.691L8.734,4.4l-.685-.709A2.373,2.373,0,0,0,4.693,7.046l.709.685-.709.685a2.363,2.363,0,0,0,0,3.356Z" transform="translate(5.444 3.946)"/>
      <path id="Shape-19" data-name="Shape" d="M10.693,24.772a2.363,2.363,0,0,0,3.356,0l.685-.709.685.709a2.373,2.373,0,1,0,3.356-3.356l-.709-.685.709-.685a2.373,2.373,0,0,0-3.356-3.356l-.685.709-.685-.709a2.373,2.373,0,1,0-3.356,3.356l.709.685-.709.685a2.363,2.363,0,0,0,0,3.356Z" transform="translate(13.622 21.665)"/>
      <path id="Shape-20" data-name="Shape" d="M42.693,12.772a2.363,2.363,0,0,0,3.356,0l.685-.709.685.709a2.373,2.373,0,1,0,3.356-3.356l-.709-.685.709-.685a2.373,2.373,0,1,0-3.356-3.356l-.685.709-.685-.709a2.373,2.373,0,1,0-3.356,3.356l.709.685-.709.685a2.363,2.363,0,0,0,0,3.356Z" transform="translate(57.24 5.309)"/>
      <path id="Shape-21" data-name="Shape" d="M54.693,25.772a2.363,2.363,0,0,0,3.356,0l.685-.709.685.709a2.373,2.373,0,1,0,3.356-3.356l-.709-.685.709-.685a2.373,2.373,0,0,0-3.356-3.356l-.685.709-.685-.709a2.373,2.373,0,1,0-3.356,3.356l.709.685-.709.685a2.363,2.363,0,0,0,0,3.356Z" transform="translate(73.596 23.028)"/>
    </g>
  </g>
</svg>
