<svg xmlns="http://www.w3.org/2000/svg" width="103.311" height="110.963" viewBox="0 0 103.311 110.963">
  <g id="Group_1818" data-name="Group 1818" transform="translate(-17.656)">
    <path id="Path_1684" data-name="Path 1684" d="M208.119,110.963h-28.7a2.87,2.87,0,0,1-2.87-2.87V2.87A2.87,2.87,0,0,1,179.422,0h28.7a2.87,2.87,0,0,1,2.87,2.87V108.093A2.87,2.87,0,0,1,208.119,110.963Z" transform="translate(-124.459)" fill="#ffd782"/>
    <path id="Path_1685" data-name="Path 1685" d="M224.079,122.276H204.947a1.913,1.913,0,0,1-1.913-1.913V72.533a1.913,1.913,0,0,1,1.913-1.913h19.132a1.913,1.913,0,0,1,1.913,1.913v47.829A1.913,1.913,0,0,1,224.079,122.276Z" transform="translate(-145.202 -55.315)" fill="#eff2fa"/>
    <g id="Group_1818-2" data-name="Group 1818" transform="translate(61.658 28.697)">
      <path id="Path_1686" data-name="Path 1686" d="M234.081,136.24H222.6a1.913,1.913,0,0,1,0-3.827h11.479a1.913,1.913,0,1,1,0,3.827Z" transform="translate(-220.689 -132.413)" fill="#d7deed"/>
      <path id="Path_1687" data-name="Path 1687" d="M234.081,171.549H222.6a1.913,1.913,0,1,1,0-3.827h11.479a1.913,1.913,0,1,1,0,3.827Z" transform="translate(-220.689 -160.07)" fill="#d7deed"/>
      <path id="Path_1688" data-name="Path 1688" d="M234.081,206.86H222.6a1.913,1.913,0,1,1,0-3.826h11.479a1.913,1.913,0,1,1,0,3.826Z" transform="translate(-220.689 -187.729)" fill="#d7deed"/>
      <path id="Path_1689" data-name="Path 1689" d="M234.081,277.48H222.6a1.913,1.913,0,1,1,0-3.827h11.479a1.913,1.913,0,1,1,0,3.827Z" transform="translate(-220.689 -243.044)" fill="#d7deed"/>
    </g>
    <g id="Group_1819" data-name="Group 1819" transform="translate(57.832 13.392)">
      <rect id="Rectangle_978" data-name="Rectangle 978" width="22.958" height="3.826" transform="translate(0 38.263)" fill="#c7cfe2"/>
      <path id="Path_1690" data-name="Path 1690" d="M225.992,71.359H203.034V63.706a1.913,1.913,0,0,1,1.913-1.913h19.132a1.913,1.913,0,0,1,1.913,1.913Z" transform="translate(-203.034 -61.793)" fill="#c7cfe2"/>
    </g>
    <circle id="Ellipse_76" data-name="Ellipse 76" cx="4.783" cy="4.783" r="4.783" transform="translate(64.528 79.396)" fill="#464655"/>
    <path id="Path_1691" data-name="Path 1691" d="M224.885,365.908a8.609,8.609,0,1,1,8.609-8.609A8.618,8.618,0,0,1,224.885,365.908Zm0-13.392a4.783,4.783,0,1,0,4.783,4.783A4.789,4.789,0,0,0,224.885,352.516Z" transform="translate(-155.574 -273.12)" fill="#eff2fa"/>
    <path id="Path_1692" data-name="Path 1692" d="M367.016,110.963h-28.7a2.87,2.87,0,0,1-2.87-2.87V2.87A2.87,2.87,0,0,1,338.319,0h28.7a2.87,2.87,0,0,1,2.87,2.87V108.093A2.87,2.87,0,0,1,367.016,110.963Z" transform="translate(-248.919)" fill="#c3e678"/>
    <path id="Path_1693" data-name="Path 1693" d="M382.975,122.276H363.843a1.913,1.913,0,0,1-1.913-1.913V72.533a1.913,1.913,0,0,1,1.913-1.913h19.132a1.913,1.913,0,0,1,1.913,1.913v47.829A1.913,1.913,0,0,1,382.975,122.276Z" transform="translate(-269.661 -55.315)" fill="#eff2fa"/>
    <g id="Group_1820" data-name="Group 1820" transform="translate(96.095 28.697)">
      <path id="Path_1694" data-name="Path 1694" d="M392.977,136.24H381.5a1.913,1.913,0,0,1,0-3.827h11.479a1.913,1.913,0,1,1,0,3.827Z" transform="translate(-379.585 -132.413)" fill="#d7deed"/>
      <path id="Path_1695" data-name="Path 1695" d="M392.977,171.549H381.5a1.913,1.913,0,0,1,0-3.827h11.479a1.913,1.913,0,1,1,0,3.827Z" transform="translate(-379.585 -160.07)" fill="#d7deed"/>
      <path id="Path_1696" data-name="Path 1696" d="M392.977,206.86H381.5a1.913,1.913,0,0,1,0-3.826h11.479a1.913,1.913,0,1,1,0,3.826Z" transform="translate(-379.585 -187.729)" fill="#d7deed"/>
      <path id="Path_1697" data-name="Path 1697" d="M392.977,277.48H381.5a1.913,1.913,0,0,1,0-3.827h11.479a1.913,1.913,0,1,1,0,3.827Z" transform="translate(-379.585 -243.044)" fill="#d7deed"/>
    </g>
    <g id="Group_1821" data-name="Group 1821" transform="translate(92.269 13.392)">
      <rect id="Rectangle_979" data-name="Rectangle 979" width="22.958" height="3.826" transform="translate(0 38.263)" fill="#c7cfe2"/>
      <path id="Path_1698" data-name="Path 1698" d="M384.889,71.359H361.931V63.706a1.913,1.913,0,0,1,1.913-1.913h19.132a1.913,1.913,0,0,1,1.913,1.913v7.653Z" transform="translate(-361.931 -61.793)" fill="#c7cfe2"/>
    </g>
    <circle id="Ellipse_77" data-name="Ellipse 77" cx="4.783" cy="4.783" r="4.783" transform="translate(98.965 79.396)" fill="#464655"/>
    <path id="Path_1699" data-name="Path 1699" d="M383.782,365.908a8.609,8.609,0,1,1,8.609-8.609A8.618,8.618,0,0,1,383.782,365.908Zm0-13.392a4.783,4.783,0,1,0,4.783,4.783A4.789,4.789,0,0,0,383.782,352.516Z" transform="translate(-280.034 -273.12)" fill="#eff2fa"/>
    <path id="Path_1700" data-name="Path 1700" d="M49.223,110.963h-28.7a2.87,2.87,0,0,1-2.87-2.87V2.87A2.87,2.87,0,0,1,20.526,0h28.7a2.87,2.87,0,0,1,2.87,2.87V108.093A2.87,2.87,0,0,1,49.223,110.963Z" fill="#ff6464"/>
    <path id="Path_1701" data-name="Path 1701" d="M65.183,122.276H46.051a1.913,1.913,0,0,1-1.913-1.913V72.533a1.913,1.913,0,0,1,1.913-1.913H65.183A1.913,1.913,0,0,1,67.1,72.533v47.829A1.914,1.914,0,0,1,65.183,122.276Z" transform="translate(-20.743 -55.315)" fill="#eff2fa"/>
    <g id="Group_1822" data-name="Group 1822" transform="translate(27.222 28.697)">
      <path id="Path_1702" data-name="Path 1702" d="M75.185,136.24H63.706a1.913,1.913,0,0,1,0-3.827H75.185a1.913,1.913,0,1,1,0,3.827Z" transform="translate(-61.793 -132.413)" fill="#d7deed"/>
      <path id="Path_1703" data-name="Path 1703" d="M75.185,171.549H63.706a1.913,1.913,0,0,1,0-3.827H75.185a1.913,1.913,0,1,1,0,3.827Z" transform="translate(-61.793 -160.07)" fill="#d7deed"/>
      <path id="Path_1704" data-name="Path 1704" d="M75.185,206.86H63.706a1.913,1.913,0,1,1,0-3.826H75.185a1.913,1.913,0,1,1,0,3.826Z" transform="translate(-61.793 -187.729)" fill="#d7deed"/>
      <path id="Path_1705" data-name="Path 1705" d="M75.185,277.48H63.706a1.913,1.913,0,0,1,0-3.827H75.185a1.913,1.913,0,1,1,0,3.827Z" transform="translate(-61.793 -243.044)" fill="#d7deed"/>
    </g>
    <g id="Group_1823" data-name="Group 1823" transform="translate(23.395 13.392)">
      <rect id="Rectangle_980" data-name="Rectangle 980" width="22.958" height="3.826" transform="translate(0 38.263)" fill="#c7cfe2"/>
      <path id="Path_1706" data-name="Path 1706" d="M67.1,71.359H44.138V63.706a1.913,1.913,0,0,1,1.913-1.913H65.183A1.913,1.913,0,0,1,67.1,63.706v7.653Z" transform="translate(-44.138 -61.793)" fill="#c7cfe2"/>
    </g>
    <circle id="Ellipse_78" data-name="Ellipse 78" cx="4.783" cy="4.783" r="4.783" transform="translate(30.091 79.396)" fill="#464655"/>
    <path id="Path_1707" data-name="Path 1707" d="M65.988,365.908A8.609,8.609,0,1,1,74.6,357.3,8.618,8.618,0,0,1,65.988,365.908Zm0-13.392a4.783,4.783,0,1,0,4.783,4.783A4.789,4.789,0,0,0,65.988,352.516Z" transform="translate(-31.114 -273.12)" fill="#eff2fa"/>
  </g>
</svg>
