<svg id="XMLID_806_" xmlns="http://www.w3.org/2000/svg" width="91.123" height="87.471" viewBox="0 0 91.123 87.471">
  <g id="XMLID_1434_" transform="translate(21.002 1.78)">
    <rect id="XMLID_1457_" width="12.176" height="7.026" transform="translate(28.056 8.543)" fill="#d5f5fb"/>
    <path id="XMLID_1456_" d="M254.119,28.8h12.814a4.271,4.271,0,0,0,4.271-4.271h0a4.271,4.271,0,0,0-4.271-4.271H254.119a4.271,4.271,0,0,0-4.271,4.271h0A4.271,4.271,0,0,0,254.119,28.8Z" transform="translate(-226.382 -20.262)" fill="#64b5f6"/>
    <path id="XMLID_1452_" d="M34.172,0A34.172,34.172,0,1,1,0,34.172,34.172,34.172,0,0,1,34.172,0Z" transform="translate(0 15.569)" fill="#64b5f6"/>
    <circle id="XMLID_2618_" cx="25.83" cy="25.83" r="25.83" transform="translate(8.342 23.911)" fill="#fff"/>
    <circle id="XMLID_2592_" cx="3.751" cy="3.751" r="3.751" transform="translate(30.421 45.99)" fill="#64b5f6"/>
  </g>
  <g id="XMLID_386_">
    <path id="XMLID_389_" d="M90.947,58.206a35.922,35.922,0,0,0-27.934-31.5V22.185a6.051,6.051,0,0,0-1.46-11.923H48.739a6.051,6.051,0,0,0-1.461,11.923V26.72a35.737,35.737,0,0,0-17.527,9.641A36.123,36.123,0,0,0,26.73,39.79c-.045,0-.089-.007-.135-.007H13.912a1.78,1.78,0,1,0,0,3.56h10.4a35.678,35.678,0,0,0-3.158,6.841H1.78a1.78,1.78,0,1,0,0,3.56H20.144a36.187,36.187,0,0,0-.883,6.841h-7.87a1.78,1.78,0,0,0,0,3.56h7.927a36.134,36.134,0,0,0,1.111,6.841H8.9a1.78,1.78,0,1,0,0,3.56H21.565A35.947,35.947,0,0,0,51.619,97.559q1.764.174,3.527.174a36.038,36.038,0,0,0,19.62-5.8,1.78,1.78,0,1,0-1.942-2.983,32.392,32.392,0,1,1,9.54-9.552,1.78,1.78,0,1,0,2.985,1.939A36.066,36.066,0,0,0,90.947,58.206Zm-44.7-41.893a2.494,2.494,0,0,1,2.492-2.492H61.553a2.492,2.492,0,0,1,0,4.983H48.739A2.5,2.5,0,0,1,46.247,16.313Zm4.591,9.795V22.365h8.616V26.1A36.264,36.264,0,0,0,50.838,26.108Z" transform="translate(0 -10.262)"/>
    <path id="XMLID_391_" d="M437.55,425.5a1.78,1.78,0,1,0,1.258.521A1.789,1.789,0,0,0,437.55,425.5Z" transform="translate(-358.213 -351.597)"/>
    <path id="XMLID_394_" d="M182.481,144.609a27.609,27.609,0,1,0,27.609,27.609A27.641,27.641,0,0,0,182.481,144.609Zm0,51.659a24.05,24.05,0,1,1,24.05-24.05A24.077,24.077,0,0,1,182.481,196.268Z" transform="translate(-127.308 -120.698)"/>
    <path id="XMLID_397_" d="M277.721,219.932l-8.815,8.815a5.516,5.516,0,0,0-4.886,0l-3.945-3.945a1.78,1.78,0,0,0-2.517,2.517l3.945,3.945a5.53,5.53,0,1,0,9.92,0l8.556-8.556h0l.259-.259a1.78,1.78,0,0,0-2.517-2.517Zm-11.258,15.746a1.971,1.971,0,1,1,1.971-1.971A1.973,1.973,0,0,1,266.463,235.679Z" transform="translate(-211.29 -182.187)"/>
    <path id="XMLID_398_" d="M401.084,289.86h-1.649a1.78,1.78,0,1,0,0,3.56h1.649a1.78,1.78,0,0,0,0-3.56Z" transform="translate(-326.881 -240.098)"/>
    <path id="XMLID_399_" d="M196.511,289.616h-1.649a1.78,1.78,0,1,0,0,3.56h1.649a1.78,1.78,0,1,0,0-3.56Z" transform="translate(-158.718 -239.897)"/>
    <path id="XMLID_400_" d="M301.9,188.027a1.78,1.78,0,0,0,1.78-1.78V184.6a1.78,1.78,0,1,0-3.56,0v1.649A1.78,1.78,0,0,0,301.9,188.027Z" transform="translate(-246.708 -152.108)"/>
    <path id="XMLID_424_" d="M301.659,387.393a1.78,1.78,0,0,0-1.78,1.78v1.649a1.78,1.78,0,1,0,3.56,0v-1.649A1.78,1.78,0,0,0,301.659,387.393Z" transform="translate(-246.507 -320.272)"/>
    <path id="XMLID_425_" d="M1.78,351.44a1.78,1.78,0,1,0,1.258,3.038A1.78,1.78,0,0,0,1.78,351.44Z" transform="translate(0 -290.718)"/>
  </g>
</svg>
