<svg xmlns="http://www.w3.org/2000/svg" width="18.473" height="15.288" viewBox="0 0 18.473 15.288">
  <path id="folder" d="M17.2,10.415V7.23H8.281L6.853,5H.87A.871.871,0,0,0,0,5.87v14.1H0c0,.234-.015.319.18.319H14.436a.809.809,0,0,0,.78-.577l3.257-8.978v-.319ZM2.548,8.317v.824H1.725ZM16.562,10.1H14.014V9.141a.319.319,0,1,0-.637,0V10.1H11.785V9.141a.319.319,0,1,0-.637,0V10.1H9.555V9.141a.319.319,0,1,0-.637,0V10.1H7.326V9.141a.319.319,0,1,0-.637,0V10.1H5.1V9.141a.319.319,0,1,0-.637,0V10.1H3.737a.808.808,0,0,0-.78.577L1.274,15.285V9.778H3.185V7.867H16.562Z" transform="translate(0 -5)" fill="#bebebe"/>
</svg>
