<svg xmlns="http://www.w3.org/2000/svg" width="22.789" height="23.181" viewBox="0 0 22.789 23.181">
  <g id="Group_1807" data-name="Group 1807" transform="translate(-71.828 -94.986) rotate(43)">
    <g id="Group_1807-2" data-name="Group 1807" transform="translate(127.4 11.075)">
      <path id="Path_1680" data-name="Path 1680" d="M138.055,22.74A14.493,14.493,0,0,0,133.9,11.215a.511.511,0,0,0-.7,0,14.487,14.487,0,0,0-4.154,11.526,6.138,6.138,0,0,0,.053,8.418.5.5,0,0,0,.841-.468,5.6,5.6,0,0,1-.129-.951,3.7,3.7,0,0,1,.669-2.132.508.508,0,0,0,.239.062h5.665a.508.508,0,0,0,.239-.062,3.7,3.7,0,0,1,.669,2.132,6.861,6.861,0,0,1-.129.951.5.5,0,0,0,.841.468,6.138,6.138,0,0,0,.053-8.418Zm-4.508-10.455a13.3,13.3,0,0,1,2.18,3.174h-4.355A13.053,13.053,0,0,1,133.548,12.286Zm-4.685,16.779a5.165,5.165,0,0,1,.373-4.957c0,.038.526,2.032.727,2.543a4.643,4.643,0,0,0-1.1,2.414Zm7.19-2.395h-5.01a13.492,13.492,0,0,1-.115-10.22h5.239A13.492,13.492,0,0,1,136.052,26.67Zm1.085-.019c.277-.712.722-2.514.727-2.543a5.094,5.094,0,0,1,.837,2.816,5.179,5.179,0,0,1-.464,2.142A4.72,4.72,0,0,0,137.138,26.651Z" transform="translate(-127.4 -11.075)" fill="#bebebe"/>
      <path id="Path_1681" data-name="Path 1681" d="M204,375.6a.5.5,0,0,0-.5.5v2.5a.5.5,0,1,0,.994,0v-2.5A.5.5,0,0,0,204,375.6Z" transform="translate(-199.862 -358.174)" fill="#bebebe"/>
      <path id="Path_1682" data-name="Path 1682" d="M246,375.6a.5.5,0,0,0-.354.148l0,0a.5.5,0,0,0-.124.22.6.6,0,0,0-.019.134v5a.472.472,0,0,0,.014.115.5.5,0,0,0,.966,0,.472.472,0,0,0,.014-.115V376.1a.412.412,0,0,0-.019-.134A.484.484,0,0,0,246,375.6Z" transform="translate(-239.854 -358.174)" fill="#bebebe"/>
      <path id="Path_1683" data-name="Path 1683" d="M288.2,375.6a.5.5,0,0,0-.5.5v2.5a.5.5,0,1,0,.994,0v-2.5A.491.491,0,0,0,288.2,375.6Z" transform="translate(-280.037 -358.174)" fill="#bebebe"/>
    </g>
  </g>
</svg>
