<svg xmlns="http://www.w3.org/2000/svg" width="98.396" height="92.696" viewBox="0 0 98.396 92.696">
  <g id="paper-plane" transform="translate(0 0)">
    <path id="Path_1620" data-name="Path 1620" d="M24.916,18.086,11.448,12.453a2.7,2.7,0,0,0-2.509.242A2.667,2.667,0,0,0,7.75,14.917V35.374a2.666,2.666,0,0,0,1.706,2.489,2.623,2.623,0,0,0,.963.18,2.666,2.666,0,0,0,1.976-.877L25.863,22.341a2.67,2.67,0,0,0-.947-4.256Z" transform="translate(24.023 37.975)" fill="#2196f3"/>
    <path id="Path_1621" data-name="Path 1621" d="M97.411.82A3.078,3.078,0,0,0,94.2.209L1.96,36.082a3.075,3.075,0,0,0,.02,5.74L74.751,69.5a3.153,3.153,0,0,0,1.095.2,3.075,3.075,0,0,0,2.944-2.173L98.264,3.977A3.09,3.09,0,0,0,97.411.82Z" transform="translate(0 0)" fill="#64b5f6"/>
    <path id="Path_1622" data-name="Path 1622" d="M7.75,37.8,53.873,5,19.365,43.263Z" transform="translate(24.023 15.499)" fill="#2196f3"/>
    <path id="Path_1623" data-name="Path 1623" d="M75.846,69.695a3.153,3.153,0,0,1-1.095-.2L1.98,41.82a3.074,3.074,0,0,1-.016-5.74L94.209.208A3.071,3.071,0,0,1,98.26,3.975L78.786,67.522a3.066,3.066,0,0,1-2.94,2.173Zm-64.2-30.781L73.87,62.578,90.519,8.239Z" transform="translate(0 0.001)"/>
    <path id="Path_1624" data-name="Path 1624" d="M10.825,77.895A3.079,3.079,0,0,1,7.75,74.82V51.246A3.084,3.084,0,0,1,8.906,48.84L69.378.667A3.078,3.078,0,1,1,73.215,5.48L13.9,52.726V66.862L24.071,55.67A3.074,3.074,0,1,1,28.622,59.8L13.1,76.886a3.07,3.07,0,0,1-2.275,1.009Z" transform="translate(24.023 0.001)"/>
    <path id="Path_1625" data-name="Path 1625" d="M10.307,27.152a3.047,3.047,0,0,1-1.7-.512,3.08,3.08,0,0,1-.861-4.264c1.205-1.812,1.894-3.14,1.931-3.206a3.076,3.076,0,0,1,5.473,2.808,43.066,43.066,0,0,1-2.279,3.8,3.083,3.083,0,0,1-2.566,1.369Z" transform="translate(22.434 54.245)"/>
    <path id="Path_1626" data-name="Path 1626" d="M10.01,31.266a3.208,3.208,0,0,1-.8-.107A12.637,12.637,0,0,1,.789,24.231a3.077,3.077,0,1,1,5.543-2.673,6.464,6.464,0,0,0,4.485,3.673,3.071,3.071,0,0,1-.808,6.035Zm8.523-.02a3.076,3.076,0,0,1-.951-6,16.283,16.283,0,0,0,6.051-3.911,3.077,3.077,0,0,1,4.256,4.444,22.367,22.367,0,0,1-8.4,5.322,3.105,3.105,0,0,1-.951.148Z" transform="translate(1.498 61.43)"/>
    <path id="Path_1627" data-name="Path 1627" d="M3.194,27A3.071,3.071,0,0,1,.131,24.13C.045,22.789,0,21.35,0,19.825a3.075,3.075,0,1,1,6.15,0q0,2.072.115,3.9A3.069,3.069,0,0,1,3.4,27c-.07,0-.135.008-.2.008Z" transform="translate(0 51.921)"/>
  </g>
</svg>
