<svg xmlns="http://www.w3.org/2000/svg" width="302.276" height="261.709" viewBox="0 0 302.276 261.709">
  <g id="Group_4320" data-name="Group 4320" transform="translate(-11786 21752.887)">
    <g id="Group_2495" data-name="Group 2495" transform="translate(11785.988 -21750.998)">
      <path id="Path_1917" data-name="Path 1917" d="M293.741,153.21H189.479c.277,0,.546-.016.814-.04a8.55,8.55,0,0,1,0-17.023c-.269-.024-.538-.04-.814-.04h28.614a8.555,8.555,0,0,0,0-17.11h.972c-2.538,0-6.365-3.827-6.365-8.555a8.549,8.549,0,0,1,8.072-8.531c-.158-.008-.324-.024-.482-.024H239.7a8.555,8.555,0,1,0,0-17.11H174.8a8.555,8.555,0,1,1,0-17.11h68.265a8.555,8.555,0,1,0,0-17.11H149.377a8.555,8.555,0,1,0,0,17.11H133.532a8.555,8.555,0,0,0,0,17.11H51.21a8.555,8.555,0,0,0,0,17.11H81.1a8.555,8.555,0,1,1,0,17.11H53.661a8.555,8.555,0,1,0,0,17.11h2.8a8.55,8.55,0,0,1,3.17,16.493H17.07a7.843,7.843,0,1,0,0,15.686h50.8a8.555,8.555,0,1,1,0,17.11H8.555a8.543,8.543,0,1,0,0,17.086H104.8a8.54,8.54,0,0,0,4.048,1.02h7.163a8.554,8.554,0,0,0,4.048,16.09h93.668a8.555,8.555,0,0,0,0-17.11h33.081a8.555,8.555,0,1,0,0-17.11H151.97c.15,0,.3-.016.451-.024a8.538,8.538,0,0,1,5.108-15.022c-.008-.008-.024-.016-.032-.024H293.741a8.547,8.547,0,0,0,0-17.094ZM145,102.529c.206.016.4.032.617.032h-1.226C144.594,102.561,144.791,102.537,145,102.529Zm.609-18.438c-.206,0-.411.016-.617.032-.206-.016-.4-.032-.609-.032Z" transform="translate(0 -11.649)" fill="#c6c6c6" opacity="0.5"/>
      <path id="Path_1918" data-name="Path 1918" d="M264.659,307.152c0,8.231-45.889,14.912-102.5,14.912s-102.5-6.673-102.5-14.912,45.889-14.912,102.5-14.912S264.659,298.913,264.659,307.152Z" transform="translate(-12.49 -62.245)" fill="#c6c6c6"/>
      <g id="Group_2493" data-name="Group 2493" transform="translate(18.718)">
        <circle id="Ellipse_116" data-name="Ellipse 116" cx="55.243" cy="55.243" r="55.243" transform="translate(0 195.31) rotate(-67.5)" stroke-dasharray="4.625" stroke="#552a68" stroke-linecap="round" stroke-linejoin="round" stroke-miterlimit="10" stroke-width="2.274" fill="none"/>
        <g id="Group_2489" data-name="Group 2489" transform="translate(32.121)">
          <rect id="Rectangle_1101" data-name="Rectangle 1101" width="55.243" height="80.512" transform="translate(9.572 60.035) rotate(-56.515)" stroke-width="2.692" stroke="#552a68" stroke-linecap="round" stroke-linejoin="round" stroke-miterlimit="10" fill="#fed588"/>
          <g id="Group_2487" data-name="Group 2487" transform="translate(42.518 9.077)">
            <path id="Path_1919" data-name="Path 1919" d="M165.945,103.01a5.8,5.8,0,0,1-8.025,1.637L120.672,80.011a5.8,5.8,0,0,1-1.637-8.025l37.421-56.563a5.794,5.794,0,0,1,8.025-1.637L201.73,38.422a5.8,5.8,0,0,1,1.637,8.025Z" transform="translate(-118.076 -12.826)" fill="#fff" stroke="#552a68" stroke-linecap="round" stroke-linejoin="round" stroke-miterlimit="10" stroke-width="2.692"/>
            <line id="Line_1" data-name="Line 1" x2="38.631" y2="25.554" transform="translate(37.954 12.227)" fill="#fed588" stroke="#552a68" stroke-linecap="round" stroke-linejoin="round" stroke-miterlimit="10" stroke-width="2.356"/>
            <line id="Line_2" data-name="Line 2" x2="38.631" y2="25.554" transform="translate(30.878 21.43)" fill="#fed588" stroke="#552a68" stroke-linecap="round" stroke-linejoin="round" stroke-miterlimit="10" stroke-width="2.356"/>
            <line id="Line_3" data-name="Line 3" x2="38.631" y2="25.562" transform="translate(25.249 29.929)" fill="#fed588" stroke="#552a68" stroke-linecap="round" stroke-linejoin="round" stroke-miterlimit="10" stroke-width="2.356"/>
          </g>
          <g id="Group_2488" data-name="Group 2488" transform="translate(14.806)">
            <path id="Path_1920" data-name="Path 1920" d="M130.9,91.538a5.794,5.794,0,0,1-8.025,1.637L85.622,68.531a5.794,5.794,0,0,1-1.637-8.025L121.4,3.942A5.794,5.794,0,0,1,129.425,2.3l37.247,24.637a5.794,5.794,0,0,1,1.637,8.025Z" transform="translate(-83.026 -1.346)" fill="#fff" stroke="#552a68" stroke-linecap="round" stroke-linejoin="round" stroke-miterlimit="10" stroke-width="2.692"/>
            <line id="Line_4" data-name="Line 4" x2="38.631" y2="25.562" transform="translate(37.954 12.227)" fill="#fed588" stroke="#552a68" stroke-linecap="round" stroke-linejoin="round" stroke-miterlimit="10" stroke-width="2.356"/>
            <line id="Line_5" data-name="Line 5" x2="38.639" y2="25.554" transform="translate(30.87 21.43)" fill="#fed588" stroke="#552a68" stroke-linecap="round" stroke-linejoin="round" stroke-miterlimit="10" stroke-width="2.356"/>
            <line id="Line_6" data-name="Line 6" x2="38.631" y2="25.554" transform="translate(25.249 29.937)" fill="#fed588" stroke="#552a68" stroke-linecap="round" stroke-linejoin="round" stroke-miterlimit="10" stroke-width="2.356"/>
          </g>
          <path id="Path_1921" data-name="Path 1921" d="M133.26,42.982l4.159-6.3L98.424,10.89,64.3,62.472l68.873,45.557,29.958-45.288Z" transform="translate(-64.3 -3.344)" fill="#fed588" stroke="#552a68" stroke-linecap="round" stroke-linejoin="round" stroke-miterlimit="10" stroke-width="2.692"/>
          <path id="Path_1922" data-name="Path 1922" d="M156.7,70.1c-17.987,20.66-49.661,25.5-73.016,10.041A54.411,54.411,0,0,1,69.408,66.36L64.3,74.077l68.873,45.557,29.958-45.288Z" transform="translate(-64.3 -14.957)" fill="#fed588"/>
        </g>
        <g id="Group_2491" data-name="Group 2491" transform="translate(75.931 128.041)">
          <rect id="Rectangle_1102" data-name="Rectangle 1102" width="23.039" height="45.51" transform="translate(116.066 37.417) rotate(-22.351)" stroke-width="4.766" stroke="#552a68" stroke-linecap="round" stroke-linejoin="round" stroke-miterlimit="10" fill="none"/>
          <rect id="Rectangle_1103" data-name="Rectangle 1103" width="96.072" height="118.826" transform="translate(0.008)" stroke-width="4.766" stroke="#552a68" stroke-linecap="round" stroke-linejoin="round" stroke-miterlimit="10" fill="#fed588"/>
          <path id="Path_1923" data-name="Path 1923" d="M195.826,163.29a70.834,70.834,0,0,1,8.254,33.152c0,39.4-32.883,72.281-72.289,72.281a70.119,70.119,0,0,1-12.081-1.052v14.437h96.072V163.29Z" transform="translate(-119.71 -163.29)" fill="#fed588"/>
          <rect id="Rectangle_1104" data-name="Rectangle 1104" width="21.917" height="116.296" transform="translate(90.132 9.813) rotate(-22.351)" stroke-width="4.766" stroke="#552a68" stroke-linecap="round" stroke-linejoin="round" stroke-miterlimit="10" fill="#fed588"/>
          <g id="Group_2490" data-name="Group 2490" transform="translate(21.071 1.123)">
            <line id="Line_7" data-name="Line 7" y2="115.743" stroke-width="4.766" stroke="#552a68" stroke-linecap="round" stroke-linejoin="round" stroke-miterlimit="10" fill="none"/>
            <line id="Line_8" data-name="Line 8" y2="115.743" transform="translate(26.969)" fill="none" stroke="#552a68" stroke-linecap="round" stroke-linejoin="round" stroke-miterlimit="10" stroke-width="4.766"/>
            <line id="Line_9" data-name="Line 9" y2="115.743" transform="translate(53.938)" fill="none" stroke="#552a68" stroke-linecap="round" stroke-linejoin="round" stroke-miterlimit="10" stroke-width="4.766"/>
          </g>
        </g>
        <path id="Path_1924" data-name="Path 1924" stroke="#b91824" d="M97.14,1.62s36.66,54.61,32.82,111.79" fill="none" transform="translate(-39.054 -1.403)" stroke-linecap="round" stroke-linejoin="round" stroke-miterlimit="10" stroke-width="3.036" stroke-dasharray="6.174"/>
        <path id="Path_1925" data-name="Path 1925" stroke="#b91824" d="M168.822,58.282S103.443,50.992,54.51,80.815" fill="none" transform="translate(-30.13 -13.101)" stroke-linecap="round" stroke-linejoin="round" stroke-miterlimit="10" stroke-width="3.036" stroke-dasharray="6.174"/>
        <g id="Group_2492" data-name="Group 2492" transform="translate(147.144 51.403)">
          <path id="Path_1926" data-name="Path 1926" stroke="#552a68" d="M214.9,129.4s25.317-24.415,9.867-63.038" fill="none" transform="translate(-210.852 -66.36)" stroke-linecap="round" stroke-linejoin="round" stroke-miterlimit="10" stroke-width="3.036" stroke-dasharray="6.174"/>
          <path id="Path_1927" data-name="Path 1927" stroke="#552a68" d="M210.444,141.56l-.664,9.085,9.045-2.664,1.241-.664" fill="none" transform="translate(-209.78 -82.103)" stroke-linecap="round" stroke-linejoin="round" stroke-miterlimit="10" stroke-width="3.036" stroke-dasharray="6.174"/>
        </g>
      </g>
      <g id="Group_2494" data-name="Group 2494" transform="translate(13.536 105.143)">
        <path id="Path_1928" data-name="Path 1928" d="M317.6,166.41l-10.176-3.052v-.1L304.4,152.74l-3.155,10.516h-.19l-10.516,3.012,10.492,3.147,2.9,10.1,3.052-10.191h.1v.1Z" transform="translate(-74.361 -138.184)" fill="#fff"/>
        <path id="Path_1929" data-name="Path 1929" d="M82.592,264.541l-4.712-1.423v-.04l-1.4-4.878-1.463,4.878H74.93l-4.87,1.392,4.862,1.463,1.336,4.681,1.415-4.72h.047v.04Z" transform="translate(-28.203 -160.262)" fill="#fff"/>
        <path id="Path_1930" data-name="Path 1930" d="M246.682,271.024l-8.958-2.688v-.087l-2.657-9.258-2.775,9.258h-.174l-9.258,2.657,9.243,2.767,2.546,8.895,2.7-8.974h.087v.087Z" transform="translate(-60.192 -160.428)" fill="#fff"/>
        <path id="Path_1931" data-name="Path 1931" d="M163.526,256.54l-4.776-1.44v-.047l-1.415-4.934-1.486,4.934h-.087l-4.942,1.423,4.934,1.471,1.36,4.752,1.431-4.791h.047v.047Z" transform="translate(-45.11 -158.571)" fill="#fff"/>
        <path id="Path_1932" data-name="Path 1932" d="M93.022,150.119l-11.757-3.526v-.111L77.779,134.33l-3.645,12.152h-.221L61.76,149.961,73.889,153.6l3.344,11.67,3.534-11.77h.111v.111Z" transform="translate(-26.465 -134.33)" fill="#fff"/>
        <path id="Path_1933" data-name="Path 1933" d="M29.818,202.612l-4.776-1.431v-.047L23.627,196.2l-1.486,4.934h-.087l-4.934,1.415,4.926,1.479,1.36,4.744,1.431-4.783h.047v.04Z" transform="translate(-17.12 -147.283)" fill="#fff"/>
      </g>
    </g>
    <g id="Group_4319" data-name="Group 4319" transform="translate(11946.669 -21664.268)">
      <circle id="Ellipse_165" data-name="Ellipse 165" cx="39" cy="39" r="39" transform="translate(4.331 4.268)" fill="#cf2a29"/>
      <path id="Icon_feather-check" data-name="Icon feather-check" d="M41.646,9,17.139,33.506,6,22.367" transform="translate(18.871 21.819)" fill="none" stroke="#fff" stroke-linecap="round" stroke-linejoin="round" stroke-width="6"/>
    </g>
  </g>
</svg>
