<svg id="_004-analysis" data-name="004-analysis" xmlns="http://www.w3.org/2000/svg" width="25.142" height="24.335" viewBox="0 0 25.142 24.335">
  <g id="Group_955" data-name="Group 955" transform="translate(3.348 2.435)">
    <g id="Group_954" data-name="Group 954">
      <path id="Path_1473" data-name="Path 1473" d="M79.052,59.671a6.369,6.369,0,1,0,1.865,4.5A6.327,6.327,0,0,0,79.052,59.671Zm-8.494.513a5.645,5.645,0,0,1,9.557,3.052L78.138,65.17a1.29,1.29,0,0,0-1.708.409l-2.906-.912c0-.008,0-.017,0-.025a1.293,1.293,0,1,0-2.414.641l-1.525,1.58A5.654,5.654,0,0,1,70.558,60.184ZM78.072,66.3a.567.567,0,1,1-.567-.567A.568.568,0,0,1,78.072,66.3ZM72.8,64.642a.567.567,0,1,1-.567-.567A.568.568,0,0,1,72.8,64.642Zm5.74,3.524a5.645,5.645,0,0,1-8.555-.671l1.648-1.709a1.29,1.29,0,0,0,1.675-.427l2.906.912c0,.008,0,.017,0,.025a1.293,1.293,0,1,0,2.433-.608l1.547-1.513A5.607,5.607,0,0,1,78.539,68.166Z" transform="translate(-68.183 -57.806)" fill="#5f6a79"/>
    </g>
  </g>
  <g id="Group_957" data-name="Group 957" transform="translate(6.502 3.907)">
    <g id="Group_956" data-name="Group 956" transform="translate(0 0)">
      <path id="Path_1474" data-name="Path 1474" d="M132.414,88.98l.476.547a4.187,4.187,0,0,1,4.116-.787l.239-.685A4.914,4.914,0,0,0,132.414,88.98Z" transform="translate(-132.414 -87.783)" fill="#5f6a79"/>
    </g>
  </g>
  <g id="Group_959" data-name="Group 959" transform="translate(11.886 4.619)">
    <g id="Group_958" data-name="Group 958" transform="translate(0 0)">
      <path id="Path_1475" data-name="Path 1475" d="M242.423,102.292l-.377.619a4.167,4.167,0,0,1,.548.4l.473-.55A4.9,4.9,0,0,0,242.423,102.292Z" transform="translate(-242.046 -102.292)" fill="#5f6a79"/>
    </g>
  </g>
  <g id="Group_961" data-name="Group 961" transform="translate(7.886 12.676)">
    <g id="Group_960" data-name="Group 960" transform="translate(0 0)">
      <path id="Path_1476" data-name="Path 1476" d="M163.293,266.566a4.182,4.182,0,0,1-2.426-.209l-.27.673a4.9,4.9,0,0,0,1.824.353,4.948,4.948,0,0,0,1.021-.107Z" transform="translate(-160.598 -266.357)" fill="#5f6a79"/>
    </g>
  </g>
  <g id="Group_963" data-name="Group 963" transform="translate(0 0)">
    <g id="Group_962" data-name="Group 962">
      <path id="Path_1477" data-name="Path 1477" d="M18.8,22.858l-.527.527-1.307-1.4a8.812,8.812,0,0,0,1.116-7.622l1.037-1.014a1.292,1.292,0,0,0,1.764-1.725l2.225-2.176v1.125h.725V8.227H21.484v.725h1.1l-2.2,2.147A1.292,1.292,0,0,0,18.6,12.843l-.794.777A8.784,8.784,0,1,0,2.5,22.049l-.611.633a1.295,1.295,0,1,0,.522.5l.534-.553q.261.315.555.61A8.8,8.8,0,0,0,14.651,24.3l1.31,1.4-.545.545,6.343,6.321,3.383-3.383Zm.932-11.211a.567.567,0,1,1-.567.567A.568.568,0,0,1,19.732,11.647ZM1.293,24.393a.567.567,0,1,1,.567-.567A.568.568,0,0,1,1.293,24.393Zm2.723-1.664a8.059,8.059,0,1,1,11.4,0A8.068,8.068,0,0,1,4.016,22.729Zm11.222,1.132a8.837,8.837,0,0,0,1.288-1.283L17.76,23.9l-1.286,1.286Zm6.521,7.675-5.315-5.3L18.8,23.883l5.315,5.3Z" transform="translate(0 -8.227)" fill="#5f6a79"/>
    </g>
  </g>
  <g id="Group_965" data-name="Group 965" transform="translate(17.762 16.709)">
    <g id="Group_964" data-name="Group 964">
      <path id="Path_1478" data-name="Path 1478" d="M362.747,348.478l-1.038,1.038.513.513.525-.525,2,2,.513-.513Z" transform="translate(-361.709 -348.478)" fill="#5f6a79"/>
    </g>
  </g>
  <g id="Group_967" data-name="Group 967" transform="translate(21.424 19.844)">
    <g id="Group_966" data-name="Group 966" transform="translate(0 0)">
      <rect id="Rectangle_718" data-name="Rectangle 718" width="0.725" height="0.76" transform="translate(0 0.513) rotate(-45)" fill="#5f6a79"/>
    </g>
  </g>
  <g id="Group_969" data-name="Group 969" transform="translate(3.93 17.956)">
    <g id="Group_968" data-name="Group 968">
      <rect id="Rectangle_719" data-name="Rectangle 719" width="0.725" height="0.79" fill="#5f6a79"/>
    </g>
  </g>
  <g id="Group_971" data-name="Group 971" transform="translate(3.93 22.385)">
    <g id="Group_970" data-name="Group 970">
      <rect id="Rectangle_720" data-name="Rectangle 720" width="0.725" height="0.79" fill="#5f6a79"/>
    </g>
  </g>
  <g id="Group_973" data-name="Group 973" transform="translate(9.904 19.48)">
    <g id="Group_972" data-name="Group 972">
      <rect id="Rectangle_721" data-name="Rectangle 721" width="0.725" height="0.79" fill="#5f6a79"/>
    </g>
  </g>
  <g id="Group_975" data-name="Group 975" transform="translate(20.299 12.956)">
    <g id="Group_974" data-name="Group 974">
      <rect id="Rectangle_722" data-name="Rectangle 722" width="0.725" height="0.79" fill="#5f6a79"/>
    </g>
  </g>
  <g id="Group_977" data-name="Group 977" transform="translate(21.122 6.662)">
    <g id="Group_976" data-name="Group 976">
      <rect id="Rectangle_723" data-name="Rectangle 723" width="0.725" height="0.79" fill="#5f6a79"/>
    </g>
  </g>
  <g id="Group_979" data-name="Group 979" transform="translate(23.526 9.995)">
    <g id="Group_978" data-name="Group 978" transform="translate(0 0)">
      <rect id="Rectangle_724" data-name="Rectangle 724" width="0.725" height="0.79" fill="#5f6a79"/>
    </g>
  </g>
</svg>
