<svg xmlns="http://www.w3.org/2000/svg" width="19" height="19.009" viewBox="0 0 19 19.009">
  <path id="Path_1668" data-name="Path 1668" d="M211.434,211.818H211.3c-.1-.041-.195-.085-.294-.122-1.033-.382-2.076-.739-3.1-1.151a2.23,2.23,0,0,0-1.781.014,8.932,8.932,0,0,1-3.59.62,9.323,9.323,0,0,1-4.269-1.078,8.956,8.956,0,0,1-5.021-7.443,8.555,8.555,0,0,1,1.922-6.229,9.672,9.672,0,0,1,11.176-2.914,9.145,9.145,0,0,1,5.439,5.7,9.678,9.678,0,0,1,.428,2.069v1.459a.9.9,0,0,0-.025.111,8.886,8.886,0,0,1-1.508,4.172,1.242,1.242,0,0,0-.175,1.061C210.823,209.328,211.125,210.574,211.434,211.818Zm-13.1-10.921a1.437,1.437,0,1,0,1.449,1.43A1.455,1.455,0,0,0,198.335,200.9Zm5.826,1.426a1.437,1.437,0,1,0-1.434,1.448A1.453,1.453,0,0,0,204.161,202.324Zm4.378.012a1.438,1.438,0,1,0-1.446,1.436A1.454,1.454,0,0,0,208.539,202.335Z" transform="translate(-193.209 -192.809)" fill="#5f6a79"/>
</svg>
