<svg id="_003-user" data-name="003-user" xmlns="http://www.w3.org/2000/svg" width="32.845" height="18.491" viewBox="0 0 32.845 18.491">
  <g id="Group_953" data-name="Group 953" transform="translate(0)">
    <path id="Path_1470" data-name="Path 1470" d="M340.6,168.093v2.528a1.8,1.8,0,0,0,.51,1.254v.858a.664.664,0,1,0,1.327,0v-1.167a.665.665,0,0,0-.295-.55.47.47,0,0,1-.215-.4v-2.528a1.614,1.614,0,0,1,1.609-1.609h.543a1.614,1.614,0,0,1,1.609,1.609v2.528a.47.47,0,0,1-.215.4.649.649,0,0,0-.295.55V174a.784.784,0,0,0,.436.7,19.376,19.376,0,0,1,3.466,2.219.561.561,0,0,1,.2.436v1.066h-4.653a.664.664,0,0,0,0,1.327h5.317a.661.661,0,0,0,.664-.664v-1.73a1.873,1.873,0,0,0-.691-1.462,21.164,21.164,0,0,0-3.413-2.233v-1.79a1.8,1.8,0,0,0,.51-1.254v-2.528a2.94,2.94,0,0,0-2.937-2.937h-.543A2.95,2.95,0,0,0,340.6,168.093Z" transform="translate(-317.765 -161.255)" fill="#5f6a79"/>
    <path id="Path_1471" data-name="Path 1471" d="M.664,179.839h5.4a.664.664,0,0,0,0-1.327H1.327v-1.066a.571.571,0,0,1,.2-.436,18.731,18.731,0,0,1,3.466-2.219.772.772,0,0,0,.436-.7V171.66a.666.666,0,0,0-.295-.55.47.47,0,0,1-.215-.4v-2.528a1.614,1.614,0,0,1,1.609-1.609h.543a1.614,1.614,0,0,1,1.609,1.609v2.528a.47.47,0,0,1-.215.4.649.649,0,0,0-.295.55v1.22a.664.664,0,0,0,1.327,0v-.912a1.8,1.8,0,0,0,.51-1.254v-2.528a2.94,2.94,0,0,0-2.937-2.937H6.53a2.94,2.94,0,0,0-2.937,2.937v2.528a1.8,1.8,0,0,0,.51,1.254v1.79a20.425,20.425,0,0,0-3.413,2.233A1.9,1.9,0,0,0,0,177.452v1.723A.661.661,0,0,0,.664,179.839Z" transform="translate(0 -161.348)" fill="#5f6a79"/>
    <path id="Path_1472" data-name="Path 1472" d="M129.471,113.922v-3.265a3.608,3.608,0,0,0-3.607-3.607h-.7a3.608,3.608,0,0,0-3.607,3.607v3.265a2.139,2.139,0,0,0,.657,1.542v2.514a26.289,26.289,0,0,0-4.492,2.923,2.23,2.23,0,0,0-.818,1.736v2.239a.661.661,0,0,0,.664.664h15.889a.661.661,0,0,0,.664-.664v-2.239a2.23,2.23,0,0,0-.818-1.736,26.719,26.719,0,0,0-4.492-2.923v-2.514A2.108,2.108,0,0,0,129.471,113.922Zm2.99,8.005a.913.913,0,0,1,.335.711v1.576H118.234v-1.576a.913.913,0,0,1,.335-.711,25.12,25.12,0,0,1,4.519-2.9.818.818,0,0,0,.456-.724v-3.151a.666.666,0,0,0-.295-.55.807.807,0,0,1-.362-.67v-3.265a2.282,2.282,0,0,1,2.279-2.28h.7a2.282,2.282,0,0,1,2.279,2.28v3.265a.8.8,0,0,1-.362.67.649.649,0,0,0-.295.55V118.3a.811.811,0,0,0,.456.724A25.836,25.836,0,0,1,132.461,121.927Z" transform="translate(-109.063 -107.05)" fill="#5f6a79"/>
  </g>
</svg>
