<svg id="_005-settings-gears" data-name="005-settings-gears" xmlns="http://www.w3.org/2000/svg" width="15.484" height="15.327" viewBox="0 0 15.484 15.327">
  <path id="Path_1390" data-name="Path 1390" d="M1.018,10.332a3.77,3.77,0,0,0,.337.8l-.407.513a.421.421,0,0,0,.032.558l.7.7a.419.419,0,0,0,.558.032l.51-.4a3.7,3.7,0,0,0,.832.352l.076.656a.42.42,0,0,0,.417.372h.992a.42.42,0,0,0,.417-.372l.073-.633a3.747,3.747,0,0,0,.892-.36l.493.39a.421.421,0,0,0,.558-.032l.7-.7a.419.419,0,0,0,.032-.558l-.384-.487a3.661,3.661,0,0,0,.367-.877l.591-.068A.42.42,0,0,0,9.178,9.8V8.807a.42.42,0,0,0-.372-.417l-.583-.068a3.684,3.684,0,0,0-.352-.867L8.23,7A.421.421,0,0,0,8.2,6.443l-.7-.7a.419.419,0,0,0-.558-.032l-.44.349a3.7,3.7,0,0,0-.912-.382l-.066-.57a.42.42,0,0,0-.417-.372H4.114a.42.42,0,0,0-.417.372l-.066.57a3.681,3.681,0,0,0-.935.4l-.457-.362a.421.421,0,0,0-.558.032l-.7.7A.419.419,0,0,0,.948,7l.382.483a3.614,3.614,0,0,0-.345.875l-.611.07A.42.42,0,0,0,0,8.848V9.84a.42.42,0,0,0,.372.417ZM4.61,7.649A1.639,1.639,0,1,1,2.971,9.288,1.642,1.642,0,0,1,4.61,7.649Z" transform="translate(-0.001 -4.737)" fill="#a2a2a2"/>
  <path id="Path_1391" data-name="Path 1391" d="M484.4,288.9l-.523-.442a.414.414,0,0,0-.551.015l-.289.271a2.984,2.984,0,0,0-.771-.249l-.081-.4a.418.418,0,0,0-.442-.332l-.683.058a.416.416,0,0,0-.38.4l-.013.405a3,3,0,0,0-.736.387l-.345-.229a.415.415,0,0,0-.547.078l-.442.527a.414.414,0,0,0,.015.551l.3.322a3.1,3.1,0,0,0-.223.738l-.432.088a.418.418,0,0,0-.332.442l.058.683a.416.416,0,0,0,.4.38l.467.015a3.049,3.049,0,0,0,.331.631l-.261.394a.415.415,0,0,0,.078.546l.523.442a.414.414,0,0,0,.552-.015l.342-.321a3,3,0,0,0,.7.229l.095.468a.418.418,0,0,0,.442.332l.683-.058a.416.416,0,0,0,.38-.4l.015-.458a3.073,3.073,0,0,0,.7-.355l.377.249a.415.415,0,0,0,.547-.078l.442-.523a.414.414,0,0,0-.015-.551l-.3-.322a2.989,2.989,0,0,0,.239-.741l.415-.085a.418.418,0,0,0,.332-.442l-.058-.683a.416.416,0,0,0-.4-.38l-.417-.013a3.017,3.017,0,0,0-.347-.684l.228-.342A.413.413,0,0,0,484.4,288.9Zm-2.573,3.947a1.342,1.342,0,1,1,1.224-1.45A1.342,1.342,0,0,1,481.822,292.843Z" transform="translate(-469.982 -283.058)" fill="#a2a2a2"/>
  <path id="Path_1392" data-name="Path 1392" d="M182.674,561.154a.415.415,0,0,0-.372.409l0,.42a.414.414,0,0,0,.362.417l.309.04a2.394,2.394,0,0,0,.219.537l-.2.246a.414.414,0,0,0,.025.552l.294.3a.415.415,0,0,0,.551.038l.247-.191a2.427,2.427,0,0,0,.551.241l.033.319a.415.415,0,0,0,.409.372l.42.005a.414.414,0,0,0,.417-.362l.038-.3a2.494,2.494,0,0,0,.6-.233l.233.188a.414.414,0,0,0,.551-.025l.3-.294a.415.415,0,0,0,.038-.552l-.178-.231a2.408,2.408,0,0,0,.253-.581l.276-.028a.415.415,0,0,0,.372-.409l0-.42a.414.414,0,0,0-.362-.417l-.269-.035a2.5,2.5,0,0,0-.228-.581l.168-.206a.414.414,0,0,0-.025-.552l-.294-.3a.415.415,0,0,0-.551-.038l-.2.155a2.439,2.439,0,0,0-.6-.262l-.027-.261a.415.415,0,0,0-.409-.372l-.42-.005a.414.414,0,0,0-.417.362l-.033.259a2.512,2.512,0,0,0-.626.256l-.208-.169a.414.414,0,0,0-.551.025l-.3.3a.415.415,0,0,0-.038.551l.178.229a2.43,2.43,0,0,0-.238.581Zm2.712-.475a1.093,1.093,0,1,1-1.106,1.08A1.094,1.094,0,0,1,185.386,560.679Z" transform="translate(-179.269 -549.532)" fill="#a2a2a2"/>
</svg>
