<svg xmlns="http://www.w3.org/2000/svg" width="14.979" height="19.972" viewBox="0 0 14.979 19.972">
  <g id="Group_1040" data-name="Group 1040" opacity="0.1">
    <path id="ic_more_vert_24px" d="M12.5,8.993A2.5,2.5,0,1,0,10,6.5,2.5,2.5,0,0,0,12.5,8.993Zm0,2.5a2.5,2.5,0,1,0,2.5,2.5A2.5,2.5,0,0,0,12.5,11.489Zm0,7.489a2.5,2.5,0,1,0,2.5,2.5A2.5,2.5,0,0,0,12.5,18.979Z" transform="translate(-10 -4)"/>
    <path id="ic_more_vert_24px-2" data-name="ic_more_vert_24px" d="M12.5,8.993A2.5,2.5,0,1,0,10,6.5,2.5,2.5,0,0,0,12.5,8.993Zm0,2.5a2.5,2.5,0,1,0,2.5,2.5A2.5,2.5,0,0,0,12.5,11.489Zm0,7.489a2.5,2.5,0,1,0,2.5,2.5A2.5,2.5,0,0,0,12.5,18.979Z" transform="translate(-0.014 -4)"/>
  </g>
</svg>
