<svg xmlns="http://www.w3.org/2000/svg" width="22.674" height="20.899" viewBox="0 0 22.674 20.899">
  <path id="Path_1489" data-name="Path 1489" d="M22.608,10.077a.687.687,0,0,0-.622-.394H.687a.687.687,0,0,0-.53,1.124l8.188,9.931V29.9a.687.687,0,0,0,.992.616l4.6-2.28a.687.687,0,0,0,.382-.615l.009-6.878,8.188-9.931A.687.687,0,0,0,22.608,10.077Zm-9.5,9.977a.687.687,0,0,0-.157.436l-.009,6.7-3.226,1.6v-8.3a.687.687,0,0,0-.157-.437l-7.418-9H20.529Z" transform="translate(0 -9.683)" fill="#a2abd1"/>
</svg>
