<svg xmlns="http://www.w3.org/2000/svg" width="20.266" height="20.266" viewBox="0 0 20.266 20.266">
  <path id="Path_1661" data-name="Path 1661" d="M10.132,0A10.133,10.133,0,1,0,20.266,10.132,10.133,10.133,0,0,0,10.132,0Zm2.109,15.7q-.782.309-1.248.47a3.293,3.293,0,0,1-1.083.162,2.158,2.158,0,0,1-1.473-.462A1.492,1.492,0,0,1,7.914,14.7a4.259,4.259,0,0,1,.039-.565c.027-.192.069-.408.126-.651l.653-2.306c.057-.221.107-.431.147-.627a2.78,2.78,0,0,0,.058-.543.836.836,0,0,0-.182-.615,1.033,1.033,0,0,0-.7-.172,1.83,1.83,0,0,0-.519.077c-.176.054-.329.1-.454.151l.172-.71q.641-.261,1.227-.447A3.624,3.624,0,0,1,9.59,8.105a2.117,2.117,0,0,1,1.451.455,1.51,1.51,0,0,1,.51,1.18q0,.151-.035.529a3.542,3.542,0,0,1-.13.7l-.649,2.3c-.053.184-.1.4-.143.631a3.338,3.338,0,0,0-.063.537.771.771,0,0,0,.205.624,1.148,1.148,0,0,0,.709.166,2.058,2.058,0,0,0,.537-.083,3.053,3.053,0,0,0,.434-.146Zm-.115-9.331a1.55,1.55,0,0,1-1.094.422,1.566,1.566,0,0,1-1.1-.422,1.347,1.347,0,0,1-.457-1.023,1.361,1.361,0,0,1,.457-1.026,1.555,1.555,0,0,1,1.1-.426,1.537,1.537,0,0,1,1.094.426,1.382,1.382,0,0,1,0,2.049Z" fill="#a2abd1"/>
</svg>
