<svg id="Group_1907" data-name="Group 1907" xmlns="http://www.w3.org/2000/svg" width="92.326" height="96.097" viewBox="0 0 92.326 96.097">
  <g id="_005-knowledge" data-name="005-knowledge" transform="translate(0 78.619)">
    <g id="Group_997" data-name="Group 997" transform="translate(0.084)">
      <g id="Group_996" data-name="Group 996">
        <path id="Path_1480" data-name="Path 1480" d="M92.575,371.613v-3.178c-20.729,0-42.758,5.011-42.9,14.3H43.318c-.142-9.289-22.17-14.3-42.9-14.3v3.178c23.277,0,39.531,5.842,39.714,11.122H.418v3.178H92.575v-3.178H52.86C53.043,377.455,69.3,371.613,92.575,371.613Z" transform="translate(-0.418 -368.435)" fill="#1c223a"/>
      </g>
    </g>
    <g id="Group_999" data-name="Group 999" transform="translate(0 7.949)">
      <g id="Group_998" data-name="Group 998" transform="translate(0 0)">
        <rect id="Rectangle_732" data-name="Rectangle 732" width="3.178" height="30.237" transform="translate(0 3.173) rotate(-86.985)" fill="#1c223a"/>
      </g>
    </g>
    <g id="Group_1001" data-name="Group 1001" transform="translate(61.964 7.946)">
      <g id="Group_1000" data-name="Group 1000" transform="translate(0 0)">
        <rect id="Rectangle_733" data-name="Rectangle 733" width="30.237" height="3.178" transform="translate(0 1.593) rotate(-3.021)" fill="#1c223a"/>
      </g>
    </g>
  </g>
  <g id="Group_1003" data-name="Group 1003" transform="translate(7.582)">
    <path id="XMLID_49_" d="M55.562,67.344V69.6a3.571,3.571,0,0,1-3.029,3.536l-.555,2.046a2.546,2.546,0,0,1-2.458,1.887h-5.5a2.546,2.546,0,0,1-2.458-1.887l-.539-2.046a3.587,3.587,0,0,1-3.044-3.552V67.328a2.166,2.166,0,0,1,2.172-2.172H53.39A2.189,2.189,0,0,1,55.562,67.344Zm10.2-30.35A18.89,18.89,0,0,1,60.43,50.171a17.41,17.41,0,0,0-4.662,9.451,3.139,3.139,0,0,1-3.108,2.648H40.879a3.109,3.109,0,0,1-3.092-2.632,17.6,17.6,0,0,0-4.694-9.482A18.983,18.983,0,1,1,65.758,36.994ZM48.918,25.5a2.142,2.142,0,0,0-2.141-2.141,13.714,13.714,0,0,0-13.7,13.7,2.141,2.141,0,1,0,4.281,0,9.43,9.43,0,0,1,9.419-9.419A2.132,2.132,0,0,0,48.918,25.5ZM46.778,11.782a2.142,2.142,0,0,0,2.141-2.141v-7.5a2.141,2.141,0,1,0-4.281,0v7.5A2.142,2.142,0,0,0,46.778,11.782Zm-25.2,25.2a2.142,2.142,0,0,0-2.141-2.141h-7.5a2.141,2.141,0,0,0,0,4.281h7.5A2.132,2.132,0,0,0,21.582,36.978Zm60.033-2.141h-7.5a2.141,2.141,0,0,0,0,4.281h7.5a2.141,2.141,0,0,0,0-4.281ZM25.942,54.8,20.63,60.113a2.136,2.136,0,0,0,3.013,3.029l5.312-5.312A2.136,2.136,0,1,0,25.942,54.8ZM66.107,19.789a2.138,2.138,0,0,0,1.506-.618l5.312-5.312A2.142,2.142,0,0,0,69.9,10.83l-5.312,5.312a2.134,2.134,0,0,0,0,3.029A2.174,2.174,0,0,0,66.107,19.789Zm-40.165-.634a2.136,2.136,0,0,0,3.013-3.029l-5.312-5.312a2.142,2.142,0,0,0-3.029,3.029ZM67.614,54.8a2.142,2.142,0,0,0-3.029,3.029L69.9,63.142a2.136,2.136,0,0,0,3.013-3.029Z" transform="translate(-9.8)" fill="#1c223a"/>
  </g>
</svg>
