<svg id="_006-instagram" data-name="006-instagram" xmlns="http://www.w3.org/2000/svg" width="28.678" height="28.678" viewBox="0 0 28.678 28.678">
  <g id="Group_18" data-name="Group 18">
    <g id="Group_17" data-name="Group 17">
      <path id="Path_8" data-name="Path 8" d="M19.716,0H8.962A8.963,8.963,0,0,0,0,8.962V19.716a8.963,8.963,0,0,0,8.962,8.962H19.716a8.963,8.963,0,0,0,8.962-8.962V8.962A8.963,8.963,0,0,0,19.716,0Zm6.273,19.716a6.28,6.28,0,0,1-6.273,6.273H8.962a6.28,6.28,0,0,1-6.273-6.273V8.962A6.28,6.28,0,0,1,8.962,2.689H19.716a6.28,6.28,0,0,1,6.273,6.273Z" transform="translate(0 0)" fill="#fff"/>
    </g>
  </g>
  <g id="Group_20" data-name="Group 20" transform="translate(7.169 7.169)">
    <g id="Group_19" data-name="Group 19">
      <path id="Path_9" data-name="Path 9" d="M135.17,128a7.17,7.17,0,1,0,7.169,7.17A7.17,7.17,0,0,0,135.17,128Zm0,11.65a4.481,4.481,0,1,1,4.481-4.481A4.487,4.487,0,0,1,135.17,139.65Z" transform="translate(-128 -128)" fill="#fff"/>
    </g>
  </g>
  <g id="Group_22" data-name="Group 22" transform="translate(21.091 5.676)">
    <g id="Group_21" data-name="Group 21">
      <ellipse id="Ellipse_8" data-name="Ellipse 8" cx="0.955" cy="0.955" rx="0.955" ry="0.955" fill="#fff"/>
    </g>
  </g>
</svg>
