<svg id="Icon_feather-settings" data-name="Icon feather-settings" xmlns="http://www.w3.org/2000/svg" width="26.5" height="26.5" viewBox="0 0 26.5 26.5">
  <path id="Path_2414" data-name="Path 2414" d="M19.909,16.7a3.2,3.2,0,1,1-3.2-3.2A3.2,3.2,0,0,1,19.909,16.7Z" transform="translate(-3.455 -3.455)" fill="none" stroke="#64b5f6" stroke-linecap="round" stroke-linejoin="round" stroke-width="3"/>
  <path id="Path_2415" data-name="Path 2415" d="M21.155,16.455a1.763,1.763,0,0,0,.353,1.944l.064.064a2.138,2.138,0,1,1-3.023,3.023l-.064-.064a1.777,1.777,0,0,0-3.012,1.26v.182a2.136,2.136,0,1,1-4.273,0v-.1a1.762,1.762,0,0,0-1.154-1.613,1.762,1.762,0,0,0-1.944.352l-.064.064a2.138,2.138,0,1,1-3.023-3.023l.064-.064a1.777,1.777,0,0,0-1.26-3.012H3.636a2.136,2.136,0,1,1,0-4.273h.1a1.762,1.762,0,0,0,1.613-1.154A1.763,1.763,0,0,0,4.993,8.1l-.064-.064A2.138,2.138,0,1,1,7.952,5.014l.064.064a1.763,1.763,0,0,0,1.944.352h.085a1.763,1.763,0,0,0,1.068-1.613V3.636a2.136,2.136,0,0,1,4.273,0v.1A1.777,1.777,0,0,0,18.4,4.993l.064-.064a2.138,2.138,0,1,1,3.023,3.023l-.064.064a1.763,1.763,0,0,0-.353,1.944v.085a1.763,1.763,0,0,0,1.613,1.068h.182a2.136,2.136,0,1,1,0,4.273h-.1a1.762,1.762,0,0,0-1.613,1.068Z" transform="translate(0 0)" fill="none" stroke="#64b5f6" stroke-linecap="round" stroke-linejoin="round" stroke-width="3"/>
</svg>
