<svg id="surface1" xmlns="http://www.w3.org/2000/svg" width="23.673" height="23.674" viewBox="0 0 23.673 23.674">
  <path id="Path_2596" data-name="Path 2596" d="M5.158,5.517a.423.423,0,0,1,.2.111l6.028,6.028,1.091-1.091L6.445,4.537a.423.423,0,0,1-.111-.2L5.954,2.829,3.439,1.391,2.208,2.623,3.646,5.139Zm0,0" transform="translate(-2.047 -1.287)" fill="#64b5f6"/>
  <path id="Path_2597" data-name="Path 2597" d="M8.54,17.98l9.565-9.565a.422.422,0,0,1,.4-.111,4.2,4.2,0,0,0,5.237-4.086c0-.079,0-.159-.007-.239L21.51,6.2a.422.422,0,0,1-.431.1l-2.53-.844a.421.421,0,0,1-.267-.266l-.843-2.53a.421.421,0,0,1,.1-.431L19.765.008a4.2,4.2,0,0,0-4.326,5.229.421.421,0,0,1-.111.4L5.763,15.2a.425.425,0,0,1-.4.111,4.165,4.165,0,0,0-1.019-.131,4.246,4.246,0,1,0,4.086,3.2A.422.422,0,0,1,8.54,17.98ZM5.369,21.087H3.317L2.3,19.4l1.012-1.687H5.369L6.382,19.4ZM7,16.15l9.278-9.278.6.6L7.593,16.746Zm0,0" transform="translate(-0.069 0)" fill="#64b5f6"/>
  <path id="Path_2598" data-name="Path 2598" d="M269.052,271.542a2.557,2.557,0,0,0,3.294-3.294Zm0,0" transform="translate(-248.837 -248.088)" fill="#64b5f6"/>
  <path id="Path_2599" data-name="Path 2599" d="M171.151,166.713l-4.737-4.739a1.316,1.316,0,0,1-1.855-1.853l-.671-.672-3.621,3.621.675.675A1.316,1.316,0,0,1,162.8,165.6l4.733,4.735c.052.052.106.1.161.146l3.606-3.606C171.25,166.819,171.2,166.764,171.151,166.713Zm-2.5,1.717-4.217-4.217.6-.6,4.217,4.217Zm0,0" transform="translate(-148.227 -147.466)" fill="#64b5f6"/>
</svg>
