<svg xmlns="http://www.w3.org/2000/svg" width="25.876" height="30.189" viewBox="0 0 25.876 30.189">
  <path id="Icon_metro-language" data-name="Icon metro-language" d="M15.787,20.364q-.017.051-.211-.008t-.531-.194l-.337-.152a10.094,10.094,0,0,1-1.466-.825q-.118-.084-.691-.531t-.64-.48a28.7,28.7,0,0,1-2.257,3.049,12.524,12.524,0,0,1-1.769,1.853,1.335,1.335,0,0,1-.329.067.649.649,0,0,1-.312,0q.1-.067,1.381-1.55.354-.4,1.44-1.937a23.553,23.553,0,0,0,1.322-1.988q.286-.505.859-1.659a13.132,13.132,0,0,0,.606-1.306A13.844,13.844,0,0,0,11,15.26q-.135.034-.463.126t-.581.16a2.886,2.886,0,0,0-.286.084.286.286,0,0,0-.034.177.374.374,0,0,1-.017.16q-.084.168-.522.253a1.358,1.358,0,0,1-.792,0,.711.711,0,0,1-.472-.354.857.857,0,0,1-.084-.387,3.255,3.255,0,0,1,.413-.084,5.03,5.03,0,0,0,.5-.1q.977-.27,1.769-.539,1.685-.59,1.718-.59a3.738,3.738,0,0,0,.724-.329,7.62,7.62,0,0,1,.741-.362q.152-.051.362-.135t.244-.093a.226.226,0,0,1,.1.008,1.917,1.917,0,0,1-.017.556,3.587,3.587,0,0,1-.211.455q-.211.421-.446.9t-.286.564a25.266,25.266,0,0,1-1.3,2.207l1.078.472q.2.1,1.255.539l1.137.472q.067.017.177.43a1.276,1.276,0,0,1,.076.514Zm-3.454-8.187a.683.683,0,0,1-.067.472,1.527,1.527,0,0,1-.842.64,2.7,2.7,0,0,1-1.011.2,1.394,1.394,0,0,1-.825-.438,1.267,1.267,0,0,1-.3-.691l.017-.051a.721.721,0,0,0,.329.084,1.465,1.465,0,0,0,.446,0q.168-.034.977-.27a4.81,4.81,0,0,1,.927-.236.332.332,0,0,1,.354.286ZM24.093,14.35l1.061,3.824-2.342-.708ZM5.427,27.827l11.691-3.908V6.533L5.427,10.458V27.827Zm20.907-5.34,1.718.522L25,11.941l-1.685-.522-3.639,9.03,1.718.522.758-1.853,3.555,1.1ZM17.86,6.28l9.653,3.1v-6.4ZM23.1,28.568l2.662.219-.91,2.7-.674-1.112a12.488,12.488,0,0,1-4.65,1.819,8.074,8.074,0,0,1-1.533.2H16.579a11.386,11.386,0,0,1-3.361-.657A11.187,11.187,0,0,1,10.127,30.3a.351.351,0,0,1-.135-.27.326.326,0,0,1,.084-.227.282.282,0,0,1,.219-.093.948.948,0,0,1,.3.126l.514.278q.278.152.345.185a14.926,14.926,0,0,0,2.687,1.036,9.816,9.816,0,0,0,2.653.413,14.376,14.376,0,0,0,2.813-.244,13.885,13.885,0,0,0,2.645-.851q.253-.118.514-.261t.573-.32q.312-.177.48-.278Zm7.547-18.177V28.568L17.607,24.424q-.236.1-6.317,2.148t-6.2,2.047a.3.3,0,0,1-.3-.219.13.13,0,0,0-.017-.051V10.189a.752.752,0,0,1,.067-.168.758.758,0,0,1,.337-.185q1.786-.59,2.51-.842V2.524l9.4,3.336q.034,0,2.7-.927T25.112,3.1q2.653-.9,2.721-.9.337,0,.337.354V9.6Z" transform="translate(-4.77 -2.203)" fill="#64b5f6"/>
</svg>
