<svg xmlns="http://www.w3.org/2000/svg" width="22.195" height="25.366" viewBox="0 0 22.195 25.366">
  <path id="Icon_awesome-bell" data-name="Icon awesome-bell" d="M11.1,25.366A3.17,3.17,0,0,0,14.267,22.2H7.928A3.17,3.17,0,0,0,11.1,25.366Zm10.671-7.417c-.957-1.029-2.748-2.576-2.748-7.644a7.824,7.824,0,0,0-6.339-7.687V1.585a1.584,1.584,0,1,0-3.169,0V2.618A7.824,7.824,0,0,0,3.175,10.3c0,5.068-1.791,6.615-2.748,7.644A1.548,1.548,0,0,0,0,19.025,1.587,1.587,0,0,0,1.59,20.61H20.6a1.586,1.586,0,0,0,1.59-1.585,1.547,1.547,0,0,0-.427-1.076Z" transform="translate(0)" fill="#64b5f6"/>
</svg>
