<svg xmlns="http://www.w3.org/2000/svg" width="29.902" height="22.339" viewBox="0 0 29.902 22.339">
  <g id="Group_5308" data-name="Group 5308" transform="translate(-1746 -494.144)">
    <g id="view" transform="translate(1746 497)">
      <g id="Group_5303" data-name="Group 5303" transform="translate(0 0)">
        <g id="Group_5302" data-name="Group 5302" transform="translate(0 0)">
          <path id="Path_2867" data-name="Path 2867" d="M29.712,100.23c-.267-.3-6.632-7.395-14.761-7.395S.457,99.928.19,100.229a.7.7,0,0,0,0,.962c.267.3,6.632,7.395,14.761,7.395s14.494-7.093,14.761-7.394A.7.7,0,0,0,29.712,100.23Zm-14.761,6.727c-5.988,0-11.174-4.707-12.709-6.246,1.533-1.54,6.709-6.245,12.709-6.245s11.174,4.707,12.709,6.246C26.127,102.251,20.952,106.956,14.951,106.956Z" transform="translate(0 -92.835)"/>
        </g>
      </g>
      <g id="Group_5305" data-name="Group 5305" transform="translate(9.036 1.96)">
        <g id="Group_5304" data-name="Group 5304" transform="translate(0 0)">
          <path id="Path_2868" data-name="Path 2868" d="M160.637,154.725a5.915,5.915,0,1,0,5.915,5.915A5.922,5.922,0,0,0,160.637,154.725Zm0,9.858a3.943,3.943,0,1,1,3.943-3.943A3.948,3.948,0,0,1,160.637,164.583Z" transform="translate(-154.722 -154.725)"/>
        </g>
      </g>
    </g>
    <path id="Path_2871" data-name="Path 2871" d="M20.83,0,11.31,8.853,0,19.372" transform="translate(1750.189 495.628)" fill="none" stroke="rgba(0,0,0,0)" stroke-linecap="round" stroke-width="2.1"/>
  </g>
</svg>
