<svg id="Group_1036" data-name="Group 1036" xmlns="http://www.w3.org/2000/svg" width="15.484" height="15.484" viewBox="0 0 15.484 15.484">
  <path id="Path_1497" data-name="Path 1497" d="M13.821,0H1.663A1.665,1.665,0,0,0,0,1.663V13.821a1.665,1.665,0,0,0,1.663,1.663H13.821a1.665,1.665,0,0,0,1.663-1.663V1.663A1.665,1.665,0,0,0,13.821,0ZM1.663.907H13.821a.757.757,0,0,1,.756.756v2H.907v-2A.757.757,0,0,1,1.663.907ZM13.821,14.577H1.663a.757.757,0,0,1-.756-.756V4.567H14.577v9.254A.757.757,0,0,1,13.821,14.577Zm0,0" fill="#a2a2a2"/>
  <path id="Path_1498" data-name="Path 1498" d="M421.907,61.454a.454.454,0,1,1-.454-.454A.454.454,0,0,1,421.907,61.454Zm0,0" transform="translate(-408.268 -59.155)" fill="#a2a2a2"/>
  <path id="Path_1499" data-name="Path 1499" d="M361.907,61.454a.454.454,0,1,1-.454-.454A.454.454,0,0,1,361.907,61.454Zm0,0" transform="translate(-350.083 -59.155)" fill="#a2a2a2"/>
  <path id="Path_1500" data-name="Path 1500" d="M301.907,61.454a.454.454,0,1,1-.454-.454A.454.454,0,0,1,301.907,61.454Zm0,0" transform="translate(-291.897 -59.155)" fill="#a2a2a2"/>
  <path id="Path_1501" data-name="Path 1501" d="M62.754,185.583H73.6a.454.454,0,0,0,.454-.454V181.5a.454.454,0,0,0-.454-.454H62.754a.454.454,0,0,0-.454.454v3.629A.454.454,0,0,0,62.754,185.583Zm.454-3.629h9.939v2.722H63.208Zm0,0" transform="translate(-60.417 -175.572)" fill="#a2a2a2"/>
  <path id="Path_1502" data-name="Path 1502" d="M61.454,361.907H65.96a.454.454,0,0,0,0-.907H61.454a.454.454,0,0,0,0,.907Zm0,0" transform="translate(-59.155 -350.083)" fill="#a2a2a2"/>
  <path id="Path_1503" data-name="Path 1503" d="M65.99,421H61.454a.454.454,0,1,0,0,.907H65.99a.454.454,0,1,0,0-.907Zm0,0" transform="translate(-59.155 -408.268)" fill="#a2a2a2"/>
  <path id="Path_1504" data-name="Path 1504" d="M275.96,361h-4.506a.454.454,0,1,0,0,.907h4.506a.454.454,0,0,0,0-.907Zm0,0" transform="translate(-262.804 -350.083)" fill="#a2a2a2"/>
  <path id="Path_1505" data-name="Path 1505" d="M275.99,421h-4.536a.454.454,0,1,0,0,.907h4.536a.454.454,0,0,0,0-.907Zm0,0" transform="translate(-262.804 -408.268)" fill="#a2a2a2"/>
</svg>
