<svg xmlns="http://www.w3.org/2000/svg" width="18.684" height="20.76" viewBox="0 0 18.684 20.76">
  <path id="ic_date_range_24px" d="M9.228,11.342H7.152v2.076H9.228Zm4.152,0H11.3v2.076H13.38Zm4.152,0H15.456v2.076h2.076Zm2.076-7.266H18.57V2H16.494V4.076H8.19V2H6.114V4.076H5.076A2.067,2.067,0,0,0,3.01,6.152L3,20.684A2.075,2.075,0,0,0,5.076,22.76H19.608a2.082,2.082,0,0,0,2.076-2.076V6.152A2.082,2.082,0,0,0,19.608,4.076Zm0,16.608H5.076V9.266H19.608Z" transform="translate(-3 -2)" fill="#5f6a79"/>
</svg>
