<svg id="Group_1002" data-name="Group 1002" xmlns="http://www.w3.org/2000/svg" width="25.39" height="25.391" viewBox="0 0 25.39 25.391">
  <g id="Group_797" data-name="Group 797" transform="translate(0)">
    <path id="Path_1389" data-name="Path 1389" d="M12.7,0a12.7,12.7,0,1,0,12.7,12.7A12.7,12.7,0,0,0,12.7,0Zm0,4.459,7.512,4.685H5.184ZM20.3,16.625h0a1.36,1.36,0,0,1-1.36,1.36H6.451a1.36,1.36,0,0,1-1.36-1.36V9.442a1.353,1.353,0,0,1,.021-.233l7.178,4.476.027.014.029.015a.753.753,0,0,0,.156.061l.017,0a.774.774,0,0,0,.177.022h0a.76.76,0,0,0,.177-.022l.017,0a.761.761,0,0,0,.156-.061l.029-.015.027-.014,7.178-4.476a1.351,1.351,0,0,1,.021.233v7.183Z" transform="translate(-0.001 0)" fill="#5f6a79"/>
  </g>
</svg>
