<svg id="_005-settings-gears" data-name="005-settings-gears" xmlns="http://www.w3.org/2000/svg" width="25.143" height="24.888" viewBox="0 0 25.143 24.888">
  <path id="Path_1390" data-name="Path 1390" d="M1.652,13.821a6.122,6.122,0,0,0,.548,1.3l-.661.833a.684.684,0,0,0,.051.906L2.728,18a.681.681,0,0,0,.906.051l.828-.655a6.016,6.016,0,0,0,1.351.572l.124,1.065a.682.682,0,0,0,.677.6h1.61a.682.682,0,0,0,.677-.6L9.02,18a6.085,6.085,0,0,0,1.448-.585l.8.634A.684.684,0,0,0,12.176,18l1.138-1.138a.681.681,0,0,0,.051-.906l-.623-.79a5.944,5.944,0,0,0,.6-1.424l.96-.111a.682.682,0,0,0,.6-.677v-1.61a.682.682,0,0,0-.6-.677l-.947-.111A5.983,5.983,0,0,0,12.78,9.15l.583-.736a.684.684,0,0,0-.051-.906L12.176,6.372a.681.681,0,0,0-.906-.051l-.715.566a6,6,0,0,0-1.481-.62l-.108-.925a.682.682,0,0,0-.677-.6H6.679a.682.682,0,0,0-.677.6l-.108.925a5.978,5.978,0,0,0-1.519.642L3.634,6.32a.684.684,0,0,0-.906.051L1.59,7.51a.681.681,0,0,0-.051.906l.62.785A5.868,5.868,0,0,0,1.6,10.622l-.993.113a.682.682,0,0,0-.6.677v1.61a.682.682,0,0,0,.6.677ZM7.486,9.465a2.662,2.662,0,1,1-2.662,2.662A2.666,2.666,0,0,1,7.486,9.465Z" transform="translate(-0.001 -4.737)" fill="#5f6a79"/>
  <path id="Path_1391" data-name="Path 1391" d="M488.434,289.606l-.85-.717a.672.672,0,0,0-.9.024l-.469.44a4.848,4.848,0,0,0-1.252-.4l-.132-.647a.678.678,0,0,0-.718-.539l-1.109.094a.675.675,0,0,0-.618.65l-.022.658a4.868,4.868,0,0,0-1.195.628l-.561-.372a.674.674,0,0,0-.887.127l-.717.855a.672.672,0,0,0,.024.9l.491.523a5.03,5.03,0,0,0-.361,1.2l-.7.143a.678.678,0,0,0-.539.718l.094,1.109a.675.675,0,0,0,.65.618l.758.024a4.954,4.954,0,0,0,.537,1.025l-.423.639a.674.674,0,0,0,.127.887l.85.717a.672.672,0,0,0,.9-.024l.556-.521a4.871,4.871,0,0,0,1.141.372l.154.761a.678.678,0,0,0,.717.539l1.109-.094a.675.675,0,0,0,.618-.65l.024-.744a4.991,4.991,0,0,0,1.141-.577l.612.4a.674.674,0,0,0,.887-.127l.717-.85a.672.672,0,0,0-.024-.9l-.494-.523a4.856,4.856,0,0,0,.388-1.2l.674-.138a.678.678,0,0,0,.539-.717l-.094-1.109a.675.675,0,0,0-.65-.618l-.677-.022a4.9,4.9,0,0,0-.564-1.111l.37-.556A.671.671,0,0,0,488.434,289.606Zm-4.178,6.409a2.179,2.179,0,1,1,1.988-2.355A2.179,2.179,0,0,1,484.256,296.015Z" transform="translate(-465.03 -280.125)" fill="#5f6a79"/>
  <path id="Path_1392" data-name="Path 1392" d="M182.909,562.664a.674.674,0,0,0-.6.664l-.008.682a.672.672,0,0,0,.588.677l.5.065a3.889,3.889,0,0,0,.356.871l-.324.4a.673.673,0,0,0,.04.9l.477.488a.673.673,0,0,0,.9.062l.4-.31a3.94,3.94,0,0,0,.9.391l.054.518a.674.674,0,0,0,.664.6l.682.008a.672.672,0,0,0,.677-.588l.062-.491a4.051,4.051,0,0,0,.971-.378l.378.3a.672.672,0,0,0,.9-.04l.488-.477a.674.674,0,0,0,.062-.9l-.289-.375a3.912,3.912,0,0,0,.41-.944l.448-.046a.674.674,0,0,0,.6-.663l.008-.683a.672.672,0,0,0-.588-.677l-.437-.057a4.064,4.064,0,0,0-.37-.944l.272-.334a.673.673,0,0,0-.04-.9l-.477-.488a.673.673,0,0,0-.9-.062l-.326.251a3.959,3.959,0,0,0-.982-.426l-.043-.424a.674.674,0,0,0-.664-.6l-.682-.008a.672.672,0,0,0-.677.588l-.054.421a4.077,4.077,0,0,0-1.017.415l-.337-.275a.673.673,0,0,0-.9.04l-.491.48a.673.673,0,0,0-.062.9l.289.372a3.947,3.947,0,0,0-.386.944Zm4.4-.771a1.775,1.775,0,1,1-1.8,1.753A1.776,1.776,0,0,1,187.314,561.892Z" transform="translate(-177.38 -543.791)" fill="#5f6a79"/>
</svg>
