<svg xmlns="http://www.w3.org/2000/svg" width="120.55" height="133.177" viewBox="0 0 120.55 133.177">
  <g id="Group_4333" data-name="Group 4333" transform="translate(-152 -785)">
    <g id="Group_4332" data-name="Group 4332" transform="translate(152 785)">
      <circle id="Ellipse_35" data-name="Ellipse 35" cx="50" cy="50" r="50" fill="#eff6ff"/>
    </g>
    <g id="FilledOutline" transform="translate(167.45 807.823)">
      <path id="Path_515" data-name="Path 515" d="M140.973,257.6v-7.634l-6.836-2.43c-.92-2.218-1.383-3.338-2.3-5.556l3.115-6.553-5.4-5.4L123,233.138l-5.556-2.3L115.011,224h-7.634l-2.43,6.836-5.558,2.3-6.553-3.115-5.4,5.4,3.115,6.553-2.3,5.556-6.836,2.43v7.634l6.836,2.43c.92,2.218,1.383,3.338,2.3,5.556l-3.115,6.555,5.4,5.4,6.552-3.115,5.556,2.3,2.432,6.836h7.634l2.43-6.836,5.556-2.3,6.553,3.115,5.4-5.4-3.115-6.553,2.3-5.556Zm-29.778,10.2a14.013,14.013,0,1,1,14.013-14.013A14.013,14.013,0,0,1,111.194,267.792Z" transform="translate(-67.093 -174.953)" fill="#ffbc33"/>
      <path id="Path_516" data-name="Path 516" d="M275.557,65.6V57.961l-6.836-2.43-2.3-5.556,3.115-6.554-5.4-5.4-6.553,3.115-5.556-2.3L249.6,32h-7.634l-2.43,6.836-5.557,2.3-6.553-3.115-5.4,5.4,3.115,6.553-2.3,5.556-3.064,2.249c0,3.812-3.772,4-3.772,7.817l6.836,2.43,2.3,5.556-3.115,6.553,5.4,5.4,6.553-3.115,5.556,2.3,2.431,6.836H249.6l2.43-6.836,5.556-2.3,6.553,3.115,5.4-5.4-3.115-6.553,2.3-5.556Zm-29.778,10.2a14.013,14.013,0,1,1,14.013-14.013A14.013,14.013,0,0,1,245.778,75.792Z" transform="translate(-172.208 -24.993)" fill="#88bf40"/>
      <path id="Path_517" data-name="Path 517" d="M83.557,41.6V33.961l-6.836-2.43-2.3-5.557,3.115-6.553-5.4-5.4-6.553,3.115-5.556-2.3L57.6,8H49.961l-2.43,6.836-5.557,2.3-6.553-3.115-5.4,5.4,3.115,6.553-2.3,5.556L24,33.961V41.6l6.836,2.43,2.3,5.556-3.115,6.554,5.4,5.4,6.553-3.115,5.556,2.3,2.431,6.836H57.6l2.43-6.836,5.556-2.3,6.553,3.115,5.4-5.4-3.115-6.553,2.3-5.556Zm-29.778,10.2A14.013,14.013,0,1,1,67.792,37.778,14.013,14.013,0,0,1,53.778,51.792Z" transform="translate(-22.248 -6.248)" fill="#ef5249"/>
      <path id="Path_520" data-name="Path 520" d="M29.926,56.868l5.85-2.781,4.118,1.706,2.17,6.1a1.752,1.752,0,0,0,1.649,1.165h7.634A1.752,1.752,0,0,0,53,61.9l2.17-6.1,4.118-1.706,5.85,2.781a1.753,1.753,0,0,0,1.991-.344l5.4-5.4a1.752,1.752,0,0,0,.344-1.991l-2.781-5.85,1.706-4.118L77.9,37a1.752,1.752,0,0,0,1.165-1.651V27.713a1.752,1.752,0,0,0-1.165-1.65l-6.1-2.17-1.706-4.118,2.781-5.85a1.752,1.752,0,0,0-.344-1.991l-5.4-5.4a1.752,1.752,0,0,0-1.991-.344l-5.85,2.781L55.168,7.267,53,1.165A1.752,1.752,0,0,0,51.347,0H43.713a1.752,1.752,0,0,0-1.65,1.165l-2.17,6.1L35.775,8.973,29.926,6.192a1.752,1.752,0,0,0-1.993.344l-5.4,5.4a1.752,1.752,0,0,0-.344,1.993l2.781,5.85-1.706,4.118-6.1,2.169A1.752,1.752,0,0,0,16,27.713v7.634A1.752,1.752,0,0,0,17.165,37l6.1,2.17,1.706,4.118-2.781,5.85a1.752,1.752,0,0,0,.344,1.991l5.4,5.4a1.753,1.753,0,0,0,1.993.344Zm-1.418-14.2-2.3-5.556a1.75,1.75,0,0,0-1.032-.98L19.5,34.111V28.949l5.671-2.017a1.75,1.75,0,0,0,1.031-.98l2.3-5.556a1.752,1.752,0,0,0-.036-1.423l-2.584-5.437,3.649-3.649,5.437,2.584a1.75,1.75,0,0,0,1.423.036l5.556-2.3a1.75,1.75,0,0,0,.979-1.031L44.949,3.5h5.162l2.017,5.671a1.75,1.75,0,0,0,.98,1.031l5.556,2.3a1.75,1.75,0,0,0,1.423-.036l5.437-2.584,3.65,3.65L66.59,18.974a1.752,1.752,0,0,0-.036,1.423l2.3,5.556a1.75,1.75,0,0,0,1.03.978l5.671,2.017V34.11l-5.671,2.018a1.75,1.75,0,0,0-1.031.98l-2.3,5.556a1.752,1.752,0,0,0,.036,1.423l2.584,5.437-3.65,3.65L60.086,50.59a1.75,1.75,0,0,0-1.423-.036l-5.556,2.3a1.75,1.75,0,0,0-.978,1.03l-2.017,5.671H44.949l-2.017-5.671a1.75,1.75,0,0,0-.98-1.031l-5.556-2.3a1.75,1.75,0,0,0-1.423.036l-5.437,2.584-3.649-3.649,2.584-5.437a1.752,1.752,0,0,0,.037-1.422Z" transform="translate(-16 0)" fill="#ba251d"/>
      <path id="Path_521" data-name="Path 521" d="M103.765,103.53A15.765,15.765,0,1,0,88,87.765,15.765,15.765,0,0,0,103.765,103.53Zm0-28.027A12.262,12.262,0,1,1,91.5,87.765,12.262,12.262,0,0,1,103.765,75.5Z" transform="translate(-72.235 -56.235)" fill="#ba251d"/>
      <path id="Path_522" data-name="Path 522" d="M126.272,297.41l-2.3,5.556a1.752,1.752,0,0,0,.036,1.423l2.584,5.437-3.65,3.65-5.437-2.584a1.752,1.752,0,0,0-1.423-.036l-5.554,2.3a1.752,1.752,0,0,0-.98,1.031l-2.017,5.672h-5.161l-2.017-5.671a1.75,1.75,0,0,0-.98-1.031l-5.556-2.3a1.749,1.749,0,0,0-1.423.036l-5.437,2.584-3.65-3.65,2.584-5.436a1.752,1.752,0,0,0,.036-1.423l-2.3-5.556a1.752,1.752,0,0,0-1.03-.979l-5.671-2.017v-5.162l5.671-2.017a1.752,1.752,0,0,0,1.032-.98l2.3-5.556a1.752,1.752,0,0,0-.036-1.423l-3.115-6.553-3.163,1.506,2.781,5.85L80.687,284.2l-6.1,2.17a1.752,1.752,0,0,0-1.165,1.65v7.634a1.752,1.752,0,0,0,1.165,1.651l6.1,2.17,1.705,4.118-2.781,5.85a1.752,1.752,0,0,0,.344,1.991l5.4,5.4a1.752,1.752,0,0,0,1.991.344l5.85-2.781,4.116,1.706,2.171,6.1a1.752,1.752,0,0,0,1.651,1.165h7.634a1.752,1.752,0,0,0,1.651-1.165l2.17-6.1,4.118-1.706,5.85,2.781a1.752,1.752,0,0,0,1.991-.344l5.4-5.4a1.752,1.752,0,0,0,.344-1.991l-2.781-5.85,2-4.837Z" transform="translate(-60.847 -213.007)" fill="#cc9014"/>
      <path id="Path_523" data-name="Path 523" d="M281.835,249.417l-5.4-5.4a1.752,1.752,0,0,0-1.991-.344l-6.553,3.115,1.5,3.164,5.436-2.584,3.65,3.65-2.584,5.437a1.752,1.752,0,0,0-.036,1.423l1.987,4.8,3.236-1.341L279.4,257.26l2.781-5.85a1.752,1.752,0,0,0-.344-1.993Z" transform="translate(-212.739 -190.189)" fill="#cc9014"/>
      <path id="Path_524" data-name="Path 524" d="M161.181,319.53a15.765,15.765,0,1,0-15.765-15.765A15.765,15.765,0,0,0,161.181,319.53Zm0-28.027a12.262,12.262,0,1,1-12.262,12.262A12.262,12.262,0,0,1,161.181,291.5Z" transform="translate(-117.079 -224.94)" fill="#cc9014"/>
      <path id="Path_525" data-name="Path 525" d="M337.867,50.063l-6.1-2.17-1.706-4.118,2.781-5.85a1.752,1.752,0,0,0-.344-1.991l-5.4-5.4a1.752,1.752,0,0,0-1.991-.344l-5.85,2.781-4.118-1.706-2.17-6.1A1.752,1.752,0,0,0,311.319,24h-7.634a1.752,1.752,0,0,0-1.651,1.165l-2.17,6.1-4.837,2,1.341,3.236,5.556-2.3a1.752,1.752,0,0,0,.98-1.032L304.92,27.5h5.162l2.018,5.671a1.75,1.75,0,0,0,.98,1.031l5.556,2.3a1.751,1.751,0,0,0,1.423-.036l5.437-2.584,3.65,3.65-2.584,5.437a1.752,1.752,0,0,0-.036,1.423l2.3,5.556a1.752,1.752,0,0,0,1.03.978l5.671,2.017V58.11l-5.671,2.018a1.752,1.752,0,0,0-1.031.98l-2.3,5.556a1.752,1.752,0,0,0,.036,1.423l2.584,5.437-4.524,4.524,2.479,2.476,5.4-5.4a1.752,1.752,0,0,0,.344-1.991l-2.781-5.85,1.706-4.118,6.1-2.17a1.752,1.752,0,0,0,1.165-1.651V51.713a1.752,1.752,0,0,0-1.165-1.65Z" transform="translate(-233.932 -18.745)" fill="#4d7c10"/>
      <path id="Path_526" data-name="Path 526" d="M299.855,124.024a12.216,12.216,0,0,1-11.371-7.664l-3.248,1.314a15.765,15.765,0,1,0,6.734-19.567l1.755,3.032a12.262,12.262,0,1,1,6.129,22.884Z" transform="translate(-226.285 -74.977)" fill="#4d7c10"/>
    </g>
  </g>
</svg>
