<svg xmlns="http://www.w3.org/2000/svg" width="136.631" height="125.402" viewBox="0 0 136.631 125.402">
  <g id="Group_4331" data-name="Group 4331" transform="translate(-33.908 -129)">
    <circle id="Ellipse_166" data-name="Ellipse 166" cx="62.5" cy="62.5" r="62.5" transform="translate(33.908 129)" fill="#f0f0f0"/>
    <g id="Layer_32" transform="translate(49.594 133.701)">
      <path id="Path_2597" data-name="Path 2597" d="M117.291,2.5H85.128A7.839,7.839,0,0,0,77.3,10.328V24.052a7.839,7.839,0,0,0,7.828,7.828h8.3a2.891,2.891,0,0,1,2.405,1.273l4.669,7.121a.826.826,0,0,0,1.132.236.568.568,0,0,0,.236-.236l4.669-7.121a2.831,2.831,0,0,1,2.405-1.273h8.3a7.839,7.839,0,0,0,7.828-7.828V10.328A7.769,7.769,0,0,0,117.291,2.5Z" transform="translate(-38.79 -1.347)" fill="#6dcc6d"/>
      <path id="Path_2598" data-name="Path 2598" d="M202.191,32.7H178.706a5.272,5.272,0,0,0-3.018.9V40.01A7.8,7.8,0,0,1,173,45.9v2.547a5.767,5.767,0,0,0,5.706,5.753h6.084a2.125,2.125,0,0,1,1.745.943l3.443,5.187a.661.661,0,0,0,.849.189c.047-.047.141-.094.189-.189l3.443-5.187A2.125,2.125,0,0,1,196.2,54.2h6.084a5.706,5.706,0,0,0,5.706-5.753v-10A5.912,5.912,0,0,0,202.191,32.7Z" transform="translate(-89.359 -17.305)" fill="#ffcd29"/>
      <path id="Path_2599" data-name="Path 2599" d="M41.21,40.01V33.6a5.654,5.654,0,0,0-3.018-.9H14.706A5.767,5.767,0,0,0,9,38.453V48.5a5.767,5.767,0,0,0,5.706,5.753H20.79a2.125,2.125,0,0,1,1.745.943l3.443,5.187a.661.661,0,0,0,.849.189c.047-.047.141-.094.189-.189l3.443-5.187a2.125,2.125,0,0,1,1.745-.943h6.084A5.776,5.776,0,0,0,44.039,48.5V45.952A7.645,7.645,0,0,1,41.21,40.01Z" transform="translate(-2.699 -17.305)" fill="#55acd5"/>
      <path id="Path_2600" data-name="Path 2600" d="M119.651,94.164a6.536,6.536,0,0,0-3.348.943,6.618,6.618,0,0,0-5.565-3.207H107.39A11.824,11.824,0,0,0,95.6,103.69v5.282a4.749,4.749,0,0,1,3.678-.99v-.566a.624.624,0,0,1,.613-.613h.141c2.075.424,8.206,1.179,12.356-4.056a.565.565,0,0,1,.849-.094l.047.047c.943.943,3.443,2.83,8.206,2.971a.585.585,0,0,1,.566.613v1.7a4.785,4.785,0,0,1,4.056,1.273v-8.583A6.481,6.481,0,0,0,119.651,94.164Z" transform="translate(-48.46 -48.587)" fill="#6d6c6b"/>
      <path id="Path_2601" data-name="Path 2601" d="M31.039,104.8A12.67,12.67,0,0,0,18.4,117.439v8.724a12.445,12.445,0,0,0,1.132,5.235,3.212,3.212,0,0,0,2.971,1.886H27.36v-.943a8.813,8.813,0,0,1-4.857-8.017v-3.961a1.047,1.047,0,0,1,1.038-1.037h.33a8.652,8.652,0,0,0,6.791-3.254,1.042,1.042,0,0,1,1.462-.141l.141.141a8.652,8.652,0,0,0,6.791,3.254h0a1.007,1.007,0,0,1,1.038.99h0v4.15a8.875,8.875,0,0,1-4.622,7.734v1.085h4.056A3.291,3.291,0,0,0,42.5,131.4a11.905,11.905,0,0,0,1.132-5.235v-8.724A12.629,12.629,0,0,0,31.039,104.8Z" transform="translate(-7.667 -55.404)" fill="#898989"/>
      <path id="Path_2602" data-name="Path 2602" d="M196.261,101.5c-6.744,0-12.261,5.14-12.261,11.46v3.914a4.039,4.039,0,0,1,2.075-.566,2.689,2.689,0,0,1,.613.047v-.236s2.641-1.462,2.641-3.726v-.047a1.841,1.841,0,0,1,1.839-1.839,1.306,1.306,0,0,1,.424.047,21.815,21.815,0,0,0,9.243,0,1.883,1.883,0,0,1,2.264,1.32,1.305,1.305,0,0,1,.047.424v.047c0,2.216,2.641,3.726,2.641,3.726v.236a2.689,2.689,0,0,1,.613-.047,4.039,4.039,0,0,1,2.075.566v-3.914C208.523,106.687,203.005,101.5,196.261,101.5Z" transform="translate(-95.171 -53.66)" fill="#e9e9ea"/>
      <path id="Path_2603" data-name="Path 2603" d="M41.314,164.085h0a8.707,8.707,0,0,1-3.914-.943V166.4l1.368,3.961a.569.569,0,0,0,.566.377h4.244a.613.613,0,0,0,.566-.377l1.368-3.961V163A8.694,8.694,0,0,1,41.314,164.085Z" transform="translate(-17.706 -86.157)" fill="#f9d0b4"/>
      <path id="Path_2604" data-name="Path 2604" d="M230.86,132.96a3.113,3.113,0,0,0-.66.047c0,.189.047.377.047.613V139.8a2.69,2.69,0,0,1-.047.613,2.9,2.9,0,0,0,.66.047,3.758,3.758,0,1,0,.519-7.5.968.968,0,0,0-.519,0Z" transform="translate(-119.584 -70.265)" fill="#f9d0b4"/>
      <path id="Path_2605" data-name="Path 2605" d="M184.512,133.55a2.689,2.689,0,0,1,.047-.613,2.9,2.9,0,0,0-.66-.047,3.758,3.758,0,0,0-.519,7.5h.519a3.113,3.113,0,0,0,.66-.047c0-.189-.047-.377-.047-.613Z" transform="translate(-92.995 -70.242)" fill="#f9d0b4"/>
      <path id="Path_2606" data-name="Path 2606" d="M206.258,122.579v-.047a1.841,1.841,0,0,0-1.839-1.839,1.306,1.306,0,0,0-.424.047,21.814,21.814,0,0,1-9.243,0,1.883,1.883,0,0,0-2.264,1.32,1.305,1.305,0,0,0-.047.424v.047c0,2.216-2.641,3.726-2.641,3.726V133.1a9.3,9.3,0,0,0,8.63,9.1c5.659.519,10.516-3.678,10.516-8.913v-7.027C208.9,126.305,206.258,124.8,206.258,122.579Z" transform="translate(-98.236 -63.799)" fill="#f9d0b4"/>
      <path id="Path_2607" data-name="Path 2607" d="M152.555,125.9a4.057,4.057,0,0,0-.755.047c0,.236.047.519.047.755v7.876a4.056,4.056,0,0,1-.047.755,4.756,4.756,0,1,0,1.556-9.385,4.849,4.849,0,0,0-.8-.047Z" transform="translate(-78.156 -66.553)" fill="#f9d0b4"/>
      <path id="Path_2608" data-name="Path 2608" d="M97.352,126.683a4.057,4.057,0,0,1,.047-.755,4.756,4.756,0,0,0-1.556,9.385,4.579,4.579,0,0,0,1.6,0c0-.236-.047-.519-.047-.755Z" transform="translate(-46.486 -66.535)" fill="#f9d0b4"/>
      <path id="Path_2609" data-name="Path 2609" d="M126.331,118.186a.655.655,0,0,0-.566-.613c-4.716-.141-7.215-2.028-8.206-2.971a.6.6,0,0,0-.849,0l-.047.047c-4.15,5.235-10.328,4.48-12.356,4.056a.6.6,0,0,0-.707.472v9.337a11.389,11.389,0,0,0,22.778,0V118.375A.357.357,0,0,1,126.331,118.186Z" transform="translate(-52.687 -60.49)" fill="#f9d0b4"/>
      <path id="Path_2610" data-name="Path 2610" d="M121.893,166.915h0a11.41,11.41,0,0,1-5.093-1.226v4.2l1.792,5.14a.766.766,0,0,0,.707.519h5.518a.708.708,0,0,0,.707-.519l1.792-5.14V165.5A10.825,10.825,0,0,1,121.893,166.915Z" transform="translate(-59.662 -87.478)" fill="#f9d0b4"/>
      <path id="Path_2611" data-name="Path 2611" d="M43.552,131.631h0a8.815,8.815,0,0,1-6.838-3.254,1.042,1.042,0,0,0-1.462-.141l-.141.141a8.652,8.652,0,0,1-6.791,3.254h-.283a1.007,1.007,0,0,0-1.037.99v4.009a8.946,8.946,0,0,0,7.923,8.96,8.8,8.8,0,0,0,9.62-7.923,4.85,4.85,0,0,0,.047-.8v-4.15a.979.979,0,0,0-1.037-1.085Z" transform="translate(-12.21 -67.662)" fill="#f9d0b4"/>
      <path id="Path_2612" data-name="Path 2612" d="M204.512,165.4a10.1,10.1,0,0,1-3.112-.8v2.688l1.368,3.961a.569.569,0,0,0,.566.377h4.244a.613.613,0,0,0,.566-.377l1.368-3.961v-2.641A11.248,11.248,0,0,1,204.512,165.4Z" transform="translate(-104.365 -87.003)" fill="#f9d0b4"/>
      <path id="Path_2613" data-name="Path 2613" d="M125.021,208.8l-1.415-25.041a4.42,4.42,0,0,0-3.4-4.1l-8.866-2.216-5.329-2.641-1.792,5.14a.766.766,0,0,1-.707.519H98a.708.708,0,0,1-.707-.519L95.5,174.8l-5.329,2.641L81.3,179.657a4.465,4.465,0,0,0-3.4,4.1L76.494,208.8a2.951,2.951,0,0,0,2.782,3.113H122a2.939,2.939,0,0,0,2.924-2.924C125.021,208.943,125.021,208.9,125.021,208.8Z" transform="translate(-38.361 -92.392)" fill="#e9e9ea"/>
      <path id="Path_2614" data-name="Path 2614" d="M209.388,196.143l-.849-14.9a9,9,0,0,0-6.791-8.206l-2.877-.707-4.1-2.028-1.368,3.961a.569.569,0,0,1-.566.377h-4.244a.613.613,0,0,1-.566-.377l-1.368-3.961-4.1,2.028-2.877.707a9.029,9.029,0,0,0-6.178,5.423,4.485,4.485,0,0,1,1.368,2.971l.99,17.449h30.983a2.586,2.586,0,0,0,2.594-2.594A.173.173,0,0,1,209.388,196.143Z" transform="translate(-89.623 -90.015)" fill="#b26e3b"/>
      <path id="Path_2615" data-name="Path 2615" d="M36.1,172.935l-2.877-.707-4.1-2.028-1.368,3.961a.569.569,0,0,1-.566.377H22.946a.613.613,0,0,1-.566-.377L21.013,170.2l-4.1,2.028-2.877.707a9,9,0,0,0-6.791,8.206l-.849,14.9a2.587,2.587,0,0,0,2.452,2.735H39.971l.99-17.449a4.387,4.387,0,0,1,1.368-2.971A9.2,9.2,0,0,0,36.1,172.935Z" transform="translate(-1.319 -89.962)" fill="#fc7783"/>
      <path id="Path_2616" data-name="Path 2616" d="M222.464.917c0-.094-.047-.141-.047-.236-.047-.047-.047-.141-.094-.189s-.094-.141-.141-.189a1.14,1.14,0,0,0-1.651,0h0a.651.651,0,0,0-.141.189.358.358,0,0,0-.094.189.353.353,0,0,0-.047.236c0,.094-.047.141-.047.236a.425.425,0,0,0,.047.236c0,.094.047.141.047.236.047.094.047.141.094.189s.094.141.141.189a1.229,1.229,0,0,0,1.651,0,.651.651,0,0,0,.141-.189.357.357,0,0,0,.094-.189.425.425,0,0,0,.047-.236.425.425,0,0,1,.047-.236A.425.425,0,0,0,222.464.917Z" transform="translate(-114.3)" fill="#ffcd29"/>
      <path id="Path_2617" data-name="Path 2617" d="M54.424,16.356a1.675,1.675,0,0,0-.189-.424c-.047-.047-.094-.141-.141-.189a1.229,1.229,0,0,0-1.651,0,.651.651,0,0,0-.141.189.358.358,0,0,0-.094.189.425.425,0,0,0-.047.236.8.8,0,0,0,0,.472c0,.094.047.141.047.236.047.047.047.141.094.189s.094.141.141.189a1.14,1.14,0,0,0,1.651,0h0a.651.651,0,0,0,.141-.189.358.358,0,0,0,.094-.189.353.353,0,0,0,.047-.236A.558.558,0,0,0,54.424,16.356Z" transform="translate(-25.487 -8.177)" fill="#55acd5"/>
      <path id="Path_2618" data-name="Path 2618" d="M201.641,8.362A4.421,4.421,0,0,1,198.1,4.825c0-.047-.047-.094-.094-.047a.046.046,0,0,0-.047.047,4.421,4.421,0,0,1-3.537,3.537c-.047,0-.094.047-.047.094a.046.046,0,0,0,.047.047,4.422,4.422,0,0,1,3.537,3.537c0,.047.047.094.094.047a.046.046,0,0,0,.047-.047A4.421,4.421,0,0,1,201.641,8.5c.047,0,.094-.047.047-.094A.046.046,0,0,0,201.641,8.362Z" transform="translate(-100.645 -2.541)" fill="#ea4647"/>
      <path id="Path_2619" data-name="Path 2619" d="M78.235,94.428h-.849v-.849a1.179,1.179,0,1,0-2.358,0v.849h-.849a1.179,1.179,0,1,0,0,2.358h.849v.849a1.179,1.179,0,1,0,2.358,0v-.849h.849a1.179,1.179,0,0,0,0-2.358Z" transform="translate(-36.518 -48.851)" fill="#6dcc6d"/>
      <path id="Path_2620" data-name="Path 2620" d="M115.97,0H83.807A9.037,9.037,0,0,0,74.8,9.007V22.731a9.007,9.007,0,0,0,9.007,9.007h8.3a1.725,1.725,0,0,1,1.415.755l4.669,7.121a2.029,2.029,0,0,0,2.782.566,1.626,1.626,0,0,0,.566-.566l4.669-7.121a1.725,1.725,0,0,1,1.415-.755h8.3a9.007,9.007,0,0,0,9.007-9.007V9.007A8.966,8.966,0,0,0,115.97,0Zm6.649,22.731a6.642,6.642,0,0,1-6.649,6.649h-8.3a3.99,3.99,0,0,0-3.4,1.839l-4.386,6.649L95.5,31.219a4.1,4.1,0,0,0-3.4-1.839h-8.3a6.642,6.642,0,0,1-6.649-6.649V9.007a6.642,6.642,0,0,1,6.649-6.649h32.115a6.642,6.642,0,0,1,6.649,6.649V22.731Z" transform="translate(-37.469 -0.026)" fill="#231f20"/>
      <path id="Path_2621" data-name="Path 2621" d="M200.765,30.2H177.28a7.352,7.352,0,0,0-3.678,1.037,1.282,1.282,0,0,0-.566.99v6.414a6.53,6.53,0,0,1-2.311,5,1.34,1.34,0,0,0-.424.9v2.547a6.965,6.965,0,0,0,6.885,6.932h6.178a.8.8,0,0,1,.755.424l3.443,5.187a1.772,1.772,0,0,0,2.971,0l3.443-5.187a1.039,1.039,0,0,1,.755-.424h6.084a6.9,6.9,0,0,0,6.885-6.932V37.132A7.005,7.005,0,0,0,200.765,30.2Zm4.527,16.93a4.6,4.6,0,0,1-4.527,4.574h-6.083a3.356,3.356,0,0,0-2.735,1.462L189.022,57.6,186.1,53.166a3.239,3.239,0,0,0-2.735-1.462H177.28a4.539,4.539,0,0,1-4.527-4.574V45.1a8.915,8.915,0,0,0,2.688-6.414V32.982a4.2,4.2,0,0,1,1.839-.424h23.485a4.539,4.539,0,0,1,4.527,4.574Z" transform="translate(-87.932 -15.984)" fill="#231f20"/>
      <path id="Path_2622" data-name="Path 2622" d="M43.378,43.787a6.678,6.678,0,0,1-2.311-5V32.328a1.059,1.059,0,0,0-.566-.99A6.676,6.676,0,0,0,36.823,30.3H13.385A6.893,6.893,0,0,0,6.5,37.185V47.23a6.965,6.965,0,0,0,6.885,6.932h6.084a.8.8,0,0,1,.755.424l3.443,5.187a1.772,1.772,0,0,0,2.971,0l3.443-5.187a1.039,1.039,0,0,1,.755-.424h6.084A6.974,6.974,0,0,0,43.85,47.23V44.684A1.635,1.635,0,0,0,43.378,43.787Zm-1.981,3.4a4.609,4.609,0,0,1-4.574,4.574H30.787a3.356,3.356,0,0,0-2.735,1.462l-2.924,4.433L22.2,53.219a3.239,3.239,0,0,0-2.735-1.462H13.385a4.539,4.539,0,0,1-4.527-4.574v-10a4.6,4.6,0,0,1,4.527-4.574H36.87a4.055,4.055,0,0,1,1.839.424v5.706A9.11,9.11,0,0,0,41.4,45.155Z" transform="translate(-1.378 -16.037)" fill="#231f20"/>
      <path id="Path_2623" data-name="Path 2623" d="M124.681,17.9h0l-25.7.094a1.179,1.179,0,1,0,0,2.358h0l25.7-.094a1.179,1.179,0,0,0,0-2.358Z" transform="translate(-49.622 -9.485)" fill="#231f20"/>
      <path id="Path_2624" data-name="Path 2624" d="M124.781,31.1l-25.7.094a1.179,1.179,0,1,0,0,2.358h0l25.7-.094a1.179,1.179,0,0,0,0-2.358Z" transform="translate(-49.675 -16.46)" fill="#231f20"/>
      <path id="Path_2625" data-name="Path 2625" d="M124.781,44.3l-25.7.094a1.179,1.179,0,1,0,0,2.358h0l25.7-.094a1.168,1.168,0,0,0,1.179-1.179h0A1.231,1.231,0,0,0,124.781,44.3Z" transform="translate(-49.675 -23.435)" fill="#231f20"/>
      <path id="Path_2626" data-name="Path 2626" d="M66.479,200.3a1.168,1.168,0,0,0-1.179,1.179v13.252a1.179,1.179,0,1,0,2.358,0V201.479A1.168,1.168,0,0,0,66.479,200.3Z" transform="translate(-32.449 -105.867)" fill="#231f20"/>
      <path id="Path_2627" data-name="Path 2627" d="M22.279,200.3a1.168,1.168,0,0,0-1.179,1.179v13.252a1.179,1.179,0,1,0,2.358,0V201.479A1.168,1.168,0,0,0,22.279,200.3Z" transform="translate(-9.093 -105.867)" fill="#231f20"/>
      <path id="Path_2628" data-name="Path 2628" d="M44.651,160.7a1.071,1.071,0,0,0-1.179,0,8.153,8.153,0,0,1-3.631.943,7.651,7.651,0,0,1-3.4-.8,1.24,1.24,0,0,0-1.6.519.951.951,0,0,0-.141.519v3.254a.919.919,0,0,0,.047.377l1.368,3.961a1.728,1.728,0,0,0,1.651,1.179H42.01a1.728,1.728,0,0,0,1.651-1.179l1.368-3.961a1.038,1.038,0,0,0,.047-.377v-3.443A.746.746,0,0,0,44.651,160.7Zm-1.745,4.2-1.179,3.4h-3.4l-1.179-3.4v-1.32a9.965,9.965,0,0,0,5.753-.094Z" transform="translate(-16.28 -84.849)" fill="#231f20"/>
      <path id="Path_2629" data-name="Path 2629" d="M229.588,130.5a4.314,4.314,0,0,0-.8.047,1.144,1.144,0,0,0-.99,1.226v7.215a1.19,1.19,0,0,0,.99,1.273,4.575,4.575,0,0,0,.8.047,4.912,4.912,0,1,0,0-9.809Zm.566,7.4v-5a2.475,2.475,0,0,1,2.216,2.782,2.507,2.507,0,0,1-2.216,2.216Z" transform="translate(-118.311 -68.984)" fill="#231f20"/>
      <path id="Path_2630" data-name="Path 2630" d="M184.38,132.239v-.519a1.19,1.19,0,0,0-.99-1.273,4.575,4.575,0,0,0-.8-.047,4.912,4.912,0,1,0,0,9.809,4.314,4.314,0,0,0,.8-.047,1.161,1.161,0,0,0,.99-1.273v-6.649Zm-2.358,5.612a2.515,2.515,0,0,1,0-5Z" transform="translate(-91.684 -68.931)" fill="#231f20"/>
      <path id="Path_2631" data-name="Path 2631" d="M208.144,123.905c-.566-.33-2.028-1.415-2.028-2.688v-.047a3.023,3.023,0,0,0-1.085-2.358,3.129,3.129,0,0,0-2.641-.613,20.923,20.923,0,0,1-8.724,0,2.981,2.981,0,0,0-2.641.613,2.911,2.911,0,0,0-1.085,2.405c0,1.273-1.462,2.358-2.028,2.688a1.172,1.172,0,0,0-.613,1.037v6.791a10.559,10.559,0,0,0,9.715,10.281,7.64,7.64,0,0,0,1.037.047,11.05,11.05,0,0,0,7.5-2.877,9.689,9.689,0,0,0,3.254-7.262V124.9A1.316,1.316,0,0,0,208.144,123.905Zm-1.745,8.017a7.475,7.475,0,0,1-2.5,5.518,8.794,8.794,0,0,1-6.7,2.216,8.162,8.162,0,0,1-7.545-7.923v-6.178c.943-.66,2.641-2.216,2.641-4.339v-.094a.655.655,0,0,1,.236-.472.751.751,0,0,1,.613-.141,22.935,22.935,0,0,0,9.809,0,.68.68,0,0,1,.613.141.58.58,0,0,1,.236.472v.094c0,2.122,1.7,3.678,2.641,4.339Z" transform="translate(-96.915 -62.437)" fill="#231f20"/>
      <path id="Path_2632" data-name="Path 2632" d="M230.479,200.3a1.168,1.168,0,0,0-1.179,1.179v13.252a1.179,1.179,0,1,0,2.358,0V201.479A1.168,1.168,0,0,0,230.479,200.3Z" transform="translate(-119.108 -105.867)" fill="#231f20"/>
      <path id="Path_2633" data-name="Path 2633" d="M186.379,200.3a1.168,1.168,0,0,0-1.179,1.179v13.252a1.179,1.179,0,1,0,2.358,0V201.479A1.2,1.2,0,0,0,186.379,200.3Z" transform="translate(-95.805 -105.867)" fill="#231f20"/>
      <path id="Path_2634" data-name="Path 2634" d="M124.876,207.454h0l-1.415-25.041a5.68,5.68,0,0,0-4.291-5.187l-8.724-2.216-5.235-2.547a1.17,1.17,0,0,0-1.556.519c0,.047-.047.094-.047.141l-1.7,4.857H97l-1.7-4.857a1.171,1.171,0,0,0-1.509-.707c-.047,0-.094.047-.141.047l-5.235,2.547L79.7,177.225a5.68,5.68,0,0,0-4.291,5.187l-1.415,25.041a4.112,4.112,0,0,0,3.867,4.339h42.82a4.106,4.106,0,0,0,4.1-4.1.26.26,0,0,0,.094-.236Zm-2.83,1.415a1.869,1.869,0,0,1-1.273.566H78.141a1.741,1.741,0,0,1-1.745-1.745v-.094l1.415-25.041a3.27,3.27,0,0,1,2.5-3.018l8.866-2.216c.094,0,.141-.047.236-.094l4.15-2.028,1.368,3.914a1.946,1.946,0,0,0,1.839,1.273h5.518a1.993,1.993,0,0,0,1.839-1.273l1.368-3.914,4.15,2.028c.094.047.141.047.236.094l8.866,2.216a3.316,3.316,0,0,1,2.5,3.018l1.415,25.041a2.92,2.92,0,0,1-.613,1.273Z" transform="translate(-37.037 -91.091)" fill="#231f20"/>
      <path id="Path_2635" data-name="Path 2635" d="M151.23,123.4a6.39,6.39,0,0,0-.943.094,1.144,1.144,0,0,0-.99,1.226c0,.236.047.472.047.707V133.3a3.57,3.57,0,0,1-.047.707,1.144,1.144,0,0,0,.99,1.226,5.923,5.923,0,1,0,1.886-11.7,2.3,2.3,0,0,0-.943-.141Zm.424,9.479v-7.121a3.589,3.589,0,0,1,0,7.121Z" transform="translate(-76.831 -65.232)" fill="#231f20"/>
      <path id="Path_2636" data-name="Path 2636" d="M97.25,125.349a3.57,3.57,0,0,1,.047-.707,1.144,1.144,0,0,0-.99-1.226,5.923,5.923,0,1,0-1.886,11.7,4.762,4.762,0,0,0,1.886,0,1.144,1.144,0,0,0,.99-1.226c0-.236-.047-.472-.047-.707Zm-2.358,7.5a3.589,3.589,0,0,1,0-7.121Z" transform="translate(-45.205 -65.201)" fill="#231f20"/>
      <path id="Path_2637" data-name="Path 2637" d="M126.03,116.811a1.772,1.772,0,0,0-1.745-1.745c-4.386-.141-6.649-1.886-7.4-2.641a1.837,1.837,0,0,0-2.547,0l-.141.141c-3.678,4.622-9.055,4.1-11.224,3.631a1.817,1.817,0,0,0-2.122,1.368,1.038,1.038,0,0,0-.047.377v9.149a12.591,12.591,0,0,0,25.183,0V116.952Zm-2.358,10.375a10.234,10.234,0,1,1-20.467,0h0V118.7c2.5.377,8.3.66,12.45-4.15a13.06,13.06,0,0,0,7.97,2.877v9.762Z" transform="translate(-51.207 -59.162)" fill="#231f20"/>
      <path id="Path_2638" data-name="Path 2638" d="M118.33,91.664a7.293,7.293,0,0,0-2.971.613,7.851,7.851,0,0,0-5.942-2.877h-3.348A12.992,12.992,0,0,0,93.1,102.369v5.282a1.168,1.168,0,0,0,1.179,1.179,1.425,1.425,0,0,0,.755-.236,3.472,3.472,0,0,1,2.782-.755,1.21,1.21,0,0,0,1.368-.99V106.8c2.5.377,8.3.66,12.5-4.15a13.06,13.06,0,0,0,7.97,2.877v1.132a1.168,1.168,0,0,0,1.179,1.179h.189a2.3,2.3,0,0,1,.566-.047,3.7,3.7,0,0,1,2.5.99,1.14,1.14,0,0,0,1.651-.047,1.338,1.338,0,0,0,.33-.8V99.351A7.759,7.759,0,0,0,118.33,91.664Zm5.329,14.148a6.384,6.384,0,0,0-1.7-.377v-.519a1.772,1.772,0,0,0-1.745-1.745c-4.386-.141-6.649-1.886-7.4-2.641a1.837,1.837,0,0,0-2.547,0l-.141.141c-3.678,4.622-9.055,4.1-11.224,3.631a1.769,1.769,0,0,0-1.509.377,1.542,1.542,0,0,0-.519.707,7.294,7.294,0,0,0-1.462.283v-3.348a10.657,10.657,0,0,1,10.611-10.611h3.348a5.3,5.3,0,0,1,4.574,2.594,1.163,1.163,0,0,0,1.6.424h0a5.347,5.347,0,0,1,7.31,1.792,5.253,5.253,0,0,1,.755,2.782Z" transform="translate(-47.139 -47.266)" fill="#231f20"/>
      <path id="Path_2639" data-name="Path 2639" d="M127.541,198.017a1.266,1.266,0,0,0-1.085-.33c-.094,0-.141.047-.236.047-.094.047-.141.047-.189.094s-.141.094-.189.141a.651.651,0,0,0-.141.189.358.358,0,0,0-.094.189.425.425,0,0,0-.047.236.8.8,0,0,0,0,.472c0,.094.047.141.047.236.047.047.047.141.094.189s.094.141.141.189a.651.651,0,0,0,.189.141.358.358,0,0,0,.189.094.425.425,0,0,0,.236.047c.094,0,.141.047.236.047a1.168,1.168,0,0,0,1.179-1.179,1.23,1.23,0,0,0-.33-.8Z" transform="translate(-64.272 -104.48)" fill="#231f20"/>
      <path id="Path_2640" data-name="Path 2640" d="M127.541,210.917a1.267,1.267,0,0,0-1.085-.33c-.094,0-.141.047-.236.047-.047.047-.141.047-.189.094s-.141.094-.189.141a.651.651,0,0,0-.141.189.358.358,0,0,0-.094.189.425.425,0,0,0-.047.236.8.8,0,0,0,0,.472c0,.094.047.141.047.236.047.047.047.141.094.189s.094.141.141.189a.651.651,0,0,0,.189.141.358.358,0,0,0,.189.094.425.425,0,0,0,.236.047.425.425,0,0,1,.236.047,1.356,1.356,0,0,0,.849-.33A1.229,1.229,0,0,0,127.541,210.917Z" transform="translate(-64.272 -111.297)" fill="#231f20"/>
      <path id="Path_2641" data-name="Path 2641" d="M127.541,223.817a1.266,1.266,0,0,0-1.085-.33c-.094,0-.141.047-.236.047-.094.047-.141.047-.189.094s-.141.094-.189.141a.651.651,0,0,0-.141.189.358.358,0,0,0-.094.189.425.425,0,0,0-.047.236.8.8,0,0,0,0,.472c0,.094.047.141.047.236.047.047.047.141.094.189s.094.141.141.189a.651.651,0,0,0,.189.141.358.358,0,0,0,.189.094.425.425,0,0,0,.236.047.425.425,0,0,1,.236.047,1.356,1.356,0,0,0,.849-.33A1.229,1.229,0,0,0,127.541,223.817Z" transform="translate(-64.272 -118.113)" fill="#231f20"/>
      <path id="Path_2642" data-name="Path 2642" d="M127.541,236.717a1.266,1.266,0,0,0-1.085-.33c-.094,0-.141.047-.236.047-.094.047-.141.047-.189.094s-.141.094-.189.141a.651.651,0,0,0-.141.189.358.358,0,0,0-.094.189.425.425,0,0,0-.047.236.8.8,0,0,0,0,.472c0,.094.047.141.047.236.047.047.047.141.094.189s.094.141.141.189a.651.651,0,0,0,.189.141.358.358,0,0,0,.189.094.425.425,0,0,0,.236.047h.236a1.168,1.168,0,0,0,1.179-1.179,1.335,1.335,0,0,0-.33-.755Z" transform="translate(-64.272 -124.93)" fill="#231f20"/>
      <path id="Path_2643" data-name="Path 2643" d="M154.979,214.6a1.168,1.168,0,0,0-1.179,1.179v17.166a1.179,1.179,0,1,0,2.358,0V215.779A1.168,1.168,0,0,0,154.979,214.6Z" transform="translate(-79.213 -113.423)" fill="#231f20"/>
      <path id="Path_2644" data-name="Path 2644" d="M97.679,214.6a1.168,1.168,0,0,0-1.179,1.179v17.166a1.179,1.179,0,1,0,2.358,0V215.779A1.168,1.168,0,0,0,97.679,214.6Z" transform="translate(-48.935 -113.423)" fill="#231f20"/>
      <path id="Path_2645" data-name="Path 2645" d="M126.556,163.2a1.071,1.071,0,0,0-1.179,0,10.313,10.313,0,0,1-4.857,1.226,10.2,10.2,0,0,1-4.574-1.085,1.24,1.24,0,0,0-1.6.519.951.951,0,0,0-.141.519v4.2a.919.919,0,0,0,.047.377l1.792,5.14a1.946,1.946,0,0,0,1.839,1.273H123.4a1.993,1.993,0,0,0,1.839-1.273l1.792-5.14a1.038,1.038,0,0,0,.047-.377v-4.386A.949.949,0,0,0,126.556,163.2Zm-1.792,5.187-1.651,4.669h-4.9l-1.651-4.669v-2.264a13.045,13.045,0,0,0,8.159-.094Z" transform="translate(-58.288 -86.17)" fill="#231f20"/>
      <path id="Path_2646" data-name="Path 2646" d="M43.835,129.778a2.246,2.246,0,0,0-1.6-.66h0v0a7.559,7.559,0,0,1-5.895-2.83,2.232,2.232,0,0,0-3.112-.33,1.1,1.1,0,0,0-.33.33,7.6,7.6,0,0,1-6.131,2.83,2.029,2.029,0,0,0-1.6.613,2.246,2.246,0,0,0-.66,1.6V135.3a10.209,10.209,0,0,0,9.007,10.139,6.641,6.641,0,0,0,.943.047,10,10,0,0,0,10-10v-4.15A1.873,1.873,0,0,0,43.835,129.778Zm-1.7,5.659a7.607,7.607,0,0,1-8.347,7.545,7.845,7.845,0,0,1-6.885-7.781v-3.773a9.923,9.923,0,0,0,7.734-3.537,9.748,9.748,0,0,0,7.5,3.537Z" transform="translate(-10.89 -66.328)" fill="#231f20"/>
      <path id="Path_2647" data-name="Path 2647" d="M29.718,102.3A13.807,13.807,0,0,0,15.9,116.118v8.724a13.473,13.473,0,0,0,1.273,5.753,4.534,4.534,0,0,0,4.056,2.594h4.857a1.168,1.168,0,0,0,1.179-1.179v-.943a1.131,1.131,0,0,0-.66-1.038A7.939,7.939,0,0,1,22.361,123V119.23a9.923,9.923,0,0,0,7.734-3.537,9.748,9.748,0,0,0,7.5,3.537v3.961a7.647,7.647,0,0,1-4.009,6.7,1.172,1.172,0,0,0-.613,1.038v1.085a1.168,1.168,0,0,0,1.179,1.179h4.056a4.453,4.453,0,0,0,4.056-2.594,13.473,13.473,0,0,0,1.273-5.753v-8.724A13.867,13.867,0,0,0,29.718,102.3ZM41.13,124.842a11.858,11.858,0,0,1-1.037,4.763,2.081,2.081,0,0,1-1.934,1.226H36.367a9.859,9.859,0,0,0,3.537-7.593v-4.15a2.219,2.219,0,0,0-.66-1.556,2.246,2.246,0,0,0-1.6-.66,7.559,7.559,0,0,1-5.895-2.83,2.232,2.232,0,0,0-3.112-.33,1.1,1.1,0,0,0-.33.33,7.6,7.6,0,0,1-6.131,2.83,2.029,2.029,0,0,0-1.6.613,2.246,2.246,0,0,0-.66,1.6v3.961a10.39,10.39,0,0,0,3.584,7.828H21.135a2.183,2.183,0,0,1-1.934-1.226,11.117,11.117,0,0,1-1.037-4.763v-8.724a11.46,11.46,0,1,1,22.919,0v8.677Z" transform="translate(-6.345 -54.083)" fill="#231f20"/>
      <path id="Path_2648" data-name="Path 2648" d="M44.679,177a1.168,1.168,0,0,0-1.179,1.179v5.282a1.179,1.179,0,0,0,2.358,0v-5.282A1.168,1.168,0,0,0,44.679,177Z" transform="translate(-20.93 -93.555)" fill="#231f20"/>
      <path id="Path_2649" data-name="Path 2649" d="M217.816,198h-3.537a1.179,1.179,0,1,0,0,2.358h3.537a1.168,1.168,0,0,0,1.179-1.179A1.2,1.2,0,0,0,217.816,198Z" transform="translate(-110.548 -104.652)" fill="#231f20"/>
      <path id="Path_2650" data-name="Path 2650" d="M194.94,99c-7.4,0-13.44,5.659-13.44,12.639v3.914a1.168,1.168,0,0,0,1.179,1.179,1.12,1.12,0,0,0,.566-.141,3.4,3.4,0,0,1,1.509-.377,1.305,1.305,0,0,1,.424.047,1.176,1.176,0,0,0,1.273-.707c.9-.66,2.735-2.216,2.735-4.433v-.094a.655.655,0,0,1,.236-.472.751.751,0,0,1,.613-.141,22.935,22.935,0,0,0,9.809,0,.68.68,0,0,1,.613.141.58.58,0,0,1,.236.472v.094c0,2.216,1.839,3.773,2.735,4.433a1.17,1.17,0,0,0,1.273.707c.141,0,.283-.047.424-.047a3.4,3.4,0,0,1,1.509.377,1.163,1.163,0,0,0,1.6-.424,1.256,1.256,0,0,0,.141-.566v-3.914C208.381,104.659,202.344,99,194.94,99Zm11.082,14.9a5.2,5.2,0,0,0-.849-.094l-.047-.047c-.566-.33-2.028-1.415-2.028-2.735a3.014,3.014,0,0,0-3.726-2.971,20.923,20.923,0,0,1-8.724,0,2.981,2.981,0,0,0-2.641.613,2.911,2.911,0,0,0-1.085,2.405c0,1.273-1.462,2.358-2.028,2.688l-.047.047a5.2,5.2,0,0,0-.849.094v-2.264c0-5.659,4.952-10.281,11.082-10.281s11.082,4.622,11.082,10.281Z" transform="translate(-93.85 -52.339)" fill="#231f20"/>
      <path id="Path_2651" data-name="Path 2651" d="M208.851,162.271a1.2,1.2,0,0,0-1.132-.094,8.9,8.9,0,0,1-4.433.707,9,9,0,0,1-2.735-.707,1.156,1.156,0,0,0-1.556.613,1.675,1.675,0,0,0-.094.472v2.688a.919.919,0,0,0,.047.377l1.368,3.961a1.728,1.728,0,0,0,1.651,1.179h4.244a1.728,1.728,0,0,0,1.651-1.179l1.368-3.961a1.038,1.038,0,0,0,.047-.377v-2.641A.928.928,0,0,0,208.851,162.271Zm-1.839,3.443-1.179,3.4h-3.4l-1.179-3.4v-.8a12.55,12.55,0,0,0,1.839.33,10.942,10.942,0,0,0,3.914-.33Z" transform="translate(-103.044 -85.664)" fill="#231f20"/>
      <path id="Path_2652" data-name="Path 2652" d="M208.658,147.339l-1.839-.755a2.473,2.473,0,0,0-2.641.472.228.228,0,0,1-.33,0,2.7,2.7,0,0,0-2.641-.472l-1.839.755a1.165,1.165,0,1,0,.849,2.169h0l1.839-.755a.207.207,0,0,1,.236.047,2.582,2.582,0,0,0,3.4,0,.207.207,0,0,1,.236-.047l1.839.755a1.148,1.148,0,0,0,1.509-.66,1.092,1.092,0,0,0-.613-1.509Z" transform="translate(-102.899 -77.382)" fill="#231f20"/>
      <path id="Path_2653" data-name="Path 2653" d="M209.2,194.742h0l-.849-14.9a10.145,10.145,0,0,0-7.687-9.29l-2.782-.707-4.009-1.981a1.17,1.17,0,0,0-1.556.519c0,.047-.047.094-.047.141l-1.226,3.584h-3.4l-1.226-3.584a1.171,1.171,0,0,0-1.509-.707c-.047,0-.094.047-.141.047l-4.009,1.981-2.782.707a10.222,10.222,0,0,0-6.98,6.131,1.175,1.175,0,0,0,.283,1.273,3.226,3.226,0,0,1,.99,2.216l.99,17.449a1.224,1.224,0,0,0,1.179,1.132h30.983a3.784,3.784,0,0,0,3.773-3.773v-.236Zm-2.735,1.179a1.387,1.387,0,0,1-1.037.424H175.58l-.9-16.364a5.4,5.4,0,0,0-1.179-3.113,7.876,7.876,0,0,1,5.093-4.056l2.877-.707c.094,0,.141-.047.236-.094l2.924-1.415.943,2.735a1.728,1.728,0,0,0,1.651,1.179h4.244a1.728,1.728,0,0,0,1.651-1.179l.943-2.735,2.924,1.415c.094.047.141.047.236.094l2.877.707A7.838,7.838,0,0,1,206,179.934l.849,14.9a1.294,1.294,0,0,1-.377,1.085Z" transform="translate(-88.26 -88.661)" fill="#231f20"/>
      <path id="Path_2654" data-name="Path 2654" d="M42.047,176.58a10.222,10.222,0,0,0-6.98-6.131l-2.782-.707-4.009-1.981a1.17,1.17,0,0,0-1.556.519c0,.047-.047.094-.047.141l-1.226,3.584h-3.4l-1.226-3.584a1.171,1.171,0,0,0-1.509-.707c-.047,0-.094.047-.141.047l-4.009,1.981-2.782.707A10.145,10.145,0,0,0,4.7,179.74l-.8,14.949a3.751,3.751,0,0,0,3.537,3.961H38.6a1.188,1.188,0,0,0,1.179-1.132l.99-17.449h0a3.554,3.554,0,0,1,.99-2.216A1.082,1.082,0,0,0,42.047,176.58Zm-3.631,3.348-.9,16.364H7.668a1.419,1.419,0,0,1-1.415-1.415v-.094l.849-14.9A7.744,7.744,0,0,1,13,172.76l2.877-.707c.094,0,.141-.047.236-.094l2.924-1.415.943,2.735a1.728,1.728,0,0,0,1.651,1.179h4.244a1.728,1.728,0,0,0,1.651-1.179l.943-2.735,2.924,1.415c.094.047.141.047.236.094l2.877.707a7.876,7.876,0,0,1,5.093,4.056,5.4,5.4,0,0,0-1.179,3.113Z" transform="translate(0 -88.608)" fill="#231f20"/>
    </g>
  </g>
</svg>
