<svg id="Group_4062" data-name="Group 4062" xmlns="http://www.w3.org/2000/svg" width="170.186" height="170.186" viewBox="0 0 170.186 170.186">
  <g id="Group_4062-2" data-name="Group 4062" transform="translate(9.791 3.871)">
    <path id="Path_2514" data-name="Path 2514" d="M128,416h27.449v16.47H128Zm0,0" transform="translate(-93.872 -277.135)" fill="#f0bc5e"/>
    <path id="Path_2515" data-name="Path 2515" d="M221.615,52.054l-12.677-3.229-12.677,3.229-.993-13.612-6.734-11.5,11.91-5.161,8.493-10.5,8.5,10.5,11.91,5.161-6.734,11.5Zm0,0" transform="translate(-133.637 -11.281)" fill="#f0bc5e"/>
    <path id="Path_2516" data-name="Path 2516" d="M48.3,123.585l-7.593-1.93-7.593,1.93-.587-8.122-3.989-6.81,7.066-3.061,5.1-6.31,5.1,6.307,7.066,3.061-3.989,6.81Zm0,0" transform="translate(-28.535 -69.087)" fill="#f0bc5e"/>
    <path id="Path_2517" data-name="Path 2517" d="M416.291,123.585l-7.593-1.93-7.593,1.93-.59-8.122-3.989-6.81,7.066-3.061,5.105-6.31,5.1,6.307,7.066,3.061-3.989,6.81Zm0,0" transform="translate(-270.263 -69.087)" fill="#f0bc5e"/>
    <path id="Path_2518" data-name="Path 2518" d="M120.377,183.527,109.5,169.942A60.816,60.816,0,0,0,95.71,157.294L93.7,155.952l8.046-16.089,2.627,1.969a35.244,35.244,0,0,1,13.759,23.707Zm0,0" transform="translate(-71.338 -95.745)" fill="#f0bc5e"/>
    <path id="Path_2519" data-name="Path 2519" d="M324.543,183.517l2.249-17.988a35.25,35.25,0,0,1,13.759-23.707l2.63-1.974,8.046,16.088-2.014,1.343a60.871,60.871,0,0,0-13.794,12.646Zm0,0" transform="translate(-222.978 -95.734)" fill="#f0bc5e"/>
  </g>
  <path id="Path_2520" data-name="Path 2520" d="M180.245,288H78.034l-10.98,21.959h9.932v49.409H181.294V309.959h9.932Zm-3.394,5.49,5.49,10.98h-43.27l-5.49-10.98Zm-95.424,0H124.7l-5.49,10.98H75.938ZM175.8,353.878H131.885V334.664h-5.49v19.215H82.476V309.959H122.6l3.793-7.587v24.057h5.49V302.372l3.793,7.587H175.8Zm0,0" transform="translate(-44.047 -189.183)"/>
  <path id="Path_2521" data-name="Path 2521" d="M128,416h16.47v5.49H128Zm0,0" transform="translate(-84.081 -273.264)"/>
  <path id="Path_2522" data-name="Path 2522" d="M128,448h16.47v5.49H128Zm0,0" transform="translate(-84.081 -294.284)"/>
  <path id="Path_2523" data-name="Path 2523" d="M192,448h5.49v5.49H192Zm0,0" transform="translate(-126.122 -294.284)"/>
  <path id="Path_2524" data-name="Path 2524" d="M285.49,162.544a56.561,56.561,0,0,1,13.091-36.15l-4.219-3.514A62.08,62.08,0,0,0,280,162.544v11.5h5.49Zm0,0" transform="translate(-183.928 -80.717)"/>
  <path id="Path_2525" data-name="Path 2525" d="M336,96h5.49v5.49H336Zm0,0" transform="translate(-220.713 -63.061)"/>
  <path id="Path_2526" data-name="Path 2526" d="M360,64h5.49v5.49H360Zm0,0" transform="translate(-236.478 -42.041)"/>
  <path id="Path_2527" data-name="Path 2527" d="M174.943,174.045h5.49v-11.5a62.087,62.087,0,0,0-14.359-39.665l-4.219,3.514a56.573,56.573,0,0,1,13.088,36.15Zm0,0" transform="translate(-106.32 -80.717)"/>
  <path id="Path_2528" data-name="Path 2528" d="M144,96h5.49v5.49H144Zm0,0" transform="translate(-94.591 -63.061)"/>
  <path id="Path_2529" data-name="Path 2529" d="M120,64h5.49v5.49H120Zm0,0" transform="translate(-78.826 -42.041)"/>
  <path id="Path_2530" data-name="Path 2530" d="M240,136h5.49v5.49H240Zm0,0" transform="translate(-157.652 -89.336)"/>
  <path id="Path_2531" data-name="Path 2531" d="M240,168h5.49v35.684H240Zm0,0" transform="translate(-157.652 -110.357)"/>
  <path id="Path_2532" data-name="Path 2532" d="M464,216h5.49v5.49H464Zm0,0" transform="translate(-304.794 -141.887)"/>
  <path id="Path_2533" data-name="Path 2533" d="M464,248h5.49v5.49H464Zm0,0" transform="translate(-304.794 -162.907)"/>
  <path id="Path_2534" data-name="Path 2534" d="M480,232h5.49v5.49H480Zm0,0" transform="translate(-315.304 -152.397)"/>
  <path id="Path_2535" data-name="Path 2535" d="M448,232h5.49v5.49H448Zm0,0" transform="translate(-294.284 -152.397)"/>
  <path id="Path_2536" data-name="Path 2536" d="M440,0h5.49V5.49H440Zm0,0" transform="translate(-289.029)"/>
  <path id="Path_2537" data-name="Path 2537" d="M440,32h5.49v5.49H440Zm0,0" transform="translate(-289.029 -21.02)"/>
  <path id="Path_2538" data-name="Path 2538" d="M456,16h5.49v5.49H456Zm0,0" transform="translate(-299.539 -10.51)"/>
  <path id="Path_2539" data-name="Path 2539" d="M424,16h5.49v5.49H424Zm0,0" transform="translate(-278.519 -10.51)"/>
  <path id="Path_2540" data-name="Path 2540" d="M16,248h5.49v5.49H16Zm0,0" transform="translate(-10.51 -162.907)"/>
  <path id="Path_2541" data-name="Path 2541" d="M16,280h5.49v5.49H16Zm0,0" transform="translate(-10.51 -183.928)"/>
  <path id="Path_2542" data-name="Path 2542" d="M32,264h5.49v5.49H32Zm0,0" transform="translate(-21.02 -173.417)"/>
  <path id="Path_2543" data-name="Path 2543" d="M0,264H5.49v5.49H0Zm0,0" transform="translate(0 -173.417)"/>
  <path id="Path_2544" data-name="Path 2544" d="M16,0h5.49V5.49H16Zm0,0" transform="translate(-10.51)"/>
  <path id="Path_2545" data-name="Path 2545" d="M16,32h5.49v5.49H16Zm0,0" transform="translate(-10.51 -21.02)"/>
  <path id="Path_2546" data-name="Path 2546" d="M32,16h5.49v5.49H32Zm0,0" transform="translate(-21.02 -10.51)"/>
  <path id="Path_2547" data-name="Path 2547" d="M0,16H5.49v5.49H0Zm0,0" transform="translate(0 -10.51)"/>
</svg>
