<svg xmlns="http://www.w3.org/2000/svg" width="28.083" height="28.648" viewBox="0 0 28.083 28.648">
  <g id="Group_1876" data-name="Group 1876" transform="translate(-268.88 -75.427)">
    <path id="Path_1738" data-name="Path 1738" d="M282.952,75.432a2.039,2.039,0,0,1,1.039.212q6.126,2.862,12.251,5.724c.293.137.719.193.711.641-.008.418-.412.475-.694.607q-6.183,2.9-12.374,5.779a2.178,2.178,0,0,1-1.908.01q-6.292-2.929-12.578-5.873c-.239-.112-.524-.2-.521-.542s.291-.426.529-.538q6.247-2.921,12.5-5.836A2.089,2.089,0,0,1,282.952,75.432Z" fill="#a2abd1"/>
    <path id="Path_1739" data-name="Path 1739" d="M272.586,106.725a2.18,2.18,0,0,1,1,.237q4.116,1.927,8.236,3.848a2.461,2.461,0,0,0,2.2,0c2.744-1.286,5.493-2.562,8.237-3.849a2.346,2.346,0,0,1,2.035-.029c.75.333,1.489.693,2.232,1.042.221.1.44.222.44.508s-.22.4-.441.507q-6.33,2.955-12.663,5.906a2.191,2.191,0,0,1-1.91-.015q-6.292-2.93-12.58-5.871c-.233-.109-.482-.215-.485-.523s.241-.419.476-.529q1.075-.5,2.149-1.008A2.4,2.4,0,0,1,272.586,106.725Z" transform="translate(-0.001 -18.738)" fill="#a2abd1"/>
    <path id="Path_1740" data-name="Path 1740" d="M282.864,134.364a2.172,2.172,0,0,1-1.224-.306q-6.024-2.817-12.05-5.631c-.293-.137-.718-.2-.705-.645.012-.417.416-.467.7-.606.628-.312,1.268-.6,1.9-.9a2.376,2.376,0,0,1,2.117.008c2.678,1.252,5.364,2.484,8.032,3.756a2.784,2.784,0,0,0,2.57,0c2.682-1.278,5.381-2.519,8.074-3.774a2.317,2.317,0,0,1,2.034-.013c.733.337,1.461.683,2.189,1.029.23.109.479.215.465.534-.012.291-.246.389-.462.491q-4.3,2.012-8.6,4.02c-1.325.619-2.653,1.233-3.975,1.859A2.1,2.1,0,0,1,282.864,134.364Z" transform="translate(-0.003 -30.303)" fill="#a2abd1"/>
  </g>
</svg>
