<svg xmlns="http://www.w3.org/2000/svg" width="20.664" height="21.533" viewBox="0 0 20.664 21.533">
  <g id="Group_1003" data-name="Group 1003" transform="translate(0)">
    <path id="XMLID_49_" d="M22.587,18.817v.629a1,1,0,0,1-.846.988l-.155.572a.711.711,0,0,1-.687.527H19.361a.711.711,0,0,1-.687-.527l-.151-.572a1,1,0,0,1-.851-.992v-.629a.605.605,0,0,1,.607-.607h3.7A.612.612,0,0,1,22.587,18.817Zm2.849-8.48a5.278,5.278,0,0,1-1.489,3.682,4.864,4.864,0,0,0-1.3,2.641.877.877,0,0,1-.868.74H18.484a.869.869,0,0,1-.864-.735,4.918,4.918,0,0,0-1.311-2.65,5.3,5.3,0,1,1,9.127-3.677ZM20.73,7.124a.6.6,0,0,0-.6-.6A3.832,3.832,0,0,0,16.3,10.354a.6.6,0,1,0,1.2,0,2.635,2.635,0,0,1,2.632-2.632A.6.6,0,0,0,20.73,7.124Zm-.6-3.832a.6.6,0,0,0,.6-.6V.6a.6.6,0,1,0-1.2,0v2.1A.6.6,0,0,0,20.132,3.292Zm-7.04,7.04a.6.6,0,0,0-.6-.6H10.4a.6.6,0,0,0,0,1.2h2.1A.6.6,0,0,0,13.092,10.332Zm16.774-.6h-2.1a.6.6,0,0,0,0,1.2h2.1a.6.6,0,0,0,0-1.2ZM14.31,15.312,12.826,16.8a.6.6,0,0,0,.842.846l1.484-1.484a.6.6,0,0,0-.842-.846ZM25.533,5.529a.6.6,0,0,0,.421-.173l1.484-1.484a.6.6,0,0,0-.846-.846L25.108,4.51a.6.6,0,0,0,0,.846A.607.607,0,0,0,25.533,5.529ZM14.31,5.352a.6.6,0,0,0,.842-.846L13.668,3.022a.6.6,0,0,0-.846.846Zm11.644,9.96a.6.6,0,0,0-.846.846l1.484,1.484a.6.6,0,1,0,.842-.846Z" transform="translate(-9.8)" fill="#5f6a79"/>
  </g>
</svg>
