<svg id="_001-facebook-logo" data-name="001-facebook-logo" xmlns="http://www.w3.org/2000/svg" width="10.326" height="19.1" viewBox="0 0 10.326 19.1">
  <path id="Path_7" data-name="Path 7" d="M32.014,0,29.538,0a4.35,4.35,0,0,0-4.581,4.7V6.868h-2.49a.389.389,0,0,0-.389.39V10.4a.389.389,0,0,0,.389.389h2.49V18.71a.389.389,0,0,0,.389.389H28.6a.389.389,0,0,0,.389-.389V10.787H31.9a.389.389,0,0,0,.389-.389V7.257a.39.39,0,0,0-.39-.39H28.985V5.03c0-.883.21-1.331,1.361-1.331h1.668a.389.389,0,0,0,.389-.389V.393A.39.39,0,0,0,32.014,0Z" transform="translate(-22.077)" fill="#d5d5d5"/>
</svg>
