<svg id="_002-search" data-name="002-search" xmlns="http://www.w3.org/2000/svg" width="32.16" height="32.16" viewBox="0 0 32.16 32.16">
  <path id="Path_1122" data-name="Path 1122" d="M7.127,149.018,6.008,153.2l-4.091.087A16.108,16.108,0,0,1,1.8,138.268h0l3.643.668,1.6,3.621a9.6,9.6,0,0,0,.09,6.461Z" transform="translate(0 -129.583)" fill="#fbbb00"/>
  <path id="Path_1123" data-name="Path 1123" d="M277.073,208.176a16.073,16.073,0,0,1-5.732,15.544h0l-4.588-.234-.649-4.054a9.584,9.584,0,0,0,4.123-4.894h-8.6v-6.361h15.445Z" transform="translate(-245.195 -195.1)" fill="#518ef8"/>
  <path id="Path_1124" data-name="Path 1124" d="M54.738,318.593h0a16.085,16.085,0,0,1-24.23-4.919l5.211-4.266a9.563,9.563,0,0,0,13.781,4.9Z" transform="translate(-28.593 -289.974)" fill="#28b446"/>
  <path id="Path_1125" data-name="Path 1125" d="M53.17,3.7,47.96,7.967a9.562,9.562,0,0,0-14.1,5.007L28.625,8.685h0A16.083,16.083,0,0,1,53.17,3.7Z" transform="translate(-26.826)" fill="#f14336"/>
</svg>
