<svg id="_006-instagram" data-name="006-instagram" xmlns="http://www.w3.org/2000/svg" width="20.335" height="20.335" viewBox="0 0 20.335 20.335">
  <g id="Group_18" data-name="Group 18">
    <g id="Group_17" data-name="Group 17">
      <path id="Path_8" data-name="Path 8" d="M13.98,0H6.355A6.355,6.355,0,0,0,0,6.355V13.98a6.355,6.355,0,0,0,6.355,6.355H13.98a6.355,6.355,0,0,0,6.355-6.355V6.355A6.355,6.355,0,0,0,13.98,0Zm4.448,13.98a4.453,4.453,0,0,1-4.448,4.448H6.355A4.453,4.453,0,0,1,1.906,13.98V6.355A4.453,4.453,0,0,1,6.355,1.906H13.98a4.453,4.453,0,0,1,4.448,4.448Z" transform="translate(0 0)" fill="#d5d5d5"/>
    </g>
  </g>
  <g id="Group_20" data-name="Group 20" transform="translate(5.084 5.084)">
    <g id="Group_19" data-name="Group 19">
      <path id="Path_9" data-name="Path 9" d="M133.084,128a5.084,5.084,0,1,0,5.084,5.084A5.084,5.084,0,0,0,133.084,128Zm0,8.261a3.177,3.177,0,1,1,3.177-3.177A3.182,3.182,0,0,1,133.084,136.261Z" transform="translate(-128 -128)" fill="#d5d5d5"/>
    </g>
  </g>
  <g id="Group_22" data-name="Group 22" transform="translate(14.955 4.025)">
    <g id="Group_21" data-name="Group 21">
      <ellipse id="Ellipse_8" data-name="Ellipse 8" cx="0.677" cy="0.677" rx="0.677" ry="0.677" fill="#d5d5d5"/>
    </g>
  </g>
</svg>
