<svg xmlns="http://www.w3.org/2000/svg" width="54.51" height="54.577" viewBox="0 0 54.51 54.577">
  <g id="Group_2305" data-name="Group 2305" transform="translate(-0.314)">
    <g id="Group_1853" data-name="Group 1853" transform="translate(0.314)">
      <g id="Group_1852" data-name="Group 1852" transform="translate(0)">
        <circle id="Ellipse_82" data-name="Ellipse 82" cx="2.129" cy="2.129" r="2.129" transform="translate(36.411 41.802)" fill="#a2abd1"/>
        <circle id="Ellipse_83" data-name="Ellipse 83" cx="2.129" cy="2.129" r="2.129" transform="translate(31.513 14.333)" fill="#a2abd1"/>
        <path id="Path_1730" data-name="Path 1730" d="M52.7,33.284h2.129V20.508h-5.43a4.258,4.258,0,0,1-1.962-8.038l1.814-.945L43.824,0,.364,20.5l0,.009H.314V33.284H2.443a4.259,4.259,0,1,1,0,8.517H.314V54.577h54.51V41.8H52.7a4.259,4.259,0,1,1,0-8.517ZM29.29,11.564A2.127,2.127,0,0,0,33.137,9.75L41.785,5.67l1.973,4.193a8.508,8.508,0,0,0-1.734,10.645h-31.7ZM50.566,45.791v4.528H40.984a2.129,2.129,0,0,0-4.259,0H4.573V45.791a8.519,8.519,0,0,0,0-16.5V24.767H36.725a2.129,2.129,0,1,0,4.259,0h9.582V29.3a8.519,8.519,0,0,0,0,16.5Z" transform="translate(-0.314)" fill="#a2abd1"/>
        <circle id="Ellipse_84" data-name="Ellipse 84" cx="2.129" cy="2.129" r="2.129" transform="translate(36.411 29.026)" fill="#a2abd1"/>
        <circle id="Ellipse_85" data-name="Ellipse 85" cx="2.129" cy="2.129" r="2.129" transform="translate(36.411 35.414)" fill="#a2abd1"/>
      </g>
    </g>
  </g>
</svg>
