<svg xmlns="http://www.w3.org/2000/svg" width="97.65" height="54.975" viewBox="0 0 97.65 54.975">
  <g id="Group_4286" data-name="Group 4286" transform="translate(-804.59 -862.021)">
    <g id="Group_2306" data-name="Group 2306" transform="translate(804.59 862.021)">
      <g id="_003-user" data-name="003-user" transform="translate(0 0)">
        <g id="Group_953" data-name="Group 953" transform="translate(0)">
          <path id="Path_1470" data-name="Path 1470" d="M340.6,173.9v7.515a5.366,5.366,0,0,0,1.515,3.728v2.551a1.973,1.973,0,1,0,3.947,0v-3.468a1.979,1.979,0,0,0-.877-1.635,1.4,1.4,0,0,1-.638-1.176V173.9a4.8,4.8,0,0,1,4.784-4.784h1.615a4.8,4.8,0,0,1,4.784,4.784v7.515a1.4,1.4,0,0,1-.638,1.176,1.93,1.93,0,0,0-.877,1.635v7.236a2.33,2.33,0,0,0,1.3,2.073,57.6,57.6,0,0,1,10.3,6.6,1.668,1.668,0,0,1,.6,1.3V204.6H352.58a1.973,1.973,0,0,0,0,3.947h15.807a1.965,1.965,0,0,0,1.973-1.973v-5.143a5.57,5.57,0,0,0-2.053-4.345,62.931,62.931,0,0,0-10.146-6.638v-5.322a5.364,5.364,0,0,0,1.515-3.727v-7.515a8.741,8.741,0,0,0-8.731-8.731h-1.615A8.771,8.771,0,0,0,340.6,173.9Z" transform="translate(-272.71 -153.569)" fill="#a2abd1"/>
          <path id="Path_1471" data-name="Path 1471" d="M1.973,208.624H18.019a1.973,1.973,0,0,0,0-3.947H3.947v-3.169a1.7,1.7,0,0,1,.6-1.3,55.69,55.69,0,0,1,10.305-6.6,2.3,2.3,0,0,0,1.3-2.073v-7.236a1.979,1.979,0,0,0-.877-1.634,1.4,1.4,0,0,1-.638-1.176v-7.515a4.8,4.8,0,0,1,4.784-4.784h1.615a4.8,4.8,0,0,1,4.784,4.784V181.5a1.4,1.4,0,0,1-.638,1.176,1.93,1.93,0,0,0-.877,1.634v3.628a1.973,1.973,0,0,0,3.947,0v-2.711A5.365,5.365,0,0,0,29.76,181.5v-7.515a8.741,8.741,0,0,0-8.731-8.731H19.415a8.741,8.741,0,0,0-8.731,8.731V181.5a5.365,5.365,0,0,0,1.515,3.728v5.322a60.723,60.723,0,0,0-10.146,6.638A5.633,5.633,0,0,0,0,201.528v5.123A1.965,1.965,0,0,0,1.973,208.624Z" transform="translate(0 -153.649)" fill="#a2abd1"/>
          <path id="Path_1472" data-name="Path 1472" d="M154.273,127.481v-9.707A10.727,10.727,0,0,0,143.55,107.05h-2.093a10.727,10.727,0,0,0-10.724,10.724v9.707a6.36,6.36,0,0,0,1.953,4.585v7.475a78.169,78.169,0,0,0-13.355,8.691,6.631,6.631,0,0,0-2.432,5.163v6.658a1.965,1.965,0,0,0,1.973,1.973h47.24a1.965,1.965,0,0,0,1.973-1.973v-6.658a6.631,6.631,0,0,0-2.432-5.163,79.443,79.443,0,0,0-13.355-8.691v-7.475A6.268,6.268,0,0,0,154.273,127.481Zm8.89,23.8a2.714,2.714,0,0,1,1,2.113v4.684H120.867v-4.684a2.714,2.714,0,0,1,1-2.113A74.689,74.689,0,0,1,135.3,142.65a2.433,2.433,0,0,0,1.355-2.153v-9.368a1.979,1.979,0,0,0-.877-1.635A2.4,2.4,0,0,1,134.7,127.5v-9.707a6.784,6.784,0,0,1,6.777-6.777h2.093a6.784,6.784,0,0,1,6.777,6.777V127.5a2.375,2.375,0,0,1-1.076,1.993,1.93,1.93,0,0,0-.877,1.635V140.5a2.411,2.411,0,0,0,1.355,2.153A76.815,76.815,0,0,1,163.163,151.281Z" transform="translate(-93.598 -107.05)" fill="#a2abd1"/>
        </g>
      </g>
      <path id="Path_1828" data-name="Path 1828" d="M424.37,507.636l.734-8.791,9.124-5.445,5.388-5.617.407-8.111-2.292-5.135,1.885-13.919s5.791-4.572,7.713-4.34,9.313,3.367,9.908,7.1,1.493,5.794.657,9.686-1.2,6.435-1.471,7.891.535,7.87,1.471,9.14.044,1.8,4.738,3.874,6.091,1.249,7.089,3.642,3.229,4.58,2.447,6.542-1.146,4.737-2.447,4.569-16.161.8-24.519.718a165.307,165.307,0,0,1-17.829-1.3C426.678,508.042,424.37,507.636,424.37,507.636Z" transform="translate(-399.276 -455.061)" fill="#a2abd1"/>
    </g>
  </g>
</svg>
