<svg xmlns="http://www.w3.org/2000/svg" width="63.205" height="65.787" viewBox="0 0 63.205 65.787">
  <g id="Group_4285" data-name="Group 4285" transform="translate(-357 -666)">
    <g id="_005-knowledge" data-name="005-knowledge" transform="translate(357 719.822)">
      <g id="Group_997" data-name="Group 997" transform="translate(0.057)">
        <g id="Group_996" data-name="Group 996">
          <path id="Path_1480" data-name="Path 1480" d="M63.507,370.611v-2.176c-14.191,0-29.271,3.43-29.369,9.79H29.787c-.1-6.359-15.177-9.79-29.369-9.79v2.176c15.935,0,27.063,4,27.188,7.614H.418V380.4H63.507v-2.175H36.319C36.445,374.61,47.572,370.611,63.507,370.611Z" transform="translate(-0.418 -368.435)" fill="#a2abd1"/>
        </g>
      </g>
      <g id="Group_999" data-name="Group 999" transform="translate(0 5.442)">
        <g id="Group_998" data-name="Group 998" transform="translate(0 0)">
          <rect id="Rectangle_732" data-name="Rectangle 732" width="2.175" height="20.7" transform="translate(0 2.172) rotate(-86.985)" fill="#a2abd1"/>
        </g>
      </g>
      <g id="Group_1001" data-name="Group 1001" transform="translate(42.42 5.44)">
        <g id="Group_1000" data-name="Group 1000" transform="translate(0 0)">
          <rect id="Rectangle_733" data-name="Rectangle 733" width="20.7" height="2.175" transform="translate(0 1.091) rotate(-3.021)" fill="#a2abd1"/>
        </g>
      </g>
    </g>
    <g id="Group_1003" data-name="Group 1003" transform="translate(362.19 666)">
      <path id="XMLID_49_" d="M41.128,46.1v1.541a2.445,2.445,0,0,1-2.073,2.421l-.38,1.4a1.743,1.743,0,0,1-1.683,1.292H33.226a1.743,1.743,0,0,1-1.683-1.292l-.369-1.4a2.456,2.456,0,0,1-2.084-2.432V46.092a1.483,1.483,0,0,1,1.487-1.487h9.064A1.5,1.5,0,0,1,41.128,46.1Zm6.98-20.777a12.932,12.932,0,0,1-3.647,9.021,11.918,11.918,0,0,0-3.191,6.47,2.149,2.149,0,0,1-2.128,1.813H31.076a2.128,2.128,0,0,1-2.117-1.8,12.051,12.051,0,0,0-3.213-6.492,13,13,0,1,1,22.362-9.01ZM36.58,17.456a1.466,1.466,0,0,0-1.465-1.465,9.388,9.388,0,0,0-9.379,9.379,1.465,1.465,0,1,0,2.931,0,6.456,6.456,0,0,1,6.448-6.448A1.459,1.459,0,0,0,36.58,17.456Zm-1.465-9.39A1.466,1.466,0,0,0,36.58,6.6V1.465a1.465,1.465,0,1,0-2.931,0V6.6A1.466,1.466,0,0,0,35.115,8.066ZM17.865,25.315A1.466,1.466,0,0,0,16.4,23.849H11.265a1.465,1.465,0,0,0,0,2.931H16.4A1.459,1.459,0,0,0,17.865,25.315Zm41.1-1.465H53.829a1.465,1.465,0,0,0,0,2.931h5.135a1.465,1.465,0,0,0,0-2.931ZM20.851,37.516l-3.637,3.637a1.462,1.462,0,0,0,2.063,2.073l3.637-3.637a1.462,1.462,0,1,0-2.063-2.073Zm27.5-23.969a1.463,1.463,0,0,0,1.031-.423l3.637-3.637a1.466,1.466,0,0,0-2.073-2.073l-3.637,3.637a1.461,1.461,0,0,0,0,2.073A1.488,1.488,0,0,0,48.347,13.548Zm-27.5-.434a1.462,1.462,0,1,0,2.063-2.073L19.277,7.4A1.466,1.466,0,0,0,17.2,9.477Zm28.528,24.4a1.466,1.466,0,0,0-2.073,2.073l3.637,3.637A1.462,1.462,0,0,0,53,41.153Z" transform="translate(-9.8)" fill="#a2abd1"/>
    </g>
  </g>
</svg>
