<svg xmlns="http://www.w3.org/2000/svg" xmlns:xlink="http://www.w3.org/1999/xlink" width="316.661" height="76.621" viewBox="0 0 316.661 76.621">
  <defs>
    <linearGradient id="linear-gradient" x1="0.5" y1="1" x2="0.5" gradientUnits="objectBoundingBox">
      <stop offset="0" stop-color="#21c2fd"/>
      <stop offset="1" stop-color="#1fd2fb"/>
    </linearGradient>
    <filter id="Path_70" x="0.002" y="7.056" width="54.141" height="54.925" filterUnits="userSpaceOnUse">
      <feOffset dx="-1" input="SourceAlpha"/>
      <feGaussianBlur stdDeviation="6" result="blur"/>
      <feFlood flood-opacity="0.161"/>
      <feComposite operator="in" in2="blur"/>
      <feComposite in="SourceGraphic"/>
    </filter>
    <linearGradient id="linear-gradient-2" x1="0.5" x2="0.5" y2="1" gradientUnits="objectBoundingBox">
      <stop offset="0" stop-color="#feb22a"/>
      <stop offset="1" stop-color="#fee07f"/>
    </linearGradient>
    <filter id="Path_68" x="0" y="21.689" width="54.014" height="54.932" filterUnits="userSpaceOnUse">
      <feOffset dx="-1" input="SourceAlpha"/>
      <feGaussianBlur stdDeviation="6" result="blur-2"/>
      <feFlood flood-opacity="0.161"/>
      <feComposite operator="in" in2="blur-2"/>
      <feComposite in="SourceGraphic"/>
    </filter>
    <linearGradient id="linear-gradient-3" x1="0.5" x2="0.5" y2="1" gradientUnits="objectBoundingBox">
      <stop offset="0" stop-color="#fe9125"/>
      <stop offset="1" stop-color="#fc491e"/>
    </linearGradient>
    <filter id="Path_67" x="19.357" y="21.146" width="54.014" height="54.914" filterUnits="userSpaceOnUse">
      <feOffset dx="-1" input="SourceAlpha"/>
      <feGaussianBlur stdDeviation="6" result="blur-3"/>
      <feFlood flood-opacity="0.161"/>
      <feComposite operator="in" in2="blur-3"/>
      <feComposite in="SourceGraphic"/>
    </filter>
    <linearGradient id="linear-gradient-4" x1="0.5" x2="0.5" y2="1" gradientUnits="objectBoundingBox">
      <stop offset="0" stop-color="#2ebe21"/>
      <stop offset="1" stop-color="#7bdb27"/>
    </linearGradient>
    <filter id="Path_69" x="26.389" y="0" width="54.141" height="54.924" filterUnits="userSpaceOnUse">
      <feOffset dx="-1" input="SourceAlpha"/>
      <feGaussianBlur stdDeviation="6" result="blur-4"/>
      <feFlood flood-opacity="0.161"/>
      <feComposite operator="in" in2="blur-4"/>
      <feComposite in="SourceGraphic"/>
    </filter>
  </defs>
  <g id="Component_6_1" data-name="Component 6 – 1" transform="translate(19 15.799)">
    <path id="appypie" d="M14.1-12.4V0H11.125l-.35-1.325a3.481,3.481,0,0,1-1.738,1.3A6.869,6.869,0,0,1,6.925.3,5.755,5.755,0,0,1,4.488-.213a6.108,6.108,0,0,1-1.938-1.4A6.453,6.453,0,0,1,1.263-3.687,6.93,6.93,0,0,1,.8-6.225a6.93,6.93,0,0,1,.463-2.537A6.453,6.453,0,0,1,2.55-10.837a6.108,6.108,0,0,1,1.938-1.4,5.755,5.755,0,0,1,2.438-.513,6.22,6.22,0,0,1,2.2.375,3.724,3.724,0,0,1,1.65,1.2l.35-1.225ZM10.65-6.175a4.466,4.466,0,0,0-.262-1.638,2.937,2.937,0,0,0-.7-1.075,2.646,2.646,0,0,0-1.025-.6A4.13,4.13,0,0,0,7.4-9.675,2.941,2.941,0,0,0,6.137-9.4,3.514,3.514,0,0,0,5.1-8.663a3.268,3.268,0,0,0-.7,1.1,3.631,3.631,0,0,0-.25,1.338,3.6,3.6,0,0,0,.25,1.35,3.3,3.3,0,0,0,.7,1.087,3.514,3.514,0,0,0,1.037.738A2.941,2.941,0,0,0,7.4-2.775a3.311,3.311,0,0,0,2.287-.837A3.333,3.333,0,0,0,10.65-6.175ZM23.5-12.75a5.839,5.839,0,0,1,2.45.513,5.927,5.927,0,0,1,1.938,1.4,6.57,6.57,0,0,1,1.275,2.075,6.93,6.93,0,0,1,.463,2.537,6.93,6.93,0,0,1-.463,2.538,6.57,6.57,0,0,1-1.275,2.075,5.927,5.927,0,0,1-1.937,1.4A5.839,5.839,0,0,1,23.5.3a5.893,5.893,0,0,1-2.1-.388,4.268,4.268,0,0,1-1.6-.988V4.95H16.35V-12.4H19.3l.5.85a4.289,4.289,0,0,1,1.625-.925A7.111,7.111,0,0,1,23.5-12.75Zm-.45,9.975a2.941,2.941,0,0,0,1.263-.275,3.355,3.355,0,0,0,1.025-.738,3.586,3.586,0,0,0,.7-1.087,3.451,3.451,0,0,0,.263-1.35,3.479,3.479,0,0,0-.263-1.338,3.547,3.547,0,0,0-.7-1.1A3.355,3.355,0,0,0,24.313-9.4a2.941,2.941,0,0,0-1.263-.275,4.13,4.13,0,0,0-1.262.188,2.646,2.646,0,0,0-1.025.6,2.814,2.814,0,0,0-.687,1.075,4.5,4.5,0,0,0-.25,1.588,4.137,4.137,0,0,0,.25,1.512,3.1,3.1,0,0,0,.688,1.075,2.758,2.758,0,0,0,1.025.65A3.684,3.684,0,0,0,23.05-2.775ZM38.275-12.75a5.839,5.839,0,0,1,2.45.513,5.927,5.927,0,0,1,1.938,1.4,6.57,6.57,0,0,1,1.275,2.075A6.93,6.93,0,0,1,44.4-6.225a6.93,6.93,0,0,1-.463,2.538,6.57,6.57,0,0,1-1.275,2.075,5.927,5.927,0,0,1-1.937,1.4A5.839,5.839,0,0,1,38.275.3a5.893,5.893,0,0,1-2.1-.388,4.268,4.268,0,0,1-1.6-.988V4.95h-3.45V-12.4h2.95l.5.85a4.289,4.289,0,0,1,1.625-.925A7.111,7.111,0,0,1,38.275-12.75Zm-.45,9.975a2.941,2.941,0,0,0,1.263-.275,3.355,3.355,0,0,0,1.025-.738,3.586,3.586,0,0,0,.7-1.087,3.451,3.451,0,0,0,.263-1.35,3.479,3.479,0,0,0-.263-1.338,3.547,3.547,0,0,0-.7-1.1A3.355,3.355,0,0,0,39.088-9.4a2.941,2.941,0,0,0-1.263-.275,4.13,4.13,0,0,0-1.263.188,2.646,2.646,0,0,0-1.025.6,2.814,2.814,0,0,0-.687,1.075,4.5,4.5,0,0,0-.25,1.588,4.137,4.137,0,0,0,.25,1.512,3.1,3.1,0,0,0,.688,1.075,2.758,2.758,0,0,0,1.025.65A3.684,3.684,0,0,0,37.825-2.775ZM55.45-12.4h3.775L51.4,4.95H47.625L50.7-1.875,45.45-12.4H49.3l3.225,6.475Zm12.375-.35a5.839,5.839,0,0,1,2.45.513,5.927,5.927,0,0,1,1.938,1.4,6.57,6.57,0,0,1,1.275,2.075,6.93,6.93,0,0,1,.463,2.537,6.93,6.93,0,0,1-.463,2.538,6.57,6.57,0,0,1-1.275,2.075,5.927,5.927,0,0,1-1.937,1.4A5.839,5.839,0,0,1,67.825.3a5.893,5.893,0,0,1-2.1-.388,4.268,4.268,0,0,1-1.6-.988V4.95h-3.45V-12.4h2.95l.5.85a4.289,4.289,0,0,1,1.625-.925A7.111,7.111,0,0,1,67.825-12.75Zm-.45,9.975a2.941,2.941,0,0,0,1.262-.275,3.354,3.354,0,0,0,1.025-.738,3.586,3.586,0,0,0,.7-1.087,3.451,3.451,0,0,0,.262-1.35,3.479,3.479,0,0,0-.262-1.338,3.547,3.547,0,0,0-.7-1.1A3.354,3.354,0,0,0,68.637-9.4a2.941,2.941,0,0,0-1.262-.275,4.13,4.13,0,0,0-1.262.188,2.646,2.646,0,0,0-1.025.6A2.814,2.814,0,0,0,64.4-7.812a4.5,4.5,0,0,0-.25,1.588,4.137,4.137,0,0,0,.25,1.512,3.1,3.1,0,0,0,.688,1.075,2.758,2.758,0,0,0,1.025.65A3.684,3.684,0,0,0,67.375-2.775ZM79.175,0h-3.45V-12.4h3.45ZM77.45-14.1a1.835,1.835,0,0,1-1.35-.55A1.835,1.835,0,0,1,75.55-16a1.877,1.877,0,0,1,.55-1.363,1.815,1.815,0,0,1,1.35-.562,1.815,1.815,0,0,1,1.35.562A1.877,1.877,0,0,1,79.35-16a1.835,1.835,0,0,1-.55,1.35A1.835,1.835,0,0,1,77.45-14.1Zm10.425,1.35a5.725,5.725,0,0,1,2.55.563A6.456,6.456,0,0,1,92.4-10.712a6.572,6.572,0,0,1,1.275,2.1,6.825,6.825,0,0,1,.45,2.438,7,7,0,0,1-.2,1.6h-8.85A4.267,4.267,0,0,0,86.5-3.137a3.661,3.661,0,0,0,2,.587,9.039,9.039,0,0,0,1.887-.175,10.656,10.656,0,0,0,1.538-.45l1.15,2.125a7.167,7.167,0,0,1-2.112,1A8.934,8.934,0,0,1,88.425.3a7.3,7.3,0,0,1-2.75-.513A7.227,7.227,0,0,1,83.45-1.6a6.434,6.434,0,0,1-1.5-2.075,6.048,6.048,0,0,1-.55-2.55,6.408,6.408,0,0,1,.5-2.513,6.433,6.433,0,0,1,1.387-2.075,6.827,6.827,0,0,1,2.063-1.412A6.118,6.118,0,0,1,87.875-12.75ZM90.7-7.25A3.509,3.509,0,0,0,89.625-9a2.594,2.594,0,0,0-1.75-.675A2.766,2.766,0,0,0,86.063-9,3.4,3.4,0,0,0,84.95-7.25Z" transform="translate(50.342 30)"/>
    <path id="appypie-2" data-name="appypie" d="M6.82-7.6,13.64.02H10.82L5.44-6.22,3.2-3.98V0H1.12V-14.18H3.2v7.62L4.76-8.22l5.9-5.96H13.4ZM17.02,0H15.08V-9.58h1.54l.4.84a3.977,3.977,0,0,1,1.16-.76,3.626,3.626,0,0,1,1.48-.3,5.068,5.068,0,0,1,1.18.16,3.252,3.252,0,0,1,1.23.6,3.462,3.462,0,0,1,.96,1.22,4.523,4.523,0,0,1,.39,2.02V0H21.58V-5.82a2.593,2.593,0,0,0-.19-1.05,1.865,1.865,0,0,0-.5-.69,1.865,1.865,0,0,0-.7-.37,2.97,2.97,0,0,0-.81-.11,2.635,2.635,0,0,0-.73.12,2.4,2.4,0,0,0-.77.39,2.4,2.4,0,0,0-.61.68,1.907,1.907,0,0,0-.25,1.01ZM30,.24a4.519,4.519,0,0,1-1.87-.39,4.8,4.8,0,0,1-1.52-1.07,5.116,5.116,0,0,1-1.03-1.6,5.083,5.083,0,0,1-.38-1.96,5.083,5.083,0,0,1,.38-1.96,5.116,5.116,0,0,1,1.03-1.6,4.8,4.8,0,0,1,1.52-1.07A4.519,4.519,0,0,1,30-9.8a4.54,4.54,0,0,1,1.86.39,4.763,4.763,0,0,1,1.53,1.07,5.116,5.116,0,0,1,1.03,1.6,5.083,5.083,0,0,1,.38,1.96,5.083,5.083,0,0,1-.38,1.96,5.116,5.116,0,0,1-1.03,1.6A4.763,4.763,0,0,1,31.86-.15,4.54,4.54,0,0,1,30,.24Zm0-8.3a2.427,2.427,0,0,0-1.1.26,3,3,0,0,0-.91.7,3.221,3.221,0,0,0-.61,1.04,3.689,3.689,0,0,0-.22,1.28,3.689,3.689,0,0,0,.22,1.28,3.343,3.343,0,0,0,.61,1.05,2.928,2.928,0,0,0,.91.71,2.427,2.427,0,0,0,1.1.26,2.427,2.427,0,0,0,1.1-.26,2.815,2.815,0,0,0,.9-.71,3.453,3.453,0,0,0,.6-1.05,3.689,3.689,0,0,0,.22-1.28,3.689,3.689,0,0,0-.22-1.28A3.323,3.323,0,0,0,32-7.1a2.879,2.879,0,0,0-.9-.7A2.427,2.427,0,0,0,30-8.06ZM38.74,0,35.52-9.58h2.06l2.24,7.24,2.36-7.24H43.9L46.26-2.4l2.22-7.18h2.06L47.32,0H45.2l-2-5.86-.16-.92-.16.92L40.9,0ZM53.92-14.6V0H51.98V-14.6ZM60.66.24a4.9,4.9,0,0,1-1.95-.39,5.023,5.023,0,0,1-1.59-1.07,4.993,4.993,0,0,1-1.07-1.6,4.97,4.97,0,0,1-.39-1.96,5.2,5.2,0,0,1,.37-1.96,5.162,5.162,0,0,1,1-1.6A4.661,4.661,0,0,1,58.5-9.41a4.222,4.222,0,0,1,1.8-.39,4.729,4.729,0,0,1,1.81.34A3.717,3.717,0,0,1,63.55-8.4a5.107,5.107,0,0,1,.95,1.83,9.109,9.109,0,0,1,.34,2.65H57.72a3.27,3.27,0,0,0,.44.97,3.451,3.451,0,0,0,.71.78,3.1,3.1,0,0,0,.92.51,3.191,3.191,0,0,0,1.07.18,3.526,3.526,0,0,0,1.41-.28,3.518,3.518,0,0,0,1.11-.74l1.2,1.2A5.217,5.217,0,0,1,62.87-.18,5.7,5.7,0,0,1,60.66.24ZM60.3-8.04a2.14,2.14,0,0,0-.87.18,2.778,2.778,0,0,0-.76.5,3.085,3.085,0,0,0-.6.76,3.545,3.545,0,0,0-.37.96h5.06a3.094,3.094,0,0,0-.22-.92,2.4,2.4,0,0,0-.5-.77,2.365,2.365,0,0,0-.75-.52A2.428,2.428,0,0,0,60.3-8.04ZM75.88-14.6V0H74.34l-.4-1a4.37,4.37,0,0,1-1.32.91,4.136,4.136,0,0,1-1.7.33,4.316,4.316,0,0,1-1.84-.39,4.547,4.547,0,0,1-1.46-1.07,4.97,4.97,0,0,1-.97-1.6,5.465,5.465,0,0,1-.35-1.96,5.465,5.465,0,0,1,.35-1.96,4.97,4.97,0,0,1,.97-1.6,4.547,4.547,0,0,1,1.46-1.07,4.316,4.316,0,0,1,1.84-.39,4.242,4.242,0,0,1,1.74.33,3.767,3.767,0,0,1,1.28.93V-14.6ZM71.08-1.48a3.014,3.014,0,0,0,1.11-.2,2.481,2.481,0,0,0,.9-.61,2.856,2.856,0,0,0,.61-1.03,4.369,4.369,0,0,0,.22-1.46A4.578,4.578,0,0,0,73.7-6.3a2.66,2.66,0,0,0-.61-1.01,2.277,2.277,0,0,0-.9-.56,3.491,3.491,0,0,0-1.11-.17,2.507,2.507,0,0,0-1.1.25,2.755,2.755,0,0,0-.9.69,3.324,3.324,0,0,0-.6,1.04,3.689,3.689,0,0,0-.22,1.28,3.689,3.689,0,0,0,.22,1.28,3.453,3.453,0,0,0,.6,1.05,2.815,2.815,0,0,0,.9.71A2.427,2.427,0,0,0,71.08-1.48Zm11.58,1a4.514,4.514,0,0,1-1.84-.37,4.505,4.505,0,0,1-1.46-1.02,4.8,4.8,0,0,1-.97-1.5,4.707,4.707,0,0,1-.35-1.81,4.633,4.633,0,0,1,.35-1.8,4.59,4.59,0,0,1,.97-1.47,4.528,4.528,0,0,1,1.46-.99,4.622,4.622,0,0,1,1.84-.36,4.614,4.614,0,0,1,1.74.3,3.882,3.882,0,0,1,1.3.86l.4-.94h1.52v2.56q0,.84.01,2.1t.01,3.06q0,.6-.04,1.17a6.528,6.528,0,0,1-.17,1.1,4.7,4.7,0,0,1-.38,1.02,4.34,4.34,0,0,1-.67.95,4.01,4.01,0,0,1-1.81,1.13,7.682,7.682,0,0,1-2.13.29,6.633,6.633,0,0,1-1.81-.24,6.472,6.472,0,0,1-1.53-.64V.76a2.782,2.782,0,0,0,1.25.94,4.908,4.908,0,0,0,1.93.36,4.552,4.552,0,0,0,1.34-.19,3.013,3.013,0,0,0,1.08-.58A2.723,2.723,0,0,0,85.43.28,3.691,3.691,0,0,0,85.7-1.2v-.38a3.275,3.275,0,0,1-.59.42,4.971,4.971,0,0,1-.76.35,5.927,5.927,0,0,1-.85.24A4.194,4.194,0,0,1,82.66-.48Zm.18-7.56a2.794,2.794,0,0,0-1.1.22,2.836,2.836,0,0,0-.91.61,2.836,2.836,0,0,0-.61.91A2.845,2.845,0,0,0,80-5.18a2.918,2.918,0,0,0,.22,1.13,2.808,2.808,0,0,0,.61.92,2.977,2.977,0,0,0,.91.62,2.689,2.689,0,0,0,1.1.23,3.339,3.339,0,0,0,1.1-.18,2.461,2.461,0,0,0,.9-.54,2.538,2.538,0,0,0,.6-.9,3.383,3.383,0,0,0,.22-1.28,3.583,3.583,0,0,0-.22-1.33,2.331,2.331,0,0,0-.6-.89,2.274,2.274,0,0,0-.9-.49A3.95,3.95,0,0,0,82.84-8.04ZM94.66.24a4.9,4.9,0,0,1-1.95-.39,5.023,5.023,0,0,1-1.59-1.07,4.993,4.993,0,0,1-1.07-1.6,4.97,4.97,0,0,1-.39-1.96,5.2,5.2,0,0,1,.37-1.96,5.162,5.162,0,0,1,1-1.6A4.661,4.661,0,0,1,92.5-9.41a4.222,4.222,0,0,1,1.8-.39,4.729,4.729,0,0,1,1.81.34A3.717,3.717,0,0,1,97.55-8.4a5.107,5.107,0,0,1,.95,1.83,9.109,9.109,0,0,1,.34,2.65H91.72a3.27,3.27,0,0,0,.44.97,3.451,3.451,0,0,0,.71.78,3.1,3.1,0,0,0,.92.51,3.191,3.191,0,0,0,1.07.18,3.526,3.526,0,0,0,1.41-.28,3.518,3.518,0,0,0,1.11-.74l1.2,1.2A5.217,5.217,0,0,1,96.87-.18,5.7,5.7,0,0,1,94.66.24ZM94.3-8.04a2.14,2.14,0,0,0-.87.18,2.778,2.778,0,0,0-.76.5,3.085,3.085,0,0,0-.6.76,3.545,3.545,0,0,0-.37.96h5.06a3.094,3.094,0,0,0-.22-.92,2.4,2.4,0,0,0-.5-.77,2.365,2.365,0,0,0-.75-.52A2.428,2.428,0,0,0,94.3-8.04Zm21.68,4.08a3.852,3.852,0,0,1-.31,1.54,4,4,0,0,1-.85,1.26,3.971,3.971,0,0,1-1.27.85A3.924,3.924,0,0,1,112,0h-6.06V-14.18h5.54a3.356,3.356,0,0,1,1.36.28,3.619,3.619,0,0,1,1.12.76,3.587,3.587,0,0,1,.76,1.13,3.476,3.476,0,0,1,.28,1.39,4.46,4.46,0,0,1-.3,1.67,2.97,2.97,0,0,1-.98,1.27,3.094,3.094,0,0,1,1.7,1.43A4.642,4.642,0,0,1,115.98-3.96Zm-7.96-4.48q.8.02,1.48.02h2a1.665,1.665,0,0,0,1.28-.57,1.962,1.962,0,0,0,.52-1.37,1.952,1.952,0,0,0-.52-1.38,1.678,1.678,0,0,0-1.28-.56h-3.48Zm0,6.5a5.756,5.756,0,0,0,.62.02H112a1.782,1.782,0,0,0,.79-.18,2.117,2.117,0,0,0,.65-.49,2.3,2.3,0,0,0,.44-.73,2.507,2.507,0,0,0,.16-.9,2.427,2.427,0,0,0-.16-.89,2.322,2.322,0,0,0-.44-.72,2.117,2.117,0,0,0-.65-.49A1.782,1.782,0,0,0,112-6.5h-3.98Zm19-7.64V0h-1.64l-.3-1.1a3.16,3.16,0,0,1-1.28,1,3.921,3.921,0,0,1-1.58.34,4.519,4.519,0,0,1-1.87-.39,4.8,4.8,0,0,1-1.52-1.07,5.116,5.116,0,0,1-1.03-1.6,5.083,5.083,0,0,1-.38-1.96,5.083,5.083,0,0,1,.38-1.96,5.116,5.116,0,0,1,1.03-1.6,4.8,4.8,0,0,1,1.52-1.07,4.519,4.519,0,0,1,1.87-.39,3.947,3.947,0,0,1,1.54.31,3.606,3.606,0,0,1,1.32.97l.3-1.06Zm-4.8,8.1a2.427,2.427,0,0,0,1.1-.26,2.815,2.815,0,0,0,.9-.71,3.453,3.453,0,0,0,.6-1.05,3.689,3.689,0,0,0,.22-1.28,3.689,3.689,0,0,0-.22-1.28,3.453,3.453,0,0,0-.6-1.05,2.815,2.815,0,0,0-.9-.71,2.427,2.427,0,0,0-1.1-.26,2.427,2.427,0,0,0-1.1.26,2.815,2.815,0,0,0-.9.71,3.453,3.453,0,0,0-.6,1.05,3.689,3.689,0,0,0-.22,1.28,3.689,3.689,0,0,0,.22,1.28,3.453,3.453,0,0,0,.6,1.05,2.815,2.815,0,0,0,.9.71A2.427,2.427,0,0,0,122.22-1.48ZM133.46-2a2.061,2.061,0,0,0,.32-.36.782.782,0,0,0,.14-.46.718.718,0,0,0-.23-.54,2,2,0,0,0-.56-.37,3.494,3.494,0,0,0-.69-.23q-.36-.08-.6-.14a9.314,9.314,0,0,1-1.24-.39,4.178,4.178,0,0,1-1.01-.56,2.522,2.522,0,0,1-.68-.78,2.17,2.17,0,0,1-.25-1.07,2.23,2.23,0,0,1,.28-1.09,3.108,3.108,0,0,1,.75-.9,3.683,3.683,0,0,1,1.1-.62,3.848,3.848,0,0,1,1.33-.23,3.833,3.833,0,0,1,1.18.18,3.839,3.839,0,0,1,1.01.49,3.01,3.01,0,0,1,.76.75,2.457,2.457,0,0,1,.41.98l-1.74.42a1.454,1.454,0,0,0-.52-.8,1.715,1.715,0,0,0-1.1-.32,1.922,1.922,0,0,0-.5.07,1.722,1.722,0,0,0-.48.21,1.39,1.39,0,0,0-.37.34.746.746,0,0,0-.15.46.717.717,0,0,0,.17.48,1.419,1.419,0,0,0,.41.33,2.571,2.571,0,0,0,.52.21q.28.08.52.14a11.507,11.507,0,0,1,1.76.56,4.355,4.355,0,0,1,1.12.66,2.033,2.033,0,0,1,.59.79,2.62,2.62,0,0,1,.17.97,2.572,2.572,0,0,1-.29,1.2,3.014,3.014,0,0,1-.8.97,3.788,3.788,0,0,1-1.22.64,4.937,4.937,0,0,1-1.53.23,4.064,4.064,0,0,1-2.21-.61,3.016,3.016,0,0,1-1.31-1.63l1.64-.74a1.87,1.87,0,0,0,.82.95,2.515,2.515,0,0,0,1.14.25A2.052,2.052,0,0,0,133.46-2ZM142.14.24a4.9,4.9,0,0,1-1.95-.39,5.023,5.023,0,0,1-1.59-1.07,4.993,4.993,0,0,1-1.07-1.6,4.97,4.97,0,0,1-.39-1.96,5.2,5.2,0,0,1,.37-1.96,5.161,5.161,0,0,1,1-1.6,4.661,4.661,0,0,1,1.47-1.07,4.222,4.222,0,0,1,1.8-.39,4.729,4.729,0,0,1,1.81.34,3.717,3.717,0,0,1,1.44,1.06,5.108,5.108,0,0,1,.95,1.83,9.108,9.108,0,0,1,.34,2.65H139.2a3.27,3.27,0,0,0,.44.97,3.451,3.451,0,0,0,.71.78,3.1,3.1,0,0,0,.92.51,3.191,3.191,0,0,0,1.07.18,3.526,3.526,0,0,0,1.41-.28,3.518,3.518,0,0,0,1.11-.74l1.2,1.2a5.217,5.217,0,0,1-1.71,1.12A5.7,5.7,0,0,1,142.14.24Zm-.36-8.28a2.14,2.14,0,0,0-.87.18,2.778,2.778,0,0,0-.76.5,3.086,3.086,0,0,0-.6.76,3.545,3.545,0,0,0-.37.96h5.06a3.093,3.093,0,0,0-.22-.92,2.4,2.4,0,0,0-.5-.77,2.365,2.365,0,0,0-.75-.52A2.428,2.428,0,0,0,141.78-8.04Z" transform="translate(151.342 29)"/>
    <g id="Group_19" data-name="Group 19" transform="translate(0 0)">
      <g id="Group_18" data-name="Group 18" transform="translate(0.002 7.058)">
        <g id="Path_57" data-name="Path 57" transform="translate(21.182 0) rotate(90)">
          <path id="Path_65" data-name="Path 65" d="M11.192,9.946a1.241,1.241,0,0,1-1.241,1.241h0C3.284,11.368-.138,6.339,0,1.241A1.241,1.241,0,0,1,1.245,0h8.7A1.242,1.242,0,0,1,11.19,1.241h0Z" transform="translate(4.945 4.945)" fill="none"/>
          <path id="Path_66" data-name="Path 66" d="M15.773,15.768a1.235,1.235,0,0,1-.877.364c-6.667.18-10.09-4.849-9.946-9.946A1.24,1.24,0,0,1,6.191,4.945H14.9a1.241,1.241,0,0,1,1.241,1.241v8.705a1.235,1.235,0,0,1-.364.877m3.5,3.5a6.143,6.143,0,0,0,1.812-4.374v-8.7A6.193,6.193,0,0,0,14.9,0h-8.7A6.147,6.147,0,0,0,1.818,1.812,6.5,6.5,0,0,0,.006,6.186a14.664,14.664,0,0,0,4.238,10.73A14.3,14.3,0,0,0,15.03,21.075a6.061,6.061,0,0,0,4.24-1.81Z" transform="translate(0 0)" fill="#21c2fd"/>
        </g>
        <g transform="matrix(1, 0, 0, 1, -19, -22.86)" filter="url(#Path_70)">
          <path id="Path_70-2" data-name="Path 70" d="M16.243,11.944a3.827,3.827,0,0,1,1.882,2.717c.137,1.761-.556,4.114-3.042,4.244-2.481.03-6.133.021-8.74,0C1.811,18.935-.17,15.12.012,11.721A14.342,14.342,0,0,1,5.22,1.19C7.693-.873,12.145-.19,14.909,2.733c0-.014-9.7-.291-9.865,9.771,0,0-.125,1.383,1.6,1.338,2.513-.024,8.785.053,8.832-.119C16.2,13.456,16.253,12.81,16.243,11.944Z" transform="translate(19 25.06)" fill="url(#linear-gradient)"/>
        </g>
      </g>
      <g id="Group_16" data-name="Group 16" transform="translate(0 23.89)">
        <g id="Path_57-2" data-name="Path 57" transform="translate(0 0.045)">
          <path id="Path_65-2" data-name="Path 65" d="M908.632,693.831a1.241,1.241,0,0,1-1.241,1.241h0c-6.667.18-10.089-4.849-9.946-9.946a1.241,1.241,0,0,1,1.241-1.241h8.7a1.242,1.242,0,0,1,1.241,1.241h0Z" transform="translate(-892.493 -678.94)" fill="none"/>
          <path id="Path_66-2" data-name="Path 66" d="M904.211,690.654a1.235,1.235,0,0,1-.877.364c-6.667.18-10.09-4.849-9.946-9.946a1.24,1.24,0,0,1,1.241-1.241h8.705a1.241,1.241,0,0,1,1.241,1.241v8.705a1.235,1.235,0,0,1-.364.877m3.5,3.5a6.143,6.143,0,0,0,1.812-4.374v-8.7a6.193,6.193,0,0,0-6.186-6.186h-8.705a6.147,6.147,0,0,0-4.374,1.812,6.5,6.5,0,0,0-1.811,4.374,14.8,14.8,0,0,0,4.2,10.8,14.324,14.324,0,0,0,10.823,4.086A6.062,6.062,0,0,0,907.708,694.15Z" transform="translate(-888.436 -674.886)" fill="#fec92e"/>
        </g>
        <g transform="matrix(1, 0, 0, 1, -19, -39.69)" filter="url(#Path_68)">
          <path id="Path_68-2" data-name="Path 68" d="M629.769,816.56a3.855,3.855,0,0,0,1.869-2.742c.136-1.777-.567-3.954-3.037-4.086s-6.049-.045-8.639-.023c-4.7-.052-6.49,3.647-6.31,7.077a14.6,14.6,0,0,0,4.939,10.605c2.456,2.082,7.114,1.393,9.858-1.556,0,.014-9.541.363-9.858-9.831,0,0-.065-1.4,1.647-1.359,2.5.025,8.723-.054,8.769.12C629.724,815.035,629.815,815.814,629.769,816.56Z" transform="translate(-594.64 -769.97)" fill="url(#linear-gradient-2)"/>
        </g>
      </g>
      <g id="Group_15" data-name="Group 15" transform="translate(16.289 23.347)">
        <g id="Path_57-3" data-name="Path 57" transform="translate(0 0.045)">
          <path id="Path_65-3" data-name="Path 65" d="M897.439,693.831a1.242,1.242,0,0,0,1.241,1.241h0c6.667.18,10.089-4.849,9.946-9.946a1.241,1.241,0,0,0-1.241-1.241h-8.7a1.242,1.242,0,0,0-1.241,1.241h0Z" transform="translate(-892.495 -678.94)" fill="none"/>
          <path id="Path_66-3" data-name="Path 66" d="M893.751,690.654a1.235,1.235,0,0,0,.877.364c6.667.18,10.09-4.849,9.946-9.946a1.24,1.24,0,0,0-1.241-1.241h-8.706a1.241,1.241,0,0,0-1.241,1.241v8.705a1.236,1.236,0,0,0,.365.877m-3.5,3.5a6.143,6.143,0,0,1-1.812-4.374v-8.7a6.193,6.193,0,0,1,6.186-6.186h8.705a6.147,6.147,0,0,1,4.374,1.812,6.5,6.5,0,0,1,1.811,4.374,14.8,14.8,0,0,1-4.2,10.8,14.323,14.323,0,0,1-10.823,4.086,6.061,6.061,0,0,1-4.241-1.81Z" transform="translate(-888.442 -674.886)" fill="#fc491e"/>
        </g>
        <g transform="matrix(1, 0, 0, 1, -35.29, -39.15)" filter="url(#Path_67)">
          <path id="Path_67-2" data-name="Path 67" d="M615.523,816.56a3.855,3.855,0,0,1-1.869-2.742c-.136-1.777.567-3.954,3.037-4.086s6.049-.045,8.639-.023c4.7-.052,6.49,3.647,6.31,7.077a14.758,14.758,0,0,1-4.963,10.567c-2.456,2.082-7.086,1.452-9.83-1.5,0,.014,9.536.341,9.854-9.852,0,0,.065-1.4-1.647-1.359-2.5.024-8.723-.054-8.769.12C615.569,815.035,615.478,815.814,615.523,816.56Z" transform="translate(-575.28 -770.52)" fill="url(#linear-gradient-3)"/>
        </g>
      </g>
      <g id="Group_14" data-name="Group 14" transform="translate(23.348 0)">
        <g id="Path_57-4" data-name="Path 57" transform="translate(21.081 0) rotate(90)">
          <path id="Path_65-4" data-name="Path 65" d="M11.192,1.244A1.242,1.242,0,0,0,9.951,0h0C3.284-.176-.138,4.853,0,9.951a1.241,1.241,0,0,0,1.24,1.241h8.7A1.242,1.242,0,0,0,11.19,9.952h0Z" transform="translate(4.945 4.945)" fill="none"/>
          <path id="Path_66-4" data-name="Path 66" d="M15.773,5.313A1.235,1.235,0,0,0,14.9,4.95C8.229,4.77,4.807,9.8,4.951,14.9a1.24,1.24,0,0,0,1.241,1.241H14.9A1.241,1.241,0,0,0,16.137,14.9V6.19a1.235,1.235,0,0,0-.364-.877m3.5-3.5a6.143,6.143,0,0,1,1.812,4.374v8.7A6.193,6.193,0,0,1,14.9,21.081H6.192A6.147,6.147,0,0,1,1.818,19.27,6.5,6.5,0,0,1,.006,14.9,14.663,14.663,0,0,1,4.243,4.165,14.3,14.3,0,0,1,15.03.006a6.061,6.061,0,0,1,4.24,1.811Z" transform="translate(0 0)" fill="#25bb21"/>
        </g>
        <g transform="matrix(1, 0, 0, 1, -42.35, -15.8)" filter="url(#Path_69)">
          <path id="Path_69-2" data-name="Path 69" d="M16.243,6.98a3.827,3.827,0,0,0,1.882-2.717C18.262,2.5,17.569.15,15.081.019,12.6-.01,8.948,0,6.342.019,1.811-.011-.17,3.805.011,7.2A14.335,14.335,0,0,0,5.22,17.733c2.474,2.063,6.926,1.38,9.689-1.543,0,.014-9.7.291-9.864-9.771,0,0-.125-1.383,1.6-1.338,2.513.024,8.785-.053,8.832.119C16.2,5.469,16.253,6.115,16.243,6.98Z" transform="translate(63.53 36.92) rotate(180)" fill="url(#linear-gradient-4)"/>
        </g>
      </g>
    </g>
  </g>
</svg>
