<svg id="_005-linkedin-logo" data-name="005-linkedin-logo" xmlns="http://www.w3.org/2000/svg" width="19.988" height="19.1" viewBox="0 0 19.988 19.1">
  <path id="LinkedIn" d="M19.988,21.268v7.39H15.7V21.763c0-1.732-.62-2.914-2.17-2.914a2.344,2.344,0,0,0-2.2,1.567,2.931,2.931,0,0,0-.142,1.045v7.2H6.908s.058-11.677,0-12.887h4.285V17.6c-.009.014-.02.028-.028.042h.028V17.6a4.255,4.255,0,0,1,3.862-2.129C17.874,15.468,19.988,17.309,19.988,21.268ZM2.425,9.558a2.233,2.233,0,1,0-.057,4.454H2.4a2.234,2.234,0,1,0,.028-4.454Zm-2.17,19.1H4.538V15.77H.255Z" transform="translate(0 -9.558)" fill="#d5d5d5"/>
</svg>
