<svg xmlns="http://www.w3.org/2000/svg" width="31.744" height="31.744" viewBox="0 0 31.744 31.744">
  <path id="_005-linkedin" data-name="005-linkedin" d="M28.873,0h-26A2.872,2.872,0,0,0,0,2.872v26a2.872,2.872,0,0,0,2.872,2.872h26a2.872,2.872,0,0,0,2.872-2.872v-26A2.872,2.872,0,0,0,28.873,0ZM9.823,27.41a.836.836,0,0,1-.836.836H5.43a.836.836,0,0,1-.836-.836V12.5a.836.836,0,0,1,.836-.836H8.987a.836.836,0,0,1,.836.836ZM7.209,10.257a3.379,3.379,0,1,1,3.379-3.379A3.379,3.379,0,0,1,7.209,10.257Zm21.2,17.22a.768.768,0,0,1-.768.768H23.827a.768.768,0,0,1-.768-.768V20.483c0-1.043.306-4.572-2.727-4.572-2.352,0-2.83,2.415-2.925,3.5v8.067a.768.768,0,0,1-.768.768H12.947a.768.768,0,0,1-.768-.768V12.431a.768.768,0,0,1,.768-.768h3.692a.768.768,0,0,1,.768.768v1.3c.872-1.309,2.169-2.319,4.929-2.319,6.112,0,6.077,5.71,6.077,8.848v7.217Z" fill="#0077b7"/>
</svg>
