<svg xmlns="http://www.w3.org/2000/svg" width="12.013" height="16.018" viewBox="0 0 12.013 16.018">
  <g id="lock" transform="translate(-64)">
    <g id="Group_1918" data-name="Group 1918" transform="translate(64)">
      <g id="Group_1917" data-name="Group 1917">
        <path id="Path_1932" data-name="Path 1932" d="M75.679,6.007h-1V4.672a4.672,4.672,0,0,0-9.344,0V6.007h-1A.334.334,0,0,0,64,6.34v8.342a1.336,1.336,0,0,0,1.335,1.335h9.344a1.336,1.336,0,0,0,1.335-1.335V6.34A.334.334,0,0,0,75.679,6.007Zm-4.674,6.971a.334.334,0,0,1-.332.371H69.339a.334.334,0,0,1-.332-.371l.211-1.893a1.32,1.32,0,0,1-.546-1.073,1.335,1.335,0,1,1,2.67,0,1.32,1.32,0,0,1-.546,1.073Zm1.67-6.971H67.337V4.672a2.67,2.67,0,0,1,5.339,0Z" transform="translate(-64)" fill="#1c223a"/>
      </g>
    </g>
  </g>
</svg>
