<svg id="_003-pinterest" data-name="003-pinterest" xmlns="http://www.w3.org/2000/svg" width="15.982" height="20.335" viewBox="0 0 15.982 20.335">
  <path id="XMLID_799_" d="M47.091,2.084A7.8,7.8,0,0,0,41.636,0a8.574,8.574,0,0,0-6.323,2.438,7.2,7.2,0,0,0-2.132,4.994c0,2.264.947,4,2.532,4.647a.839.839,0,0,0,.319.066.709.709,0,0,0,.691-.57c.054-.2.178-.7.231-.914a.858.858,0,0,0-.23-.928,2.955,2.955,0,0,1-.672-2.019A5.083,5.083,0,0,1,41.323,2.6c2.716,0,4.4,1.544,4.4,4.029a8.371,8.371,0,0,1-.951,4.089,2.813,2.813,0,0,1-2.327,1.628,1.542,1.542,0,0,1-1.227-.561,1.411,1.411,0,0,1-.247-1.226c.121-.512.286-1.047.446-1.564a9.678,9.678,0,0,0,.567-2.547,1.849,1.849,0,0,0-1.861-2.034c-1.415,0-2.523,1.437-2.523,3.271a4.864,4.864,0,0,0,.347,1.831c-.178.755-1.237,5.244-1.438,6.09-.116.494-.816,4.4.342,4.708,1.3.35,2.464-3.451,2.583-3.881.1-.349.432-1.67.637-2.482A3.934,3.934,0,0,0,42.7,14.963a5.852,5.852,0,0,0,4.7-2.351,9.437,9.437,0,0,0,1.766-5.77A6.654,6.654,0,0,0,47.091,2.084Z" transform="translate(-33.181 0)" fill="#d5d5d5"/>
</svg>
