<svg xmlns="http://www.w3.org/2000/svg" width="22.961" height="19.1" viewBox="0 0 22.961 19.1">
  <path id="_002-twitter" data-name="002-twitter" d="M22.6,36.713a9.092,9.092,0,0,1-1.583.534,4.936,4.936,0,0,0,1.3-2.075h0a.259.259,0,0,0-.379-.3h0a9.135,9.135,0,0,1-2.42,1,.617.617,0,0,1-.151.019.642.642,0,0,1-.424-.162,4.95,4.95,0,0,0-3.275-1.236,5.293,5.293,0,0,0-1.568.242,4.8,4.8,0,0,0-3.232,3.455,5.281,5.281,0,0,0-.117,1.823.177.177,0,0,1-.045.139.184.184,0,0,1-.137.062H10.55a12.98,12.98,0,0,1-8.921-4.766h0a.259.259,0,0,0-.424.033h0A4.956,4.956,0,0,0,2.01,41.5a4.436,4.436,0,0,1-1.129-.437h0a.259.259,0,0,0-.384.223h0a4.956,4.956,0,0,0,2.891,4.566H3.282a4.454,4.454,0,0,1-.834-.08h0a.259.259,0,0,0-.3.333h0a4.961,4.961,0,0,0,3.919,3.374A9.135,9.135,0,0,1,.955,51.031H.383a.379.379,0,0,0-.371.286A.392.392,0,0,0,.2,51.75a13.587,13.587,0,0,0,6.827,1.841,13.773,13.773,0,0,0,5.834-1.238,12.884,12.884,0,0,0,4.269-3.2,14.025,14.025,0,0,0,2.614-4.378,13.83,13.83,0,0,0,.888-4.791v-.075a.842.842,0,0,1,.315-.656,9.784,9.784,0,0,0,1.968-2.16h0a.259.259,0,0,0-.32-.38Z" transform="translate(0 -34.491)" fill="#d5d5d5"/>
</svg>
