<svg xmlns="http://www.w3.org/2000/svg" width="17.633" height="18" viewBox="0 0 17.633 18">
  <g id="Group_1126" data-name="Group 1126" transform="translate(-0.5)">
    <rect id="Rectangle_821" data-name="Rectangle 821" width="2" height="4" transform="translate(10.5 2)" fill="#a2abd1"/>
    <path id="Path_1545" data-name="Path 1545" d="M14.979,0H.5V18H18.133V3.154ZM4.173.735h9.551V6.612H4.173ZM14.827,17.265H3.439V9.551H14.827Z" fill="#a2abd1"/>
    <path id="Path_1546" data-name="Path 1546" d="M12.867,30.735h2.571a.367.367,0,0,0,0-.735H12.867a.367.367,0,1,0,0,.735Z" transform="translate(-7.592 -18.98)" fill="#a2abd1"/>
    <path id="Path_1547" data-name="Path 1547" d="M12.867,34.735h3.673a.367.367,0,0,0,0-.735H12.867a.367.367,0,0,0,0,.735Z" transform="translate(-7.592 -21.51)" fill="#a2abd1"/>
    <path id="Path_1548" data-name="Path 1548" d="M25.867,34.743a.379.379,0,0,0,.261-.107.373.373,0,0,0,0-.522.38.38,0,0,0-.518,0,.366.366,0,0,0-.11.261.364.364,0,0,0,.367.367Z" transform="translate(-15.816 -21.518)" fill="#a2abd1"/>
  </g>
</svg>
