<svg xmlns="http://www.w3.org/2000/svg" width="114.228" height="25.244" viewBox="0 0 114.228 25.244">
  <g id="capterra" transform="translate(0)">
    <path id="Path_65" data-name="Path 65" d="M8.905,52.29l10.469,0H25.74V45.987Z" transform="translate(-8.905 -43.009)" fill="#ff9d28"/>
    <path id="Path_66" data-name="Path 66" d="M226.285,10.512V32.778l7.951-25.244Z" transform="translate(-209.45 -7.534)" fill="#68c5ed"/>
    <path id="Path_67" data-name="Path 67" d="M150.452,127.408h-6.366l6.366,15.96Z" transform="translate(-133.617 -118.123)" fill="#044d80"/>
    <path id="Path_68" data-name="Path 68" d="M8.905,127.38l12.1,4.1-1.632-4.1Z" transform="translate(-8.905 -118.099)" fill="#e54747"/>
    <g id="Group_45" data-name="Group 45" transform="translate(27.082 4.509)">
      <path id="Path_69" data-name="Path 69" d="M370.088,80.633a2.934,2.934,0,0,1-.461.346,5.055,5.055,0,0,1-.842.415,7.382,7.382,0,0,1-1.268.357,8.842,8.842,0,0,1-1.718.15,7.965,7.965,0,0,1-3.228-.6,6.011,6.011,0,0,1-2.248-1.672,6.849,6.849,0,0,1-1.3-2.537,11.766,11.766,0,0,1-.415-3.217,11.151,11.151,0,0,1,.45-3.24,7.268,7.268,0,0,1,1.349-2.571,6.2,6.2,0,0,1,2.248-1.695,7.63,7.63,0,0,1,3.171-.611,7.526,7.526,0,0,1,1.626.161,8.109,8.109,0,0,1,1.268.38,4.891,4.891,0,0,1,.9.461,5.943,5.943,0,0,1,.542.4,1.835,1.835,0,0,1,.357.438,1.07,1.07,0,0,1,.15.553,1.533,1.533,0,0,1-.346.922,6.663,6.663,0,0,1-.761.853q-.277-.277-.622-.565a4.212,4.212,0,0,0-.773-.507,5.121,5.121,0,0,0-.969-.369,4.542,4.542,0,0,0-1.211-.15,3.621,3.621,0,0,0-3.251,1.706,5.231,5.231,0,0,0-.692,1.741,9.607,9.607,0,0,0-.208,1.995,10.108,10.108,0,0,0,.208,2.075,4.948,4.948,0,0,0,.715,1.752,3.818,3.818,0,0,0,1.326,1.222,4.106,4.106,0,0,0,2.041.461,4.147,4.147,0,0,0,1.188-.161,4.763,4.763,0,0,0,.957-.392,4.919,4.919,0,0,0,.726-.484q.311-.254.519-.438.139.162.323.392a5.552,5.552,0,0,1,.346.484,4.208,4.208,0,0,1,.277.507,1.131,1.131,0,0,1,.115.461,1.032,1.032,0,0,1-.115.507A2.2,2.2,0,0,1,370.088,80.633Zm11.883-1.769a5.107,5.107,0,0,0,.534,2.668,4.565,4.565,0,0,1-.777.232,3.958,3.958,0,0,1-.754.07,2.074,2.074,0,0,1-1.264-.325,1.456,1.456,0,0,1-.545-.928,4.185,4.185,0,0,1-1.345.905,5.026,5.026,0,0,1-2.042.371,4.69,4.69,0,0,1-1.253-.173,3.293,3.293,0,0,1-1.137-.566,2.939,2.939,0,0,1-.835-1.052,3.607,3.607,0,0,1-.325-1.607,3.062,3.062,0,0,1,.568-1.919,4.047,4.047,0,0,1,1.427-1.168,6.461,6.461,0,0,1,1.856-.589,17.652,17.652,0,0,1,1.833-.208q.279-.023.545-.023h.5v-.422a1.522,1.522,0,0,0-.476-1.267,2.507,2.507,0,0,0-1.543-.376,4.57,4.57,0,0,0-1.775.325,14.51,14.51,0,0,0-1.519.742,3.4,3.4,0,0,1-.522-.87,2.1,2.1,0,0,1-.2-.708.838.838,0,0,1,.36-.626,3.53,3.53,0,0,1,.986-.545,8.037,8.037,0,0,1,1.438-.394,9.4,9.4,0,0,1,1.717-.151,7.633,7.633,0,0,1,2.123.255,3.319,3.319,0,0,1,1.415.789,3,3,0,0,1,.777,1.334,6.749,6.749,0,0,1,.232,1.867v4.361ZM379,76.174h-.325a2.319,2.319,0,0,0-.325.023q-.58.047-1.148.139a3.294,3.294,0,0,0-1.009.325,2.116,2.116,0,0,0-.719.6,1.543,1.543,0,0,0-.278.951,1.68,1.68,0,0,0,.371,1.1,1.535,1.535,0,0,0,1.253.452,2.933,2.933,0,0,0,.835-.116,2.853,2.853,0,0,0,.7-.3,1.8,1.8,0,0,0,.476-.406A.677.677,0,0,0,379,78.54V76.174Zm8.745-4.57a4.33,4.33,0,0,1,1.156-.893,3.945,3.945,0,0,1,1.989-.452,4.617,4.617,0,0,1,1.631.29,3.573,3.573,0,0,1,1.376.94,4.692,4.692,0,0,1,.96,1.717,8.312,8.312,0,0,1,.359,2.621,9.032,9.032,0,0,1-.416,2.981,5.1,5.1,0,0,1-1.075,1.856,3.7,3.7,0,0,1-1.468.963,4.953,4.953,0,0,1-1.619.278,4.042,4.042,0,0,1-1.168-.151,4.674,4.674,0,0,1-.844-.336,2.241,2.241,0,0,1-.532-.371,2.2,2.2,0,0,1-.231-.255v5.7h-3.155V70.583q.116-.023.281-.046.141-.023.327-.035t.444-.012a3.037,3.037,0,0,1,1.309.255A1.2,1.2,0,0,1,387.748,71.6Zm4.176,4.292a6.922,6.922,0,0,0-.115-1.3,3.155,3.155,0,0,0-.381-1.044,1.851,1.851,0,0,0-.715-.684,2.275,2.275,0,0,0-1.1-.243,1.922,1.922,0,0,0-1.349.371,1.119,1.119,0,0,0-.38.812v4.918a2.951,2.951,0,0,0,.657.441,2.27,2.27,0,0,0,1.1.255,1.87,1.87,0,0,0,1.73-.928A5.09,5.09,0,0,0,391.923,75.9Zm5.729,3.99a4.033,4.033,0,0,1-.209-.974q-.047-.51-.046-1.021V67.126l.348-.046q.162-.023.348-.035t.371-.012a4.029,4.029,0,0,1,.742.07,1.734,1.734,0,0,1,.673.278,1.533,1.533,0,0,1,.487.568,2.054,2.054,0,0,1,.186.939v1.647H403.8V72.88h-3.248v4.947q0,1.618,1.322,1.618a1.8,1.8,0,0,0,.615-.1,3.655,3.655,0,0,0,.522-.232,2.845,2.845,0,0,0,.406-.267q.174-.139.243-.209a7.811,7.811,0,0,1,.534.884,1.584,1.584,0,0,1,.186.7.928.928,0,0,1-.244.6,2.4,2.4,0,0,1-.684.539,4.257,4.257,0,0,1-1.067.4,5.788,5.788,0,0,1-1.369.152,3.879,3.879,0,0,1-2.239-.557A2.96,2.96,0,0,1,397.653,79.886Zm14.138-.3a3.7,3.7,0,0,0,1.024-.128,4.094,4.094,0,0,0,.791-.313,3.3,3.3,0,0,0,.605-.406q.256-.22.466-.406a6.455,6.455,0,0,1,.582.893,1.978,1.978,0,0,1,.3.893,1.164,1.164,0,0,1-.58.928,4.341,4.341,0,0,1-1.38.638,7.375,7.375,0,0,1-2.1.267,8.374,8.374,0,0,1-2.146-.278,4.746,4.746,0,0,1-1.879-.974,5.008,5.008,0,0,1-1.334-1.867,7.437,7.437,0,0,1-.51-2.958,6.368,6.368,0,0,1,.452-2.517,5.05,5.05,0,0,1,1.207-1.751,4.755,4.755,0,0,1,1.7-1.021,6,6,0,0,1,1.949-.325,5.372,5.372,0,0,1,2.2.406,4.015,4.015,0,0,1,1.473,1.09,4.3,4.3,0,0,1,.823,1.566,6.655,6.655,0,0,1,.255,1.856V75.5c0,.124,0,.255-.012.394s-.016.275-.023.406a2.515,2.515,0,0,1-.035.313h-6.844a3.663,3.663,0,0,0,.791,2.123A2.7,2.7,0,0,0,411.791,79.584Zm1.057-4.709a3.392,3.392,0,0,0-.432-1.809,1.678,1.678,0,0,0-1.551-.7,1.919,1.919,0,0,0-1.528.661,2.729,2.729,0,0,0-.571,1.844h4.083Zm8.344-3.212a4.01,4.01,0,0,1,.371-.46,2.634,2.634,0,0,1,.568-.46,3.641,3.641,0,0,1,.742-.345,2.68,2.68,0,0,1,.87-.138,4.108,4.108,0,0,1,.591.046,2.048,2.048,0,0,1,.58.173,1.125,1.125,0,0,1,.429.345.883.883,0,0,1,.162.54,3.271,3.271,0,0,1-.255,1.162,9.479,9.479,0,0,1-.51,1.12,3.437,3.437,0,0,0-.789-.5,2.286,2.286,0,0,0-.928-.174,1.786,1.786,0,0,0-1.206.419,1.277,1.277,0,0,0-.487,1V81.9h-3.155V70.583q.116-.023.278-.046.139-.023.325-.035t.441-.012a2.726,2.726,0,0,1,1.287.287A1.288,1.288,0,0,1,421.191,71.662Zm8.97,0a4.025,4.025,0,0,1,.371-.46,2.634,2.634,0,0,1,.568-.46,3.642,3.642,0,0,1,.742-.345,2.681,2.681,0,0,1,.87-.138,4.113,4.113,0,0,1,.592.046,2.051,2.051,0,0,1,.58.173,1.128,1.128,0,0,1,.429.345.883.883,0,0,1,.162.54,3.272,3.272,0,0,1-.255,1.162,9.518,9.518,0,0,1-.51,1.12,3.435,3.435,0,0,0-.789-.5,2.286,2.286,0,0,0-.928-.174,1.786,1.786,0,0,0-1.206.419,1.278,1.278,0,0,0-.487,1V81.9h-3.155V70.583q.116-.023.278-.046.139-.023.325-.035t.441-.012a2.725,2.725,0,0,1,1.287.287A1.289,1.289,0,0,1,430.161,71.662Zm15.056,7.2a5.109,5.109,0,0,0,.534,2.668,4.569,4.569,0,0,1-.777.232,3.957,3.957,0,0,1-.754.07,2.074,2.074,0,0,1-1.264-.325,1.456,1.456,0,0,1-.545-.928,4.181,4.181,0,0,1-1.345.905,5.024,5.024,0,0,1-2.041.371,4.692,4.692,0,0,1-1.253-.173,3.291,3.291,0,0,1-1.137-.566,2.94,2.94,0,0,1-.835-1.052,3.609,3.609,0,0,1-.325-1.607,3.06,3.06,0,0,1,.568-1.919,4.044,4.044,0,0,1,1.427-1.168,6.458,6.458,0,0,1,1.856-.589,17.639,17.639,0,0,1,1.832-.208q.279-.023.545-.023h.5v-.422a1.522,1.522,0,0,0-.476-1.267,2.507,2.507,0,0,0-1.543-.376,4.57,4.57,0,0,0-1.775.325,14.517,14.517,0,0,0-1.519.742,3.406,3.406,0,0,1-.522-.87,2.1,2.1,0,0,1-.2-.708.838.838,0,0,1,.36-.626,3.529,3.529,0,0,1,.986-.545,8.04,8.04,0,0,1,1.438-.394,9.4,9.4,0,0,1,1.717-.151,7.634,7.634,0,0,1,2.123.255,3.319,3.319,0,0,1,1.415.789,3,3,0,0,1,.777,1.334,6.749,6.749,0,0,1,.232,1.867Zm-2.969-2.691h-.325a2.318,2.318,0,0,0-.325.023q-.58.047-1.148.139a3.294,3.294,0,0,0-1.009.325,2.116,2.116,0,0,0-.719.6,1.544,1.544,0,0,0-.278.951,1.68,1.68,0,0,0,.371,1.1,1.535,1.535,0,0,0,1.253.452,2.932,2.932,0,0,0,.835-.116,2.852,2.852,0,0,0,.7-.3,1.8,1.8,0,0,0,.476-.406.676.676,0,0,0,.174-.406V76.174Z" transform="translate(-358.605 -65.76)" fill="#044d80"/>
    </g>
  </g>
</svg>
