<svg xmlns="http://www.w3.org/2000/svg" width="89.847" height="25.244" viewBox="0 0 89.847 25.244">
  <g id="g2-crowd-white1" transform="translate(0 0)">
    <g id="Group_2" data-name="Group 2" transform="translate(0)">
      <g id="Group_1" data-name="Group 1" transform="translate(14.831)">
        <path id="Path_1" data-name="Path 1" d="M20.785,5.637a2.372,2.372,0,0,0,.645-1.474,1.461,1.461,0,0,0-1.566-1.382,1.676,1.676,0,0,0-1.658,1.382L17.1,3.795a2.8,2.8,0,0,1,2.856-2.4,2.717,2.717,0,0,1,2.856,2.671,3.3,3.3,0,0,1-1.013,2.3c-1.2,1.382-1.2,1.382-2.487,2.856h3.408v1.2H17.1V9.874Z" transform="translate(-17.1 -1.396)" fill="#446373"/>
      </g>
      <path id="Path_2" data-name="Path 2" d="M15.923,16.715V12.2H25.78a13.744,13.744,0,0,1,.184,1.934A12.482,12.482,0,1,1,13.436,1.7V6.122a8.014,8.014,0,1,0,0,16.028,8.182,8.182,0,0,0,7.646-5.435" transform="translate(-1 -1.42)" fill="#446373"/>
    </g>
    <g id="Group_3" data-name="Group 3" transform="translate(34.069 5.145)">
      <path id="Path_3" data-name="Path 3" d="M38,14c0-3.316.184-4.606.737-5.435A4.422,4.422,0,0,1,42.512,7a4.615,4.615,0,0,1,3.408,1.2,3.465,3.465,0,0,1,.737,2.579V11.6H43.894c0-1.382-.092-1.658-.276-1.934a1.267,1.267,0,0,0-1.2-.553,1.322,1.322,0,0,0-1.2.645c-.276.553-.368,1.566-.368,4.33a16.912,16.912,0,0,0,.276,4.053,1.234,1.234,0,0,0,1.2.737c1.105,0,1.382-.553,1.474-2.579h2.764c0,1.75-.092,2.487-.461,3.132C45.552,20.448,44.263,21,42.328,21c-2.211,0-3.593-.829-4.053-2.487A23.481,23.481,0,0,1,38,14Z" transform="translate(-37.984 -6.982)" fill="#446373"/>
      <path id="Path_4" data-name="Path 4" d="M49.092,7.2h4.33c2.027,0,2.487.092,3.132.645a3.244,3.244,0,0,1,.921,2.671A3.821,3.821,0,0,1,56.83,13a2.646,2.646,0,0,1-1.75.921c1.842.184,2.4,1.105,2.487,3.316a19.64,19.64,0,0,0,.092,2.027,5.435,5.435,0,0,0,.184,1.29H54.9a17.227,17.227,0,0,1-.092-2.579c0-1.566-.092-2.4-.461-2.764-.184-.276-.461-.276-1.2-.276H51.764v5.619H49Zm3.869,5.9c1.29,0,1.75-.553,1.75-1.934A2.119,2.119,0,0,0,54.159,9.5a1.6,1.6,0,0,0-1.105-.276h-1.2V13Z" transform="translate(-38.852 -6.999)" fill="#446373"/>
      <path id="Path_5" data-name="Path 5" d="M60.2,13.909c0-3.132.092-4.237.645-5.159A4.243,4.243,0,0,1,64.714,7c2.119,0,3.5.737,4.053,2.211a16.263,16.263,0,0,1,.368,4.7c0,2.856-.092,4.145-.553,4.882-.645,1.29-2.027,1.934-3.961,1.934s-3.224-.553-3.869-1.75C60.292,18.146,60.2,17.041,60.2,13.909Zm4.514,4.882a1.341,1.341,0,0,0,1.474-1.2,35.139,35.139,0,0,0,.184-4.145A13.7,13.7,0,0,0,66.1,9.764a1.42,1.42,0,0,0-1.382-.737,1.459,1.459,0,0,0-1.474.921A30.873,30.873,0,0,0,63.056,14a24.752,24.752,0,0,0,.184,3.5,1.305,1.305,0,0,0,1.474,1.29Z" transform="translate(-39.735 -6.983)" fill="#446373"/>
      <path id="Path_6" data-name="Path 6" d="M71,7.2h2.764l.921,4.882c.276,1.75.368,3.408.553,6.448.553-4.145.737-5.251,1.013-6.448L77.356,7.2h3.132L81.5,12.082a42.917,42.917,0,0,1,.737,6.448,56.225,56.225,0,0,1,.829-6.448L83.9,7.2h2.487L83.712,20.649h-3.04l-1.382-6.264c-.184-1.105-.461-3.593-.553-4.974-.368,3.04-.461,3.408-.737,4.974l-1.29,6.264H73.579Z" transform="translate(-40.587 -6.999)" fill="#446373"/>
      <path id="Path_7" data-name="Path 7" d="M88.9,7.2h3.777c2.211,0,2.856.092,3.5.645.829.645,1.29,1.75,1.474,3.869.092.829.092,1.934.092,2.856a11.18,11.18,0,0,1-.553,4.422,3.7,3.7,0,0,1-3.5,1.75h-4.7Zm3.961,11.33c.921,0,1.474-.184,1.658-.737a11.554,11.554,0,0,0,.276-3.5,17.906,17.906,0,0,0-.276-4.145c-.184-.553-.737-.829-1.566-.829h-1.2V18.53Z" transform="translate(-41.998 -6.999)" fill="#446373"/>
    </g>
    <rect id="Rectangle_1" data-name="Rectangle 1" width="0.921" height="24.78" transform="translate(29.201 0.096)" fill="#446373"/>
  </g>
</svg>
