<svg xmlns="http://www.w3.org/2000/svg" width="89.451" height="25.244" viewBox="0 0 89.451 25.244">
  <g id="getapp" transform="translate(0)">
    <path id="Path_70" data-name="Path 70" d="M94.267,94.664c-2.017,0-3.025-.576-3.025-1.981s1.008-2.017,3.025-2.017h3.169c2.089,0,2.989.792,2.989,2.863,0,5.258-3.421,9.039-8.8,9.039-5.222,0-9.021-4-9.021-9.993,0-6.122,3.745-9.975,9.525-9.975,4.2,0,6.95,2.071,6.95,3.925a1.97,1.97,0,0,1-1.837,2.017c-1.278,0-2.647-1.837-5.258-1.837-2.9,0-4.753,2.143-4.753,5.78,0,3.709,1.909,5.96,4.717,5.96a3.614,3.614,0,0,0,3.817-3.8l-1.494.018Zm14.008,4.087c2.089,0,3.439-1.35,4.393-1.35a1.565,1.565,0,0,1,1.674,1.62c0,1.639-2.647,3.493-6.284,3.493a7.144,7.144,0,0,1-7.238-7.4c0-4.267,3.025-7.472,7.022-7.472a6.767,6.767,0,0,1,6.806,6.914c0,1.44-.666,1.693-2.071,1.693h-7.472A2.845,2.845,0,0,0,108.276,98.751Zm2.3-5.222a2.656,2.656,0,0,0-2.7-2.485,2.837,2.837,0,0,0-2.809,2.485Zm5.8-1.458c-1.476,0-2.359-.72-2.359-1.8,0-1.134.846-1.783,2.521-1.855V86.579c0-2.035.666-3.043,2.089-3.043s2.071,1.008,2.071,3.043v1.837h.378c1.674,0,2.629.72,2.629,1.855s-.882,1.8-2.647,1.8h-.342v7.4c0,2.035-.63,3.043-2.071,3.043s-2.089-1.008-2.089-3.043v-7.4Zm9.4,8.517c-.432,1.278-1.134,1.909-2.071,1.909a1.954,1.954,0,0,1-2.035-1.873v-.162a2.921,2.921,0,0,1,.216-1.242l4.9-13.306c.684-1.891,1.692-2.791,3.295-2.791a3.305,3.305,0,0,1,3.151,2.485L138,99.147a4.312,4.312,0,0,1,.288,1.35,1.987,1.987,0,0,1-2.125,2.017c-1.116,0-1.837-.684-2.251-2.089l-.54-1.746h-6.968Zm6.356-5.87-2.161-7-2.341,7Zm8.553,13.126c-1.44,0-2.089-1.008-2.089-3.043V90.756c0-2.035.666-3.025,2.089-3.025a2.212,2.212,0,0,1,1.981,1.332,4.465,4.465,0,0,1,3.439-1.44c3.493,0,6.356,3.043,6.356,7.346,0,4.213-2.917,7.508-6.41,7.508a4.862,4.862,0,0,1-3.3-1.224V104.8C142.792,106.835,142.126,107.844,140.685,107.844Zm4.789-9.273c1.584,0,2.755-1.386,2.755-3.547,0-2.125-1.224-3.493-2.755-3.493s-2.755,1.332-2.755,3.493,1.152,3.547,2.755,3.547Zm9.723,9.273c-1.44,0-2.089-1.008-2.089-3.043V90.756c0-2.035.666-3.025,2.089-3.025a2.212,2.212,0,0,1,1.981,1.332,4.465,4.465,0,0,1,3.439-1.44c3.493,0,6.356,3.043,6.356,7.346,0,4.213-2.917,7.508-6.41,7.508a4.862,4.862,0,0,1-3.3-1.224V104.8c.018,2.035-.63,3.043-2.071,3.043Zm4.771-9.273c1.584,0,2.755-1.386,2.755-3.547,0-2.125-1.224-3.493-2.755-3.493s-2.755,1.332-2.755,3.493S158.385,98.571,159.969,98.571Z" transform="translate(-82.6 -82.6)" fill="#689f38"/>
    <g id="Group_46" data-name="Group 46" transform="translate(84.445 2.773)">
      <path id="Path_71" data-name="Path 71" d="M554.1,98a2.5,2.5,0,1,1-2.5,2.5A2.5,2.5,0,0,1,554.1,98Zm0,4.393a1.891,1.891,0,1,0-1.891-1.891h0a1.89,1.89,0,0,0,1.891,1.891Zm-.4-.828a.28.28,0,0,1-.216.324h-.09c-.234,0-.306-.108-.306-.324V99.476c0-.162.054-.288.306-.288h.774c.558,0,1.008.162,1.008.792a.673.673,0,0,1-.684.756l.486.792a.342.342,0,0,1,.036.144c0,.144-.09.234-.324.234s-.288-.162-.378-.324l-.432-.792h-.2l.018.774Zm.522-1.278c.216,0,.36-.054.36-.306s-.144-.306-.36-.306h-.5v.612Z" transform="translate(-551.6 -98)" fill="#689f38"/>
    </g>
  </g>
</svg>
