<svg xmlns="http://www.w3.org/2000/svg" xmlns:xlink="http://www.w3.org/1999/xlink" width="24.67" height="25.244" viewBox="0 0 24.67 25.244">
  <defs>
    <clipPath id="clip-path">
      <rect id="Rectangle_29" data-name="Rectangle 29" width="24.67" height="25.244" transform="translate(0)" fill="none"/>
    </clipPath>
    <linearGradient id="linear-gradient" x1="-2.172" y1="-0.443" x2="0.872" y2="0.878" gradientUnits="objectBoundingBox">
      <stop offset="0" stop-color="#231f20"/>
      <stop offset="1" stop-opacity="0"/>
    </linearGradient>
    <linearGradient id="linear-gradient-2" x1="-2.205" y1="-0.418" x2="0.878" y2="0.865" xlink:href="#linear-gradient"/>
    <linearGradient id="linear-gradient-3" x1="-0.21" y1="-2.065" x2="0.82" y2="0.932" xlink:href="#linear-gradient"/>
    <linearGradient id="linear-gradient-4" x1="-0.123" y1="-1.729" x2="0.71" y2="0.583" xlink:href="#linear-gradient"/>
  </defs>
  <g id="gsuite-marketplace-logo" clip-path="url(#clip-path)">
    <path id="Path_72" data-name="Path 72" d="M-7.007-7.007H-32V-32H-7.007Z" transform="translate(31.925 32)" fill="#231f20" opacity="0"/>
    <g id="Group_48" data-name="Group 48" transform="translate(-0.075 0.075)">
      <path id="Path_73" data-name="Path 73" d="M-23.756-23.594v-8.215h-6.172a2,2,0,0,0-1.992,1.992v6.222Z" transform="translate(31.952 31.809)" fill="#0288d1"/>
      <path id="Path_74" data-name="Path 74" d="M-31.92,17.185a2,2,0,0,0,1.992,1.992h6.172V10.961H-31.92Z" transform="translate(31.952 5.741)" fill="#9ccc65"/>
      <path id="Path_75" data-name="Path 75" d="M10.692,10.96v8.216h6.266a2,2,0,0,0,1.992-1.992V10.96H10.692Z" transform="translate(5.98 5.742)" fill="#fb8c00"/>
      <path id="Path_76" data-name="Path 76" d="M16.976-31.809H10.722v8.215h8.246v-6.222A2,2,0,0,0,16.976-31.809Z" transform="translate(5.962 31.809)" fill="#9ccc65"/>
      <path id="Path_77" data-name="Path 77" d="M-2.5-2.284h-8.485v-8.485H-2.5Z" transform="translate(19.192 18.985)" fill="#fff"/>
      <path id="Path_78" data-name="Path 78" d="M-2.536,19.176h-8.476V10.96h8.476Z" transform="translate(19.208 5.742)" fill="#ffea00"/>
      <path id="Path_79" data-name="Path 79" d="M-2.517-23.594h-8.5v-8.215h8.5Z" transform="translate(19.21 31.809)" fill="#26c6da"/>
      <path id="Path_80" data-name="Path 80" d="M-23.756-2.284H-31.92v-8.485h8.164Z" transform="translate(31.952 18.985)" fill="#00acc1"/>
      <path id="Path_81" data-name="Path 81" d="M18.95-2.308H10.692L10.7-10.8l8.245-.013Z" transform="translate(5.98 19.01)" fill="#ffea00"/>
      <path id="Path_82" data-name="Path 82" d="M10.764-31.769l8.2,8.2H10.744Z" transform="translate(5.948 31.785)" opacity="0.35" fill="url(#linear-gradient)"/>
      <path id="Path_83" data-name="Path 83" d="M10.712-10.809l8.2,8.546h-8.22Z" transform="translate(5.98 19.01)" opacity="0.35" fill="url(#linear-gradient-2)"/>
      <path id="Path_84" data-name="Path 84" d="M-2.538,19.082l-8.476-8.122h8.476Z" transform="translate(19.21 5.742)" opacity="0.35" fill="url(#linear-gradient-3)"/>
      <g id="Group_47" data-name="Group 47" transform="translate(0 0)">
        <path id="Path_85" data-name="Path 85" d="M31.758,10.96v.332h0Z" transform="translate(-6.86 5.742)" fill="#fff" opacity="0.15"/>
        <path id="Path_86" data-name="Path 86" d="M-30.008-31.477H-9.094A2,2,0,0,1-7.1-29.485v-.332a2,2,0,0,0-1.992-1.992H-30.008A2,2,0,0,0-32-29.817v.332A2,2,0,0,1-30.008-31.477Z" transform="translate(32 31.809)" fill="#fff" opacity="0.15"/>
      </g>
      <path id="Path_87" data-name="Path 87" d="M-23.764,19.176l.02-8.216H-31.92l7.842,8.216Z" transform="translate(31.952 5.742)" opacity="0.35" fill="url(#linear-gradient-4)"/>
      <path id="Path_88" data-name="Path 88" d="M-9.094,28.04H-23.836v-.02h0v.02h-6.172A2,2,0,0,1-32,26.048v.332a2,2,0,0,0,1.993,1.992H-9.093A2,2,0,0,0-7.1,26.38v-.332A2,2,0,0,1-9.094,28.04Z" transform="translate(32.001 -3.454)" fill="#231f20" opacity="0.08"/>
    </g>
  </g>
</svg>
