<svg xmlns="http://www.w3.org/2000/svg" xmlns:xlink="http://www.w3.org/1999/xlink" width="170.746" height="78.668" viewBox="0 0 170.746 78.668">
  <defs>
    <linearGradient id="linear-gradient" x1="0.5" y1="1" x2="0.5" gradientUnits="objectBoundingBox">
      <stop offset="0" stop-color="#21c2fd"/>
      <stop offset="1" stop-color="#1fd2fb"/>
    </linearGradient>
    <filter id="Path_70" x="0.002" y="7.411" width="55.056" height="55.879" filterUnits="userSpaceOnUse">
      <feOffset dx="-1" input="SourceAlpha"/>
      <feGaussianBlur stdDeviation="6" result="blur"/>
      <feFlood flood-opacity="0.161"/>
      <feComposite operator="in" in2="blur"/>
      <feComposite in="SourceGraphic"/>
    </filter>
    <linearGradient id="linear-gradient-2" x1="0.5" x2="0.5" y2="1" gradientUnits="objectBoundingBox">
      <stop offset="0" stop-color="#feb22a"/>
      <stop offset="1" stop-color="#fee07f"/>
    </linearGradient>
    <filter id="Path_68" x="0" y="22.782" width="54.922" height="55.886" filterUnits="userSpaceOnUse">
      <feOffset dx="-1" input="SourceAlpha"/>
      <feGaussianBlur stdDeviation="6" result="blur-2"/>
      <feFlood flood-opacity="0.161"/>
      <feComposite operator="in" in2="blur-2"/>
      <feComposite in="SourceGraphic"/>
    </filter>
    <linearGradient id="linear-gradient-3" x1="0.5" x2="0.5" y2="1" gradientUnits="objectBoundingBox">
      <stop offset="0" stop-color="#fe9125"/>
      <stop offset="1" stop-color="#fc491e"/>
    </linearGradient>
    <filter id="Path_67" x="20.332" y="22.212" width="54.922" height="55.867" filterUnits="userSpaceOnUse">
      <feOffset dx="-1" input="SourceAlpha"/>
      <feGaussianBlur stdDeviation="6" result="blur-3"/>
      <feFlood flood-opacity="0.161"/>
      <feComposite operator="in" in2="blur-3"/>
      <feComposite in="SourceGraphic"/>
    </filter>
    <linearGradient id="linear-gradient-4" x1="0.5" x2="0.5" y2="1" gradientUnits="objectBoundingBox">
      <stop offset="0" stop-color="#2ebe21"/>
      <stop offset="1" stop-color="#7bdb27"/>
    </linearGradient>
    <filter id="Path_69" x="27.718" y="0" width="55.056" height="55.877" filterUnits="userSpaceOnUse">
      <feOffset dx="-1" input="SourceAlpha"/>
      <feGaussianBlur stdDeviation="6" result="blur-4"/>
      <feFlood flood-opacity="0.161"/>
      <feComposite operator="in" in2="blur-4"/>
      <feComposite in="SourceGraphic"/>
    </filter>
  </defs>
  <g id="Component_8_1" data-name="Component 8 – 1" transform="translate(19 15.689)">
    <path id="appypie" d="M14.77-12.122V.9H11.645L11.278-.489A3.657,3.657,0,0,1,9.453.877a7.215,7.215,0,0,1-2.219.341A6.045,6.045,0,0,1,4.673.68,6.415,6.415,0,0,1,2.638-.791,6.778,6.778,0,0,1,1.286-2.97,7.279,7.279,0,0,1,.8-5.635,7.279,7.279,0,0,1,1.286-8.3a6.778,6.778,0,0,1,1.352-2.18,6.415,6.415,0,0,1,2.035-1.471,6.045,6.045,0,0,1,2.56-.538,6.534,6.534,0,0,1,2.311.394,3.911,3.911,0,0,1,1.733,1.26l.368-1.287ZM11.146-5.583a4.691,4.691,0,0,0-.276-1.72,3.085,3.085,0,0,0-.735-1.129,2.78,2.78,0,0,0-1.077-.63,4.338,4.338,0,0,0-1.326-.2,3.089,3.089,0,0,0-1.326.289,3.691,3.691,0,0,0-1.09.775A3.433,3.433,0,0,0,4.581-7.04a3.814,3.814,0,0,0-.263,1.4,3.783,3.783,0,0,0,.263,1.418,3.463,3.463,0,0,0,.735,1.142,3.691,3.691,0,0,0,1.09.775,3.089,3.089,0,0,0,1.326.289,3.478,3.478,0,0,0,2.4-.88A3.5,3.5,0,0,0,11.146-5.583Zm13.5-6.906a6.134,6.134,0,0,1,2.573.538,6.226,6.226,0,0,1,2.035,1.471A6.9,6.9,0,0,1,30.592-8.3a7.279,7.279,0,0,1,.486,2.665,7.279,7.279,0,0,1-.486,2.665,6.9,6.9,0,0,1-1.339,2.18A6.226,6.226,0,0,1,27.217.68a6.134,6.134,0,0,1-2.573.538A6.19,6.19,0,0,1,22.438.811,4.483,4.483,0,0,1,20.757-.226V6.1H17.134V-12.122h3.1l.525.893a4.506,4.506,0,0,1,1.707-.972A7.47,7.47,0,0,1,24.644-12.489ZM24.171-2.012A3.089,3.089,0,0,0,25.5-2.3a3.524,3.524,0,0,0,1.077-.775,3.766,3.766,0,0,0,.735-1.142,3.625,3.625,0,0,0,.276-1.418,3.654,3.654,0,0,0-.276-1.4A3.726,3.726,0,0,0,26.574-8.2,3.524,3.524,0,0,0,25.5-8.97a3.089,3.089,0,0,0-1.326-.289,4.338,4.338,0,0,0-1.326.2,2.78,2.78,0,0,0-1.077.63A2.955,2.955,0,0,0,21.046-7.3a4.729,4.729,0,0,0-.263,1.667,4.346,4.346,0,0,0,.263,1.589,3.251,3.251,0,0,0,.722,1.129,2.9,2.9,0,0,0,1.077.683A3.87,3.87,0,0,0,24.171-2.012ZM40.163-12.489a6.134,6.134,0,0,1,2.573.538,6.226,6.226,0,0,1,2.035,1.471A6.9,6.9,0,0,1,46.111-8.3,7.279,7.279,0,0,1,46.6-5.635a7.279,7.279,0,0,1-.486,2.665,6.9,6.9,0,0,1-1.339,2.18A6.226,6.226,0,0,1,42.737.68a6.134,6.134,0,0,1-2.573.538A6.19,6.19,0,0,1,37.958.811,4.483,4.483,0,0,1,36.277-.226V6.1H32.653V-12.122h3.1l.525.893a4.506,4.506,0,0,1,1.707-.972A7.47,7.47,0,0,1,40.163-12.489ZM39.691-2.012A3.089,3.089,0,0,0,41.017-2.3a3.524,3.524,0,0,0,1.077-.775,3.766,3.766,0,0,0,.735-1.142A3.624,3.624,0,0,0,43.1-5.635a3.654,3.654,0,0,0-.276-1.4A3.726,3.726,0,0,0,42.093-8.2a3.524,3.524,0,0,0-1.077-.775,3.089,3.089,0,0,0-1.326-.289,4.338,4.338,0,0,0-1.326.2,2.78,2.78,0,0,0-1.077.63A2.955,2.955,0,0,0,36.566-7.3,4.729,4.729,0,0,0,36.3-5.635a4.345,4.345,0,0,0,.263,1.589,3.251,3.251,0,0,0,.722,1.129,2.9,2.9,0,0,0,1.077.683A3.87,3.87,0,0,0,39.691-2.012ZM58.2-12.122h3.965L53.95,6.1H49.984l3.23-7.169L47.7-12.122h4.044l3.388,6.8Zm13-.368a6.134,6.134,0,0,1,2.573.538,6.226,6.226,0,0,1,2.035,1.471A6.9,6.9,0,0,1,77.15-8.3a7.279,7.279,0,0,1,.486,2.665A7.279,7.279,0,0,1,77.15-2.97a6.9,6.9,0,0,1-1.339,2.18A6.226,6.226,0,0,1,73.776.68a6.134,6.134,0,0,1-2.573.538A6.19,6.19,0,0,1,69,.811,4.483,4.483,0,0,1,67.316-.226V6.1H63.692V-12.122h3.1l.525.893a4.506,4.506,0,0,1,1.707-.972A7.47,7.47,0,0,1,71.2-12.489ZM70.73-2.012A3.089,3.089,0,0,0,72.056-2.3a3.523,3.523,0,0,0,1.077-.775,3.767,3.767,0,0,0,.735-1.142,3.625,3.625,0,0,0,.276-1.418,3.654,3.654,0,0,0-.276-1.4A3.726,3.726,0,0,0,73.132-8.2a3.523,3.523,0,0,0-1.077-.775,3.089,3.089,0,0,0-1.326-.289,4.338,4.338,0,0,0-1.326.2,2.78,2.78,0,0,0-1.077.63A2.955,2.955,0,0,0,67.6-7.3a4.729,4.729,0,0,0-.263,1.667A4.346,4.346,0,0,0,67.6-4.047a3.251,3.251,0,0,0,.722,1.129,2.9,2.9,0,0,0,1.077.683A3.87,3.87,0,0,0,70.73-2.012ZM83.124.9H79.5V-12.122h3.624Zm-1.812-14.81a1.928,1.928,0,0,1-1.418-.578,1.928,1.928,0,0,1-.578-1.418,1.972,1.972,0,0,1,.578-1.431,1.906,1.906,0,0,1,1.418-.591,1.906,1.906,0,0,1,1.418.591,1.972,1.972,0,0,1,.578,1.431,1.928,1.928,0,0,1-.578,1.418A1.928,1.928,0,0,1,81.312-13.907Zm10.95,1.418a6.014,6.014,0,0,1,2.678.591,6.782,6.782,0,0,1,2.075,1.549,6.9,6.9,0,0,1,1.339,2.206,7.169,7.169,0,0,1,.473,2.56,7.353,7.353,0,0,1-.21,1.681h-9.3a4.482,4.482,0,0,0,1.5,1.51,3.845,3.845,0,0,0,2.1.617A9.494,9.494,0,0,0,94.9-1.959a11.194,11.194,0,0,0,1.615-.473L97.725-.2A7.528,7.528,0,0,1,95.506.851a9.385,9.385,0,0,1-2.665.368A7.673,7.673,0,0,1,89.952.68,7.591,7.591,0,0,1,87.615-.777a6.758,6.758,0,0,1-1.576-2.18,6.353,6.353,0,0,1-.578-2.678,6.731,6.731,0,0,1,.525-2.639,6.758,6.758,0,0,1,1.457-2.18,7.171,7.171,0,0,1,2.166-1.484A6.427,6.427,0,0,1,92.263-12.489ZM95.23-6.712A3.686,3.686,0,0,0,94.1-8.55a2.725,2.725,0,0,0-1.838-.709,2.906,2.906,0,0,0-1.9.709A3.574,3.574,0,0,0,89.19-6.712Z" transform="translate(52.919 30.609)"/>
    <g id="Group_19" data-name="Group 19" transform="translate(0 0)">
      <g id="Group_18" data-name="Group 18" transform="translate(0.002 7.414)">
        <g id="Path_57" data-name="Path 57" transform="translate(22.249 0) rotate(90)">
          <path id="Path_65" data-name="Path 65" d="M11.756,10.447a1.3,1.3,0,0,1-1.3,1.3h0C3.45,11.941-.145,6.658,0,1.3A1.3,1.3,0,0,1,1.307,0H10.45a1.3,1.3,0,0,1,1.3,1.3h0Z" transform="translate(5.195 5.194)" fill="none"/>
          <path id="Path_66" data-name="Path 66" d="M16.568,16.562a1.3,1.3,0,0,1-.921.382c-7,.189-10.6-5.093-10.447-10.447a1.3,1.3,0,0,1,1.3-1.3h9.144a1.3,1.3,0,0,1,1.3,1.3v9.144a1.3,1.3,0,0,1-.382.921m3.673,3.673a6.453,6.453,0,0,0,1.9-4.594V6.5a6.5,6.5,0,0,0-6.5-6.5H6.5A6.457,6.457,0,0,0,1.909,1.9,6.826,6.826,0,0,0,.006,6.5,15.4,15.4,0,0,0,4.457,17.769a15.017,15.017,0,0,0,11.33,4.368,6.367,6.367,0,0,0,4.454-1.9Z" transform="translate(0 0)" fill="#21c2fd"/>
        </g>
        <g transform="matrix(1, 0, 0, 1, -19, -23.1)" filter="url(#Path_70)">
          <path id="Path_70-2" data-name="Path 70" d="M17.062,12.546A4.02,4.02,0,0,1,19.039,15.4c.144,1.85-.584,4.321-3.2,4.458-2.606.031-6.442.023-9.18,0C1.9,19.889-.178,15.882.012,12.311A15.065,15.065,0,0,1,5.483,1.25C8.081-.917,12.757-.2,15.66,2.871c0-.015-10.192-.306-10.362,10.263,0,0-.131,1.452,1.68,1.406,2.64-.025,9.228.056,9.277-.125C17.014,14.134,17.072,13.455,17.062,12.546Z" transform="translate(19 25.41)" fill="url(#linear-gradient)"/>
        </g>
      </g>
      <g id="Group_16" data-name="Group 16" transform="translate(0 25.094)">
        <g id="Path_57-2" data-name="Path 57" transform="translate(0 0.047)">
          <path id="Path_65-2" data-name="Path 65" d="M909.2,694.332a1.3,1.3,0,0,1-1.3,1.3h0c-7,.19-10.6-5.093-10.447-10.447a1.3,1.3,0,0,1,1.3-1.3h9.142a1.3,1.3,0,0,1,1.3,1.3h0Z" transform="translate(-892.244 -678.691)" fill="none"/>
          <path id="Path_66-2" data-name="Path 66" d="M905.006,691.448a1.3,1.3,0,0,1-.921.382c-7,.189-10.6-5.093-10.447-10.447a1.3,1.3,0,0,1,1.3-1.3h9.144a1.3,1.3,0,0,1,1.3,1.3v9.144a1.3,1.3,0,0,1-.382.921m3.673,3.673a6.452,6.452,0,0,0,1.9-4.594v-9.143a6.5,6.5,0,0,0-6.5-6.5h-9.144a6.457,6.457,0,0,0-4.595,1.9,6.827,6.827,0,0,0-1.9,4.595,15.543,15.543,0,0,0,4.413,11.347,15.045,15.045,0,0,0,11.368,4.292A6.367,6.367,0,0,0,908.679,695.121Z" transform="translate(-888.436 -674.886)" fill="#fec92e"/>
        </g>
        <g transform="matrix(1, 0, 0, 1, -19, -40.78)" filter="url(#Path_68)">
          <path id="Path_68-2" data-name="Path 68" d="M630.582,816.908a4.049,4.049,0,0,0,1.963-2.88c.143-1.867-.6-4.154-3.19-4.292s-6.354-.047-9.074-.025c-4.938-.055-6.817,3.83-6.628,7.433a15.332,15.332,0,0,0,5.188,11.14c2.58,2.187,7.472,1.463,10.355-1.634,0,.015-10.021.381-10.355-10.327,0,0-.068-1.473,1.73-1.427,2.621.026,9.163-.056,9.211.126C630.534,815.306,630.63,816.124,630.582,816.908Z" transform="translate(-594.64 -768.88)" fill="url(#linear-gradient-2)"/>
        </g>
      </g>
      <g id="Group_15" data-name="Group 15" transform="translate(17.11 24.523)">
        <g id="Path_57-3" data-name="Path 57" transform="translate(0 0.047)">
          <path id="Path_65-3" data-name="Path 65" d="M897.439,694.332a1.3,1.3,0,0,0,1.3,1.3h0c7,.189,10.6-5.093,10.447-10.447a1.3,1.3,0,0,0-1.3-1.3h-9.141a1.3,1.3,0,0,0-1.3,1.3h0Z" transform="translate(-892.246 -678.691)" fill="none"/>
          <path id="Path_66-3" data-name="Path 66" d="M894.018,691.448a1.3,1.3,0,0,0,.921.382c7,.189,10.6-5.093,10.447-10.447a1.3,1.3,0,0,0-1.3-1.3h-9.145a1.3,1.3,0,0,0-1.3,1.3v9.144a1.3,1.3,0,0,0,.383.921m-3.673,3.673a6.453,6.453,0,0,1-1.9-4.594v-9.143a6.5,6.5,0,0,1,6.5-6.5h9.144a6.456,6.456,0,0,1,4.595,1.9,6.826,6.826,0,0,1,1.9,4.595,15.543,15.543,0,0,1-4.413,11.347,15.045,15.045,0,0,1-11.368,4.292,6.366,6.366,0,0,1-4.455-1.9Z" transform="translate(-888.442 -674.886)" fill="#fc491e"/>
        </g>
        <g transform="matrix(1, 0, 0, 1, -36.11, -40.21)" filter="url(#Path_67)">
          <path id="Path_67-2" data-name="Path 67" d="M615.618,816.908a4.049,4.049,0,0,1-1.963-2.88c-.143-1.867.6-4.154,3.19-4.292s6.354-.047,9.074-.025c4.938-.055,6.817,3.83,6.628,7.433a15.5,15.5,0,0,1-5.213,11.1c-2.58,2.187-7.443,1.525-10.325-1.573,0,.015,10.017.358,10.35-10.348,0,0,.068-1.473-1.73-1.427-2.621.025-9.163-.056-9.211.126C615.666,815.306,615.57,816.124,615.618,816.908Z" transform="translate(-574.31 -769.45)" fill="url(#linear-gradient-3)"/>
        </g>
      </g>
      <g id="Group_14" data-name="Group 14" transform="translate(24.524 0)">
        <g id="Path_57-4" data-name="Path 57" transform="translate(22.144 0) rotate(90)">
          <path id="Path_65-4" data-name="Path 65" d="M11.756,1.307a1.3,1.3,0,0,0-1.3-1.3h0C3.45-.185-.145,5.1,0,10.452a1.3,1.3,0,0,0,1.3,1.3H10.45a1.3,1.3,0,0,0,1.3-1.3h0Z" transform="translate(5.195 5.194)" fill="none"/>
          <path id="Path_66-4" data-name="Path 66" d="M16.568,5.581a1.3,1.3,0,0,0-.921-.382c-7-.188-10.6,5.093-10.447,10.447a1.3,1.3,0,0,0,1.3,1.3h9.144a1.3,1.3,0,0,0,1.3-1.3V6.5a1.3,1.3,0,0,0-.382-.921m3.673-3.673a6.453,6.453,0,0,1,1.9,4.594v9.143a6.5,6.5,0,0,1-6.5,6.5H6.5a6.457,6.457,0,0,1-4.595-1.9,6.826,6.826,0,0,1-1.9-4.595A15.4,15.4,0,0,1,4.457,4.375,15.018,15.018,0,0,1,15.788.007a6.367,6.367,0,0,1,4.454,1.9Z" transform="translate(0 0)" fill="#25bb21"/>
        </g>
        <g transform="matrix(1, 0, 0, 1, -43.52, -15.69)" filter="url(#Path_69)">
          <path id="Path_69-2" data-name="Path 69" d="M17.062,7.332a4.02,4.02,0,0,0,1.977-2.854c.144-1.85-.585-4.321-3.2-4.458C13.235-.011,9.4,0,6.661.02,1.9-.011-.178,4,.012,7.567A15.058,15.058,0,0,0,5.483,18.627c2.6,2.167,7.275,1.449,10.178-1.621,0,.015-10.192.306-10.361-10.263,0,0-.131-1.452,1.68-1.406,2.64.025,9.228-.056,9.277.125C17.013,5.744,17.072,6.423,17.062,7.332Z" transform="translate(65.77 37.88) rotate(180)" fill="url(#linear-gradient-4)"/>
        </g>
      </g>
    </g>
  </g>
</svg>
