<svg id="Group_5232" data-name="Group 5232" xmlns="http://www.w3.org/2000/svg" width="115.874" height="20.77" viewBox="0 0 115.874 20.77">
  <path id="ic_star_24px" d="M12.932,18.693l6.756,4.077-1.793-7.685,5.969-5.171L16,9.248,12.932,2,9.86,9.248,2,9.914l5.969,5.171L6.176,22.77Z" transform="translate(-2 -2)" fill="#f0cf4a"/>
  <path id="ic_star_24px-2" data-name="ic_star_24px" d="M12.932,18.693l6.756,4.077-1.793-7.685,5.969-5.171L16,9.248,12.932,2,9.86,9.248,2,9.914l5.969,5.171L6.176,22.77Z" transform="translate(21.503 -2)" fill="#f0cf4a"/>
  <path id="ic_star_24px-3" data-name="ic_star_24px" d="M12.932,18.693l6.756,4.077-1.793-7.685,5.969-5.171L16,9.248,12.932,2,9.86,9.248,2,9.914l5.969,5.171L6.176,22.77Z" transform="translate(45.005 -2)" fill="#f0cf4a"/>
  <path id="ic_star_24px-4" data-name="ic_star_24px" d="M12.932,18.693l6.756,4.077-1.793-7.685,5.969-5.171L16,9.248,12.932,2,9.86,9.248,2,9.914l5.969,5.171L6.176,22.77Z" transform="translate(68.508 -2)" fill="#f0cf4a"/>
  <path id="ic_star_24px-5" data-name="ic_star_24px" d="M12.932,18.693l6.756,4.077-1.793-7.685,5.969-5.171L16,9.248,12.932,2,9.86,9.248,2,9.914l5.969,5.171L6.176,22.77Z" transform="translate(92.011 -2)" fill="#f0cf4a"/>
</svg>
