<svg id="trustpilot_1_" data-name="trustpilot (1)" xmlns="http://www.w3.org/2000/svg" width="102.807" height="25.244" viewBox="0 0 102.807 25.244">
  <path id="Path_89" data-name="Path 89" d="M297.609,98.6h10.408v1.942h-4.092v10.916h-2.25V100.542H297.6V98.6Zm9.963,3.548H309.5v1.8h.036a2.112,2.112,0,0,1,.354-.735,3.271,3.271,0,0,1,.626-.653,3.335,3.335,0,0,1,.817-.481,2.5,2.5,0,0,1,.916-.181c.236,0,.408.009.5.018s.182.027.281.036v1.978c-.145-.027-.29-.045-.445-.064a3.773,3.773,0,0,0-.445-.027,2.4,2.4,0,0,0-.98.209,2.258,2.258,0,0,0-.8.608,3.086,3.086,0,0,0-.544,1,4.23,4.23,0,0,0-.2,1.37v4.428h-2.051v-9.3Zm14.881,9.31h-2.014v-1.3H320.4a2.8,2.8,0,0,1-1.125,1.125,3.079,3.079,0,0,1-1.524.426,3.414,3.414,0,0,1-2.659-.907,4.013,4.013,0,0,1-.817-2.749v-5.907h2.051v5.707a2.508,2.508,0,0,0,.472,1.733,1.709,1.709,0,0,0,1.316.508,2.522,2.522,0,0,0,1.08-.2,1.821,1.821,0,0,0,.7-.535,2.056,2.056,0,0,0,.39-.8,3.932,3.932,0,0,0,.118-1.007v-5.4h2.051Zm3.493-2.985a1.58,1.58,0,0,0,.681,1.261,2.746,2.746,0,0,0,1.425.363,6.092,6.092,0,0,0,.653-.045,2.743,2.743,0,0,0,.69-.172,1.326,1.326,0,0,0,.535-.372.9.9,0,0,0,.191-.635.876.876,0,0,0-.29-.644,2.042,2.042,0,0,0-.69-.408,6.921,6.921,0,0,0-.962-.263c-.363-.073-.726-.154-1.1-.236a10.427,10.427,0,0,1-1.107-.309,3.382,3.382,0,0,1-.953-.49,2.155,2.155,0,0,1-.671-.78,2.44,2.44,0,0,1-.254-1.18,2.126,2.126,0,0,1,.372-1.27,2.819,2.819,0,0,1,.935-.826,4.332,4.332,0,0,1,1.261-.445,7.678,7.678,0,0,1,1.325-.127,6.176,6.176,0,0,1,1.379.154,3.554,3.554,0,0,1,1.189.5,2.939,2.939,0,0,1,.88.889,3.1,3.1,0,0,1,.445,1.325H329.74a1.277,1.277,0,0,0-.671-.989,2.751,2.751,0,0,0-1.216-.254,3.817,3.817,0,0,0-.517.036,2.831,2.831,0,0,0-.563.136,1.221,1.221,0,0,0-.445.29.7.7,0,0,0-.181.5.776.776,0,0,0,.263.608,2.2,2.2,0,0,0,.681.39,6.922,6.922,0,0,0,.962.263c.363.073.735.154,1.116.236s.735.191,1.1.309a3.313,3.313,0,0,1,.962.49,2.416,2.416,0,0,1,.681.771,2.353,2.353,0,0,1,.263,1.152,2.507,2.507,0,0,1-.381,1.406,3.017,3.017,0,0,1-.98.935,4.607,4.607,0,0,1-1.343.526,6.737,6.737,0,0,1-1.461.163,6.2,6.2,0,0,1-1.633-.2,3.976,3.976,0,0,1-1.3-.6,2.969,2.969,0,0,1-.862-1.007,3.307,3.307,0,0,1-.336-1.434h2.069Zm6.769-6.325h1.552V99.353h2.051v2.795h1.851v1.534h-1.851v4.972a5.062,5.062,0,0,0,.027.563,1.035,1.035,0,0,0,.127.4.582.582,0,0,0,.3.245,1.462,1.462,0,0,0,.544.082c.145,0,.29,0,.436-.009a2.4,2.4,0,0,0,.435-.064v1.588c-.227.027-.454.045-.662.073a5.306,5.306,0,0,1-.662.036,4.59,4.59,0,0,1-1.307-.154,1.7,1.7,0,0,1-.771-.454,1.575,1.575,0,0,1-.381-.744,5.589,5.589,0,0,1-.118-1.025V103.7h-1.552v-1.552Zm6.905,0h1.942v1.261h.036a2.533,2.533,0,0,1,1.207-1.161,3.977,3.977,0,0,1,1.679-.354,4.346,4.346,0,0,1,1.915.39,3.742,3.742,0,0,1,1.361,1.062,4.646,4.646,0,0,1,.808,1.579,6.616,6.616,0,0,1,.272,1.924,6.687,6.687,0,0,1-.245,1.815,4.86,4.86,0,0,1-.735,1.561,3.609,3.609,0,0,1-1.252,1.08,3.714,3.714,0,0,1-1.787.408,5.012,5.012,0,0,1-.9-.082,3.956,3.956,0,0,1-.862-.263,3.115,3.115,0,0,1-.762-.463,2.874,2.874,0,0,1-.59-.653h-.036V114.9h-2.051Zm7.168,4.664a4.635,4.635,0,0,0-.163-1.225,3.3,3.3,0,0,0-.49-1.053,2.5,2.5,0,0,0-.807-.735,2.493,2.493,0,0,0-3.067.617,3.986,3.986,0,0,0-.653,2.4,4.6,4.6,0,0,0,.172,1.307,2.919,2.919,0,0,0,.517,1.034,2.449,2.449,0,0,0,.817.681,2.559,2.559,0,0,0,2.3-.036,2.51,2.51,0,0,0,.8-.744,3.093,3.093,0,0,0,.454-1.044A5.833,5.833,0,0,0,346.79,106.812Zm3.62-8.212h2.051v1.942H350.41Zm0,3.548h2.051v9.31H350.41Zm3.884-3.548h2.051v12.858h-2.051Zm8.339,13.112a5.072,5.072,0,0,1-1.987-.372,4.164,4.164,0,0,1-2.4-2.568,5.988,5.988,0,0,1-.318-1.978,5.918,5.918,0,0,1,.318-1.96,4.426,4.426,0,0,1,.916-1.552,4.18,4.18,0,0,1,1.479-1.016,5.493,5.493,0,0,1,3.974,0,4.164,4.164,0,0,1,2.4,2.568,5.916,5.916,0,0,1,.318,1.96,5.987,5.987,0,0,1-.318,1.978,4.426,4.426,0,0,1-.916,1.552,4.179,4.179,0,0,1-1.479,1.016,5.071,5.071,0,0,1-1.987.372Zm0-1.624a2.377,2.377,0,0,0,1.189-.29,2.529,2.529,0,0,0,.826-.753,3.378,3.378,0,0,0,.481-1.053,4.689,4.689,0,0,0,0-2.386,3.1,3.1,0,0,0-.481-1.053,2.5,2.5,0,0,0-.826-.744,2.578,2.578,0,0,0-2.377,0,2.605,2.605,0,0,0-.826.744,3.285,3.285,0,0,0-.481,1.053,4.691,4.691,0,0,0,0,2.386,3.184,3.184,0,0,0,.481,1.053,2.529,2.529,0,0,0,.826.753A2.287,2.287,0,0,0,362.633,110.088Zm5.3-7.94h1.552V99.353h2.051v2.795h1.851v1.534h-1.851v4.972a5.077,5.077,0,0,0,.027.563,1.036,1.036,0,0,0,.127.4.582.582,0,0,0,.3.245,1.463,1.463,0,0,0,.544.082c.145,0,.29,0,.436-.009a2.4,2.4,0,0,0,.436-.064v1.588c-.227.027-.454.045-.662.073a5.309,5.309,0,0,1-.662.036,4.588,4.588,0,0,1-1.307-.154,1.7,1.7,0,0,1-.771-.454,1.575,1.575,0,0,1-.381-.744,5.6,5.6,0,0,1-.118-1.025V103.7H367.95v-1.552Z" transform="translate(-270.596 -89.653)"/>
  <path id="Path_90" data-name="Path 90" d="M24.617,8.947h-9.4L12.313,0,9.4,8.947,0,8.938l7.613,5.535L4.7,23.411l7.613-5.526,7.6,5.526-2.9-8.938Z" fill="#00b67a"/>
  <path id="Path_91" data-name="Path 91" d="M141.054,161.523,140.4,159.5l-4.7,3.412Z" transform="translate(-123.387 -145.027)" fill="#005128"/>
</svg>
